<svg width="20" height="20" viewBox="0 0 20 20" fill="none" xmlns="http://www.w3.org/2000/svg">
<path d="M14.3871 12.5H14.3763C14.266 12.4975 14.1595 12.4609 14.0722 12.3956C13.9849 12.3303 13.9214 12.2397 13.8911 12.137L12.2555 6.595L11.2568 9.175C11.22 9.2703 11.1541 9.35247 11.0679 9.41054C10.9817 9.46861 10.8792 9.49982 10.7742 9.5H8.70968V8.5H10.4165L11.8395 4.8245C11.8776 4.72595 11.9468 4.64156 12.0373 4.58334C12.1278 4.52513 12.2349 4.49605 12.3435 4.50026C12.452 4.50447 12.5564 4.54175 12.6418 4.60679C12.7272 4.67183 12.7893 4.76132 12.8191 4.8625L14.4248 10.3085L15.4462 7.342C15.4803 7.24244 15.546 7.15582 15.6338 7.09443C15.7216 7.03304 15.8272 7 15.9355 7H18V8H16.3071L14.8764 12.158C14.8423 12.2576 14.7767 12.3443 14.6888 12.4057C14.601 12.4671 14.4954 12.5001 14.3871 12.5ZM9.22581 16H8.19355V12.5C8.19314 12.1023 8.02987 11.721 7.73958 11.4398C7.44929 11.1586 7.05569 11.0004 6.64516 11H4.58065C4.17011 11.0004 3.77651 11.1586 3.48622 11.4398C3.19593 11.721 3.03267 12.1023 3.03226 12.5V16H2V12.5C2.00082 11.8372 2.27297 11.2018 2.75676 10.7331C3.24055 10.2644 3.89647 10.0008 4.58065 10H6.64516C7.32934 10.0008 7.98526 10.2644 8.46905 10.7331C8.95284 11.2018 9.22499 11.8372 9.22581 12.5V16ZM5.6129 5C5.91915 5 6.21851 5.08797 6.47314 5.2528C6.72777 5.41762 6.92623 5.65189 7.04343 5.92597C7.16062 6.20006 7.19128 6.50166 7.13154 6.79264C7.07179 7.08361 6.92432 7.35088 6.70778 7.56066C6.49123 7.77044 6.21534 7.9133 5.91498 7.97118C5.61462 8.02906 5.30329 7.99935 5.02036 7.88582C4.73743 7.77229 4.49561 7.58003 4.32547 7.33336C4.15533 7.08668 4.06452 6.79667 4.06452 6.5C4.06452 6.10218 4.22765 5.72064 4.51803 5.43934C4.80841 5.15804 5.20225 5 5.6129 5ZM5.6129 4C5.1025 4 4.60356 4.14662 4.17917 4.42133C3.75479 4.69603 3.42402 5.08648 3.2287 5.54329C3.03338 6.00011 2.98227 6.50277 3.08184 6.98773C3.18142 7.47268 3.4272 7.91814 3.78811 8.26777C4.14902 8.6174 4.60885 8.8555 5.10944 8.95196C5.61004 9.04843 6.12892 8.99892 6.60047 8.8097C7.07202 8.62048 7.47507 8.30005 7.75863 7.88893C8.0422 7.4778 8.19355 6.99445 8.19355 6.5C8.19355 5.83696 7.92166 5.20107 7.4377 4.73223C6.95373 4.26339 6.29733 4 5.6129 4Z" fill="#548D16"/>
</svg>
