<svg width="18" height="20" viewBox="0 0 18 20" fill="none" xmlns="http://www.w3.org/2000/svg">
<path d="M2.7 6.375C3.55 5.925 4.42933 5.58333 5.338 5.35C6.24667 5.11667 7.17567 5 8.125 5C8.625 5 9.121 5.03333 9.613 5.1C10.105 5.16667 10.5923 5.26667 11.075 5.4C11.9083 5.63333 12.546 5.79167 12.988 5.875C13.43 5.95833 13.9007 6 14.4 6H15.325L15.75 2H2.25L2.7 6.375ZM3.975 20C3.45833 20 3.01267 19.8333 2.638 19.5C2.26333 19.1667 2.05067 18.7417 2 18.225L0 0H18L16 18.225C15.95 18.7417 15.7373 19.1667 15.362 19.5C14.9867 19.8333 14.541 20 14.025 20H3.975Z" fill="#2FCBCB"/>
</svg>
