<svg width="18" height="20" viewBox="0 0 18 20" fill="none" xmlns="http://www.w3.org/2000/svg">
<path fill-rule="evenodd" clip-rule="evenodd" d="M3.5 0C2.96957 0 2.46086 0.210714 2.08579 0.585786C1.71071 0.960859 1.5 1.46957 1.5 2V3C1.23478 3 0.98043 3.10536 0.792893 3.29289C0.605357 3.48043 0.5 3.73478 0.5 4C0.5 4.26522 0.605357 4.51957 0.792893 4.70711C0.98043 4.89464 1.23478 5 1.5 5V7C1.23478 7 0.98043 7.10536 0.792893 7.29289C0.605357 7.48043 0.5 7.73478 0.5 8C0.5 8.26522 0.605357 8.51957 0.792893 8.70711C0.98043 8.89464 1.23478 9 1.5 9V11C1.23478 11 0.98043 11.1054 0.792893 11.2929C0.605357 11.4804 0.5 11.7348 0.5 12C0.5 12.2652 0.605357 12.5196 0.792893 12.7071C0.98043 12.8946 1.23478 13 1.5 13V15C1.23478 15 0.98043 15.1054 0.792893 15.2929C0.605357 15.4804 0.5 15.7348 0.5 16C0.5 16.2652 0.605357 16.5196 0.792893 16.7071C0.98043 16.8946 1.23478 17 1.5 17V18C1.5 18.5304 1.71071 19.0391 2.08579 19.4142C2.46086 19.7893 2.96957 20 3.5 20H15.5C16.0304 20 16.5391 19.7893 16.9142 19.4142C17.2893 19.0391 17.5 18.5304 17.5 18V2C17.5 1.46957 17.2893 0.960859 16.9142 0.585786C16.5391 0.210714 16.0304 0 15.5 0H3.5ZM6 4C5.60218 4 5.22064 4.15804 4.93934 4.43934C4.65804 4.72064 4.5 5.10218 4.5 5.5V6.5C4.5 6.89782 4.65804 7.27936 4.93934 7.56066C5.22064 7.84196 5.60218 8 6 8H13C13.3978 8 13.7794 7.84196 14.0607 7.56066C14.342 7.27936 14.5 6.89782 14.5 6.5V5.5C14.5 5.10218 14.342 4.72064 14.0607 4.43934C13.7794 4.15804 13.3978 4 13 4H6Z" fill="#3F6A11"/>
</svg>
