<svg xmlns="http://www.w3.org/2000/svg" width="75" height="74" fill="none"><g fill="#F8F8F8"><path fill-rule="evenodd" d="M49.723 11.53c-6.147 3.027-9.335 7.285-9.335 12.679 0 5.18 2.951 8.683 8.538 10.334v5.303a1.423 1.423 0 1 0 2.847 0V12.807a1.424 1.424 0 0 0-2.05-1.278Zm-6.489 12.679c0-3.61 1.85-6.586 5.692-8.988v16.337c-3.882-1.358-5.692-3.76-5.692-7.35Z" clip-rule="evenodd"/><path fill-rule="evenodd" d="M46.08 44.115v14.23a4.27 4.27 0 0 0 8.539 0v-14.23a4.27 4.27 0 1 0-8.539 0Zm4.27 15.654a1.423 1.423 0 0 1-1.424-1.423V44.114a1.423 1.423 0 1 1 2.847 0v14.23a1.423 1.423 0 0 1-1.423 1.424Z" clip-rule="evenodd"/><path d="M21.98 15.582a1.425 1.425 0 0 1 2.845.143c-.239 4.758.009 7.998.675 9.603.52 1.258 1.548 1.804 3.421 1.699a1.423 1.423 0 0 1 .165 2.84c-3.011.171-5.197-.993-6.216-3.446-.874-2.107-1.147-5.681-.89-10.838Z"/><path d="M36.025 15.582a1.421 1.421 0 0 0-2.045-1.263 1.422 1.422 0 0 0-.796 1.406c.236 4.758-.011 7.997-.677 9.603-.521 1.258-1.549 1.804-3.421 1.699a1.423 1.423 0 0 0-.165 2.84c3.01.17 5.197-.993 6.215-3.447.874-2.106 1.147-5.68.889-10.838Z"/><path d="M27.58 15.653a1.423 1.423 0 0 1 2.847 0V41.27a1.424 1.424 0 0 1-2.847 0V15.653Z"/><path fill-rule="evenodd" d="M24.734 44.115v14.23a4.27 4.27 0 0 0 8.539 0v-14.23a4.27 4.27 0 1 0-8.539 0Zm4.27 15.654a1.423 1.423 0 0 1-1.424-1.423V44.114a1.423 1.423 0 1 1 2.846 0v14.23a1.423 1.423 0 0 1-1.423 1.424Z" clip-rule="evenodd"/><path fill-rule="evenodd" d="M37.542 69.73c18.076 0 32.73-14.655 32.73-32.73 0-18.076-14.654-32.731-32.73-32.731-18.076 0-32.731 14.655-32.731 32.73 0 18.076 14.655 32.731 32.73 32.731Zm0 2.846c19.65 0 35.577-15.927 35.577-35.576 0-19.65-15.928-35.577-35.577-35.577-19.65 0-35.577 15.927-35.577 35.576 0 19.65 15.927 35.577 35.577 35.577Z" clip-rule="evenodd"/></g></svg>