<svg xmlns="http://www.w3.org/2000/svg" width="246" height="237" fill="none"><path fill="#CAEDA4" d="M222.156 63.906S201.625 34.954 142.723 33.3c-58.902-1.654-64.624 26.884-79.77 35.57-15.146 8.684-46.111 6.617-56.882 31.019-10.77 24.402-11.444 94.3 33.994 108.776 45.439 14.476 63.614-16.544 88.521-13.235 24.907 3.309 48.132 21.507 82.463 16.957 34.331-4.55 38.37-83.133 32.984-107.535-5.384-24.402-21.877-40.946-21.877-40.946Z"/><path fill="#93DA46" d="M64.389 161.279c.016.048 2.69-1.967 2.843-2.113 1.783-1.696 4.23-6.021 3.036-8.503-.861-1.789-3.072-2.22-4.696-1.225-1.658 1.016-2.395 3.296-2.574 5.125-.21 2.147 1.39 6.713 1.39 6.716ZM26.771 129.989c1.01 1.907 4.862 4.833 4.865 4.835.04.031 1.157-3.125 1.206-3.332.551-2.398.207-7.355-2.16-8.766-1.704-1.017-3.786-.158-4.591 1.568-.823 1.763-.18 4.07.68 5.695Z"/><path fill="#93DA46" d="M19.355 141.991c1.419 1.511 5.576 3.218 5.907 3.353-.97 2.315-1.78 4.769-2.46 7.298a103.21 103.21 0 0 0-1.073 4.389c.05-.697.091-1.319.088-1.407-.102-2.459-1.743-7.149-4.398-7.886-1.913-.53-3.693.848-4.014 2.726-.329 1.917.902 3.973 2.16 5.313 1.276 1.359 4.79 2.887 5.727 3.278-.122.568-.25 1.133-.368 1.701-.571 2.726-1.13 5.449-1.76 8.101-.22.936-.473 1.848-.723 2.763.045-.619.077-1.14.074-1.22-.101-2.458-1.742-7.149-4.397-7.886-1.913-.53-3.694.849-4.015 2.726-.328 1.917.902 3.974 2.16 5.313 1.218 1.297 4.45 2.736 5.56 3.207-.284.928-.566 1.859-.883 2.746-.23.6-.41 1.195-.674 1.786l-.74 1.753c-.513 1.097-1.035 2.232-1.561 3.29-.36.738-.718 1.435-1.075 2.138.23-.928.645-2.755.662-2.911.273-2.446-.638-7.331-3.151-8.461-1.81-.814-3.78.278-4.382 2.086-.615 1.845.29 4.064 1.33 5.579 1.146 1.668 4.836 3.912 5.298 4.189a165.942 165.942 0 0 1-5.064 9.135l1.41 1.121c.989-1.738 2.126-3.808 3.335-6.154.61-1.177 1.239-2.447 1.872-3.758.331.101 2.221.66 4.051.96.153 2.073 1.868 5.722 2.093 6.191a164.264 164.264 0 0 1-8.948 4.673l1.52 1.21c1.48-.765 3.125-1.644 4.899-2.637a152.254 152.254 0 0 0 3.633-2.102c.338.408 3.12 3.723 4.945 4.604 1.655.799 3.985 1.357 5.716.47 1.695-.869 2.477-2.981 1.398-4.647-1.497-2.313-6.464-2.474-8.84-1.834-.14.038-1.615.617-2.54.998.51-.307 1.008-.598 1.529-.92 1.034-.63 2.047-1.289 3.14-1.993l1.562-1.088c.53-.352 1.043-.79 1.572-1.187a67.137 67.137 0 0 0 3.546-3.014c.553.903 2.565 4.084 4.087 5.13 1.514 1.04 3.733 1.945 5.578 1.33 1.807-.602 2.9-2.571 2.087-4.381-1.13-2.514-6.015-3.425-8.461-3.153-.153.017-1.885.41-2.833.644.694-.637 1.39-1.27 2.07-1.937 1.967-1.927 3.898-3.938 5.832-5.936.593-.613 1.19-1.216 1.786-1.822.194.323 2.504 4.156 4.208 5.328 1.514 1.041 3.733 1.945 5.578 1.33 1.807-.602 2.9-2.571 2.086-4.382-1.13-2.513-6.015-3.424-8.46-3.152-.184.021-2.677.589-3.303.765 1.313-1.334 2.633-2.651 3.987-3.897 1.867-1.721 3.794-3.308 5.774-4.706.09.151 2.482 4.163 4.227 5.362 1.515 1.04 3.733 1.945 5.58 1.33 1.806-.601 2.9-2.57 2.085-4.381-1.13-2.513-6.015-3.425-8.46-3.152-.16.017-2.06.448-2.958.675l-.064-.144c2.14-1.472 4.397-2.629 6.563-3.607a48.74 48.74 0 0 1 3.692-1.478c.369.793 2.096 4.397 3.547 5.65 1.391 1.201 3.497 2.344 5.399 1.935 1.862-.399 3.165-2.237 2.554-4.125-.847-2.622-5.602-4.064-8.063-4.062-.133 0-1.493.152-2.483.276.548-.187 1.11-.391 1.64-.561 1.982-.64 3.837-1.105 5.483-1.503.938-.218 1.79-.398 2.59-.558.767.59 3.892 2.924 5.724 3.36 1.788.424 4.184.468 5.684-.771 1.468-1.213 1.778-3.443.366-4.839-1.96-1.936-6.845-1.025-9.029.11-.188.099-2.962 1.972-2.922 2.004l.046.035c-.772.138-1.599.295-2.498.484-1.658.363-3.529.789-5.533 1.389-2.004.594-4.166 1.297-6.375 2.242-2.216.944-4.499 2.051-6.704 3.495-.025.016-.049.037-.074.053.514-.623 1.892-2.412 1.982-2.562 1.272-2.106 2.49-6.923.682-9.002-1.303-1.498-3.548-1.331-4.852.058-1.331 1.418-1.44 3.812-1.13 5.623.35 2.043 2.875 5.76 3.078 6.055-2.088 1.395-4.116 2.996-6.08 4.73a103.872 103.872 0 0 0-3.315 3.069c.427-.553.804-1.05.85-1.125 1.271-2.107 2.49-6.924.682-9.003-1.303-1.498-3.548-1.331-4.852.058-1.332 1.418-1.44 3.812-1.13 5.623.316 1.838 2.404 5.051 2.969 5.894-.414.406-.833.808-1.245 1.216-1.98 1.958-3.948 3.921-5.937 5.786-.7.658-1.415 1.28-2.127 1.905.379-.491.693-.908.734-.976 1.272-2.107 2.492-6.924.683-9.003-1.303-1.498-3.548-1.33-4.852.058-1.33 1.419-1.44 3.812-1.129 5.624.3 1.754 2.202 4.737 2.868 5.741-.75.618-1.498 1.239-2.25 1.804-.524.374-1.002.77-1.548 1.117l-1.585 1.054c-1.033.632-2.094 1.291-3.117 1.883-.708.417-1.39.801-2.077 1.191.706-.647 2.059-1.942 2.16-2.063 1.047-1.255 2.247-3.697 2.506-5.877.156-.185.295-.382.413-.593.935-1.659.422-3.852-1.397-4.647-2.525-1.103-6.757 1.503-8.385 3.347-.097.108-1.007 1.406-1.568 2.234.256-.537.51-1.055.767-1.611.515-1.096.996-2.203 1.519-3.394l.702-1.769c.248-.585.434-1.236.657-1.858a67.062 67.062 0 0 0 1.294-4.471c.96.449 4.393 1.992 6.24 2.024 1.837.033 4.186-.437 5.387-1.968 1.175-1.499 1-3.744-.678-4.805-2.328-1.473-6.906.462-8.795 2.038-.118.099-1.347 1.381-2.008 2.1.228-.915.459-1.826.66-2.759.576-2.691 1.077-5.434 1.588-8.168.156-.838.322-1.67.485-2.504.34.163 4.38 2.086 6.448 2.122 1.837.033 4.187-.436 5.387-1.967 1.175-1.499 1-3.744-.677-4.805-2.33-1.473-6.907.462-8.796 2.038-.142.119-1.907 1.968-2.333 2.46.359-1.836.734-3.664 1.176-5.45.608-2.466 1.34-4.851 2.22-7.109.158.076 4.367 2.102 6.484 2.139 1.837.033 4.187-.437 5.387-1.968 1.176-1.498 1.001-3.744-.677-4.804-2.33-1.474-6.906.461-8.795 2.038-.125.103-1.471 1.512-2.096 2.196l-.133-.084c.972-2.409 2.217-4.619 3.485-6.631a48.805 48.805 0 0 1 2.264-3.269c.744.458 4.173 2.511 6.075 2.756 1.823.234 4.21.025 5.57-1.365 1.333-1.361 1.407-3.611-.144-4.85-2.154-1.72-6.915-.299-8.966 1.06-.112.073-1.163.95-1.92 1.599.355-.458.71-.938 1.058-1.371 1.3-1.628 2.591-3.039 3.745-4.28.662-.7 1.274-1.319 1.852-1.893.965.067 4.86.291 6.628-.357 1.725-.632 3.748-1.917 4.315-3.777.556-1.822-.417-3.854-2.364-4.238-2.703-.534-6.275 2.921-7.469 5.072-.103.186-1.383 3.279-1.332 3.283l.058.004a82.312 82.312 0 0 0-1.816 1.782c-1.183 1.217-2.509 2.604-3.85 4.21-1.343 1.602-2.758 3.38-4.08 5.387-1.327 2.011-2.62 4.193-3.663 6.614-.011.027-.02.057-.032.084.085-.802.247-3.055.24-3.229-.101-2.459-1.741-7.149-4.397-7.886-1.913-.53-3.694.848-4.015 2.726-.328 1.921.902 3.977 2.16 5.317Z"/><path fill="#93DA46" d="M26.771 129.989c1.01 1.907 4.862 4.833 4.865 4.835.04.031 1.157-3.125 1.206-3.332.551-2.398.207-7.355-2.16-8.766-1.704-1.017-3.786-.158-4.591 1.568-.823 1.763-.18 4.07.68 5.695ZM64.389 161.279c.016.048 2.69-1.967 2.843-2.113 1.783-1.696 4.23-6.021 3.036-8.503-.861-1.789-3.072-2.22-4.696-1.225-1.658 1.016-2.395 3.296-2.574 5.125-.21 2.147 1.39 6.713 1.39 6.716Z" opacity=".3"/><path fill="#93DA46" d="M19.355 141.991c1.419 1.511 5.576 3.218 5.907 3.353-.97 2.315-1.78 4.769-2.46 7.298a103.21 103.21 0 0 0-1.073 4.389c.05-.697.091-1.319.088-1.407-.102-2.459-1.743-7.149-4.398-7.886-1.913-.53-3.693.848-4.014 2.726-.329 1.917.902 3.973 2.16 5.313 1.276 1.359 4.79 2.887 5.727 3.278-.122.568-.25 1.133-.368 1.701-.571 2.726-1.13 5.449-1.76 8.101-.22.936-.473 1.848-.723 2.763.045-.619.077-1.14.074-1.22-.101-2.458-1.742-7.149-4.397-7.886-1.913-.53-3.694.849-4.015 2.726-.328 1.917.902 3.974 2.16 5.313 1.218 1.297 4.45 2.736 5.56 3.207-.284.928-.566 1.859-.883 2.746-.23.6-.41 1.195-.674 1.786l-.74 1.753c-.513 1.097-1.035 2.232-1.561 3.29-.36.738-.718 1.435-1.075 2.138.23-.928.645-2.755.662-2.911.273-2.446-.638-7.331-3.151-8.461-1.81-.814-3.78.278-4.382 2.086-.615 1.845.29 4.064 1.33 5.579 1.146 1.668 4.836 3.912 5.298 4.189a165.942 165.942 0 0 1-5.064 9.135l1.41 1.121c.989-1.738 2.126-3.808 3.335-6.154.61-1.177 1.239-2.447 1.872-3.758.331.101 2.221.66 4.051.96.153 2.073 1.868 5.722 2.093 6.191a164.264 164.264 0 0 1-8.948 4.673l1.52 1.21c1.48-.765 3.125-1.644 4.899-2.637a152.254 152.254 0 0 0 3.633-2.102c.338.408 3.12 3.723 4.945 4.604 1.655.799 3.985 1.357 5.716.47 1.695-.869 2.477-2.981 1.398-4.647-1.497-2.313-6.464-2.474-8.84-1.834-.14.038-1.615.617-2.54.998.51-.307 1.008-.598 1.529-.92 1.034-.63 2.047-1.289 3.14-1.993l1.562-1.088c.53-.352 1.043-.79 1.572-1.187a67.137 67.137 0 0 0 3.546-3.014c.553.903 2.565 4.084 4.087 5.13 1.514 1.04 3.733 1.945 5.578 1.33 1.807-.602 2.9-2.571 2.087-4.381-1.13-2.514-6.015-3.425-8.461-3.153-.153.017-1.885.41-2.833.644.694-.637 1.39-1.27 2.07-1.937 1.967-1.927 3.898-3.938 5.832-5.936.593-.613 1.19-1.216 1.786-1.822.194.323 2.504 4.156 4.208 5.328 1.514 1.041 3.733 1.945 5.578 1.33 1.807-.602 2.9-2.571 2.086-4.382-1.13-2.513-6.015-3.424-8.46-3.152-.184.021-2.677.589-3.303.765 1.313-1.334 2.633-2.651 3.987-3.897 1.867-1.721 3.794-3.308 5.774-4.706.09.151 2.482 4.163 4.227 5.362 1.515 1.04 3.733 1.945 5.58 1.33 1.806-.601 2.9-2.57 2.085-4.381-1.13-2.513-6.015-3.425-8.46-3.152-.16.017-2.06.448-2.958.675l-.064-.144c2.14-1.472 4.397-2.629 6.563-3.607a48.74 48.74 0 0 1 3.692-1.478c.369.793 2.096 4.397 3.547 5.65 1.391 1.201 3.497 2.344 5.399 1.935 1.862-.399 3.165-2.237 2.554-4.125-.847-2.622-5.602-4.064-8.063-4.062-.133 0-1.493.152-2.483.276.548-.187 1.11-.391 1.64-.561 1.982-.64 3.837-1.105 5.483-1.503.938-.218 1.79-.398 2.59-.558.767.59 3.892 2.924 5.724 3.36 1.788.424 4.184.468 5.684-.771 1.468-1.213 1.778-3.443.366-4.839-1.96-1.936-6.845-1.025-9.029.11-.188.099-2.962 1.972-2.922 2.004l.046.035c-.772.138-1.599.295-2.498.484-1.658.363-3.529.789-5.533 1.389-2.004.594-4.166 1.297-6.375 2.242-2.216.944-4.499 2.051-6.704 3.495-.025.016-.049.037-.074.053.514-.623 1.892-2.412 1.982-2.562 1.272-2.106 2.49-6.923.682-9.002-1.303-1.498-3.548-1.331-4.852.058-1.331 1.418-1.44 3.812-1.13 5.623.35 2.043 2.875 5.76 3.078 6.055-2.088 1.395-4.116 2.996-6.08 4.73a103.872 103.872 0 0 0-3.315 3.069c.427-.553.804-1.05.85-1.125 1.271-2.107 2.49-6.924.682-9.003-1.303-1.498-3.548-1.331-4.852.058-1.332 1.418-1.44 3.812-1.13 5.623.316 1.838 2.404 5.051 2.969 5.894-.414.406-.833.808-1.245 1.216-1.98 1.958-3.948 3.921-5.937 5.786-.7.658-1.415 1.28-2.127 1.905.379-.491.693-.908.734-.976 1.272-2.107 2.492-6.924.683-9.003-1.303-1.498-3.548-1.33-4.852.058-1.33 1.419-1.44 3.812-1.129 5.624.3 1.754 2.202 4.737 2.868 5.741-.75.618-1.498 1.239-2.25 1.804-.524.374-1.002.77-1.548 1.117l-1.585 1.054c-1.033.632-2.094 1.291-3.117 1.883-.708.417-1.39.801-2.077 1.191.706-.647 2.059-1.942 2.16-2.063 1.047-1.255 2.247-3.697 2.506-5.877.156-.185.295-.382.413-.593.935-1.659.422-3.852-1.397-4.647-2.525-1.103-6.757 1.503-8.385 3.347-.097.108-1.007 1.406-1.568 2.234.256-.537.51-1.055.767-1.611.515-1.096.996-2.203 1.519-3.394l.702-1.769c.248-.585.434-1.236.657-1.858a67.062 67.062 0 0 0 1.294-4.471c.96.449 4.393 1.992 6.24 2.024 1.837.033 4.186-.437 5.387-1.968 1.175-1.499 1-3.744-.678-4.805-2.328-1.473-6.906.462-8.795 2.038-.118.099-1.347 1.381-2.008 2.1.228-.915.459-1.826.66-2.759.576-2.691 1.077-5.434 1.588-8.168.156-.838.322-1.67.485-2.504.34.163 4.38 2.086 6.448 2.122 1.837.033 4.187-.436 5.387-1.967 1.175-1.499 1-3.744-.677-4.805-2.33-1.473-6.907.462-8.796 2.038-.142.119-1.907 1.968-2.333 2.46.359-1.836.734-3.664 1.176-5.45.608-2.466 1.34-4.851 2.22-7.109.158.076 4.367 2.102 6.484 2.139 1.837.033 4.187-.437 5.387-1.968 1.176-1.498 1.001-3.744-.677-4.804-2.33-1.474-6.906.461-8.795 2.038-.125.103-1.471 1.512-2.096 2.196l-.133-.084c.972-2.409 2.217-4.619 3.485-6.631a48.805 48.805 0 0 1 2.264-3.269c.744.458 4.173 2.511 6.075 2.756 1.823.234 4.21.025 5.57-1.365 1.333-1.361 1.407-3.611-.144-4.85-2.154-1.72-6.915-.299-8.966 1.06-.112.073-1.163.95-1.92 1.599.355-.458.71-.938 1.058-1.371 1.3-1.628 2.591-3.039 3.745-4.28.662-.7 1.274-1.319 1.852-1.893.965.067 4.86.291 6.628-.357 1.725-.632 3.748-1.917 4.315-3.777.556-1.822-.417-3.854-2.364-4.238-2.703-.534-6.275 2.921-7.469 5.072-.103.186-1.383 3.279-1.332 3.283l.058.004a82.312 82.312 0 0 0-1.816 1.782c-1.183 1.217-2.509 2.604-3.85 4.21-1.343 1.602-2.758 3.38-4.08 5.387-1.327 2.011-2.62 4.193-3.663 6.614-.011.027-.02.057-.032.084.085-.802.247-3.055.24-3.229-.101-2.459-1.741-7.149-4.397-7.886-1.913-.53-3.694.848-4.015 2.726-.328 1.921.902 3.977 2.16 5.317Z" opacity=".3"/><path fill="#93DA46" d="M226.762 145.683c.049.012-.182-3.327-.22-3.536-.449-2.42-2.737-6.831-5.469-7.183-1.969-.255-3.536 1.362-3.589 3.266-.053 1.945 1.456 3.805 2.891 4.954 1.685 1.347 6.383 2.498 6.387 2.499ZM180.015 160.136c2.148.195 6.703-1.437 6.706-1.439.048-.017-1.986-2.675-2.134-2.828-1.708-1.771-6.05-4.187-8.525-2.975-1.782.874-2.197 3.088-1.191 4.705 1.028 1.651 3.313 2.371 5.144 2.537Z"/><path fill="#93DA46" d="M186.027 172.899c2.04-.365 5.739-2.916 6.033-3.12 1.41 2.076 3.026 4.093 4.773 6.044.997 1.117 2.037 2.21 3.093 3.293a38.173 38.173 0 0 0-1.131-.841c-2.116-1.256-6.942-2.441-9.008-.617-1.488 1.314-1.304 3.558.094 4.851 1.427 1.321 3.822 1.412 5.631 1.089 1.836-.328 5.033-2.44 5.872-3.011.41.412.814.827 1.225 1.237 1.973 1.965 3.949 3.919 5.829 5.894.664.696 1.29 1.405 1.921 2.113a28.464 28.464 0 0 0-.982-.727c-2.116-1.256-6.942-2.441-9.008-.617-1.488 1.314-1.304 3.558.093 4.852 1.429 1.321 3.822 1.412 5.632 1.088 1.751-.313 4.72-2.236 5.72-2.909.624.745 1.25 1.488 1.82 2.238.378.521.778.995 1.129 1.539l1.065 1.577c.64 1.029 1.306 2.085 1.906 3.103.422.705.811 1.384 1.205 2.068-.651-.7-1.957-2.044-2.078-2.144-1.901-1.563-6.492-3.465-8.81-1.975-1.67 1.073-1.829 3.319-.643 4.809 1.211 1.522 3.564 1.975 5.401 1.929 2.023-.05 5.917-1.917 6.401-2.153a148.54 148.54 0 0 1 1.836 3.297 166.821 166.821 0 0 1 3.057 5.93l1.708-.569a168.717 168.717 0 0 0-3.337-6.153 155.02 155.02 0 0 0-2.127-3.618c.265-.223 1.764-1.502 3.015-2.871 1.82 1.003 5.814 1.556 6.329 1.624a147.288 147.288 0 0 1-.287 3.763 165.786 165.786 0 0 1-.679 6.285l1.844-.614c.166-1.657.327-3.515.462-5.544.092-1.322.163-2.737.222-4.191.526-.061 4.822-.584 6.556-1.633 1.572-.95 3.312-2.599 3.513-4.533.197-1.894-1.147-3.702-3.132-3.707-2.755-.007-5.6 4.068-6.36 6.408-.045.138-.365 1.69-.55 2.673.022-.595.049-1.171.063-1.783.036-1.209.037-2.418.043-3.718l-.06-1.902c-.005-.636-.092-1.306-.137-1.966a65.994 65.994 0 0 0-.591-4.616c1.059.029 4.823.079 6.529-.626 1.698-.702 3.667-2.068 4.159-3.95.482-1.842-.572-3.833-2.534-4.139-2.722-.423-6.152 3.173-7.257 5.371-.069.136-.686 1.803-1.007 2.725-.155-.93-.306-1.858-.494-2.792-.541-2.7-1.174-5.415-1.793-8.126-.19-.83-.369-1.66-.552-2.49.376.014 4.849.17 6.76-.619 1.699-.701 3.667-2.068 4.159-3.95.482-1.842-.572-3.832-2.534-4.138-2.722-.425-6.152 3.172-7.258 5.37-.083.165-.966 2.564-1.161 3.185-.401-1.828-.785-3.653-1.09-5.468-.424-2.504-.702-4.983-.793-7.406.176.008 4.843.191 6.8-.618 1.699-.701 3.667-2.067 4.159-3.949.481-1.842-.572-3.833-2.533-4.139-2.723-.424-6.152 3.173-7.258 5.37-.073.145-.748 1.971-1.048 2.848l-.156-.025c-.066-2.596.196-5.119.558-7.468.207-1.361.481-2.651.776-3.9.866.124 4.829.643 6.671.11 1.765-.511 3.872-1.652 4.567-3.469.681-1.778-.147-3.872-2.064-4.391-2.659-.721-6.462 2.477-7.803 4.54-.073.112-.688 1.334-1.123 2.231.141-.561.277-1.143.424-1.679.544-2.011 1.167-3.819 1.732-5.416a81.83 81.83 0 0 1 .945-2.474c.913-.322 4.574-1.667 5.939-2.965 1.331-1.267 2.675-3.251 2.456-5.183-.216-1.892-1.917-3.369-3.856-2.947-2.692.586-4.594 5.177-4.833 7.626-.021.212.036 3.559.084 3.543l.055-.019c-.306.722-.625 1.5-.957 2.357-.601 1.588-1.265 3.387-1.856 5.395-.595 2.004-1.186 4.198-1.599 6.566-.418 2.372-.736 4.889-.728 7.525 0 .03.004.06.004.09-.242-.77-.989-2.901-1.066-3.058-1.071-2.215-4.443-5.865-7.172-5.484-1.966.275-3.051 2.248-2.599 4.098.463 1.889 2.409 3.286 4.097 4.014 1.902.821 6.395.734 6.753.726.03 2.51.265 5.083.647 7.674.216 1.482.48 2.968.764 4.454a36.402 36.402 0 0 0-.48-1.326c-1.072-2.215-4.443-5.865-7.172-5.484-1.966.275-3.051 2.248-2.599 4.098.462 1.89 2.409 3.286 4.096 4.015 1.712.738 5.544.741 6.558.728.115.569.223 1.138.341 1.707.56 2.728 1.131 5.447 1.61 8.132.169.946.301 1.884.436 2.822a29.161 29.161 0 0 0-.418-1.148c-1.071-2.215-4.443-5.865-7.172-5.484-1.966.274-3.052 2.248-2.599 4.098.462 1.889 2.409 3.286 4.096 4.014 1.634.705 5.171.74 6.376.73.109.965.221 1.93.284 2.87.028.643.1 1.26.092 1.907l.018 1.903c-.033 1.21-.059 2.459-.122 3.639-.036.821-.087 1.602-.135 2.39-.157-.944-.504-2.785-.55-2.935-.481-1.563-1.872-3.9-3.558-5.307a3.851 3.851 0 0 0-.271-.67c-.881-1.688-2.999-2.455-4.657-1.364-2.302 1.514-2.427 6.482-1.77 8.853.039.14.629 1.611 1.016 2.532-.31-.507-.605-1.003-.931-1.521-.637-1.029-1.303-2.037-2.016-3.125l-1.099-1.554c-.355-.527-.798-1.038-1.198-1.564a66.322 66.322 0 0 0-3.041-3.523c.9-.561 4.067-2.596 5.101-4.125 1.03-1.522 1.918-3.747 1.29-5.588-.615-1.802-2.591-2.881-4.397-2.054-2.504 1.148-3.381 6.039-3.09 8.483.018.153.423 1.883.664 2.828-.642-.689-1.279-1.381-1.952-2.057-1.941-1.952-3.966-3.868-5.978-5.788-.617-.588-1.224-1.181-1.834-1.772.322-.196 4.138-2.534 5.296-4.246 1.03-1.522 1.918-3.748 1.291-5.588-.615-1.803-2.592-2.882-4.396-2.054-2.505 1.148-3.381 6.04-3.091 8.483.022.184.608 2.672.789 3.297-1.344-1.303-2.671-2.613-3.926-3.959-1.735-1.854-3.335-3.77-4.747-5.74.151-.09 4.144-2.512 5.331-4.266 1.03-1.522 1.918-3.747 1.29-5.588-.615-1.803-2.592-2.882-4.396-2.054-2.505 1.148-3.381 6.039-3.091 8.482.019.161.464 2.058.697 2.954l-.142.066c-1.489-2.129-2.661-4.379-3.656-6.539a48.81 48.81 0 0 1-1.504-3.68c.79-.375 4.381-2.128 5.624-3.588 1.19-1.4 2.318-3.515 1.896-5.413-.413-1.859-2.26-3.149-4.144-2.525-2.616.867-4.024 5.632-4.004 8.092.001.134.163 1.493.294 2.481-.192-.546-.4-1.107-.572-1.634-.655-1.978-1.133-3.83-1.543-5.473a81.948 81.948 0 0 1-.577-2.586c.584-.772 2.896-3.914 3.318-5.749.411-1.791.438-4.187-.811-5.677-1.224-1.46-3.457-1.753-4.842-.331-1.922 1.974-.976 6.852.175 9.027.1.188 1.994 2.948 2.025 2.908l.035-.047c.144.772.307 1.597.502 2.495.375 1.655.814 3.523 1.429 5.523.609 2 1.327 4.156 2.288 6.358.96 2.21 2.083 4.485 3.544 6.679.016.025.036.048.053.073-.626-.509-2.425-1.874-2.575-1.963-2.116-1.257-6.942-2.441-9.008-.618-1.488 1.314-1.304 3.559.094 4.852 1.426 1.318 3.82 1.409 5.63 1.086Z"/><path fill="#93DA46" d="M180.015 160.136c2.148.195 6.703-1.437 6.706-1.439.048-.017-1.986-2.675-2.134-2.828-1.708-1.771-6.05-4.187-8.525-2.975-1.782.874-2.197 3.088-1.191 4.705 1.028 1.651 3.313 2.371 5.144 2.537ZM226.762 145.683c.049.012-.182-3.327-.22-3.536-.449-2.42-2.737-6.831-5.469-7.183-1.969-.255-3.536 1.362-3.589 3.266-.053 1.945 1.456 3.805 2.891 4.954 1.685 1.347 6.383 2.498 6.387 2.499Z" opacity=".3"/><path fill="#93DA46" d="M186.027 172.899c2.04-.365 5.739-2.916 6.033-3.12 1.41 2.076 3.026 4.093 4.773 6.044.997 1.117 2.037 2.21 3.093 3.293a38.173 38.173 0 0 0-1.131-.841c-2.116-1.256-6.942-2.441-9.008-.617-1.488 1.314-1.304 3.558.094 4.851 1.427 1.321 3.822 1.412 5.631 1.089 1.836-.328 5.033-2.44 5.872-3.011.41.412.814.827 1.225 1.237 1.973 1.965 3.949 3.919 5.829 5.894.664.696 1.29 1.405 1.921 2.113a28.464 28.464 0 0 0-.982-.727c-2.116-1.256-6.942-2.441-9.008-.617-1.488 1.314-1.304 3.558.093 4.852 1.429 1.321 3.822 1.412 5.632 1.088 1.751-.313 4.72-2.236 5.72-2.909.624.745 1.25 1.488 1.82 2.238.378.521.778.995 1.129 1.539l1.065 1.577c.64 1.029 1.306 2.085 1.906 3.103.422.705.811 1.384 1.205 2.068-.651-.7-1.957-2.044-2.078-2.144-1.901-1.563-6.492-3.465-8.81-1.975-1.67 1.073-1.829 3.319-.643 4.809 1.211 1.522 3.564 1.975 5.401 1.929 2.023-.05 5.917-1.917 6.401-2.153a148.54 148.54 0 0 1 1.836 3.297 166.821 166.821 0 0 1 3.057 5.93l1.708-.569a168.717 168.717 0 0 0-3.337-6.153 155.02 155.02 0 0 0-2.127-3.618c.265-.223 1.764-1.502 3.015-2.871 1.82 1.003 5.814 1.556 6.329 1.624a147.288 147.288 0 0 1-.287 3.763 165.786 165.786 0 0 1-.679 6.285l1.844-.614c.166-1.657.327-3.515.462-5.544.092-1.322.163-2.737.222-4.191.526-.061 4.822-.584 6.556-1.633 1.572-.95 3.312-2.599 3.513-4.533.197-1.894-1.147-3.702-3.132-3.707-2.755-.007-5.6 4.068-6.36 6.408-.045.138-.365 1.69-.55 2.673.022-.595.049-1.171.063-1.783.036-1.209.037-2.418.043-3.718l-.06-1.902c-.005-.636-.092-1.306-.137-1.966a65.994 65.994 0 0 0-.591-4.616c1.059.029 4.823.079 6.529-.626 1.698-.702 3.667-2.068 4.159-3.95.482-1.842-.572-3.833-2.534-4.139-2.722-.423-6.152 3.173-7.257 5.371-.069.136-.686 1.803-1.007 2.725-.155-.93-.306-1.858-.494-2.792-.541-2.7-1.174-5.415-1.793-8.126-.19-.83-.369-1.66-.552-2.49.376.014 4.849.17 6.76-.619 1.699-.701 3.667-2.068 4.159-3.95.482-1.842-.572-3.832-2.534-4.138-2.722-.425-6.152 3.172-7.258 5.37-.083.165-.966 2.564-1.161 3.185-.401-1.828-.785-3.653-1.09-5.468-.424-2.504-.702-4.983-.793-7.406.176.008 4.843.191 6.8-.618 1.699-.701 3.667-2.067 4.159-3.949.481-1.842-.572-3.833-2.533-4.139-2.723-.424-6.152 3.173-7.258 5.37-.073.145-.748 1.971-1.048 2.848l-.156-.025c-.066-2.596.196-5.119.558-7.468.207-1.361.481-2.651.776-3.9.866.124 4.829.643 6.671.11 1.765-.511 3.872-1.652 4.567-3.469.681-1.778-.147-3.872-2.064-4.391-2.659-.721-6.462 2.477-7.803 4.54-.073.112-.688 1.334-1.123 2.231.141-.561.277-1.143.424-1.679.544-2.011 1.167-3.819 1.732-5.416a81.83 81.83 0 0 1 .945-2.474c.913-.322 4.574-1.667 5.939-2.965 1.331-1.267 2.675-3.251 2.456-5.183-.216-1.892-1.917-3.369-3.856-2.947-2.692.586-4.594 5.177-4.833 7.626-.021.212.036 3.559.084 3.543l.055-.019c-.306.722-.625 1.5-.957 2.357-.601 1.588-1.265 3.387-1.856 5.395-.595 2.004-1.186 4.198-1.599 6.566-.418 2.372-.736 4.889-.728 7.525 0 .03.004.06.004.09-.242-.77-.989-2.901-1.066-3.058-1.071-2.215-4.443-5.865-7.172-5.484-1.966.275-3.051 2.248-2.599 4.098.463 1.889 2.409 3.286 4.097 4.014 1.902.821 6.395.734 6.753.726.03 2.51.265 5.083.647 7.674.216 1.482.48 2.968.764 4.454a36.402 36.402 0 0 0-.48-1.326c-1.072-2.215-4.443-5.865-7.172-5.484-1.966.275-3.051 2.248-2.599 4.098.462 1.89 2.409 3.286 4.096 4.015 1.712.738 5.544.741 6.558.728.115.569.223 1.138.341 1.707.56 2.728 1.131 5.447 1.61 8.132.169.946.301 1.884.436 2.822a29.161 29.161 0 0 0-.418-1.148c-1.071-2.215-4.443-5.865-7.172-5.484-1.966.274-3.052 2.248-2.599 4.098.462 1.889 2.409 3.286 4.096 4.014 1.634.705 5.171.74 6.376.73.109.965.221 1.93.284 2.87.028.643.1 1.26.092 1.907l.018 1.903c-.033 1.21-.059 2.459-.122 3.639-.036.821-.087 1.602-.135 2.39-.157-.944-.504-2.785-.55-2.935-.481-1.563-1.872-3.9-3.558-5.307a3.851 3.851 0 0 0-.271-.67c-.881-1.688-2.999-2.455-4.657-1.364-2.302 1.514-2.427 6.482-1.77 8.853.039.14.629 1.611 1.016 2.532-.31-.507-.605-1.003-.931-1.521-.637-1.029-1.303-2.037-2.016-3.125l-1.099-1.554c-.355-.527-.798-1.038-1.198-1.564a66.322 66.322 0 0 0-3.041-3.523c.9-.561 4.067-2.596 5.101-4.125 1.03-1.522 1.918-3.747 1.29-5.588-.615-1.802-2.591-2.881-4.397-2.054-2.504 1.148-3.381 6.039-3.09 8.483.018.153.423 1.883.664 2.828-.642-.689-1.279-1.381-1.952-2.057-1.941-1.952-3.966-3.868-5.978-5.788-.617-.588-1.224-1.181-1.834-1.772.322-.196 4.138-2.534 5.296-4.246 1.03-1.522 1.918-3.748 1.291-5.588-.615-1.803-2.592-2.882-4.396-2.054-2.505 1.148-3.381 6.04-3.091 8.483.022.184.608 2.672.789 3.297-1.344-1.303-2.671-2.613-3.926-3.959-1.735-1.854-3.335-3.77-4.747-5.74.151-.09 4.144-2.512 5.331-4.266 1.03-1.522 1.918-3.747 1.29-5.588-.615-1.803-2.592-2.882-4.396-2.054-2.505 1.148-3.381 6.039-3.091 8.482.019.161.464 2.058.697 2.954l-.142.066c-1.489-2.129-2.661-4.379-3.656-6.539a48.81 48.81 0 0 1-1.504-3.68c.79-.375 4.381-2.128 5.624-3.588 1.19-1.4 2.318-3.515 1.896-5.413-.413-1.859-2.26-3.149-4.144-2.525-2.616.867-4.024 5.632-4.004 8.092.001.134.163 1.493.294 2.481-.192-.546-.4-1.107-.572-1.634-.655-1.978-1.133-3.83-1.543-5.473a81.948 81.948 0 0 1-.577-2.586c.584-.772 2.896-3.914 3.318-5.749.411-1.791.438-4.187-.811-5.677-1.224-1.46-3.457-1.753-4.842-.331-1.922 1.974-.976 6.852.175 9.027.1.188 1.994 2.948 2.025 2.908l.035-.047c.144.772.307 1.597.502 2.495.375 1.655.814 3.523 1.429 5.523.609 2 1.327 4.156 2.288 6.358.96 2.21 2.083 4.485 3.544 6.679.016.025.036.048.053.073-.626-.509-2.425-1.874-2.575-1.963-2.116-1.257-6.942-2.441-9.008-.618-1.488 1.314-1.304 3.559.094 4.852 1.426 1.318 3.82 1.409 5.63 1.086Z" opacity=".3"/><path fill="#F5D298" stroke="#263238" stroke-linecap="round" stroke-linejoin="round" stroke-miterlimit="10" stroke-width=".605" d="M194.444 184.382s-1.509 2.282-1.503 3.013c.006.73-1.873 2.247-2.593 3.202-.719.954-1.153 1.293-1.153 1.293s-2.037-.076-5.071 2.442c-3.035 2.518-5.61 7.912-5.345 13.808.265 5.896 2.344 11.232 8.432 17.677 6.087 6.444 9.235 9.107 14.625 10.14 5.39 1.034 7.206.768 8.579-.33 1.373-1.097 1.075-1.943.778-2.789-.298-.846-.898-3.122-.898-3.122s3.882 3.462 9.265 3.619c5.383.157 7.775-.903 8.783-2.035 1.009-1.131 1.584-2.07.925-2.658-.659-.588-2.942-4.074-2.942-4.074s7.068 1.659 10.108-.128c3.04-1.786 3.396-2.775 2.949-4.044-.446-1.269-1.177-1.776-2.858-2.84-1.682-1.064-4.164-2.261-6.277-2.84-2.114-.579-9.259-2.889-14.739-6.034-5.479-3.145-10.202-11.71-11.446-12.821-1.245-1.11-2.205-2.836-2.726-4.316-.521-1.481-.256-4.727-.256-4.727l-.372-1.203s1.303-.724 1.44-1.763c.137-1.038-.461-3.022-1.552-3.125-1.092-.103-1.957.867-1.957.867s-2.392.914-2.824 1.399c-.434.484-1.372 1.389-1.372 1.389Z"/><path fill="#707070" stroke="#263238" stroke-linecap="round" stroke-linejoin="round" stroke-miterlimit="10" stroke-width=".605" d="M193.73 186.067s-.651.435-.354 1.135c.296.7.589.961 1.097.834.509-.127.295.553.515.749.22.196.654-.142 1.162-.27.507-.127 1.012-.693 1.012-.693s1.599-.171 1.815-.413l1.153-1.293.578-.501s1.665-.497 1.441-1.762c-.225-1.266-.272-1.89-.61-2.525-.339-.635-1.339-.528-1.963-.335a1.978 1.978 0 0 0-.937.602s-1.973.547-2.594 1.242c-.619.695-.963.993-1.282 1.269-.319.277-.872.471-.912.769-.038.296-.459 1.36-.121 1.192Z"/><path stroke="#263238" stroke-linecap="round" stroke-linejoin="round" stroke-miterlimit="10" stroke-width=".605" d="M208.674 228.418c.716.565 1.182.907 1.182.907M197.45 187.352l-4.962 7.039s-.783 2.204-.903 5.435c-.119 3.231-.876 8.651 3.979 15.592 4.855 6.942 8.508 9.039 10.486 10.802.412.368.818.718 1.202 1.04"/><path fill="#F5D298" d="m198.025 186.56-2.269 7.263c-.497 1.589-3.032 2.81-4.171 6.003"/><path stroke="#263238" stroke-linecap="round" stroke-linejoin="round" stroke-miterlimit="10" stroke-width=".605" d="m198.025 186.56-2.269 7.263c-.497 1.589-3.032 2.81-4.171 6.003M208.831 211.963c1.276 1.58 2.902 3.181 5.145 5.074 6.077 5.129 9.57 5.342 10.96 6.437M200.429 187.108s-.032 5.196.2 6.853c.231 1.657 1.11 2.441 3.414 8.704 1.303 3.541 2.365 6.032 4.14 8.455"/><path fill="#16FF2D" stroke="#263238" stroke-linecap="round" stroke-linejoin="round" stroke-miterlimit="10" stroke-width=".605" d="M194.663 132.086s-3.787-1.85-8.105.842c-4.317 2.691-7.585 10.376-7.168 16.399.416 6.022 2.017 11.497 4.269 15.563 2.251 4.066 6.65 7.855 11.66 9.23 3.087.847 12.31 1.238 17.337-1.362 5.028-2.599 8.471-8.023 11-16.22s.296-16.064-1.946-19.99c-2.241-3.926-10.158-6.475-12.959-6.281l-5.463.378s-5.066-2.042-8.625 1.441Z"/><path stroke="#263238" stroke-linecap="round" stroke-linejoin="round" stroke-miterlimit="10" stroke-width=".605" d="M187.764 142.634c0 .462-.413.836-.924.836-.51 0-.923-.374-.923-.836 0-.461.414-.835.923-.835.51 0 .924.374.924.835ZM190.14 140.567a.529.529 0 1 1-1.058-.002.529.529 0 0 1 1.058.002ZM192.736 144.086c.364 0 .659-.256.659-.572 0-.316-.295-.572-.659-.572-.365 0-.66.256-.66.572 0 .316.295.572.66.572ZM190.36 145.318a.308.308 0 1 0 0-.616.308.308 0 0 0 0 .616ZM186.796 146.858a.484.484 0 1 1-.968 0 .484.484 0 0 1 .968 0ZM195.947 138.587a.484.484 0 1 1-.969 0 .484.484 0 0 1 .969 0ZM186.488 137.839a.572.572 0 1 0 0-1.144.572.572 0 0 0 0 1.144Z"/><path fill="#263238" stroke="#263238" stroke-linecap="round" stroke-linejoin="round" stroke-miterlimit="10" stroke-width=".605" d="M204.87 130.951s2.716 4.284 6.374 5.538c3.657 1.253 4.493.313 6.583.731s3.657 2.925 3.657 2.925-.129-3.005-1.841-5.003c-1.712-1.997-10.28-4.505-11.429-4.714-1.149-.209-3.344.523-3.344.523Z"/><path fill="#16FF2D" d="M222.557 143.064c-.569-2.254-1.387-4.165-2.207-5.551-.638-1.079-1.75-2.046-3.074-2.87"/><path stroke="#263238" stroke-linecap="round" stroke-linejoin="round" stroke-miterlimit="10" stroke-width=".605" d="M222.557 143.064c-.569-2.254-1.387-4.165-2.207-5.551-.638-1.079-1.75-2.046-3.074-2.87"/><path fill="#16FF2D" d="M218.314 165.058c1.508-2.393 2.786-5.301 3.89-8.718 1.384-4.283 1.335-8.467.646-11.975"/><path stroke="#263238" stroke-linecap="round" stroke-linejoin="round" stroke-miterlimit="10" stroke-width=".605" d="M218.314 165.058c1.508-2.393 2.786-5.301 3.89-8.718 1.384-4.283 1.335-8.467.646-11.975"/><path fill="#16FF2D" d="M215.74 168.402a20.144 20.144 0 0 0 1.702-2.053l-1.702 2.053Z"/><path stroke="#263238" stroke-linecap="round" stroke-linejoin="round" stroke-miterlimit="10" stroke-width=".605" d="M215.74 168.402a20.144 20.144 0 0 0 1.702-2.053M196.158 133.421c3.914-.441 10.46-.779 15.134 1.033M192.818 133.902s.712-.137 1.89-.3M225.213 133.206c.319.208.637.421.955.641"/><path fill="#263238" stroke="#263238" stroke-linecap="round" stroke-linejoin="round" stroke-miterlimit="10" stroke-width=".605" d="M200.434 133.101s1.09-9.652 1.032-10.493c-.058-.84-.387-1.521.033-1.55.42-.029 1.55.034 1.599.734.048.7-1.188 3.178-1.023 5.559.165 2.381.059 5.713.059 5.713l-1.7.037Z"/><path fill="#92E3A9" stroke="#263238" stroke-linecap="round" stroke-linejoin="round" stroke-miterlimit="10" stroke-width=".605" d="m202.23 125.511 1.41.043s4.8-3.85 9.321-3.6 9.892 4.663 10.989 6.276c1.096 1.613 2.44 4.757 3.208 5.689a42.325 42.325 0 0 0 1.377 1.593s-6.4-.964-8.892-.37l-2.492.595s-1.434 1.647-5.202.078c-3.767-1.568-7.67-5.098-8.178-6.33-.507-1.231-.903-2.892-.903-2.892l-.86-.222.222-.86Z"/><path stroke="#263238" stroke-linecap="round" stroke-linejoin="round" stroke-miterlimit="10" stroke-width=".605" d="M208.835 126.81c3.937.735 9.874 2.362 15.648 5.933M204.249 126.215s1.414.057 3.695.438"/><path fill="#92E3A9" stroke="#263238" stroke-linecap="round" stroke-linejoin="round" stroke-miterlimit="10" stroke-width=".605" d="M208.047 72.921s-2.252-2.803-2.471-4.996c-.22-2.194-.182-2.94-.182-2.94s-2.012 3.159-1.456 6.386c.556 3.227 4.386 6.767 5.129 6.266.742-.501-.687-4.22-.687-4.22l-.333-.496Z"/><path fill="#92E3A9" stroke="#263238" stroke-linecap="round" stroke-linejoin="round" stroke-miterlimit="10" stroke-width=".605" d="M213.902 83.2s1.667 1.937 4.37 4.076c2.704 2.138 4.897 1.919 5.881.174s1.393-2.74 1.393-2.74l-2.729.76s2.024-1.006 1.684-2.578l-.34-1.571s-1.606 1.624-3.589 2.422c-1.984.797-5.099-.883-5.099-.883s2.946.895 4.635-.606c1.689-1.5 2.835-4.074 1.957-5.642-.879-1.569-2.586-3.299-2.586-3.299s.141 3.147-.143 4.06c-.285.912-1.399 1.663-1.399 1.663s1.179-3.857.01-5.59c-1.169-1.733-1.878-2.516-1.878-2.516l-2.101 1.958.195-2.113s-3.072-1.35-4.928-.097c-1.857 1.253-2.337 4.278-2.337 4.278l.631 1.736s-1.089-2.148-3.214-4.496c-2.125-2.35-.985-6-.985-6s-2.3 3.534-2.458 4.901c-.158 1.367 1.679 4.09 1.93 4.461.25.372.708.783.708.783s-1.287-.572-2.706-2.676c-1.42-2.104-2.301-4.211-2.348-5.08-.046-.87.938-2.615.938-2.615s-2.645.884-1.925 3.82c.318 1.297 1.023 2.437 1.71 3.307a11.783 11.783 0 0 0 1.714 1.768s-5.401-3.2-6.929-2.53a205.86 205.86 0 0 1-2.933 1.26s1.203.448 4.065 1.22c2.861.77 7.879 2.067 9.373 2.68 1.495.613 8.649 6.412 8.649 6.412l.784-.707Z"/><path fill="#D32800" stroke="#263238" stroke-linecap="round" stroke-linejoin="round" stroke-miterlimit="10" stroke-width=".605" d="M208.203 78.76s-.921-1.9-6.892-3.275-9.813.137-12.571 3.258c-2.757 3.121-3.312 7.638-3 11.57.312 3.933 2.018 12.868 3.366 17.002 1.348 4.134 4.909 4.073 8.752 2.56 3.842-1.512 13.394-4.174 17.59-9.166 4.196-4.993 2.833-11.818 1.243-14.708-1.59-2.89-5.45-4.608-6.864-5.635-1.413-1.028-1.624-1.607-1.624-1.607Z"/><path fill="#D32800" stroke="#263238" stroke-linecap="round" stroke-linejoin="round" stroke-miterlimit="10" stroke-width=".605" d="M196.702 83.335c.411-.535.536-1.256.265-1.875-.221-.503-.619-.828-1.324-.115-1.409 1.426-.306 3.765-.306 3.765l1.365-1.775ZM201.487 79.927c.611-.287 1.053-.87 1.096-1.544.034-.549-.169-1.02-1.123-.71-1.908.62-2 3.205-2 3.205l2.027-.95ZM206.175 81.692c.611-.287 1.053-.871 1.095-1.544.035-.549-.169-1.02-1.122-.71-1.907.62-2 3.204-2 3.204l2.027-.95ZM214.64 90.049c-.069-.672.205-1.352.761-1.734.452-.312.961-.38 1.185.598.45 1.954-1.72 3.363-1.72 3.363l-.226-2.227ZM196.429 78.944c.611-.287 1.053-.87 1.096-1.544.035-.549-.169-1.02-1.123-.71-1.907.62-1.999 3.205-1.999 3.205l2.026-.95ZM191.849 83.526c.411-.535.536-1.256.265-1.875-.221-.503-.619-.828-1.324-.115-1.409 1.426-.306 3.765-.306 3.765l1.365-1.775ZM192.32 89.85c.411-.535.536-1.257.265-1.875-.221-.503-.618-.828-1.323-.115-1.41 1.426-.307 3.764-.307 3.764l1.365-1.774ZM198.045 89.546c.411-.536.536-1.257.265-1.876-.221-.503-.618-.828-1.323-.115-1.41 1.426-.307 3.765-.307 3.765l1.365-1.774ZM201.888 84.343c.411-.535.536-1.257.265-1.875-.221-.503-.618-.828-1.323-.115-1.41 1.426-.307 3.765-.307 3.765l1.365-1.775ZM204.824 85.614c.036-.674.411-1.303 1.019-1.596.496-.238 1.009-.227 1.08.774.142 2-2.218 3.057-2.218 3.057l.119-2.235ZM202.135 92.274c.195-.646.708-1.169 1.368-1.308.538-.114 1.034.019.866 1.008-.337 1.977-2.881 2.443-2.881 2.443l.647-2.143ZM198.354 98.38c.195-.645.708-1.168 1.369-1.307.538-.114 1.033.019.865 1.008-.337 1.976-2.881 2.443-2.881 2.443l.647-2.143ZM193.558 105.277c.195-.647.708-1.169 1.369-1.309.537-.113 1.033.02.865 1.008-.337 1.977-2.881 2.444-2.881 2.444l.647-2.143ZM206.353 95.343c.195-.646.708-1.169 1.369-1.308.538-.114 1.033.02.865 1.008-.337 1.977-2.88 2.444-2.88 2.444l.646-2.144ZM210.013 100.806c.366-.567 1.004-.928 1.677-.88.548.039.988.303.554 1.207-.869 1.808-3.442 1.555-3.442 1.555l1.211-1.882ZM204.966 104.509c.461-.492 1.153-.733 1.807-.566.533.136.917.475.329 1.287-1.178 1.623-3.665.914-3.665.914l1.529-1.635ZM199.574 103.699c.218-.638.75-1.142 1.414-1.258.542-.095 1.032.056.829 1.038-.408 1.964-2.966 2.339-2.966 2.339l.723-2.119ZM212.963 95.584c.291-.614.878-1.065 1.556-1.105.549-.032 1.019.173.705 1.126-.627 1.904-3.212 1.986-3.212 1.986l.951-2.007ZM205.79 100.265c.291-.614.877-1.065 1.556-1.105.549-.032 1.018.174.705 1.126-.628 1.905-3.213 1.987-3.213 1.987l.952-2.008ZM210.903 90.153c.195-.646.709-1.169 1.369-1.308.538-.114 1.034.02.865 1.008-.336 1.976-2.88 2.443-2.88 2.443l.646-2.143ZM209.652 85.225c.015-.675.37-1.315.968-1.627.488-.254 1.001-.258 1.104.74.205 1.994-2.12 3.125-2.12 3.125l.048-2.238ZM195.492 95.762c.411-.535.536-1.257.265-1.875-.221-.504-.618-.829-1.323-.115-1.41 1.425-.306 3.764-.306 3.764l1.364-1.774ZM188.605 89.433c.335-.587.36-1.32.007-1.894-.287-.468-.725-.736-1.326.066-1.202 1.605.21 3.772.21 3.772l1.109-1.944ZM189.71 96.931c.276-.616.23-1.347-.177-1.885-.331-.439-.793-.663-1.314.194-1.041 1.714.575 3.733.575 3.733l.916-2.042ZM192.141 102.644c.276-.616.23-1.347-.177-1.885-.331-.439-.793-.663-1.314.194-1.041 1.714.575 3.733.575 3.733l.916-2.042Z"/><path fill="#74B74D" stroke="#263238" stroke-linecap="round" stroke-linejoin="round" stroke-miterlimit="10" stroke-width=".605" d="M205.247 13.953s6.086-.738 7.93 5.717c1.317 4.611 4.058 10.881 5.164 14.016 1.107 3.136 5.164 8.853 2.767 17.152-2.398 8.299-15.124 9.959-22.316 9.221-7.193-.737-13.463-5.348-14.57-13.278-1.106-7.93.923-11.435 5.533-15.86 4.611-4.427 4.795-8.853 8.852-13.28 4.059-4.426 6.64-3.688 6.64-3.688Z"/><path stroke="#263238" stroke-linecap="round" stroke-linejoin="round" stroke-miterlimit="10" stroke-width=".605" d="M209.305 15.612s-3.689.554-5.533-.369"/><path fill="#263238" stroke="#263238" stroke-linecap="round" stroke-linejoin="round" stroke-miterlimit="10" stroke-width=".605" d="M207.463 15.79s-.456-.342 1.252-3.415c1.707-3.074 2.391-5.465 3.074-7.287.683-1.822.683-2.163 0-2.163s-1.48-.569-1.708.114c-.228.683-.797 2.163-1.024 3.643-.228 1.48-1.139 4.781-1.936 5.806-.796 1.024-1.821 3.187-1.821 3.187s1.707-.113 2.163.115Z"/><path stroke="#263238" stroke-linecap="round" stroke-linejoin="round" stroke-miterlimit="10" stroke-width=".605" d="M209.74 5.43s-2.277-1.139-3.757-1.139"/><path fill="#92E3A9" stroke="#263238" stroke-linecap="round" stroke-linejoin="round" stroke-miterlimit="10" stroke-width=".605" d="M205.983 3.722s-1.936-1.252-5.123-2.39c-3.188-1.14-8.539.227-10.474 1.82-1.935 1.595-5.237 11.386-5.237 11.386s6.717 1.366 10.815.569c4.099-.797 6.717-3.188 8.652-5.92 1.936-2.733 1.367-5.465 1.367-5.465Z"/><path stroke="#263238" stroke-linecap="round" stroke-linejoin="round" stroke-miterlimit="10" stroke-width=".605" d="M205.983 4.291s-10.815 2.391-19.809 9.45M216.596 44.913a.75.75 0 1 0 1.5 0 .75.75 0 0 0-1.5 0ZM213.939 48.525a.341.341 0 1 0 0-.683.341.341 0 0 0 0 .683ZM214.416 44.845a.409.409 0 1 0 .817 0 .409.409 0 0 0-.817 0ZM214.552 40.62a.409.409 0 1 0 .818 0 .409.409 0 0 0-.818 0ZM216.324 49.07a.409.409 0 1 0 .818 0 .409.409 0 0 0-.818 0ZM209.032 48.116a.341.341 0 1 0 0-.682.341.341 0 0 0 0 .682ZM209.032 19.63a.613.613 0 1 0 0-1.227.613.613 0 0 0 0 1.227ZM211.553 21.81a.273.273 0 1 0 .545 0 .273.273 0 0 0-.545 0ZM208.01 23.038a.545.545 0 1 0 1.09 0 .545.545 0 0 0-1.09 0Z"/><path fill="#F4AD2D" stroke="#263238" stroke-linecap="round" stroke-linejoin="round" stroke-miterlimit="10" stroke-width=".605" d="M69.382 217.042c.09.629.144 1.305.158 2.029.14 7.43-12.26 10.844-27.63 11.135-15.37.291-27.89-2.651-28.031-10.081-.025-1.288-.112-1.744.14-2.745l.83-2.395s8.018 3.581 15.988 4.566c7.97.985 20.117-.3 27.157-1.326 7.04-1.026 10.81-3.287 10.81-3.287l.578 2.104Z"/><path fill="#F4AD2D" stroke="#263238" stroke-linecap="round" stroke-linejoin="round" stroke-miterlimit="10" stroke-width=".605" d="M15.171 208.377s-1.784 1.947-1.784 3.894.08 3.488 1.622 4.705 3.813 2.353 7.383 2.921c3.569.568 8.436 1.703 11.519 2.271 3.083.568 12.574-.162 15.82-.649 3.244-.486 4.704-.486 9.41-.811 4.705-.325 5.191-1.379 6.814-2.84 1.623-1.46 3.813-.811 4.137-4.218.325-3.407-1.054-5.111-2.271-5.516-1.217-.406-4.624 1.298-11.357 1.298-6.734 0-16.63 1.135-25.878.08-9.249-1.054-14.684-2.352-14.684-2.352l-.73 1.217Z"/><path fill="#F4AD2D" stroke="#263238" stroke-linecap="round" stroke-linejoin="round" stroke-miterlimit="10" stroke-width=".605" d="M33.18 219.329c0 .246-.29.446-.648.446-.359 0-.65-.2-.65-.446 0-.247.291-.447.65-.447.358 0 .649.2.649.447ZM35.371 220.626c0 .247-.163.446-.365.446-.202 0-.365-.199-.365-.446 0-.246.163-.446.365-.446.202 0 .365.2.365.446ZM33.302 220.748c.157 0 .284-.072.284-.162 0-.09-.127-.162-.284-.162-.156 0-.283.072-.283.162 0 .09.127.162.283.162ZM32.856 217.26c0 .134-.127.243-.283.243-.157 0-.284-.109-.284-.243s.127-.243.284-.243c.156 0 .283.109.283.243ZM34.965 218.517c0 .157-.163.284-.365.284-.202 0-.365-.127-.365-.284 0-.156.163-.283.365-.283.202 0 .365.127.365.283ZM59.464 216.084c0 .246-.29.446-.649.446-.358 0-.648-.2-.648-.446 0-.247.29-.447.648-.447.359 0 .65.2.65.447ZM61.655 217.381c0 .247-.164.446-.365.446-.202 0-.366-.199-.366-.446 0-.246.164-.446.366-.446.201 0 .365.2.365.446ZM59.87 217.341c0 .09-.127.162-.284.162-.157 0-.284-.072-.284-.162 0-.09.127-.163.284-.163.157.001.284.073.284.163ZM59.14 214.015c0 .134-.127.243-.284.243-.157 0-.284-.109-.284-.243s.127-.243.284-.243c.157 0 .284.109.284.243ZM61.25 215.272c0 .157-.164.284-.366.284-.202 0-.365-.127-.365-.284 0-.156.163-.284.365-.284.202 0 .365.128.365.284ZM66.914 213.8c-.24-.056-.368-.384-.288-.733.081-.349.342-.587.582-.531.24.056.369.384.288.733-.081.349-.341.587-.582.531ZM65.154 215.639c-.24-.056-.397-.26-.351-.456.045-.197.277-.31.517-.255.24.056.398.261.352.457-.046.196-.278.31-.518.254ZM65.598 213.911c-.087-.021-.13-.161-.094-.314.035-.152.135-.26.223-.239.087.02.129.16.093.313-.035.152-.135.26-.222.24ZM69.003 213.952c-.131-.03-.209-.179-.173-.331.035-.153.17-.252.301-.222.131.031.208.179.173.332-.035.153-.17.252-.301.221ZM67.3 215.722c-.152-.035-.24-.224-.194-.42.046-.196.207-.326.36-.291.152.035.24.223.194.419-.046.197-.207.328-.36.292ZM38.802 217.134c-.06-.239.17-.505.518-.594.347-.089.678.032.74.271.06.238-.17.504-.518.594-.347.089-.678-.033-.74-.271ZM36.358 216.422c-.061-.238.047-.473.242-.523.196-.05.404.103.465.342.061.238-.047.473-.243.523-.195.049-.403-.103-.464-.342ZM38.096 216.017c-.022-.087.083-.189.235-.228.152-.038.293 0 .315.087.022.087-.083.189-.234.228-.152.039-.294 0-.316-.087ZM39.632 219.057c-.034-.13.062-.267.214-.307.152-.039.302.035.336.165.033.13-.063.267-.215.307-.152.039-.302-.035-.335-.165ZM37.276 218.364c-.04-.152.087-.316.282-.366.195-.05.386.032.425.184.039.152-.088.316-.283.366-.195.05-.385-.032-.424-.184ZM16.602 214.401c-.06-.238.17-.504.518-.594.347-.089.679.033.74.271.061.239-.17.505-.518.594-.347.089-.678-.032-.74-.271ZM14.158 213.69c-.061-.239.047-.473.242-.523.195-.051.404.102.465.341.061.239-.047.473-.242.523-.196.05-.404-.103-.465-.341ZM15.897 213.285c-.022-.087.083-.189.235-.228.152-.039.293-.001.315.086.022.087-.083.189-.235.228-.151.039-.293 0-.315-.086ZM17.432 216.324c-.033-.13.063-.267.214-.306.152-.039.302.034.336.165.033.13-.063.267-.215.306-.151.039-.302-.035-.335-.165ZM15.076 215.631c-.039-.152.088-.316.283-.366.195-.05.385.033.424.185.039.152-.088.316-.283.365-.195.051-.385-.032-.424-.184ZM49.16 222.405c4.341 0 7.86-2.844 7.86-6.352 0-3.507-3.519-6.351-7.86-6.351-4.342 0-7.861 2.844-7.861 6.351 0 3.508 3.519 6.352 7.86 6.352Z"/><path fill="#F4AD2D" stroke="#263238" stroke-linecap="round" stroke-linejoin="round" stroke-miterlimit="10" stroke-width=".605" d="M49.16 221.8c4.341 0 7.86-2.844 7.86-6.352 0-3.508-3.519-6.352-7.86-6.352-4.342 0-7.861 2.844-7.861 6.352 0 3.508 3.519 6.352 7.86 6.352Z"/><path fill="#F4AD2D" stroke="#263238" stroke-linecap="round" stroke-linejoin="round" stroke-miterlimit="10" stroke-width=".605" d="M52.767 211.035s-1.26-.907-3.177-1.009c-1.917-.1-2.27.101-1.967.505.303.403.403 1.009.403 1.816 0 .807-.807.706-2.017.302-1.21-.403-1.06-1.261-2.472-.202-1.412 1.06-1.815 1.917-1.664 3.279.151 1.361.504 2.068 1.311 2.068.807 0 2.118-1.564 3.783-1.715 1.665-.152 0 .353-.656 1.614-.655 1.261-1.361 1.765.505 2.522 1.866.756 4.085.857 5.396.151s1.11-2.118.807-2.572c-.302-.454-.807-1.362-.302-1.463.504-.101 2.118 2.017 2.875 1.261.756-.756 1.31-2.522.453-3.884-.857-1.361-1.815-.353-2.824-.756-1.009-.404-1.06-.605-.706-.908.353-.303.656-.655.252-1.009Z"/><path fill="#F4AD2D" stroke="#263238" stroke-linecap="round" stroke-linejoin="round" stroke-miterlimit="10" stroke-width=".605" d="M47.724 213.91s-1.21-.252-2.169-.504c-.959-.252-1.513 1.009-1.261 1.513s.656.302 1.563 0c.908-.302 2.32-.101 2.674.252.353.353 0 1.211-.303 1.816s1.11 1.916 2.27 1.714c1.16-.201.756-2.118.756-2.824s.454-1.009 1.009-.656c.555.354 1.715.959 1.765-.05.05-1.009-.706-1.513-1.26-1.513-.556 0-1.968.05-1.968-.302 0-.354 1.614-1.564.404-2.018-1.21-.454-2.119.051-2.017.807.1.757.1 1.362-.303 1.564-.404.201-1.16.201-1.16.201ZM23.362 218.836c4.342 0 7.862-2.844 7.862-6.352 0-3.508-3.52-6.351-7.862-6.351-4.341 0-7.86 2.843-7.86 6.351s3.519 6.352 7.86 6.352Z"/><path fill="#F4AD2D" stroke="#263238" stroke-linecap="round" stroke-linejoin="round" stroke-miterlimit="10" stroke-width=".605" d="M23.362 218.23c4.342 0 7.862-2.843 7.862-6.351s-3.52-6.352-7.862-6.352c-4.341 0-7.86 2.844-7.86 6.352 0 3.508 3.519 6.351 7.86 6.351Z"/><path fill="#F4AD2D" stroke="#263238" stroke-linecap="round" stroke-linejoin="round" stroke-miterlimit="10" stroke-width=".605" d="M26.97 207.466s-1.26-.908-3.177-1.009c-1.917-.101-2.27.101-1.967.504.302.404.404 1.009.404 1.816 0 .807-.808.706-2.018.302-1.21-.403-1.059-1.261-2.471-.201-1.413 1.059-1.816 1.916-1.665 3.278.151 1.361.504 2.068 1.311 2.068.808 0 2.119-1.563 3.783-1.715 1.665-.151 0 .353-.655 1.614-.656 1.261-1.362 1.765.504 2.522 1.866.757 4.085.858 5.397.152 1.31-.706 1.11-2.119.807-2.573-.303-.453-.807-1.361-.303-1.462.504-.101 2.119 2.017 2.875 1.261.757-.757 1.311-2.522.454-3.884-.858-1.362-1.816-.353-2.825-.757-1.008-.403-1.059-.605-.706-.907.353-.303.656-.656.253-1.009Z"/><path fill="#F4AD2D" stroke="#263238" stroke-linecap="round" stroke-linejoin="round" stroke-miterlimit="10" stroke-width=".605" d="M21.927 210.341s-1.211-.252-2.17-.504c-.957-.252-1.512 1.009-1.26 1.513s.655.302 1.563 0c.908-.303 2.32-.101 2.674.252.353.353 0 1.21-.303 1.815-.302.605 1.11 1.917 2.27 1.715 1.16-.202.756-2.118.756-2.824s.454-1.009 1.01-.656c.554.353 1.714.959 1.765-.05.05-1.009-.706-1.513-1.261-1.513-.555 0-1.967.05-1.967-.303s1.613-1.563.403-2.017c-1.21-.454-2.118.05-2.017.807.1.756.1 1.362-.303 1.564-.404.201-1.16.201-1.16.201Z"/><path fill="#92E3A9" stroke="#263238" stroke-linecap="round" stroke-linejoin="round" stroke-miterlimit="10" stroke-width=".605" d="M68.826 199.094s1.114 2.23 2.675 4.684c1.561 2.453-1.338 2.676-3.122 5.352-1.784 2.676-.446 4.46-5.129 4.014-4.683-.446-4.46-2.899-7.136-1.338-2.677 1.562-5.13 3.791-8.029 2.007-2.899-1.784-4.46-2.007-6.467-.669-2.007 1.338-4.46 3.345-7.805 1.115-3.345-2.23-4.46-1.561-7.36.892-2.899 2.453-6.244 1.116-7.136-2.007-.892-3.122-1.784-1.783-4.46-4.014-2.676-2.23-.223-4.906-.223-4.906l1.277-.319s2.265 2.641 7.547 4.025c5.283 1.383 29.558.629 32.954-.126 3.396-.755 5.786-1.006 7.547-3.019 1.76-2.013 3.899-5.534 3.899-5.534s-.078-1.194.968-.157Z"/><path stroke="#263238" stroke-linecap="round" stroke-linejoin="round" stroke-miterlimit="10" stroke-width=".605" d="M44.776 209.399s-2.11.444-3.331 1.777c-1.222 1.333-2 2.776-4.22 3.11-2.221.333-4.442-2.887-6.552-3.11-2.11-.222-6.885.333-6.219 1.555.667 1.221 3.887-.333 3.221.333-.666.666-1.728 1.139-2.974 2.068-1.246.93-1.912.93-3.245-1.069M53.55 212.064s2.554-2.443 4.108-2.443c1.555 0 2.776 2.665 5.886 2.443 3.11-.222 3.053-1.844 3.665-2.887"/><path fill="#F4AD2D" stroke="#263238" stroke-linecap="round" stroke-linejoin="round" stroke-miterlimit="10" stroke-width=".605" d="M65.725 207.627s-2.21 1.446-4.524 1.623c-2.312.178-6.76.356-10.317.356-3.558 0-6.37.802-6.37.802s-3.572 1.308-7.974 1.057c-4.402-.251-8.457-2.369-8.457-2.369s-1.215-.379-2.282-.379c-1.068 0-3.914-1.245-5.693-1.245-1.778 0-4.625.178-6.582-3.024-1.956-3.202 1.332-4.485 1.332-4.485s.803-.572 1.684.057c.88.629 16.351 3.018 27.923 2.264 11.571-.755 17.986-1.132 20.502-3.019 2.516-1.886 4.24-.688 4.24-.688s3.559 1.067 3.203 4.092c-.356 3.024-4.608 3.92-4.608 3.92l-2.077 1.038Z"/><path fill="#F4AD2D" stroke="#263238" stroke-linecap="round" stroke-linejoin="round" stroke-miterlimit="10" stroke-width=".605" d="M16.064 203.794c0 .246-.29.446-.65.446-.358 0-.648-.2-.648-.446 0-.247.29-.446.649-.446.358-.001.649.199.649.446ZM18.254 205.091c0 .247-.163.447-.365.447-.202 0-.365-.2-.365-.447 0-.246.163-.446.365-.446.202 0 .365.2.365.446ZM16.186 205.213c.156 0 .283-.072.283-.162 0-.09-.127-.162-.284-.162-.156 0-.283.072-.283.162 0 .09.127.162.284.162ZM15.455 201.968c.157 0 .284-.109.284-.243s-.127-.243-.284-.243c-.157 0-.284.109-.284.243s.127.243.284.243ZM17.483 203.266c.202 0 .366-.127.366-.284 0-.156-.164-.283-.366-.283-.201 0-.365.127-.365.283 0 .157.164.284.366.284ZM44.7 206.43c0 .246-.29.446-.649.446-.358 0-.649-.2-.649-.446 0-.247.29-.446.65-.446.358 0 .648.199.648.446ZM46.89 207.728c0 .246-.163.446-.364.446-.202 0-.366-.2-.366-.446s.164-.446.366-.446c.201 0 .365.2.365.446ZM45.106 207.688c0 .089-.127.162-.284.162-.157 0-.284-.073-.284-.162 0-.09.127-.163.284-.163.157 0 .284.073.284.163ZM44.376 204.361c0 .134-.127.243-.284.243-.156 0-.283-.109-.283-.243s.127-.243.283-.243c.157 0 .284.109.284.243ZM46.485 205.618c0 .157-.163.284-.365.284-.202 0-.365-.127-.365-.284 0-.156.163-.283.365-.283.202 0 .365.127.365.283ZM69.234 202.591c-.126-.212.021-.532.33-.716.307-.184.659-.161.785.051.126.211-.02.532-.329.716-.307.183-.66.16-.786-.051ZM66.688 202.599c-.126-.212-.088-.467.085-.571.174-.103.416-.015.543.197.126.211.088.466-.085.57-.174.103-.416.015-.543-.196ZM68.242 201.719c-.047-.077.025-.205.16-.285.135-.08.281-.083.327-.006.046.077-.026.204-.16.285-.135.08-.281.083-.328.006ZM70.573 204.201c-.07-.115-.016-.274.119-.354.135-.08.3-.052.368.063.07.116.016.275-.12.355-.134.08-.299.051-.367-.064ZM68.117 204.202c-.08-.135-.005-.328.168-.431.173-.103.379-.078.46.056.08.135.004.328-.169.431-.173.104-.379.079-.46-.056ZM33.583 210.561c4.342 0 7.861-2.843 7.861-6.351s-3.52-6.352-7.86-6.352c-4.342 0-7.862 2.844-7.862 6.352 0 3.508 3.52 6.351 7.861 6.351Z"/><path fill="#F4AD2D" stroke="#263238" stroke-linecap="round" stroke-linejoin="round" stroke-miterlimit="10" stroke-width=".605" d="M33.584 209.956c4.341 0 7.86-2.844 7.86-6.352 0-3.508-3.519-6.351-7.86-6.351-4.342 0-7.862 2.843-7.862 6.351s3.52 6.352 7.861 6.352Z"/><path fill="#F4AD2D" stroke="#263238" stroke-linecap="round" stroke-linejoin="round" stroke-miterlimit="10" stroke-width=".605" d="M37.191 199.192s-1.26-.908-3.177-1.009c-1.917-.101-2.27.101-1.967.504.302.403.404 1.009.404 1.815 0 .808-.808.706-2.018.303-1.21-.404-1.059-1.261-2.471-.202-1.413 1.059-1.816 1.917-1.665 3.278.151 1.362.504 2.068 1.311 2.068.807 0 2.119-1.563 3.783-1.714 1.665-.152 0 .353-.655 1.614-.656 1.261-1.362 1.765.504 2.522 1.866.756 4.085.857 5.396.151 1.312-.706 1.11-2.118.808-2.572-.303-.454-.808-1.362-.303-1.463.504-.1 2.119 2.017 2.875 1.261.756-.756 1.311-2.522.454-3.883-.858-1.362-1.816-.354-2.825-.757-1.009-.403-1.059-.605-.706-.907.354-.303.656-.657.252-1.009Z"/><path fill="#F4AD2D" stroke="#263238" stroke-linecap="round" stroke-linejoin="round" stroke-miterlimit="10" stroke-width=".605" d="M32.148 202.066s-1.21-.252-2.169-.504c-.958-.252-1.513 1.009-1.26 1.513.252.504.655.303 1.563 0 .908-.302 2.32-.1 2.673.252.354.354 0 1.211-.302 1.816-.303.606 1.11 1.917 2.27 1.715 1.16-.202.756-2.118.756-2.824s.454-1.009 1.009-.656c.555.353 1.715.958 1.765-.05.05-1.009-.706-1.513-1.26-1.513-.556 0-1.968.05-1.968-.303s1.614-1.563.404-2.017c-1.21-.454-2.119.05-2.017.807.1.756.1 1.362-.303 1.564-.404.2-1.16.2-1.16.2ZM57.92 208.685c3.647 0 6.603-2.389 6.603-5.335 0-2.947-2.956-5.335-6.602-5.335-3.647 0-6.603 2.388-6.603 5.335 0 2.946 2.956 5.335 6.603 5.335Z"/><path fill="#F4AD2D" stroke="#263238" stroke-linecap="round" stroke-linejoin="round" stroke-miterlimit="10" stroke-width=".605" d="M57.92 208.176c3.647 0 6.603-2.388 6.603-5.335 0-2.946-2.956-5.335-6.602-5.335-3.647 0-6.603 2.389-6.603 5.335 0 2.947 2.956 5.335 6.603 5.335Z"/><path fill="#F4AD2D" stroke="#263238" stroke-linecap="round" stroke-linejoin="round" stroke-miterlimit="10" stroke-width=".605" d="M60.95 199.135s-1.058-.762-2.668-.847c-1.61-.085-1.906.085-1.652.424.254.339.339.847.339 1.525 0 .678-.678.593-1.695.254-1.017-.339-.89-1.059-2.076-.17-1.186.89-1.525 1.61-1.398 2.754s.424 1.737 1.102 1.737c.677 0 1.779-1.313 3.177-1.44 1.398-.127 0 .297-.551 1.355-.551 1.06-1.144 1.483.424 2.119 1.567.635 3.43.72 4.532.127 1.102-.593.933-1.779.678-2.161-.254-.381-.678-1.143-.254-1.228.424-.084 1.78 1.695 2.415 1.059.635-.635 1.101-2.118.381-3.262-.72-1.144-1.525-.297-2.372-.635-.847-.339-.89-.509-.593-.763.297-.255.551-.551.212-.848Z"/><path fill="#F4AD2D" stroke="#263238" stroke-linecap="round" stroke-linejoin="round" stroke-miterlimit="10" stroke-width=".605" d="M56.715 201.55s-1.017-.212-1.822-.424c-.805-.212-1.271.847-1.06 1.271.212.424.551.254 1.314 0 .762-.254 1.949-.085 2.245.211.297.297 0 1.017-.254 1.525-.254.509.932 1.61 1.906 1.441.974-.17.635-1.779.635-2.372s.382-.847.847-.551c.466.297 1.441.805 1.483-.043.042-.847-.593-1.27-1.06-1.27-.465 0-1.651.042-1.651-.255 0-.296 1.355-1.313.338-1.694-1.016-.382-1.779.042-1.694.678.084.635.084 1.143-.254 1.313-.338.17-.974.17-.974.17Z"/><path fill="#92E3A9" stroke="#263238" stroke-linecap="round" stroke-linejoin="round" stroke-miterlimit="10" stroke-width=".605" d="M68.826 189.927s1.114 2.23 2.675 4.683c1.561 2.453-1.338 2.676-3.122 5.352-1.784 2.676-.446 4.46-5.129 4.014-4.683-.446-4.46-2.899-7.136-1.338s-5.13 3.792-8.029 2.007c-2.899-1.784-4.46-2.007-6.467-.669-2.007 1.338-4.46 3.345-7.805 1.115-3.345-2.229-4.46-1.56-7.36.893-2.899 2.453-6.244 1.115-7.136-2.007-.892-3.122-1.784-1.784-4.46-4.015-2.676-2.23-.223-4.906-.223-4.906l1.277-.319s2.265 2.641 7.547 4.025c5.283 1.383 29.558.628 32.954-.126 3.396-.755 5.786-1.006 7.547-3.018 1.76-2.013 3.899-5.534 3.899-5.534s-.078-1.194.968-.157Z"/><path stroke="#263238" stroke-linecap="round" stroke-linejoin="round" stroke-miterlimit="10" stroke-width=".605" d="M28.785 201.181s-1.11.888-1.555 2.11c-.444 1.222-.333 2.11-2.22 2.887M22.789 200.293s-1.555.999-2.776 1.443M40.001 200.848s.555 1.11.555 2.554M66.099 193.74s2.332.667 3.442 1.555c1.11.889 2 .333 2 .333M58.214 200.404s1.443.111 2.887 1.999c1.443 1.888 5.288 1.058 5.587.196M43.222 202.18s3.22-.555 5.108.555c1.888 1.111 2.999 2.333 5.22.555"/><path fill="#F4AD2D" stroke="#263238" stroke-linecap="round" stroke-linejoin="round" stroke-miterlimit="10" stroke-width=".605" d="M68.884 186.019c0 16.765-12.463 14.55-27.836 14.55s-27.835 3.163-27.835-14.55c0-10.307 12.462-18.663 27.835-18.663 15.373 0 27.836 8.356 27.836 18.663Z"/><path fill="#F4AD2D" stroke="#263238" stroke-linecap="round" stroke-linejoin="round" stroke-miterlimit="10" stroke-width=".605" d="M39.573 176.289s-.94 1.078-2.1 1.078c-1.159 0-2.1-1.078-2.1-1.078s.94-1.078 2.1-1.078c1.16 0 2.1 1.078 2.1 1.078ZM48.653 173.679s-.94 1.079-2.1 1.079c-1.16 0-2.1-1.079-2.1-1.079s.94-1.078 2.1-1.078c1.16 0 2.1 1.078 2.1 1.078ZM54.781 172.431s-.94 1.078-2.1 1.078c-1.16 0-2.1-1.078-2.1-1.078s.94-1.078 2.1-1.078c1.16-.001 2.1 1.078 2.1 1.078ZM31.345 173.679s-.94 1.079-2.1 1.079c-1.159 0-2.1-1.079-2.1-1.079s.94-1.078 2.1-1.078c1.16 0 2.1 1.078 2.1 1.078ZM26.976 178.218s-.94 1.079-2.1 1.079c-1.16 0-2.1-1.079-2.1-1.079s.94-1.077 2.1-1.077c1.16 0 2.1 1.077 2.1 1.077ZM35.772 180.318s-.94 1.079-2.1 1.079c-1.16 0-2.1-1.079-2.1-1.079s.94-1.078 2.1-1.078c1.16 0 2.1 1.078 2.1 1.078ZM21.585 181.453s-.94 1.079-2.1 1.079c-1.16 0-2.1-1.079-2.1-1.079s.94-1.078 2.1-1.078c1.16 0 2.1 1.078 2.1 1.078ZM40.084 171.466s-.94 1.078-2.1 1.078c-1.16 0-2.1-1.078-2.1-1.078s.94-1.079 2.1-1.079c1.16.001 2.1 1.079 2.1 1.079ZM54.611 176.573s-.94 1.079-2.1 1.079c-1.16 0-2.1-1.079-2.1-1.079s.94-1.078 2.1-1.078c1.16 0 2.1 1.078 2.1 1.078ZM59.265 179.411s-.94 1.077-2.1 1.077c-1.16 0-2.1-1.077-2.1-1.077s.94-1.079 2.1-1.079c1.16 0 2.1 1.079 2.1 1.079ZM46.667 179.467s-.94 1.078-2.1 1.078c-1.16 0-2.1-1.078-2.1-1.078s.94-1.078 2.1-1.078c1.16 0 2.1 1.078 2.1 1.078ZM59.778 195.019c-3.736 1.957-3.914.178-5.87 0-1.957-.178-3.736.712-8.54 1.245-4.803.534-4.269-.533-7.115-1.245-2.846-.712-3.914 1.601-7.827 1.601-3.914 0-3.914-1.601-6.938-1.601-3.024 0-3.202.534-6.048-.712-2.2-.962-3.123-1.498-3.429-1.692 2.976 10.243 13.373 9.25 26.46 9.25 13.3 0 24.999.36 27.755-10.052-1.628-.119-4.779 1.284-8.448 3.206Z"/><path fill="#FDC357" stroke="#263238" stroke-linecap="round" stroke-linejoin="round" stroke-miterlimit="10" stroke-width=".605" d="M46.586 107.405c-1.908-1.83-4.12-3.062-6.429-2.961-2.417.104-4.449 1.919-4.449 1.919s-2.803-1.605-5.755-.565c-2.953 1.039-4.263 2.895-4.263 2.895s-3.579-.684-5.824.636c-2.245 1.321-2.848 3.457-2.848 3.457s-4.594.224-6.893 2.505c-2.299 2.282-2.861 3.698-2.861 3.698s-.63 2.617 1.171 4.889c1.801 2.272 3.284 1.632 5.58 3.69 2.296 2.059 9.277 6.552 18.074 13.077 8.796 6.524 17.287 9.896 21.344 14.948 4.056 5.052 6.406 6.149 9.195 7.994 2.79 1.845 3.342-3.671 1.808-6.41-1.533-2.739 1.423-8.118-3.002-19.461-4.425-11.342-8.4-17.837-8.987-20.285-.717-2.978-2.927-7.21-5.861-10.026Z"/><path stroke="#263238" stroke-linecap="round" stroke-linejoin="round" stroke-miterlimit="10" stroke-width=".605" d="M7.264 118.989s.965-4.286 6.613-1.798c5.647 2.489 4.469 6.281 6.256 8.793 1.788 2.512 10.533 5.658 13.215 9.426 2.682 3.769 8.55 7.696 10.872 9.274 2.323 1.578 9.135 8.011 11.47 9.348 2.337 1.338 4.846 3.891 5.726 5.387.88 1.497 1.253 3.447 2.015 2.767.762-.681 1.006-5.008 1.006-5.008"/><path stroke="#263238" stroke-linecap="round" stroke-linejoin="round" stroke-miterlimit="10" stroke-width=".605" d="M19.443 121.122s-.16-1.456 4.716-2.387 5.306-4.283 7.778-5.349c2.471-1.067 7.492-.302 8.935-.22 1.442.081 3.166-.545 3.9-.745.735-.2 3.625-2.363 3.625-2.363"/><path fill="#92E3A9" stroke="#263238" stroke-linecap="round" stroke-linejoin="round" stroke-miterlimit="10" stroke-width=".605" d="M31.47 120.67c-1.55.567-2.703 1.615-2.918 3.274-.41 3.177 4.68 6.825 7.539 5.592 1.483-.64 6.843-5.885 5.24-7.423-1.82-1.746-6.676-2.608-9.86-1.443ZM49.612 129.225c-1.175-.085-2.372.033-3.222.179-1.245.214-2.964.398-3.132 1.831-.192 1.64 2.568 3.191 3.887 3.265 1.683.095 6.572-1.077 6.413-2.533-.211-1.936-2.048-2.604-3.946-2.742ZM48.867 121.121c-1.507.112-2.7.784-1.793 1.799 1.815 2.031 5.475 1.273 5.53.31.089-1.638-2.026-2.235-3.737-2.109ZM51.297 141.55c-1.423-.237-2.797.406-2.503 2.207.359 2.189 4.384 3.38 4.938 2.211 1.173-2.476-.67-4.124-2.435-4.418Z"/><path stroke="#263238" stroke-linecap="round" stroke-linejoin="round" stroke-miterlimit="10" stroke-width=".302" d="M17.019 112.787s5.65-1.852 7.584 2.356M28.266 110.044s2.844.884 3.257 2.113M35.441 106.831s2.844.884 3.257 2.112"/><path fill="#FDC357" stroke="#263238" stroke-linecap="round" stroke-linejoin="round" stroke-miterlimit="10" stroke-width=".605" d="M16.781 125.554s-3.907-7.696-5.684-6.108c-1.778 1.589-1.365 2.817.971 4.155 2.337 1.337 6.287 3.971 7.462 4.52 1.176.548-2.749-2.567-2.749-2.567ZM5.785 81.45s-1.375-5.966 3.42-10.804c4.795-4.837 10.54-4.17 16.702-4.968 6.162-.797 28.144-7.325 32.337-7.883 8.453-1.126 9.718 3.652 8.88 5.737 0 0 4.948 2.302 5.252 5.04.304 2.737-.76 5.017-1.216 6.69-.456 1.673-11.861 10.797-21.441 14.598-9.58 3.802-25.547 5.018-29.349 5.322-3.801.304-7.298-.912-11.405-5.626-4.106-4.714-3.18-8.106-3.18-8.106Z"/><path stroke="#263238" stroke-linecap="round" stroke-linejoin="round" stroke-miterlimit="10" stroke-width=".605" d="M13.241 77.256s1.295-3.397 7.336-5.311c6.041-1.915 10.397-1.588 20.403-4.33 10.006-2.74 15.266-6.964 19.854-6.329 4.588.635 4.401 1.984 4.401 1.984"/><path fill="#92E3A9" stroke="#263238" stroke-linecap="round" stroke-linejoin="round" stroke-miterlimit="10" stroke-width=".605" d="M72.406 73.064c2.728-1.823 2.316-7.283-1.54-8.74-2.731-1.032-9.12-.426-14.715.99-2.808.71-30.176 7.377-32.522 8.428-2.346 1.05-15.358 3.651-17.844 7.708-2.487 4.057 1.308 8.433 4.24 9.113 2.931.68 7.66-1.69 7.66-1.69s3.492-3.502 7.187-4.232c3.695-.73 47.534-11.577 47.534-11.577Z"/><path fill="#FDC357" stroke="#263238" stroke-linecap="round" stroke-linejoin="round" stroke-miterlimit="10" stroke-width=".605" d="M17.142 84.545c-1.95 0-3.929-.224-5.114-.389a1.378 1.378 0 0 1 .377-2.73c3.384.468 6.896.463 7.913.018-.072-.444-.218-.962-.36-1.467-.418-1.479-.892-3.156.155-4.358.96-1.102 2.553-1.025 3.668-.87 1.893.262 3.442.902 4.686 1.417 2.11.874 2.895 1.13 3.953.239.833-.703 1.077-1.508 1.36-2.44.458-1.516 1.086-3.591 4.676-3.763 2.755-.131 4.676.586 6.37 1.219 1.258.47 2.446.913 3.93 1.01.053.004.1.005.138.005-.002-.317-.089-.847-.146-1.193-.191-1.165-.429-2.614.409-3.694.48-.62 1.198-.977 2.134-1.061 2.48-.22 4.413.482 6.285 1.162 1.136.412 2.209.803 3.36.962.55.076.572.08.912-1.084.312-1.068.835-2.857 2.931-3.027 2.691-.22 3.948.22 4.172.31a1.378 1.378 0 1 1-1.028 2.557c-.005 0-.901-.284-2.92-.12a.306.306 0 0 0-.102.02c-.133.094-.312.706-.408 1.034-.327 1.118-1.01 3.444-3.934 3.04-1.44-.2-2.702-.658-3.923-1.102-1.662-.604-3.232-1.174-5.099-1.007a1.148 1.148 0 0 0-.202.034c-.069.299.061 1.09.133 1.53.2 1.211.424 2.583-.478 3.577-.55.606-1.36.876-2.414.807-1.89-.125-3.324-.661-4.712-1.18-1.587-.592-3.088-1.15-5.275-1.047-1.648.079-1.76.446-2.172 1.809-.322 1.063-.763 2.519-2.22 3.748-2.394 2.018-4.625 1.093-6.783.201-1.213-.501-2.466-1.02-4.01-1.234-.673-.093-1.02-.057-1.174-.025-.014.384.228 1.241.38 1.775.212.75.43 1.526.493 2.292a2.224 2.224 0 0 1-.713 1.824c-.981.927-3.097 1.2-5.248 1.2Z"/><path stroke="#263238" stroke-linecap="round" stroke-linejoin="round" stroke-miterlimit="10" stroke-width=".302" d="M8.65 83.482s-1.744.743-1.622 2.237c0 0-1.02.579-1.382-.684M7.1 86.385s-.134.966 1.338 1.006"/><path fill="#FDC357" stroke="#263238" stroke-linecap="round" stroke-linejoin="round" stroke-miterlimit="10" stroke-width=".605" d="M17.834 94.594c1.41.884 3.767 1.042 6.084.917 8.144-.438 16.298-1.52 24.215-3.5 8.602-2.15 20.272-5.377 24.938-13.661.876-1.556 3.11-6.18-.664-5.285-.142.034-43.233 10.25-47.535 11.577-4.284 1.32-6.434 2.937-7.173 4.208-1.786 3.07-1.354 4.811.135 5.744Z"/><path fill="#F9E1B5" stroke="#263238" stroke-linecap="round" stroke-linejoin="round" stroke-miterlimit="10" stroke-width=".605" d="M46.985 19.489s3.601-2.726 5.548-5.646 5.84-6.618 6.424-7.105c.584-.486 1.557-.097 1.947.292.389.39.389.973.097 1.752-.292.779-4.575 4.77-6.619 7.106-2.044 2.336-3.212 4.088-3.698 4.769-.487.68-1.752 1.947-1.752 1.947l-1.947-3.115Z"/><path stroke="#263238" stroke-linecap="round" stroke-linejoin="round" stroke-miterlimit="10" stroke-width=".302" d="M60.904 7.03s-2.142.194-3.504 2.628c-1.363 2.433-5.061 6.423-5.743 7.591-.681 1.169-2.336 2.823-2.336 2.823"/><path fill="#F9E1B5" stroke="#263238" stroke-linecap="round" stroke-linejoin="round" stroke-miterlimit="10" stroke-width=".605" d="M53.666 20.977s-5.852 4.357-8.753 7.375c-2.9 3.018-5.51 5.39-6.657 6.501-1.147 1.111-.928 1.635-1.92 1.687-.99.052-2.252-1.412-2.36-2.018-.108-.606 2.985-3.596 4.588-5.132 1.602-1.536 6.27-5.87 8.12-7.763 1.852-1.893 4.224-3.316 4.9-3.906.677-.59 8.462-6.729 9.179-6.919.717-.19 2.25 2.1 2.483 2.528.232.427-9.58 7.647-9.58 7.647Z"/><path stroke="#263238" stroke-linecap="round" stroke-linejoin="round" stroke-miterlimit="10" stroke-width=".302" d="M34.826 35.433s.646.292 1.243-1.097c.597-1.388 4.273-5.67 7.2-8.192 2.928-2.523 7.233-5.729 8.932-7.25 1.698-1.523 3.354-2.756 4.458-3.578 1.104-.822 3.67-2.217 4.497-2.49.827-.271 1.268-.6 1.268-.6"/><path fill="#F9E1B5" stroke="#263238" stroke-linecap="round" stroke-linejoin="round" stroke-miterlimit="10" stroke-width=".605" d="M35.986 15.109s3.602-2.726 5.548-5.646c1.947-2.92 5.84-6.618 6.424-7.105.584-.486 1.557-.097 1.947.292.39.39.39.973.097 1.752-.292.779-4.574 4.77-6.619 7.106-2.043 2.336-3.211 4.088-3.698 4.769-.486.68-1.752 1.947-1.752 1.947l-1.947-3.115Z"/><path stroke="#263238" stroke-linecap="round" stroke-linejoin="round" stroke-miterlimit="10" stroke-width=".302" d="M49.905 2.65s-2.141.195-3.504 2.628c-1.363 2.433-5.061 6.424-5.743 7.592-.681 1.168-2.336 2.823-2.336 2.823"/><path fill="#F9E1B5" stroke="#263238" stroke-linecap="round" stroke-linejoin="round" stroke-miterlimit="10" stroke-width=".605" d="M37.933 20.267s5.159-5.158 7.592-8.565c2.433-3.407 4.672-6.132 5.645-7.398.973-1.265.681-1.751 1.655-1.946.973-.195 2.433 1.07 2.627 1.654.195.584-2.433 3.99-3.795 5.743-1.363 1.752-5.354 6.716-6.911 8.858-1.558 2.14-3.699 3.893-4.283 4.574-.584.681-7.397 7.884-8.078 8.176-.682.292-2.531-1.752-2.823-2.141-.292-.39 8.37-8.955 8.37-8.955Z"/><path stroke="#263238" stroke-linecap="round" stroke-linejoin="round" stroke-miterlimit="10" stroke-width=".302" d="M54.48 3.234s-.682-.195-1.071 1.265c-.39 1.46-3.407 6.23-5.938 9.149-2.53 2.92-6.326 6.716-7.786 8.468-1.46 1.752-2.92 3.212-3.894 4.186-.973.973-3.309 2.725-4.087 3.115-.779.389-1.169.778-1.169.778"/><path fill="#F9E1B5" stroke="#263238" stroke-linecap="round" stroke-linejoin="round" stroke-miterlimit="10" stroke-width=".605" d="M50.781 31.071s5.159-5.159 7.592-8.565c2.433-3.407 4.672-6.132 5.645-7.397.973-1.265.682-1.752 1.655-1.947.973-.195 2.433 1.07 2.627 1.655.195.584-2.433 3.99-3.795 5.742-1.363 1.752-5.353 6.716-6.911 8.858-1.557 2.141-3.699 3.893-4.283 4.574-.584.681-7.397 7.884-8.078 8.176-.681.292-2.53-1.752-2.823-2.14-.291-.39 8.371-8.956 8.371-8.956Z"/><path stroke="#263238" stroke-linecap="round" stroke-linejoin="round" stroke-miterlimit="10" stroke-width=".302" d="M67.328 14.038s-.682-.194-1.071 1.265c-.39 1.46-3.407 6.23-5.937 9.15-2.531 2.92-6.327 6.715-7.787 8.467-1.46 1.752-2.92 3.212-3.893 4.186-.973.973-3.31 2.725-4.088 3.115-.779.389-1.168.778-1.168.778"/><path fill="#F9E1B5" stroke="#263238" stroke-linecap="round" stroke-linejoin="round" stroke-miterlimit="10" stroke-width=".605" d="M38.127 28.151s5.16-5.158 7.592-8.565c2.434-3.407 4.672-6.132 5.645-7.398.974-1.265.682-1.752 1.655-1.946.973-.195 2.434 1.07 2.628 1.654.195.584-2.433 3.99-3.796 5.743-1.363 1.752-5.353 6.716-6.91 8.858-1.558 2.14-3.7 3.893-4.283 4.574-.584.681-7.398 7.884-8.079 8.176-.68.292-2.53-1.752-2.823-2.141-.291-.39 8.371-8.955 8.371-8.955Z"/><path stroke="#263238" stroke-linecap="round" stroke-linejoin="round" stroke-miterlimit="10" stroke-width=".302" d="M54.674 11.118s-.68-.195-1.07 1.265-3.407 6.23-5.938 9.149c-2.53 2.92-6.326 6.716-7.786 8.468-1.46 1.752-2.92 3.212-3.893 4.185-.974.974-3.31 2.726-4.088 3.115-.779.39-1.169.779-1.169.779"/><path fill="#F9E1B5" stroke="#263238" stroke-linecap="round" stroke-linejoin="round" stroke-miterlimit="10" stroke-width=".605" d="M40.461 27.703s6.785-2.68 10.373-4.837c3.588-2.156 6.727-3.766 8.123-4.54 1.396-.773 1.322-1.335 2.293-1.127.97.209 1.806 1.95 1.752 2.564-.054.613-3.82 2.693-5.767 3.758-1.947 1.065-7.584 4.031-9.864 5.376-2.281 1.345-4.943 2.1-5.75 2.493-.807.393-9.924 4.29-10.665 4.286-.74-.003-1.624-2.614-1.737-3.088-.114-.473 11.242-4.885 11.242-4.885Z"/><path stroke="#263238" stroke-linecap="round" stroke-linejoin="round" stroke-miterlimit="10" stroke-width=".302" d="M62.419 18.661s-.548-.45-1.486.735-5.604 4.36-9.088 6.031c-3.483 1.672-8.476 3.644-10.513 4.67-2.036 1.027-3.957 1.785-5.237 2.291-1.28.506-4.12 1.183-4.99 1.23-.87.048-1.381.25-1.381.25"/><path fill="#F9E1B5" stroke="#263238" stroke-linecap="round" stroke-linejoin="round" stroke-miterlimit="10" stroke-width=".605" d="M56.289 28.501s-6.507 3.3-9.88 5.78c-3.371 2.481-6.346 4.376-7.665 5.276-1.318.9-1.192 1.453-2.178 1.335-.986-.117-1.98-1.774-1.983-2.39-.004-.615 3.554-3.035 5.394-4.277 1.84-1.241 7.176-4.718 9.322-6.269 2.146-1.55 4.726-2.55 5.492-3.016.767-.466 9.483-5.193 10.22-5.259.739-.066 1.861 2.452 2.017 2.913.157.46-10.74 5.907-10.74 5.907Z"/><path stroke="#263238" stroke-linecap="round" stroke-linejoin="round" stroke-miterlimit="10" stroke-width=".302" d="M35.266 39.545s.587.397 1.41-.87c.825-1.266 5.176-4.861 8.489-6.85 3.313-1.988 8.1-4.415 10.033-5.626 1.932-1.211 3.774-2.145 5.002-2.768 1.228-.622 3.992-1.56 4.854-1.689.86-.128 1.352-.376 1.352-.376"/><path fill="#F9E1B5" stroke="#263238" stroke-linecap="round" stroke-linejoin="round" stroke-miterlimit="10" stroke-width=".605" d="M50.034 13.862s-5.594 4.684-8.318 7.862c-2.724 3.178-5.194 5.696-6.276 6.87-1.081 1.174-.833 1.685-1.82 1.793-.987.108-2.33-1.28-2.472-1.88-.142-.599 2.776-3.76 4.288-5.385 1.512-1.625 5.925-6.217 7.665-8.213 1.74-1.995 4.028-3.551 4.67-4.178.641-.627 8.063-7.2 8.768-7.431.704-.231 2.366 1.968 2.622 2.382.258.412-9.127 8.18-9.127 8.18Z"/><path stroke="#263238" stroke-linecap="round" stroke-linejoin="round" stroke-miterlimit="10" stroke-width=".302" d="M32.05 29.369s.66.254 1.177-1.166 3.943-5.905 6.722-8.59c2.778-2.686 6.894-6.132 8.503-7.748 1.609-1.617 3.192-2.942 4.247-3.826 1.056-.884 3.537-2.423 4.347-2.742.81-.319 1.232-.673 1.232-.673"/><path fill="#F9E1B5" stroke="#263238" stroke-linecap="round" stroke-linejoin="round" stroke-miterlimit="10" stroke-width=".605" d="M55.71 34.798s-5.852 4.357-8.753 7.375-5.511 5.39-6.658 6.502c-1.146 1.11-.928 1.635-1.919 1.686-.991.051-2.252-1.412-2.36-2.018-.108-.606 2.985-3.596 4.587-5.132 1.603-1.536 6.27-5.87 8.121-7.763 1.852-1.893 4.224-3.316 4.9-3.905.677-.59 8.462-6.73 9.179-6.92.716-.19 2.25 2.1 2.482 2.528.233.427-9.58 7.647-9.58 7.647Z"/><path stroke="#263238" stroke-linecap="round" stroke-linejoin="round" stroke-miterlimit="10" stroke-width=".302" d="M36.87 49.255s.646.291 1.243-1.098c.597-1.388 4.273-5.67 7.2-8.192 2.927-2.523 7.233-5.729 8.931-7.25 1.699-1.523 3.355-2.756 4.459-3.578 1.104-.822 3.67-2.217 4.496-2.489.827-.272 1.268-.601 1.268-.601"/><path fill="#92E3A9" stroke="#263238" stroke-linecap="round" stroke-linejoin="round" stroke-miterlimit="10" stroke-width=".605" d="M61.817 32.254c.365.674-23.33 19.354-24.53 19.7-1.202.34-3.976.346-8.637-1.71-4.661-2.063-9.624-6.114-9.68-7.831-.05-1.724-1.088-5.07-.516-6.101.58-1.026 18.19-22.493 18.19-22.493s1.29.59 2.391 2.616c0 0 .195.402.415.975v.006c.371.982.818 2.466.447 3.284-.157.352-.359 1.207-.453 2.346v.006c-.252 3.064.27 8.19 4.46 11.165 2.824 2.006 5.597 2.233 8.02 1.73h.005c1.51-.308 2.881-.9 4.032-1.51l.019-.012c.76-.396 1.415-.811 1.962-1.157 2.717-1.73 3.51-1.693 3.875-1.014Z"/><path stroke="#263238" stroke-linecap="round" stroke-linejoin="round" stroke-miterlimit="10" stroke-width=".302" d="M30.52 29.517 18.97 42.411M31.76 28.385l4.453-5.08M39.45 17.416c-.026.057-.044.113-.063.164M39.444 23.052l-.057.076"/><path fill="#263238" stroke="#263238" stroke-linecap="round" stroke-linejoin="round" stroke-miterlimit="10" stroke-width=".605" d="M129.52 235.204c20.323 0 36.798-2.973 36.798-6.64s-16.475-6.64-36.798-6.64-36.798 2.973-36.798 6.64 16.475 6.64 36.798 6.64ZM110.649 44.622s-8.464 5.486-5.956 11.912c2.508 6.426 17.868 9.404 22.727 7.524 4.858-1.881 3.448-9.561 3.134-10.031-.313-.47 5.799-7.367 5.799-8.15 0-.784.628-5.33.628-5.33s4.231-.47 6.112-3.76c1.881-3.292-1.567-10.659-5.172-13.48-3.605-2.821-7.993-5.329-17.084-2.978-9.09 2.35-17.084 10.815-16.143 15.987.94 5.172 5.955 8.306 5.955 8.306Z"/><path fill="#fff" stroke="#263238" stroke-linecap="round" stroke-linejoin="round" stroke-miterlimit="10" stroke-width=".605" d="M104.045 116.073s-3.068 9.203-3.429 17.685c-.361 8.48 7.038 21.473 7.038 24.541 0 3.068.18 3.97.18 8.12 0 4.151-1.624 7.399 1.083 18.226 2.707 10.827 7.218 29.052 7.218 29.955 0 .902-1.444 6.496-2.526 7.94-1.083 1.443-2.887 3.248-1.805 4.331 1.083 1.082 9.564 1.263 10.647.541 1.082-.722 1.263-4.511 1.263-7.579 0-3.067-.902-8.301-.902-11.188 0-2.887 1.804-34.105 1.804-34.105l2.166-33.023s3.97 30.316 4.692 36.992c.721 6.677 7.398 30.678 7.759 32.482.361 1.804 1.624 14.256 1.805 15.158.18.902 1.263 1.443 2.165 1.443.902 0 7.759 1.444 8.481-.722.722-2.165-2.345-6.135-2.887-8.481-.541-2.346-2.166-5.414-2.166-7.76 0-2.345 3.249-24.722 2.166-32.842-1.082-8.121-3.429-17.685-3.068-19.669.361-1.985 4.692-20.211 3.971-27.429-.722-7.218-1.727-13.022-1.727-13.022l-1.522-2.858-40.06-2.165-2.346 3.429Z"/><path fill="#fff" stroke="#263238" stroke-linecap="round" stroke-linejoin="round" stroke-miterlimit="10" stroke-width=".605" d="M119.744 213.156c-1.805-1.263-3.79 2.888-3.79 2.888l-.073.021c-.462 2.027-1.467 5.4-2.273 6.475-1.083 1.443-2.887 3.248-1.805 4.331 1.083 1.082 9.564 1.263 10.647.541 1.083-.722 1.263-4.511 1.263-7.579 0-.864-.073-1.902-.176-3.009l-.727.303c.001-.001-1.262-2.708-3.066-3.971ZM147.485 214.433c-.833-.869-2.42-2.056-3.921-.555-2.166 2.165-2.346 3.248-2.346 3.248l-1.247-.288c.459 4.064.958 8.769 1.066 9.311.181.902 1.263 1.443 2.165 1.443.903 0 7.76 1.444 8.482-.722.722-2.165-2.346-6.135-2.888-8.481-.275-1.194-.831-2.577-1.311-3.956Z"/><path fill="#263238" stroke="#263238" stroke-linecap="round" stroke-linejoin="round" stroke-miterlimit="10" stroke-width=".605" d="M147.76 199.887c.815-7.657 1.672-17.333 1.037-22.1-1.083-8.12-3.429-17.684-3.068-19.669.361-1.985 4.692-20.21 3.971-27.429-.723-7.218-1.727-13.022-1.727-13.022l-1.522-2.858-40.06-2.165-2.346 3.429s-3.068 9.203-3.429 17.684c-.361 8.481 7.038 21.474 7.038 24.541 0 3.068.181 3.971.181 8.121s-1.624 7.398 1.082 18.225a3717.27 3717.27 0 0 1 3.886 15.679c2.542.552 6.469 1.2 10.33 1.019.518-10.101 1.484-26.803 1.484-26.803l2.165-33.023s3.97 30.317 4.692 36.993c.433 4.003 3.005 14.231 5.075 22.171 3.516.359 7.743.382 11.211-.793Z"/><path fill="#fff" stroke="#263238" stroke-linecap="round" stroke-linejoin="round" stroke-miterlimit="10" stroke-width=".605" d="M121.095 52.145s-.268 7.889-.401 9.226c-.134 1.337-2.006 2.273-5.215 2.54-3.209.268-11.634-.802-14.308 1.605-2.674 2.407-11.232 20.994-10.831 22.331.401 1.338 3.21 3.477 6.285 1.872 3.075-1.604 10.029-7.89 10.029-7.89l2.985 18.634-5.927 17.069s13.907 3.477 25.139 2.675c11.232-.803 19.122-2.541 19.122-2.541s-2.776-11.375-4.381-13.515c-1.605-2.139-2.974-6.944-2.974-6.944l3.744-16.18s14.04 10.698 14.575 10.832c.535.134 7.756 2.006 7.89-2.942.134-4.947-2.735-7.037-2.735-7.037s-13.044-15.026-15.985-16.363c-2.942-1.338-13.907-1.471-15.244-2.407-1.338-.936-1.07-5.884-1.07-5.884l-10.698-5.081Z"/><path fill="#263238" d="M129.082 62.743c1.05-.136 2.065-.564 3.005-1.135-.432-1.787-.294-4.381-.294-4.381l-10.698-5.082s-.074 2.208-.165 4.485c1.956 2.694 5.261 6.487 8.152 6.113Z"/><path fill="#93DA46" stroke="#263238" stroke-linecap="round" stroke-linejoin="round" stroke-miterlimit="10" stroke-width=".605" d="M148.106 65.517c-2.309-1.05-9.559-1.358-13.218-1.895-1.428 2.544-4.246 6.484-8.043 6.575-4.728.113-9.36-4.796-10.707-6.352a17.86 17.86 0 0 1-.659.067c-3.209.268-11.634-.802-14.308 1.605-1.297 1.167-3.977 6.14-6.349 11.106.793.225 1.737.488 2.872.794 4.656 1.259 7.889 4.647 8.255 5.042.442-.392.705-.629.705-.629l2.985 18.633-5.927 17.07s13.907 3.477 25.139 2.674c11.232-.802 19.122-2.54 19.122-2.54s-2.776-11.376-4.381-13.515c-1.605-2.14-2.974-6.944-2.974-6.944l3.744-16.18s2.285 1.741 5.046 3.826l8.988-9.222c-3.304-4.052-8.485-9.295-10.29-10.115Z"/><path stroke="#263238" stroke-linecap="round" stroke-linejoin="round" stroke-miterlimit="10" stroke-width=".605" d="M130.062 96.03c-3.119 3.155-7.77 7.701-11.468 10.66M133.523 92.463s-.757.802-1.981 2.06M120.702 101.947s-5.621 4.391-8.431 6.675"/><path fill="#fff" d="M158.18 86.118s-13.173 19.308-13.533 20.391c-.361 1.083.541 2.526.902 3.609.361 1.083 1.263 6.497 3.068 6.497 1.805 0 5.053-1.263 5.233-2.166.181-.903-.18-2.346-.722-2.346-.541 0-.722 1.082-.722 1.082l-.18.722-1.263-.902s.541-.541.722-2.887c.18-2.346-1.805-4.15-1.805-4.15s19.309-15.158 19.309-17.684c0-2.527-5.096-6.404-5.096-6.404"/><path stroke="#263238" stroke-linecap="round" stroke-linejoin="round" stroke-miterlimit="10" stroke-width=".605" d="M158.18 86.118s-13.173 19.308-13.533 20.391c-.361 1.083.541 2.526.902 3.609.361 1.083 1.263 6.497 3.068 6.497 1.805 0 5.053-1.263 5.233-2.166.181-.903-.18-2.346-.722-2.346-.541 0-.722 1.082-.722 1.082l-.18.722-1.263-.902s.541-.541.722-2.887c.18-2.346-1.805-4.15-1.805-4.15s19.309-15.158 19.309-17.684c0-2.527-5.096-6.404-5.096-6.404"/><path fill="#fff" stroke="#263238" stroke-linecap="round" stroke-linejoin="round" stroke-miterlimit="10" stroke-width=".605" d="M131.124 31.018s-3.61 4.278-7.354 7.755c-3.744 3.477-7.89 5.35-7.89 5.35l.535.935s-3.076-1.07-2.942 1.07c.134 2.14 2.808 3.61 3.343 3.744.535.134 1.07.134 1.07.134.239 0 2.086 2.918 2.455 3.325 1.994 2.197 4.46 4.46 7.322 5.423 6.849 2.306 10.548-6.156 10.548-11.69 0-2.942.133-8.425.133-8.425s-6.017-6.15-7.22-7.621Z"/><path stroke="#263238" stroke-linecap="round" stroke-linejoin="round" stroke-miterlimit="10" stroke-width=".605" d="M131.526 39.575s-.268 2.675.534 3.744c.803 1.07 2.541 1.204 2.006 2.14-.535.936-2.139 1.471-2.139 1.471M125.107 47.197s2.006 2.675 6.285 1.471"/><path fill="#263238" d="M126.711 41.982c0 .665-.299 1.204-.668 1.204-.37 0-.669-.54-.669-1.204 0-.664.299-1.203.669-1.203.369 0 .668.539.668 1.203ZM134.333 41.581c0 .665-.299 1.204-.668 1.204-.37 0-.669-.54-.669-1.204 0-.664.299-1.203.669-1.203.369 0 .668.539.668 1.203Z"/><path stroke="#263238" stroke-linecap="round" stroke-linejoin="round" stroke-miterlimit="10" stroke-width=".605" d="M122.7 39.977s1.872-3.477 5.482-2.14M131.124 36.767s2.273-2.406 5.482 0"/><path fill="#fff" stroke="#263238" stroke-linecap="round" stroke-linejoin="round" stroke-miterlimit="10" stroke-width=".605" d="M125.421 61.675s1.983-2.288 3.661-2.898c1.678-.61 2.593-2.136 1.983-2.441-.61-.305-.915-.763-3.813.61s-4.729 2.898-4.729 4.576c0 1.678-1.525 8.694-1.983 9.762-.457 1.068-1.983 4.576-10.067 7.627-8.084 3.05-15.253 3.05-18.608 5.033-3.356 1.983-5.339 7.932-3.508 10.22 1.83 2.288 8.236 1.068 10.677.153 2.44-.915 14.032-9 17.236-11.745 3.203-2.746 6.711-6.406 6.711-6.406s1.983-.458 3.051-1.373c1.067-.915 2.135-2.745 2.135-2.745s.915.762 1.526-.305c.61-1.068 1.677-4.27 1.677-6.101 0-1.83-1.22-2.746-2.288-2.898-1.068-.154-3.661-1.07-3.661-1.07Z"/><path fill="#fff" d="M126.48 67.56s2.098-.072 2.894 0c.795.072 1.374.072 1.374.94"/><path stroke="#263238" stroke-linecap="round" stroke-linejoin="round" stroke-miterlimit="10" stroke-width=".605" d="M126.48 67.56s2.098-.072 2.894 0c.795.072 1.374.072 1.374.94"/><path fill="#fff" d="M125.974 64.812s4.629.072 4.918.506c.289.434.434 1.23.434 1.23"/><path stroke="#263238" stroke-linecap="round" stroke-linejoin="round" stroke-miterlimit="10" stroke-width=".605" d="M125.974 64.812s4.629.072 4.918.506c.289.434.434 1.23.434 1.23M128.167 72.047l.049-1.16"/></svg>