<svg xmlns="http://www.w3.org/2000/svg" width="246" height="208" fill="none"><path fill="#CAEDA4" d="M222.156 37.675S201.625 8.723 142.723 7.07c-58.902-1.654-64.624 26.884-79.77 35.57-15.146 8.685-46.111 6.617-56.882 31.019-10.77 24.402-11.444 94.3 33.994 108.776 45.439 14.476 63.614-16.544 88.521-13.235 24.907 3.309 48.132 21.507 82.463 16.957 34.331-4.549 38.37-83.133 32.984-107.535-5.384-24.402-21.877-40.946-21.877-40.946Z"/><path fill="#541126" d="M111.641 55.872s9.492 9 4.512 17.364c-4.981 8.364-12.286 7.18-35.758 11.688-23.471 4.509-57.553 2.97-60.47-9.609-3.062-13.201 8.626-32.917 26.748-35.65 24.963-3.763 59.888 12.883 64.968 16.207ZM173.31 51.236s-33.749-9.488-38.575 2.373c-4.826 11.86 14.817 23.11 32.747 23.998 17.929.888 48.592 20.955 50.001 5.288 1.409-15.667 1.972-30.353 0-34.6-1.971-4.246-27.946 4.334-44.173 2.941Z"/><path fill="#7B733D" d="M168.421 28.965c2.327 6.061 1.177 13.357-6.761 15.19-7.141 4.117-12.862-.7-15.19-6.762-2.327-6.061-1.505-12.337 6.761-15.19 8.406-3.949 12.862.7 15.19 6.762Z"/><path fill="#541126" d="M152.827 24.963c-.33-.527.101-1.55.101-1.55 1.29-.2 2.441.4 2.441.4.897-.73 2.443-1.267 2.443-1.267-.104 1.224-1.212 2.36-1.212 2.36.516.718 1.173 1.819 1.173 1.819-1.958.632-3.111-.238-3.111-.238-.508 1.683-2.522 2.597-2.522 2.597s-.352-1.26.372-2.222c0 0-1.649-.061-2.18-.391 0 0 1.644-1.494 2.495-1.508Z"/><path stroke="#302218" stroke-linecap="round" stroke-linejoin="round" stroke-miterlimit="10" stroke-width=".294" d="M145.924 35.761s1.284 7.202 8.31 9.635c0 0 3.325.919 7.425-1.242M154.104 21.819s2.743-1.287 4.697-1.077c0 0 4.49-.775 8.143 5.126"/><path fill="#7B733D" d="M147.032 42.938 197.421 9.79a.531.531 0 0 1 .79.254c1.372 3.607 7.313 22.448-11.857 36.672-20.164 14.962-36.896-.66-39.386-3.19a.382.382 0 0 1 .064-.588Z"/><path fill="#CBC47A" d="m147.237 42.812 50.012-32.9s9.427 20.8-11.352 36.15c-20.78 15.35-38.66-3.25-38.66-3.25Z"/><path fill="#FF4D4D" d="m148.913 41.691 46.866-30.83s8.834 19.49-10.638 33.876c-19.473 14.385-36.228-3.046-36.228-3.046Z"/><path fill="#541126" d="M187.467 20.144a.206.206 0 0 1-.092-.355c.647-.575 2.24-1.785 2.873-.398.651 1.425-1.818.976-2.781.753ZM187.671 26.3a.21.21 0 0 1 .022-.372c.805-.354 2.727-1.028 2.907.514.184 1.582-2.066.375-2.929-.142ZM162.636 36.83a.208.208 0 0 0-.262-.261c-.827.266-2.69 1.03-1.812 2.287.902 1.292 1.774-1.078 2.074-2.027ZM168.625 39.233a.208.208 0 0 0-.344-.138c-.662.575-2.085 2.019-.774 2.836 1.347.84 1.217-1.7 1.118-2.698ZM184.783 31.957a.211.211 0 0 1 .186-.326c.883.04 2.914.288 2.39 1.756-.538 1.509-2.028-.58-2.576-1.43ZM180.657 35.854a.193.193 0 0 1 .301-.163c.665.456 2.119 1.626 1.007 2.511-1.143.91-1.293-1.425-1.308-2.348ZM174.603 38.964a.192.192 0 0 1 .341.006c.354.722 1.042 2.451-.359 2.674-1.438.23-.422-1.872.018-2.68Z"/><path stroke="#302218" stroke-linecap="round" stroke-linejoin="round" stroke-miterlimit="10" stroke-width=".294" d="m196.488 10.412-10.069 6.605M197.5 17.433s.995 5.934-.787 11.594c-1.887 6-5.123 9.64-5.123 9.64M147.237 42.812l5.478-3.604"/><path fill="#86304A" d="M203.145 25.81s.771-3.091 1.696-4.765c0 0-.145-1.096-1.278-.387 0 0-1.81 2.572-1.679 5.23.131 2.66.976.96 1.261-.078Z"/><path fill="#FFC34A" d="M215.289 49.603s5.289-8.778-3.183-15.894c0 0-2.591-2.3-3.741-3.996-1.15-1.696-1.417-5.435-5.883-5.225-4.466.209-2.928 5.012-5.896 8.95-2.968 3.94-4.875 21.125 6.476 22.636 9.677 1.288 12.227-6.471 12.227-6.471Z"/><path stroke="#302218" stroke-linecap="round" stroke-linejoin="round" stroke-miterlimit="10" stroke-width=".294" d="M215.288 49.603s5.29-8.778-3.182-15.894c0 0-2.591-2.3-3.741-3.996-1.15-1.696-1.417-5.435-5.883-5.225-4.467.209-2.928 5.012-5.896 8.95-1.555 2.064-2.819 7.764-2.037 12.94"/><path fill="#CBC47A" d="M71.487 45.602s.701-4.323 2.83-5.067c2.13-.744 2.108-3.47.503-2.48-1.605.99.433-2.615 1.386-2.76.953-.143 2.103-4.036-.272-2.768-2.375 1.268-1.588-2.554-.523-2.926 1.064-.372-.525-3.153-2.688-.91-2.162 2.243-2.21 1.925-2.425.61-.215-1.316-1.428-2.465-2.346-.8-.918 1.666.03 3.861-1.2 3.35-1.23-.513-2.64-.593-2.396 1.449.244 2.042 1.897 4.277.462 3.812-1.434-.466-2.224 1.34-.993 2.747 1.23 1.408 2.457 2.949 1.442 3.01-1.015.062.156 1.952 2.67 3.844 2.515 1.893 3.55-1.111 3.55-1.111Z"/><path stroke="#302218" stroke-linecap="round" stroke-linejoin="round" stroke-miterlimit="10" stroke-width=".294" d="M74.82 38.055c-1.605.99.433-2.615 1.386-2.76.953-.143 2.103-4.036-.272-2.768-2.375 1.268-1.588-2.554-.523-2.926M67.937 46.714c2.515 1.892 3.55-1.112 3.55-1.112M66.752 31.85c-1.23-.512-2.64-.592-2.396 1.45.244 2.043 1.897 4.278.462 3.812-1.434-.465-2.224 1.34-.993 2.748"/><path fill="#CBC47A" d="M49.16 42.912s-2.235-3.812-4.51-3.735c-2.275.077-3.248-2.495-1.378-2.15 1.871.347-1.361-2.302-2.31-2.09-.95.213-3.452-3.03-.755-2.704 2.698.327.562-2.982-.575-2.944-1.137.038-.656-3.158 2.197-1.836 2.853 1.322 2.782 1.005 2.504-.311-.277-1.316.445-2.84 1.916-1.607 1.471 1.232 1.38 3.643 2.35 2.712.972-.93 2.268-1.52 2.784.49.516 2.011-.224 4.718.956 3.756 1.18-.961 2.581.45 1.937 2.223-.645 1.773-1.236 3.67-.259 3.358.978-.313.565 1.893-1.11 4.59-1.677 2.697-3.746.248-3.746.248Z"/><path stroke="#302218" stroke-linecap="round" stroke-linejoin="round" stroke-miterlimit="10" stroke-width=".294" d="M48.6 28.247c.97-.931 2.267-1.52 2.783.49.515 2.01-.224 4.717.956 3.756 1.18-.962 2.58.45 1.936 2.222-.644 1.773-1.236 3.67-.258 3.358M43.272 37.027c1.871.346-1.361-2.302-2.31-2.09-.95.212-3.452-3.031-.755-2.705"/><path fill="#CBC47A" d="M65.28 42.553s-1.39-5.205.626-7.112c2.015-1.907.619-4.956-.685-3.037-1.303 1.918.189-2.058.167-3.796-.015-1.185.328-5.59-1.7-2.971-2.027 2.62-1.476-1.05-2.06-3.022-.395-1.33-2.177-3.275-3.475.332-1.299 3.608-1.512 3.275-2.416 1.906-.904-1.368-1.526-2.7-3.036.284-1.056 2.088 1.98 4.32.34 4.364-1.64.044-3.262.664-1.96 2.834 1.301 2.17 4.282 3.847 2.438 4.046-1.845.2-1.822 2.625.268 3.585s4.242 2.073 3.134 2.653c-1.109.58 1.158 2.112 4.934 2.97 3.776.859 3.425-3.036 3.425-3.036Z"/><path stroke="#302218" stroke-linecap="round" stroke-linejoin="round" stroke-miterlimit="10" stroke-width=".294" d="M65.28 42.553s-1.39-5.205.626-7.112c2.015-1.907.619-4.956-.685-3.037-1.303 1.918.189-2.058.167-3.796M52.701 25.138c-1.056 2.088 1.98 4.32.34 4.363-1.64.044-3.262.664-1.96 2.834 1.301 2.17 4.282 3.847 2.438 4.047-1.845.2-1.822 2.624.268 3.585"/><path fill="#CBC47A" d="M51.26 56.548s-4.387-3.129-6.88-1.91c-2.494 1.217-4.858-1.16-2.604-1.707 2.254-.547-1.993-.545-3.613-1.176-1.104-.43-5.35-1.655-2.186-2.634 3.164-.98-.464-1.75-2.106-2.99-1.107-.836-2.303-3.188 1.53-3.138 3.834.05 3.598-.266 2.633-1.593-.964-1.326-1.993-2.376 1.332-2.742 2.325-.257 3.35 3.368 3.966 1.848.617-1.52 1.767-2.82 3.342-.84 1.575 1.98 2.1 5.36 2.934 3.703.835-1.657 3.097-.785 3.262 1.51.166 2.294.452 4.7 1.385 3.866.932-.835 1.57 1.825 1.049 5.661-.521 3.837-4.045 2.142-4.045 2.142Z"/><path stroke="#302218" stroke-linecap="round" stroke-linejoin="round" stroke-miterlimit="10" stroke-width=".294" d="M39.366 38.658c2.325-.257 3.35 3.368 3.966 1.848.617-1.52 1.767-2.82 3.342-.84 1.575 1.98 2.1 5.36 2.934 3.703.834-1.657 3.096-.785 3.262 1.51.166 2.294.452 4.7 1.385 3.866M35.977 49.12c3.164-.978-.464-1.75-2.106-2.989-1.107-.836-2.303-3.188 1.53-3.138M44.38 54.638c-2.494 1.218-4.858-1.16-2.604-1.707"/><path fill="#7B733D" d="M65.592 40.915c1.639 4.4 1.786 6.22 1.786 6.22-2.033-.12-4.062-3.017-6.513-6.112-2.45-3.094-2.554-11.096-3.67-8.511-1.15 2.657-1.675 5.512 1.652 9.388 3.327 3.876 3.576 11.615-.145 8.509-3.722-3.107-7.972-14.636-10.175-16.635-1.31-1.187-.311 2.468-.311 2.468 4.442 11.398 3.688 13.02 3.688 13.02-3.31-3.009-8.268-5.642-8.268-5.642-1.554-.792-1.23.15-.596 1.196a12.632 12.632 0 0 0 2.23 2.704c2.522 2.334 9.704 9.275 12.86 15.436 3.862 7.54 14.348 17.968 20.858 13.537 6.51-4.43.73-18.08-4.945-24.369-2.583-2.861-6.165-9.27-6.542-11.738 0 0-.21-1.976-1.458-1.565-1.25.412-.451 2.094-.451 2.094Z"/><path stroke="#302218" stroke-linecap="round" stroke-linejoin="round" stroke-miterlimit="10" stroke-width=".294" d="M51.904 49.264s-.076 2.208 2.103 5.405c0 0 13.513 20.103 24.98 21.825 0 0-4.165-8.498-9.141-15.44-7.04-9.821-9.728-17.288-9.728-17.288M78.988 76.494c.548-9.762-3.651-16.83-6.947-20.811a24.496 24.496 0 0 1-4.63-8.684 36.945 36.945 0 0 0-.438-1.393s-.526-2.295-.878-3.287c-.352-.993-1.544-2.855-.052-3.498 1.491-.643 1.444 4.093 4.722 8.699"/><path stroke="#302218" stroke-linecap="round" stroke-linejoin="round" stroke-miterlimit="10" stroke-width=".294" d="M55.127 45.56s12.354 25.848 23.86 30.934"/><path fill="#7B733D" d="M192.503 30.278c-9.189.003-6.867 15.72-14.438 10.736-8.804-5.796-12.053 8.424-7.643 13.06 3.961 4.166 1.652 7.946-3.417 12.756-10.757 10.21 10.591 14.923 10.591 14.923s21.348 4.713 17.757-8.665c-1.692-6.302-1.558-10.564 4.277-12.566 6.495-2.229 11.753-16.005.756-14.58-9.458 1.224 1.524-11.557-6.51-15.361 0 0-.613-.272-1.373-.303Z"/><path stroke="#302218" stroke-linecap="round" stroke-linejoin="round" stroke-miterlimit="10" stroke-width=".294" d="M177.595 81.753s21.348 4.713 17.757-8.665c-1.692-6.302-1.557-10.564 4.278-12.566M170.421 54.075c-4.409-4.637-1.16-18.856 7.643-13.061 7.571 4.985 5.249-10.734 14.439-10.736"/><path fill="#CBC47A" d="M175.951 80.389c.964-3.992 2.117-7.943 3.298-11.888a382.307 382.307 0 0 1 3.793-11.779 289.408 289.408 0 0 1 4.208-11.687c1.51-3.872 3.08-7.73 4.911-11.532a.099.099 0 0 1 .122-.046.08.08 0 0 1 .055.085c-.564 4.081-1.389 8.105-2.273 12.115-.9 4.006-1.903 7.99-2.977 11.959a382.488 382.488 0 0 1-3.392 11.867c-1.214 3.937-2.456 7.868-3.886 11.758-.354.96-1.491 1.505-2.541 1.218-.977-.268-1.531-1.173-1.318-2.07Z"/><path fill="#CBC47A" d="M181.003 64.748c1.269-1.41 2.656-2.712 4.086-3.973a87.133 87.133 0 0 1 4.437-3.645 67.688 67.688 0 0 1 4.732-3.37c1.653-1.052 3.35-2.064 5.231-2.903.049-.021.106-.004.129.04a.08.08 0 0 1-.003.077c-.981 1.68-2.149 3.187-3.358 4.654a63.765 63.765 0 0 1-3.857 4.186 85.323 85.323 0 0 1-4.153 3.91c-1.433 1.258-2.91 2.476-4.503 3.584-.898.624-2.16.487-2.82-.305-.561-.675-.503-1.608.079-2.255Z"/><path fill="#CBC47A" d="M180.473 66.585c-.763-1.628-1.36-3.304-1.897-4.996a69.45 69.45 0 0 1-1.404-5.137 53.23 53.23 0 0 1-.988-5.256c-.222-1.783-.384-3.583-.286-5.458.003-.048.048-.087.101-.086.032 0 .059.014.076.035 1.167 1.512 2.073 3.1 2.92 4.704a53.946 53.946 0 0 1 2.218 4.903 70.294 70.294 0 0 1 1.803 5.023c.531 1.694 1.003 3.406 1.309 5.164.173.99-.579 1.947-1.679 2.137-.937.161-1.824-.286-2.173-1.033Z"/><path stroke="#302218" stroke-linecap="round" stroke-linejoin="round" stroke-miterlimit="10" stroke-width=".294" d="M181.292 77.013s2.496-7.844 3.235-10.266M186.628 59.453s8.355-6.812 12.861-8.597M175.898 45.738s.196 11.505 4.242 19.831"/><path fill="#CBC47A" d="M165.956 32.143s.651-2.56 2.879-3.052a.615.615 0 0 1 .442.063c.214.125.516.387.633.9a.611.611 0 0 1-.34.694c-.675.306-2.049 1.033-2.586 2.09 0 0-1.542.183-1.028-.695Z"/><path fill="#86304A" d="M171.236 35.785s2.955 6.001-2.069 18.53c-3.395 8.465-6.744 16.732-11.894 20.898-3.659 2.96-8.746 3.483-12.955 1.377l-.116-.059c-4.184-2.156-6.764-6.571-6.532-11.272.325-6.616 5.023-14.198 9.855-21.934 7.152-11.448 13.74-12.602 13.74-12.602s2.576-.374 5.664 1.195c3.089 1.567 4.307 3.867 4.307 3.867Z"/><path fill="#CBC47A" d="M156.414 33.199s.662 2.61 4.009 3.876c0 0-.312 1.576 2.39 2.948 2.703 1.372 3.79.19 3.79.19 2.997 1.955 5.496.862 5.496.862s1.027-6.65-4.996-9.502c-6.339-3.001-10.689 1.626-10.689 1.626Z"/><path stroke="#302218" stroke-linecap="round" stroke-linejoin="round" stroke-miterlimit="10" stroke-width=".294" d="M156.414 33.199s.566 2.536 4.009 3.876c0 0-.476 1.51 2.39 2.948M163.213 30.567s3.06-.112 6.216 2.572c3.157 2.683 2.67 7.937 2.67 7.937M168.91 31.08s.326-.173.66-.332a.615.615 0 0 0 .339-.695c-.051-.18-.195-.652-.633-.9M142.009 52.582s3.911-7.145 6.218-10.35"/><path fill="#86304A" d="M42.369 49.47s1.993-3.172 3.641-4.702c0 0 .239-1.278-1.286-.901 0 0-2.964 2.21-3.792 5.228-.829 3.019.739 1.43 1.437.374Z"/><path fill="#FFC34A" d="M47.217 80.501s9.126-7.869 2.27-18.922c0 0-2.053-3.52-2.717-5.836-.664-2.316.409-6.591-4.658-7.994-5.066-1.403-5.107 4.526-9.867 7.84-4.759 3.312-13.187 21.813-1.06 27.661 10.34 4.986 16.032-2.749 16.032-2.749Z"/><path stroke="#302218" stroke-linecap="round" stroke-linejoin="round" stroke-miterlimit="10" stroke-width=".294" d="M47.217 80.501s9.126-7.869 2.27-18.922c0 0-2.053-3.52-2.717-5.836-.663-2.316.409-6.591-4.657-7.994-5.067-1.403-5.108 4.526-9.867 7.84-2.494 1.735-5.994 7.639-7.018 13.709"/><path fill="#CBC47A" d="M202.568 54.33s-1.097-2.463-1.603-2.833c-.505-.37.687-.939 1.134-.64.447.3.71-.023 1.024-.603.314-.58.986-.893 1.365-.615.38.277.696.148 1.153-.515.458-.664.89-.459 1.287-.168.398.29.669-.231.894-.539.224-.306 1.113-.044.905.885-.208.93-.507 3.058.175 4.089.682 1.03-5.957 2.378-6.334.94Z"/><path fill="#F0865F" d="M214.043 86.498c.384.605 1.318.354 1.347-.362.233-5.701.634-20.533-1.121-27.067-2.196-8.179-8.579-6.364-8.579-6.364s-6.434 1.627-4.237 9.806c1.755 6.534 9.532 19.169 12.59 23.987Z"/><path fill="#E26640" d="M214.269 59.07s-2.666.118-5.41 1.016c0 0 2.109-.127 5.731.39 0 0-.254-1.168-.321-1.407ZM203.586 68.029s2.269-.714 5.227-.91c0 0-1.66 1.226-4.682 2.059 0 0-.432-.903-.545-1.15ZM200.996 59.314s1.413-.834 4.332-1.587c0 0-1.822-.31-4.229.266 0 0-.112.878-.103 1.321ZM215.601 76.633s-1.689-.405-3.57-.547c0 0 1.537-.623 3.569-.77l.001 1.317Z"/><path stroke="#302218" stroke-linecap="round" stroke-linejoin="round" stroke-miterlimit="10" stroke-width=".294" d="M215.39 86.136c.233-5.701.634-20.533-1.121-27.067M205.69 52.705s-6.433 1.627-4.237 9.806c.346 1.287 3.152 8.364 5.66 12.373"/><path fill="#FFC34A" d="M95.719 59.365c-3.6.523-6.928-4.055-6.928-4.055-4.155-1.698-5.929-5.662-5.929-5.662-3.53-2.31-4.918-7.052-4.918-7.052-3.712-3.362-3.705-6.871-3.705-6.871-3.157-2.867-2.26-6.31-2.26-6.31-3.917-3.762-2.504-6.258-2.504-6.258-3.289-3.42-1.122-5.656-1.122-5.656-2.077-2.921.931-4.526.931-4.526s2.687-2.037 4.891.802c0 0 3.023-1.083 5.299 2.985 0 0 3.017-.337 5.415 4.397 0 0 3.786.447 5.55 4.204 0 0 3.538 1.243 5.605 5.658 0 0 4.284 2.89 5.354 6.773 0 0 3.363 2.948 3.594 7.155 0 0 3.428 4.514 1.621 7.45-.002 0-2.719 3.93-10.894 6.966Z"/><path stroke="#302218" stroke-linecap="round" stroke-linejoin="round" stroke-miterlimit="10" stroke-width=".294" d="M69.284 12.974s.845 1.6 2.109 2.84c0 0 1.373 2.874 3.712 4.995 0 0 1.423 2.502 4.123 5.006 0 0 1.697 3.01 4.228 5.69 0 0 1.156 2.605 4.434 5.967 0 0 2.5 3.93 5.112 6.557 0 0 1.425 3.047 4.572 6.153 0 0 2.393 3.785 4.518 6.08M68.255 13.846s-.339 2.143.925 3.382c0 0-.255 3.6 3.19 5.33 0 0-.467 3.311 3.34 5.506 0 0-.856 4.435 3.184 6.358 0 0-1.27 3.657 3.39 6.635 0 0 .732 5.116 5.113 6.557 0 0 .779 3.828 5.615 5.485 0 0 2.425 4.18 6.867 4.578M70.71 12.276s2.279.469 3.077 2.006c0 0 3.717 1.059 4.234 4.662 0 0 3.502.773 4.36 4.855 0 0 4.772.834 5.271 5.022 0 0 4.136.2 5.478 5.3 0 0 4.894 2.454 4.787 6.766 0 0 3.579 2.037 3.527 6.82 0 0 3.348 3.59 2.17 7.583"/><path stroke="#302218" stroke-linecap="round" stroke-linejoin="round" stroke-miterlimit="10" stroke-width=".294" d="M69.474 23.157s5.795-.337 9.998-6.395M71.978 29.416s7.801-2.548 12.91-8.257M74.238 35.724s10.153-1.907 16.2-10.36M77.944 42.596s10.279-2.703 18.098-11.575M82.862 49.648s11.286-4.783 18.534-11.854M88.79 55.31s9.522-4.155 16.2-10.36M74.174 13.777s-2.623 2.492-5.822 3.724"/><path fill="#CBC47A" d="M101.729 57.538s-6.914-6.805-8.898-16.56c-.53-2.61-1.232-5.215-2.24-7.749-3.43-8.614-2.762-18.335-2.762-18.335s6.154 10.22 13.348 20.448c5.263 7.482 11.895 17.878.552 22.196Z"/><path fill="#CBC47A" d="M101.953 57.695s.043-10.067-12.493-15.275c-3.503-1.456-6.959-3.105-10.272-5.097-9.34-5.615-15.163-4.549-15.163-4.549s7.44 7.462 14.833 13.993c7.394 6.532 13.781 17.525 23.095 10.928Z"/><path stroke="#302218" stroke-linecap="round" stroke-linejoin="round" stroke-miterlimit="10" stroke-width=".294" d="M89.46 42.42c-3.503-1.455-6.959-3.105-10.272-5.096-9.34-5.615-15.163-4.55-15.163-4.55"/><path fill="#7B733D" d="M103.097 54.832c.869 1.211 2.111 3.32.275 4.235-2.047 1.022-3.49-.987-4.359-2.198-.87-1.21-.66-2.648.468-3.21 1.128-.563 2.746-.038 3.616 1.173Z"/><path stroke="#302218" stroke-linecap="round" stroke-linejoin="round" stroke-miterlimit="10" stroke-width=".294" d="M99.577 55.05s-5.243-5.631-6.746-14.072c0 0-.975-3.893-2.24-7.748-1.267-3.856-2.146-7.981-2.146-7.981M98.95 59.147s-4.773 3.002-12.432-4.689M66.118 34.844l12.74 11.924"/><path fill="#FF4D4D" d="M83.073 56.862a8.621 8.621 0 1 0-7.574-15.49 8.621 8.621 0 0 0 7.575 15.49Z"/><path stroke="#302218" stroke-linecap="round" stroke-linejoin="round" stroke-miterlimit="10" stroke-width=".294" d="M76.597 57.312A8.622 8.622 0 0 1 81.98 40.93"/><path stroke="#302218" stroke-linecap="round" stroke-linejoin="round" stroke-miterlimit="10" stroke-width=".294" d="M74.472 48.721a.675.675 0 1 1-.421 1.282.675.675 0 0 1 .42-1.282ZM78.417 44.895a.674.674 0 1 1-.42 1.281.674.674 0 0 1 .42-1.281ZM75.08 44.711a.674.674 0 1 1-.42 1.281.674.674 0 0 1 .42-1.28Z"/><path fill="#E26640" d="M79.35 52.735s-4.649.175-6.085 4.321c0 0-5.824 6.917-.963 14.963 4.861 8.047 12.547 13.43 19.266 9.633 0 0 5.66-.231 9.176-5.016 0 0 11.399-7.724 2.091-22.425 0 0-6.003-9.29-13.26-6.692 0 0-5.126-.061-6.667 3.893 0 0-1.35.83-3.559 1.323Z"/><path stroke="#302218" stroke-linecap="round" stroke-linejoin="round" stroke-miterlimit="10" stroke-width=".294" d="M79.29 54.56s-2.599-.882-6.025 2.496M80.006 55.872S68.43 67.685 91.567 81.652M83.948 53.648s16.766-2.02 16.796 22.989M76.007 77.012s5.663 7.275 12.533 5.738M89.574 47.52s-3.196.741-6.485 4.964M96.828 48.419s-3.026-2.287-7.254-.9"/><path fill="#541126" d="M79.35 52.735s-1.686.811-.793 2.293c.893 1.482 1.715.853 3.703-.233 1.987-1.086 2.951-2.216 2.437-3.156-.514-.94-.773-1.742-5.347 1.096Z"/><path fill="#541126" d="M83.09 52.484s-1.271-1.712-1.3-3.602c-.027-1.889-2.14-.94-3.172-.376s-1.342 1.66-.137 2.288c1.205.629 2.25 2.978 2.25 2.978s1.014.004 2.358-1.288Z"/><path fill="#302218" d="M163.683 184.072H83.83V208h79.853v-23.928Z"/><path fill="#994F31" d="M151.216 76.222s18.524-5.018 32.945 3.035c0 0 17.315-3.134 29.905 4.767 0 0 .634-27.568 2.621-38.748 0 0 1.484-4.552 12.33-.093 0 0 11.179 22.83 8.596 48.785-.694 6.973-3.336 10.246-8.153 13.184-3.231 1.971-6.784 3.349-10.469 4.21-8.083 1.887-24.216 4.869-33.679 1.317 0 0-35.808 7.699-40.584-14.74-4.455-20.927 6.488-21.716 6.488-21.716Z"/><path fill="#994F31" d="M216.636 52.948s-1.685-2.77-2.982-2.977c-1.296-.208-9.85-3.263-9.964-7.537-.113-4.274 1.751-5.394 1.751-5.394s-.771-12.225 3.823-11.488c0 0 2.061.33 2.311 2.074 0 0 1.867-3.364 4.697-.21 0 0 2.311-2.119 4.252 1.263 0 0 3.845-1.237 4.549 2.635 0 0 7.287 13.602 3.112 20.118-1.542 2.406-7.964 2.374-11.549 1.516Z"/><path stroke="#302218" stroke-linecap="round" stroke-linejoin="round" stroke-miterlimit="10" stroke-width=".294" d="M213.654 49.971c-1.296-.208-9.85-3.263-9.964-7.537-.113-4.274 1.751-5.394 1.751-5.394s-.771-12.225 3.823-11.488c0 0 2.061.33 2.311 2.074 0 0 1.867-3.364 4.697-.21"/><path stroke="#302218" stroke-linecap="round" stroke-linejoin="round" stroke-miterlimit="10" stroke-width=".294" d="M205.441 37.04s4.16-2.547 6.238-4.572c2.079-2.024 6.655 3.947-1.345 8.397 0 0 4.172-2.002 7.057 1.13"/><path stroke="#302218" stroke-linecap="round" stroke-linejoin="round" stroke-miterlimit="10" stroke-width=".294" d="M211.575 27.625s.065 2.256-.68 5.553M216.273 27.415s1.653 6.07.02 8.51c0 0-.529.839-1.707.677"/><path stroke="#302218" stroke-linecap="round" stroke-linejoin="round" stroke-miterlimit="10" stroke-width=".294" d="M220.524 28.68s1.493 4.468.697 6.369c-.796 1.9-3.983.703-4.515-.007"/><path stroke="#302218" stroke-linecap="round" stroke-linejoin="round" stroke-miterlimit="10" stroke-width=".294" d="M221.448 33.849s.816.92 2.232.622c1.414-.3 1.406-1.803 1.393-3.157M211.544 32.599s1.633 1.298.419 2.927c-1.214 1.63-2.815.926-3.526-.468M180.448 77.493s3.19.978 7.814 4.52M211.552 82.618s2.764.895 4.985 3.83M180.918 111.12s4.219 1.814 7.462 2.446"/><path fill="#994F31" d="M96.258 75.042S70.95 73.25 60.995 80.158c0 0-17.47-4.035-30.06 3.866 0 0-.634-27.568-2.621-38.747 0 0-1.484-4.552-12.33-.094 0 0-11.18 22.83-8.596 48.785.693 6.974 3.336 10.246 8.152 13.184 3.231 1.971 6.784 3.35 10.47 4.21 8.082 1.888 24.216 4.87 33.679 1.317 0 0 35.807 7.7 40.584-14.74 4.454-20.927-4.015-22.897-4.015-22.897Z"/><path fill="#994F31" d="M28.364 52.948s1.684-2.77 2.981-2.977c1.297-.208 9.851-3.263 9.965-7.537.113-4.274-1.751-5.394-1.751-5.394s.77-12.225-3.824-11.488c0 0-2.06.33-2.31 2.074 0 0-1.867-3.364-4.698-.21 0 0-2.31-2.119-4.251 1.263 0 0-3.845-1.237-4.549 2.635 0 0-7.287 13.602-3.113 20.118 1.543 2.406 7.965 2.374 11.55 1.516Z"/><path stroke="#302218" stroke-linecap="round" stroke-linejoin="round" stroke-miterlimit="10" stroke-width=".294" d="M31.346 49.971c1.296-.208 9.85-3.263 9.964-7.537.113-4.274-1.75-5.394-1.75-5.394s.77-12.225-3.824-11.488c0 0-2.06.33-2.311 2.074 0 0-1.867-3.364-4.697-.21"/><path stroke="#302218" stroke-linecap="round" stroke-linejoin="round" stroke-miterlimit="10" stroke-width=".294" d="M39.56 37.04s-4.16-2.547-6.24-4.572c-2.078-2.024-6.654 3.947 1.346 8.397 0 0-4.172-2.002-7.057 1.13"/><path stroke="#302218" stroke-linecap="round" stroke-linejoin="round" stroke-miterlimit="10" stroke-width=".294" d="M33.425 27.625s-.065 2.256.68 5.553M28.728 27.415s-1.654 6.07-.02 8.51c0 0 .528.839 1.706.677"/><path stroke="#302218" stroke-linecap="round" stroke-linejoin="round" stroke-miterlimit="10" stroke-width=".294" d="M24.476 28.68s-1.493 4.468-.697 6.369c.796 1.9 3.983.703 4.515-.007"/><path stroke="#302218" stroke-linecap="round" stroke-linejoin="round" stroke-miterlimit="10" stroke-width=".294" d="M23.552 33.849s-.816.92-2.231.622c-1.415-.3-1.407-1.803-1.394-3.157M33.456 32.599s-1.633 1.298-.42 2.927c1.215 1.63 2.816.926 3.527-.468M65.49 77.91s-2.61.619-7.233 4.16M33.89 82.29s-2.763.895-4.983 3.83M64.525 110.792s-4.219 1.815-7.462 2.446"/><path fill="#994F31" d="M92.053 49.699c-.17 8.61 6.476 15.887 14.83 15.074l5.572-1.165-2.672 16.954s4.957 4.963 14.411 2.257c12.452-3.563 15.574-9.945 15.574-9.945l-.573-20.788s9.57 2.44 8.34-8.44c-1.541-13.628-9.137-9.637-7.059-5.8l.026-6.347c.332-6.139-3.332-13.666-13.27-15.249l-13.304-2.264s-21.1-3.44-21.875 35.713Z"/><path stroke="#302218" stroke-linecap="round" stroke-linejoin="round" stroke-miterlimit="10" stroke-width=".294" d="M140.78 42.974s-1.572 1.152-.304 2.024c2.703 1.856-1.324 2.11-.557 3.346M142.945 40.017s3.281-2.036 2.165 5.041"/><path fill="#302218" d="m111.641 68.776.814-5.168 14.581-3.661s-4.195 5.643-15.395 8.829ZM112.328 31.205c.554.067 1.345.156 2.03.288.71.124 1.426.274 2.138.472a47.43 47.43 0 0 1 2.151.667c.741.224 1.471.499 2.315.697l.019.004a.381.381 0 0 0 .416-.564 7.41 7.41 0 0 0-1.71-1.975c-.662-.576-1.432-1-2.218-1.393a12.227 12.227 0 0 0-2.498-.881c-.893-.192-1.708-.32-2.767-.24a1.458 1.458 0 0 0-.067 2.901l.191.024Z"/><mask id="a" width="9" height="9" x="94" y="23" maskUnits="userSpaceOnUse" style="mask-type:luminance"><path fill="#fff" d="M97.716 23.634s-2.072 3.32-3.079 7.355c0 0 6.638.94 7.842-1.882 0 0-1.443-4.042-4.763-5.473Z"/></mask><g mask="url(#a)"><path fill="#302218" d="M99.966 27.005c-.698-.366-1.265-.507-1.923-.623a7.423 7.423 0 0 0-1.94-.036c-.644.074-1.286.208-1.873.499a3.95 3.95 0 0 0-1.526 1.208.406.406 0 0 0 .247.642l.039.007c.63.12 1.148.14 1.658.212.503.06.977.091 1.448.174.468.074.93.163 1.383.277.436.092.95.248 1.282.307l.277.049a1.452 1.452 0 0 0 .928-2.716Z"/></g><path stroke="#302218" stroke-linecap="round" stroke-linejoin="round" stroke-miterlimit="10" stroke-width=".294" d="m136.917 51.533 2.278.553"/><path fill="#302218" d="M96.594 48.84s4.126 1.015 10.432 1.053c0 0-.175 7.262-5.946 6.748-4.334-.387-4.486-7.801-4.486-7.801Z"/><path fill="#FF4D4D" d="M106.295 53.262s-5.729-.877-7.349 2.41c0 0 1.688 1.833 4.417.812 0 0 2.116-.768 2.932-3.222Z"/><path fill="#fff" d="M96.594 48.84s3.708 4.6 10.432 1.053L96.594 48.84Z"/><mask id="b" width="10" height="13" x="92" y="30" maskUnits="userSpaceOnUse" style="mask-type:luminance"><path fill="#fff" d="M94.72 30.665s-1.885 5.652-2.146 10.852c0 0 2.458 1.898 5.243-.146 1.221-.896 2.301-2.505 3.746-5.783 0 0-1.853-3.87-6.843-4.923Z"/></mask><g mask="url(#b)"><path fill="#fff" d="M101.971 37.454s-6.001-9.09-14.064-1.782c0 0 1.527 4.403 6.125 5.509 4.597 1.105 7.939-3.727 7.939-3.727Z"/><mask id="c" width="15" height="10" x="87" y="32" maskUnits="userSpaceOnUse" style="mask-type:luminance"><path fill="#fff" d="M101.971 37.454s-6.001-9.09-14.064-1.782c0 0 1.527 4.403 6.125 5.509 4.597 1.105 7.939-3.727 7.939-3.727Z"/></mask><g mask="url(#c)"><path fill="#302218" d="M89.092 35.974a4.516 4.516 0 1 0 8.863 1.742 4.516 4.516 0 0 0-8.863-1.742Z"/></g><path fill="#302218" d="M87.862 35.465a9.412 9.412 0 0 1 3.288-2.785c1.301-.679 2.85-1.008 4.36-.788.75.113 1.482.342 2.151.679.328.179.658.358.957.576l.451.322.416.362c1.1.971 1.952 2.156 2.595 3.424a.099.099 0 0 1-.043.132.099.099 0 0 1-.118-.022c-.942-1.048-1.905-2.048-2.995-2.845-1.08-.798-2.286-1.394-3.568-1.57-1.277-.201-2.602.027-3.845.522-1.242.502-2.425 1.24-3.502 2.121l-.005.004a.098.098 0 0 1-.142-.133Z"/></g><path fill="#fff" d="M120.713 40.147s-6.001-9.09-14.063-1.781c0 0 1.526 4.402 6.124 5.508 4.597 1.105 7.939-3.727 7.939-3.727Z"/><mask id="d" width="15" height="10" x="106" y="35" maskUnits="userSpaceOnUse" style="mask-type:luminance"><path fill="#fff" d="M120.713 40.147s-6.001-9.09-14.063-1.781c0 0 1.526 4.402 6.124 5.508 4.597 1.105 7.939-3.727 7.939-3.727Z"/></mask><g mask="url(#d)"><path fill="#302218" d="M106.706 38.418a4.516 4.516 0 1 0 8.862 1.742 4.516 4.516 0 0 0-8.862-1.742Z"/></g><path fill="#302218" d="M106.621 38.172c.803-1.217 1.916-2.222 3.224-2.957 1.3-.735 2.887-1.137 4.454-.925 1.573.194 3.001 1 4.068 2.043 1.09 1.034 1.891 2.29 2.437 3.63a.076.076 0 0 1-.041.098.079.079 0 0 1-.085-.018c-.99-1.04-1.964-2.043-3.049-2.839-1.08-.793-2.257-1.386-3.515-1.555-1.253-.188-2.558.041-3.806.535-1.247.5-2.445 1.227-3.574 2.086l-.004.003a.076.076 0 0 1-.106-.014.078.078 0 0 1-.003-.087Z"/><path stroke="#302218" stroke-linecap="round" stroke-linejoin="round" stroke-miterlimit="10" stroke-width=".294" d="M101.625 34.755c-1.601 5.212-4.004 6.558-4.004 6.558s-1.393.874-1.034 2.226c.359 1.351 1.233.823 2.228 1.735M101.731 44.8s.205-.048.543.053c.337.1.54.477.54.477M104.537 42.47s1.664 1.406-.088 3.362"/><path fill="#302218" d="M121.481 23.57s-.116 8.207 4.515 8.498c4.63.292 4.027-5.186 4.027-5.186s3.697 6.592 7.325 5.472c3.627-1.12 1.184-5.907 1.184-5.907s5.181 5.133 7.669 1.159c1.887-3.015-2.817-6.734-2.817-6.734s5.141-.34 4.496-4.795c-.645-4.455-4.348-5.36-7.264-2.79 0 0 2.45-4.28-.976-6.581-4.125-2.77-6.874 1.763-6.874 1.763s2.001-5.365-2.682-7.18c-5.131-1.99-7.454 5.345-7.454 5.345s.125-6.623-6.717-6.368c-6.842.256-4.897 6.888-4.897 6.888s-1.673-7.603-9.138-4.12c-4.82 2.248-1.227 7.567-1.227 7.567s-5.795-3.736-8.67 1.629c-2.113 3.943 3.237 6.046 3.237 6.046s-5.076 2.153-3.411 6.027c1.163 2.709 7.839 2.094 12.83-4.057 0 0-4.716 5.83 1.249 7.76 4.564 1.477 7.633-6.726 7.633-6.726s-2.176 6.302 3.43 7.307c4.662.834 4.532-5.016 4.532-5.016Z"/><path stroke="#302218" stroke-linecap="round" stroke-linejoin="round" stroke-miterlimit="10" stroke-width=".294" d="M140.486 35.216s-1.579 1.282-2.098 2.145"/><path fill="#994F31" d="M90.37 75.578s12.816-.824 21.729-3.31c8.914-2.487 44.072 1.692 57.268 2.685 0 0-1.032 37.298-12.729 58.259s8.582 40.455-33.906 40.455-23.05-18.824-32.054-37.711c-11.57-24.27-12.142-47.607-.308-60.378Z"/><path stroke="#302218" stroke-linecap="round" stroke-linejoin="round" stroke-miterlimit="10" stroke-width=".294" d="M165.546 102.293s-1.118 11.904-3.724 18.787M81.302 102.293s1.118 11.904 3.723 18.787M105.477 77s10.175-1.29 12.529 0c2.354 1.292 2.162 2.81 5.751 2.81 3.588 0 2.637-1.97 4.955-2.733 1.975-.65 6.208-1.139 14.95-.228M122.937 92.303s.453 15.156-1.801 21.333c-2.255 6.177-25.532 7.587-30.646 4.589M124.576 92.303s-.453 15.156 1.801 21.333c2.255 6.177 25.532 7.587 30.646 4.589"/><path fill="#93DA46" d="M166.711 195.776s-3.898-26.397-7.495-67.813c0 0-8.143-8.444-8.281-19.751-.137-11.306-.462-20.734 0-34.922 0 0-3.993-1.237-8.307-.713 0 0-2.181 21.577-2.868 32.185-.977 15.069-32.471 15.286-32.471 2.372 0-12.913.763-28.183.856-33.914 0 0-5.516.348-8.063 1.357 0 0-2.39 23.965-2.99 34.098-.6 10.133-9.551 20.948-9.551 20.948s-2.839 43.659-6.739 66.153c0 0 58.393 14.669 85.909 0Z"/><path fill="#FF4D4D" d="M67.407 68.696c-1.642 7.854-7.723 14.661-17.195 11.247-10.174-.506-12.89-9.341-11.247-17.195 1.643-7.854 6.7-13.822 17.195-11.247 11.376 1.528 12.89 9.341 11.247 17.195Z"/><path fill="#7B733D" d="M53.893 54.096c.01-.768 1.144-1.541 1.144-1.541 1.474.655 2.268 2.049 2.268 2.049 1.42-.157 3.385.32 3.385.32-.928 1.202-2.84 1.639-2.84 1.639.056 1.092 0 2.675 0 2.675-2.457-.655-3.072-2.33-3.072-2.33-1.654 1.407-4.357 1.007-4.357 1.007s.478-1.544 1.874-2.058c0 0-1.672-1.168-2.003-1.866 0 0 2.709-.45 3.601.105Z"/><path stroke="#302218" stroke-linecap="round" stroke-linejoin="round" stroke-miterlimit="10" stroke-width=".294" d="M39.491 60.687s-3.49 8.34 2.178 15.572c0 0 2.837 3.182 8.543 3.684M57.325 51.686s3.71.501 5.599 2.027c0 0 5.182 2.203 5.023 10.778"/><path fill="#CBC47A" d="M70.59 77.917a7.6 7.6 0 1 0-.449-15.192 7.6 7.6 0 0 0 .449 15.192Z"/><path stroke="#302218" stroke-linecap="round" stroke-linejoin="round" stroke-miterlimit="10" stroke-width=".294" d="M71.776 77.782a7.6 7.6 0 0 1-2.82-14.934"/><path stroke="#302218" stroke-linecap="round" stroke-linejoin="round" stroke-miterlimit="10" stroke-width=".294" d="M66.478 72.057a.595.595 0 1 1 .221 1.168.595.595 0 0 1-.22-1.168ZM67.894 67.424a.594.594 0 1 1 .221 1.167.594.594 0 0 1-.22-1.167ZM65.24 68.704a.595.595 0 1 1 .22 1.168.595.595 0 0 1-.22-1.168Z"/><path fill="#541126" d="M196.6 57.98s.374-5.308-2.81-7.198a.424.424 0 0 0-.286-.052c-.418.07-1.542.362-1.912 1.46-.063.186.01.39.175.497.876.565 3.662 2.602 3.498 5.588 0 0 1.346 1.007 1.335-.296Z"/><path fill="#FF4D4D" d="M191.586 57.688s-8.12-1.197-8.938 7.207c-.787 8.075 3.026 20.318 12.957 14.919a2.953 2.953 0 0 1 2.559-.144c10.471 4.257 12.893-8.335 11.21-16.272-1.752-8.26-9.687-6.163-9.687-6.163s-4.363 1.292-8.101.453Z"/><path stroke="#302218" stroke-linecap="round" stroke-linejoin="round" stroke-miterlimit="10" stroke-width=".294" d="M196.499 57.845c-1.378.157-3.031.21-4.6-.091a6.185 6.185 0 0 0-.846-.112c-1.82-.093-7.714.158-8.405 7.253M205.539 57.818c-2.753-1.402-5.853-.583-5.853-.583M208.61 75.458c1.438-3.556 1.555-8.324.763-12.06M195.605 79.814a2.953 2.953 0 0 1 2.559-.144c3.463 1.409 6.047.973 7.892-.528"/><path fill="#FFC34A" d="M152.786 52.793s-1.873 10.528 13.247 21.315c12.707 9.067 27.111-1.254 30.27-9.966 3.16-8.712-4.842-6.87-6.424-5.203-1.583 1.667-11.643 7.33-17.612 2.792-5.969-4.538-9.405-14.198-15.509-13.364 0 0-.461-.107-1.543-3.828a.59.59 0 0 0-.472-.422c-.593-.084-1.861-.093-3.596.833-.266.142-.351.49-.184.767a32.01 32.01 0 0 0 3.207 4.396s-1.16 1.208-1.384 2.68Z"/><path stroke="#302218" stroke-linecap="round" stroke-linejoin="round" stroke-miterlimit="10" stroke-width=".294" d="M192.691 64.37a34.963 34.963 0 0 0 2.461-3.485M166.015 69.09c7.417 4.949 17.068 5.443 25.014-2.827M152.785 52.793s.365-2.52 2.674-3.574M168.093 57.5s3.292 4.275 6.038 5.285c2.11.776 4.493.91 7.38.208M155.791 63.204s7.76 14.343 21.669 14.403M152.994 44.231s1.159-.27 1.749-.114c.59.156.432.59.649 1.017M197.031 60.498s.291 5.008-5.27 10.422M184.916 61.865s3.108-1.305 4.962-2.926c0 0 1.103-1.063 2.849-1.29M154.918 51.647s-.739 7.05 8.129 15.12"/></svg>