<svg width="246" height="208" viewBox="0 0 246 208" fill="none" xmlns="http://www.w3.org/2000/svg">
<path d="M222.156 37.6752C222.156 37.6752 201.625 8.72321 142.723 7.06904C83.8212 5.41486 78.0993 33.9529 62.9534 42.6382C47.807 51.3236 16.8419 49.256 6.07135 73.6578C-4.69972 98.0601 -5.37301 167.958 40.0652 182.434C85.5039 196.91 103.679 165.89 128.586 169.199C153.493 172.508 176.718 190.706 211.049 186.156C245.38 181.607 249.419 103.023 244.033 78.6213C238.649 54.219 222.156 37.6752 222.156 37.6752Z" fill="#CAEDA4"/>
<path d="M111.641 55.8724C111.641 55.8724 121.133 64.872 116.153 73.2359C111.172 81.5998 103.867 80.416 80.3953 84.9243C56.9236 89.4326 22.8416 87.8948 19.9244 75.3155C16.863 62.1137 28.5509 42.3982 46.6733 39.6654C71.6359 35.9022 106.561 52.5479 111.641 55.8724Z" fill="#541126"/>
<path d="M173.31 51.2365C173.31 51.2365 139.561 41.7484 134.735 53.6085C129.909 65.4686 149.552 76.7184 167.482 77.6068C185.411 78.4953 216.074 98.5623 217.483 82.8951C218.892 67.2279 219.455 52.5416 217.483 48.2953C215.512 44.0491 189.537 52.6291 173.31 51.2365Z" fill="#541126"/>
<path d="M168.421 28.9647C170.748 35.026 169.598 42.322 161.66 44.1542C154.519 48.2718 148.798 43.4544 146.47 37.3931C144.143 31.3318 144.965 25.0558 153.231 22.2036C161.637 18.2542 166.093 22.9034 168.421 28.9647Z" fill="#7B733D"/>
<path d="M152.827 24.9629C152.497 24.4363 152.928 23.4133 152.928 23.4133C154.218 23.2124 155.369 23.8123 155.369 23.8123C156.266 23.0828 157.812 22.5459 157.812 22.5459C157.708 23.7698 156.6 24.9052 156.6 24.9052C157.116 25.624 157.773 26.7247 157.773 26.7247C155.815 27.3569 154.662 26.4875 154.662 26.4875C154.154 28.1696 152.14 29.0835 152.14 29.0835C152.14 29.0835 151.788 27.8244 152.512 26.8616C152.512 26.8616 150.863 26.8005 150.332 26.4709C150.332 26.4709 151.976 24.9766 152.827 24.9629Z" fill="#541126"/>
<path d="M145.924 35.761C145.924 35.761 147.208 42.9631 154.234 45.3957C154.234 45.3957 157.559 46.315 161.659 44.1537" stroke="#302218" stroke-width="0.293855" stroke-miterlimit="10" stroke-linecap="round" stroke-linejoin="round"/>
<path d="M154.104 21.8188C154.104 21.8188 156.847 20.5323 158.801 20.7421C158.801 20.7421 163.291 19.9666 166.944 25.868" stroke="#302218" stroke-width="0.293855" stroke-miterlimit="10" stroke-linecap="round" stroke-linejoin="round"/>
<path d="M147.032 42.9385L197.421 9.79001C197.706 9.60273 198.09 9.72546 198.211 10.0443C199.583 13.6514 205.524 32.4916 186.354 46.7159C166.19 61.6775 149.458 46.0557 146.968 43.5253C146.799 43.3537 146.831 43.071 147.032 42.9385Z" fill="#7B733D"/>
<path d="M147.237 42.8119L197.249 9.91174C197.249 9.91174 206.676 30.7117 185.897 46.0621C165.117 61.4124 147.237 42.8119 147.237 42.8119Z" fill="#CBC47A"/>
<path d="M148.913 41.6911L195.779 10.8604C195.779 10.8604 204.613 30.3518 185.141 44.7365C165.668 59.1216 148.913 41.6911 148.913 41.6911Z" fill="#FF4D4D"/>
<path d="M187.467 20.1436C187.303 20.1059 187.25 19.9 187.375 19.7886C188.022 19.214 189.615 18.0038 190.248 19.391C190.899 20.8159 188.43 20.3665 187.467 20.1436Z" fill="#541126"/>
<path d="M187.671 26.2997C187.524 26.2117 187.537 25.9961 187.693 25.9276C188.498 25.5736 190.42 24.9003 190.6 26.4415C190.784 28.0243 188.534 26.817 187.671 26.2997Z" fill="#541126"/>
<path d="M162.636 36.8293C162.686 36.6684 162.535 36.5169 162.374 36.5687C161.547 36.8352 159.684 37.5985 160.562 38.8561C161.464 40.148 162.336 37.7784 162.636 36.8293Z" fill="#541126"/>
<path d="M168.625 39.233C168.609 39.0639 168.409 38.9837 168.281 39.0952C167.619 39.6697 166.196 41.1136 167.507 41.9307C168.854 42.7703 168.724 40.231 168.625 39.233Z" fill="#541126"/>
<path d="M184.783 31.9566C184.69 31.8124 184.798 31.6236 184.969 31.6309C185.852 31.6706 187.883 31.9185 187.359 33.3873C186.821 34.8958 185.331 32.8069 184.783 31.9566Z" fill="#541126"/>
<path d="M180.657 35.8543C180.655 35.6979 180.829 35.6035 180.958 35.6915C181.623 36.1472 183.077 37.3168 181.965 38.2024C180.822 39.1128 180.672 36.777 180.657 35.8543Z" fill="#541126"/>
<path d="M174.603 38.9637C174.677 38.8268 174.875 38.8298 174.944 38.9701C175.298 39.6923 175.986 41.4213 174.585 41.6443C173.147 41.8736 174.163 39.772 174.603 38.9637Z" fill="#541126"/>
<path d="M196.488 10.4124L186.419 17.0175" stroke="#302218" stroke-width="0.293855" stroke-miterlimit="10" stroke-linecap="round" stroke-linejoin="round"/>
<path d="M197.5 17.4327C197.5 17.4327 198.495 23.3669 196.713 29.0272C194.826 35.0269 191.59 38.6664 191.59 38.6664" stroke="#302218" stroke-width="0.293855" stroke-miterlimit="10" stroke-linecap="round" stroke-linejoin="round"/>
<path d="M147.237 42.8119L152.715 39.2081" stroke="#302218" stroke-width="0.293855" stroke-miterlimit="10" stroke-linecap="round" stroke-linejoin="round"/>
<path d="M203.145 25.8098C203.145 25.8098 203.916 22.7185 204.841 21.0453C204.841 21.0453 204.696 19.9495 203.563 20.658C203.563 20.658 201.753 23.2295 201.884 25.8886C202.015 28.5476 202.86 26.8474 203.145 25.8098Z" fill="#86304A"/>
<path d="M215.289 49.6028C215.289 49.6028 220.578 40.8247 212.106 33.7092C212.106 33.7092 209.515 31.409 208.365 29.7133C207.215 28.0175 206.948 24.2778 202.482 24.4876C198.016 24.6969 199.554 29.4996 196.586 33.4388C193.618 37.3774 191.711 54.5634 203.062 56.0743C212.739 57.3623 215.289 49.6028 215.289 49.6028Z" fill="#FFC34A"/>
<path d="M215.288 49.6028C215.288 49.6028 220.578 40.8247 212.106 33.7092C212.106 33.7092 209.515 31.409 208.365 29.7133C207.215 28.0175 206.948 24.2778 202.482 24.4876C198.015 24.6969 199.554 29.4996 196.586 33.4388C195.031 35.5022 193.767 41.2017 194.549 46.3785" stroke="#302218" stroke-width="0.293855" stroke-miterlimit="10" stroke-linecap="round" stroke-linejoin="round"/>
<path d="M71.4874 45.6015C71.4874 45.6015 72.1881 41.2785 74.3171 40.5348C76.4461 39.791 76.4246 37.0655 74.8198 38.0552C73.2149 39.0448 75.253 35.4396 76.206 35.2959C77.159 35.1521 78.3091 31.2589 75.9341 32.5268C73.5592 33.7952 74.3464 29.9729 75.4109 29.6008C76.4754 29.2287 74.8863 26.4479 72.7235 28.6908C70.5608 30.9342 70.5129 30.6164 70.2982 29.3006C70.0831 27.9848 68.8704 26.8362 67.9521 28.5016C67.0343 30.167 67.9829 32.3625 66.7522 31.8501C65.5214 31.3376 64.1127 31.2579 64.3562 33.2999C64.5997 35.3423 66.2529 37.5774 64.8183 37.1119C63.3836 36.6464 62.5944 38.4522 63.8252 39.8595C65.0559 41.2667 66.2818 42.808 65.2667 42.8696C64.2516 42.9312 65.4231 44.8206 67.9374 46.7129C70.4518 48.6062 71.4874 45.6015 71.4874 45.6015Z" fill="#CBC47A"/>
<path d="M74.8195 38.0552C73.2147 39.0449 75.2527 35.4397 76.2058 35.2959C77.1588 35.1521 78.3088 31.2589 75.9339 32.5268C73.5589 33.7952 74.3462 29.9729 75.4107 29.6008" stroke="#302218" stroke-width="0.293855" stroke-miterlimit="10" stroke-linecap="round" stroke-linejoin="round"/>
<path d="M67.9373 46.7139C70.452 48.6062 71.4872 45.602 71.4872 45.602" stroke="#302218" stroke-width="0.293855" stroke-miterlimit="10" stroke-linecap="round" stroke-linejoin="round"/>
<path d="M66.7522 31.8506C65.5214 31.3381 64.1127 31.2584 64.3562 33.3004C64.5997 35.3428 66.2529 37.5779 64.8183 37.1124C63.3836 36.6469 62.5944 38.4527 63.8252 39.86" stroke="#302218" stroke-width="0.293855" stroke-miterlimit="10" stroke-linecap="round" stroke-linejoin="round"/>
<path d="M49.1605 42.9122C49.1605 42.9122 46.9245 39.1001 44.6498 39.1774C42.3751 39.2542 41.4015 36.6822 43.2723 37.0279C45.1431 37.3736 41.9105 34.7253 40.9614 34.9375C40.0123 35.1497 37.5102 31.9064 40.2074 32.233C42.9046 32.5601 40.7693 29.2507 39.6324 29.2894C38.495 29.3275 38.9762 26.1311 41.8289 27.4528C44.682 28.7745 44.6111 28.4581 44.3334 27.1418C44.0557 25.8255 44.7779 24.3023 46.2492 25.5345C47.7205 26.7668 47.6286 29.1784 48.5997 28.2474C49.5708 27.3164 50.8671 26.7272 51.3829 28.7378C51.8988 30.748 51.159 33.4545 52.3389 32.4931C53.5188 31.5318 54.9202 32.943 54.2757 34.716C53.6312 36.489 53.0396 38.3862 54.0175 38.0738C54.9955 37.7613 54.5823 39.9666 52.9066 42.6643C51.2304 45.3615 49.1605 42.9122 49.1605 42.9122Z" fill="#CBC47A"/>
<path d="M48.5994 28.2469C49.5705 27.3159 50.8667 26.7267 51.3826 28.7373C51.8985 30.7475 51.1587 33.454 52.3386 32.4927C53.5184 31.5313 54.9198 32.9425 54.2754 34.7155C53.6309 36.4885 53.0392 38.3858 54.0172 38.0733" stroke="#302218" stroke-width="0.293855" stroke-miterlimit="10" stroke-linecap="round" stroke-linejoin="round"/>
<path d="M43.2723 37.0273C45.1431 37.373 41.9105 34.7247 40.9614 34.9369C40.0123 35.1492 37.5102 31.9058 40.2074 32.2324" stroke="#302218" stroke-width="0.293855" stroke-miterlimit="10" stroke-linecap="round" stroke-linejoin="round"/>
<path d="M65.2803 42.5532C65.2803 42.5532 63.8901 37.3476 65.9057 35.4406C67.9212 33.5336 66.5247 30.4849 65.2211 32.4036C63.918 34.3223 65.4099 30.3465 65.3879 28.6082C65.3727 27.4229 65.716 23.0173 63.6882 25.6367C61.6609 28.2561 62.212 24.5874 61.6276 22.6153C61.2335 21.2853 59.4507 19.3402 58.1525 22.9473C56.8543 26.5545 56.6406 26.222 55.737 24.8534C54.8334 23.4847 54.2114 22.1523 52.7014 25.1375C51.6452 27.2254 54.6803 29.4566 53.0403 29.5006C51.4008 29.5446 49.7793 30.1646 51.0805 32.3347C52.3821 34.5047 55.3634 36.1819 53.5185 36.3814C51.6736 36.5814 51.6971 39.0057 53.7869 39.9661C55.8773 40.9259 58.0293 42.0388 56.9208 42.6193C55.8123 43.1997 58.0787 44.7306 61.8545 45.5893C65.6309 46.4479 65.2803 42.5532 65.2803 42.5532Z" fill="#CBC47A"/>
<path d="M65.2804 42.5533C65.2804 42.5533 63.8903 37.3476 65.9058 35.4406C67.9214 33.5336 66.5248 30.4849 65.2212 32.4036C63.9181 34.3224 65.41 30.3465 65.388 28.6082" stroke="#302218" stroke-width="0.293855" stroke-miterlimit="10" stroke-linecap="round" stroke-linejoin="round"/>
<path d="M52.7014 25.138C51.6452 27.2259 54.6803 29.4571 53.0403 29.5011C51.4008 29.5451 49.7793 30.1651 51.0805 32.3352C52.3821 34.5053 55.3634 36.1825 53.5185 36.382C51.6736 36.5819 51.6971 39.0063 53.7869 39.9666" stroke="#302218" stroke-width="0.293855" stroke-miterlimit="10" stroke-linecap="round" stroke-linejoin="round"/>
<path d="M51.2591 56.5481C51.2591 56.5481 46.8725 53.4192 44.3792 54.6372C41.886 55.8553 39.5218 53.4774 41.7759 52.9307C44.0301 52.3836 39.7834 52.3855 38.1634 51.7547C37.0588 51.3244 32.813 50.0996 35.9772 49.1206C39.1413 48.1417 35.5127 47.3701 33.8712 46.131C32.7637 45.2954 31.5681 42.9434 35.4017 42.9933C39.2347 43.0437 38.9986 42.7268 38.0343 41.4002C37.0701 40.0736 36.0408 39.0238 39.3658 38.6576C41.6913 38.4013 42.7157 42.0261 43.3323 40.5064C43.9489 38.9866 45.099 37.6855 46.674 39.6658C48.2495 41.6462 48.7732 45.0264 49.6078 43.3693C50.4425 41.7117 52.7045 42.5845 52.8703 44.8788C53.0355 47.173 53.3221 49.5788 54.2546 48.7446C55.187 47.9104 55.8251 50.5699 55.3039 54.4064C54.7826 58.2434 51.2591 56.5481 51.2591 56.5481Z" fill="#CBC47A"/>
<path d="M39.3657 38.6576C41.6913 38.4013 42.7157 42.0261 43.3323 40.5064C43.9489 38.9866 45.0989 37.6855 46.6739 39.6658C48.2494 41.6462 48.7731 45.0264 49.6078 43.3693C50.4424 41.7117 52.7044 42.5845 52.8702 44.8788C53.0355 47.173 53.322 49.5788 54.2545 48.7446" stroke="#302218" stroke-width="0.293855" stroke-miterlimit="10" stroke-linecap="round" stroke-linejoin="round"/>
<path d="M35.9772 49.1207C39.1413 48.1417 35.5127 47.3701 33.8712 46.1311C32.7637 45.2954 31.5681 42.9435 35.4017 42.9933" stroke="#302218" stroke-width="0.293855" stroke-miterlimit="10" stroke-linecap="round" stroke-linejoin="round"/>
<path d="M44.3797 54.6377C41.8864 55.8558 39.5222 53.4779 41.7764 52.9312" stroke="#302218" stroke-width="0.293855" stroke-miterlimit="10" stroke-linecap="round" stroke-linejoin="round"/>
<path d="M65.5918 40.9147C67.2308 45.3154 67.378 47.1354 67.378 47.1354C65.3448 47.0156 63.3156 44.1175 60.8648 41.0232C58.4141 37.929 58.3109 29.9269 57.1941 32.5117C56.0455 35.1692 55.5204 38.0239 58.8473 41.8995C62.1743 45.7756 62.4232 53.5151 58.7016 50.4086C54.98 47.3022 50.7299 35.7726 48.5266 33.7742C47.2171 32.587 48.2156 36.2416 48.2156 36.2416C52.6584 47.6395 51.9044 49.2629 51.9044 49.2629C48.5931 46.2533 43.6359 43.6202 43.6359 43.6202C42.0824 42.8275 42.4056 43.7698 43.0403 44.8157C43.6505 45.821 44.4114 46.7252 45.2705 47.5202C47.7921 49.8536 54.9742 56.7951 58.13 62.9562C61.9924 70.4966 72.478 80.9245 78.9877 76.4934C85.4974 72.0623 79.7172 58.4121 74.0427 52.1244C71.4599 49.2629 67.8777 42.8535 67.5007 40.3856C67.5007 40.3856 67.2914 38.4102 66.0426 38.8209C64.7938 39.2326 65.5918 40.9147 65.5918 40.9147Z" fill="#7B733D"/>
<path d="M51.9045 49.2635C51.9045 49.2635 51.8282 51.4722 54.0071 54.6686C54.0071 54.6686 67.5204 74.7718 78.9878 76.4939C78.9878 76.4939 74.8217 67.9956 69.8459 61.0541C62.8062 51.233 60.1178 43.7664 60.1178 43.7664" stroke="#302218" stroke-width="0.293855" stroke-miterlimit="10" stroke-linecap="round" stroke-linejoin="round"/>
<path d="M78.9876 76.4939C79.5357 66.7316 75.3369 59.6644 72.0408 55.6827C69.9225 53.1244 68.3407 50.1593 67.4102 46.9985C67.1686 46.1775 66.973 45.6064 66.973 45.6064C66.973 45.6064 66.4469 43.3107 66.0953 42.3186C65.7433 41.3264 64.5506 39.4644 66.0425 38.8214C67.5344 38.1779 67.4869 42.9141 70.765 47.5198" stroke="#302218" stroke-width="0.293855" stroke-miterlimit="10" stroke-linecap="round" stroke-linejoin="round"/>
<path d="M55.1272 45.5604C55.1272 45.5604 67.4811 71.4076 78.9877 76.4939" stroke="#302218" stroke-width="0.293855" stroke-miterlimit="10" stroke-linecap="round" stroke-linejoin="round"/>
<path d="M192.503 30.2781C183.314 30.2805 185.636 45.9986 178.065 41.014C169.261 35.2182 166.012 49.438 170.422 54.0745C174.383 58.2396 172.074 62.0203 167.005 66.8303C156.248 77.0401 177.596 81.7528 177.596 81.7528C177.596 81.7528 198.944 86.4656 195.353 73.0882C193.661 66.7858 193.795 62.5244 199.63 60.5221C206.125 58.2933 211.383 44.517 200.386 45.9414C190.928 47.1663 201.91 34.385 193.876 30.5808C193.876 30.5808 193.263 30.3089 192.503 30.2781Z" fill="#7B733D"/>
<path d="M177.595 81.7528C177.595 81.7528 198.943 86.4656 195.352 73.0882C193.66 66.7858 193.795 62.5244 199.63 60.5221" stroke="#302218" stroke-width="0.293855" stroke-miterlimit="10" stroke-linecap="round" stroke-linejoin="round"/>
<path d="M170.421 54.0745C166.012 49.4385 169.261 35.2187 178.064 41.014C185.635 45.9986 183.313 30.28 192.503 30.2781" stroke="#302218" stroke-width="0.293855" stroke-miterlimit="10" stroke-linecap="round" stroke-linejoin="round"/>
<path d="M175.951 80.389C176.915 76.3966 178.068 72.4457 179.249 68.5011C180.443 64.5595 181.717 60.635 183.042 56.7222C184.362 52.8085 185.755 48.9104 187.25 45.0353C188.76 41.1631 190.33 37.3046 192.161 33.5033C192.182 33.4603 192.237 33.4392 192.283 33.4569C192.321 33.471 192.343 33.5062 192.338 33.5424C191.774 37.6234 190.949 41.6467 190.065 45.6567C189.165 49.6634 188.162 53.6476 187.088 57.6156C186.018 61.5846 184.896 65.5423 183.696 69.483C182.482 73.4202 181.24 77.3515 179.81 81.2408C179.456 82.2012 178.319 82.7464 177.269 82.4589C176.292 82.1909 175.738 81.2863 175.951 80.389Z" fill="#CBC47A"/>
<path d="M181.003 64.7479C182.272 63.3372 183.659 62.036 185.089 60.7749C186.518 59.5134 188.004 58.3042 189.526 57.1296C191.045 55.9522 192.615 54.8217 194.258 53.7601C195.911 52.7083 197.608 51.6957 199.489 50.8571C199.538 50.8356 199.595 50.8532 199.618 50.8962C199.631 50.9216 199.629 50.9505 199.615 50.9744C198.634 52.6541 197.466 54.1606 196.257 55.6275C195.037 57.0842 193.744 58.4724 192.4 59.8136C191.059 61.1578 189.681 62.4673 188.247 63.7244C186.814 64.9821 185.337 66.1996 183.744 67.3076C182.846 67.9316 181.584 67.7951 180.924 67.003C180.363 66.3282 180.421 65.3953 181.003 64.7479Z" fill="#CBC47A"/>
<path d="M180.473 66.5848C179.71 64.9565 179.113 63.2813 178.576 61.5889C178.038 59.8966 177.579 58.1813 177.172 56.4518C176.762 54.7232 176.421 52.9742 176.184 51.1958C175.962 49.413 175.8 47.6131 175.898 45.7383C175.901 45.6899 175.946 45.6513 175.999 45.6518C176.031 45.6523 176.058 45.6665 176.075 45.6875C177.242 47.1994 178.148 48.7866 178.995 50.3905C179.827 51.9987 180.555 53.6363 181.213 55.2944C181.874 56.951 182.485 58.6228 183.016 60.3171C183.547 62.0114 184.019 63.7228 184.325 65.4812C184.498 66.4718 183.746 67.4283 182.646 67.618C181.709 67.7793 180.822 67.3319 180.473 66.5848Z" fill="#CBC47A"/>
<path d="M181.292 77.0132C181.292 77.0132 183.788 69.1691 184.527 66.7467" stroke="#302218" stroke-width="0.293855" stroke-miterlimit="10" stroke-linecap="round" stroke-linejoin="round"/>
<path d="M186.628 59.4532C186.628 59.4532 194.983 52.6413 199.489 50.856" stroke="#302218" stroke-width="0.293855" stroke-miterlimit="10" stroke-linecap="round" stroke-linejoin="round"/>
<path d="M175.898 45.7379C175.898 45.7379 176.094 57.2435 180.14 65.5692" stroke="#302218" stroke-width="0.293855" stroke-miterlimit="10" stroke-linecap="round" stroke-linejoin="round"/>
<path d="M165.956 32.1434C165.956 32.1434 166.607 29.5822 168.835 29.0912C168.985 29.058 169.144 29.077 169.277 29.1543C169.491 29.2795 169.793 29.5406 169.91 30.0535C169.974 30.3366 169.835 30.6281 169.57 30.7479C168.895 31.054 167.521 31.7811 166.984 32.8382C166.984 32.8382 165.442 33.0211 165.956 32.1434Z" fill="#CBC47A"/>
<path d="M171.236 35.7853C171.236 35.7853 174.191 41.786 169.167 54.3144C165.772 62.7801 162.423 71.0466 157.273 75.2132C153.614 78.1734 148.527 78.6957 144.318 76.5897L144.202 76.531C140.018 74.3751 137.438 69.9597 137.67 65.2587C137.995 58.6428 142.693 51.0613 147.525 43.3252C154.677 31.8769 161.265 30.7229 161.265 30.7229C161.265 30.7229 163.841 30.3493 166.929 31.9175C170.018 33.4851 171.236 35.7853 171.236 35.7853Z" fill="#86304A"/>
<path d="M156.414 33.1987C156.414 33.1987 157.076 35.8098 160.423 37.0752C160.423 37.0752 160.111 38.6512 162.813 40.0233C165.516 41.3953 166.603 40.213 166.603 40.213C169.6 42.1684 172.099 41.0746 172.099 41.0746C172.099 41.0746 173.126 34.4255 167.103 31.5733C160.764 28.572 156.414 33.1987 156.414 33.1987Z" fill="#CBC47A"/>
<path d="M156.414 33.1987C156.414 33.1987 156.98 35.735 160.423 37.0753C160.423 37.0753 159.947 38.5857 162.813 40.0233" stroke="#302218" stroke-width="0.293855" stroke-miterlimit="10" stroke-linecap="round" stroke-linejoin="round"/>
<path d="M163.213 30.5675C163.213 30.5675 166.273 30.4546 169.429 33.1385C172.586 35.8225 172.099 41.0756 172.099 41.0756" stroke="#302218" stroke-width="0.293855" stroke-miterlimit="10" stroke-linecap="round" stroke-linejoin="round"/>
<path d="M168.91 31.0805C168.91 31.0805 169.236 30.9069 169.57 30.7475C169.905 30.5886 169.961 30.2331 169.909 30.0531C169.858 29.8732 169.714 29.4014 169.276 29.1539" stroke="#302218" stroke-width="0.293855" stroke-miterlimit="10" stroke-linecap="round" stroke-linejoin="round"/>
<path d="M142.009 52.5816C142.009 52.5816 145.92 45.4367 148.227 42.2329" stroke="#302218" stroke-width="0.293855" stroke-miterlimit="10" stroke-linecap="round" stroke-linejoin="round"/>
<path d="M42.3687 49.4693C42.3687 49.4693 44.3623 46.2983 46.0101 44.7678C46.0101 44.7678 46.2488 43.4901 44.7241 43.8666C44.7241 43.8666 41.7595 46.0763 40.9316 49.0952C40.1033 52.1136 41.671 50.5245 42.3687 49.4693Z" fill="#86304A"/>
<path d="M47.2169 80.501C47.2169 80.501 56.3426 72.6324 49.4862 61.5787C49.4862 61.5787 47.4335 58.0595 46.77 55.7433C46.1064 53.4275 47.1788 49.1519 42.1125 47.749C37.0462 46.3462 37.0047 52.2755 32.2455 55.5883C27.4863 58.901 19.0584 77.4024 31.1859 83.25C41.5248 88.2356 47.2169 80.501 47.2169 80.501Z" fill="#FFC34A"/>
<path d="M47.2171 80.501C47.2171 80.501 56.3428 72.6324 49.4864 61.5787C49.4864 61.5787 47.4337 58.0595 46.7701 55.7433C46.1066 53.4275 47.1789 49.1519 42.1127 47.749C37.0464 46.3462 37.0048 52.2755 32.2457 55.5882C29.7524 57.3236 26.2518 63.228 25.2279 69.2976" stroke="#302218" stroke-width="0.293855" stroke-miterlimit="10" stroke-linecap="round" stroke-linejoin="round"/>
<path d="M202.568 54.3307C202.568 54.3307 201.471 51.8673 200.965 51.4971C200.46 51.1269 201.652 50.5583 202.099 50.857C202.546 51.1563 202.809 50.8341 203.123 50.2536C203.437 49.6732 204.109 49.3608 204.488 49.6385C204.868 49.9162 205.184 49.7872 205.641 49.1236C206.099 48.4601 206.531 48.6655 206.928 48.9564C207.326 49.2468 207.597 48.7246 207.822 48.4175C208.046 48.1105 208.935 48.373 208.727 49.3021C208.519 50.2311 208.22 52.3601 208.902 53.3909C209.584 54.4212 202.945 55.7688 202.568 54.3307Z" fill="#CBC47A"/>
<path d="M214.043 86.4983C214.427 87.1032 215.361 86.8523 215.39 86.1365C215.623 80.4345 216.024 65.603 214.269 59.0693C212.073 50.8903 205.69 52.7053 205.69 52.7053C205.69 52.7053 199.256 54.3321 201.453 62.5112C203.208 69.0449 210.985 81.68 214.043 86.4983Z" fill="#F0865F"/>
<path d="M214.269 59.0693C214.269 59.0693 211.603 59.1882 208.859 60.0864C208.859 60.0864 210.968 59.9593 214.59 60.4756C214.59 60.4756 214.336 59.3084 214.269 59.0693Z" fill="#E26640"/>
<path d="M203.586 68.0288C203.586 68.0288 205.855 67.3149 208.813 67.1198C208.813 67.1198 207.153 68.3447 204.131 69.1779C204.131 69.1779 203.699 68.2748 203.586 68.0288Z" fill="#E26640"/>
<path d="M200.996 59.3143C200.996 59.3143 202.409 58.4801 205.328 57.7266C205.328 57.7266 203.506 57.4166 201.099 57.9926C201.099 57.9926 200.987 58.8708 200.996 59.3143Z" fill="#E26640"/>
<path d="M215.601 76.6332C215.601 76.6332 213.912 76.2279 212.031 76.0856C212.031 76.0856 213.568 75.4626 215.6 75.3159L215.601 76.6332Z" fill="#E26640"/>
<path d="M215.39 86.1365C215.623 80.4346 216.024 65.603 214.269 59.0693" stroke="#302218" stroke-width="0.293855" stroke-miterlimit="10" stroke-linecap="round" stroke-linejoin="round"/>
<path d="M205.69 52.7053C205.69 52.7053 199.257 54.3321 201.453 62.5112C201.799 63.7982 204.605 70.8746 207.113 74.8837" stroke="#302218" stroke-width="0.293855" stroke-miterlimit="10" stroke-linecap="round" stroke-linejoin="round"/>
<path d="M95.7189 59.3651C92.1196 59.8878 88.7911 55.31 88.7911 55.31C84.6358 53.6123 82.8623 49.6482 82.8623 49.6482C79.3315 47.3388 77.9442 42.5962 77.9442 42.5962C74.2324 39.234 74.2388 35.7247 74.2388 35.7247C71.0815 32.8578 71.9783 29.4159 71.9783 29.4159C68.0621 25.6533 69.4747 23.1566 69.4747 23.1566C66.1864 19.7362 68.353 17.5006 68.353 17.5006C66.2763 14.58 69.2845 12.9747 69.2845 12.9747C69.2845 12.9747 71.9714 10.9376 74.1752 13.7771C74.1752 13.7771 77.1976 12.6935 79.4738 16.7618C79.4738 16.7618 82.4912 16.4254 84.8886 21.1591C84.8886 21.1591 88.6748 21.6056 90.4395 25.3633C90.4395 25.3633 93.9767 26.6063 96.0436 31.0207C96.0436 31.0207 100.328 33.9106 101.398 37.794C101.398 37.794 104.761 40.742 104.992 44.9492C104.992 44.9492 108.42 49.4634 106.613 52.3987C106.611 52.3987 103.894 56.3291 95.7189 59.3651Z" fill="#FFC34A"/>
<path d="M69.2836 12.9742C69.2836 12.9742 70.129 14.5741 71.393 15.8132C71.393 15.8132 72.766 18.6883 75.1053 20.809C75.1053 20.809 76.5282 23.3111 79.2283 25.8151C79.2283 25.8151 80.9246 28.8248 83.456 31.5048C83.456 31.5048 84.6119 34.1096 87.89 37.4723C87.89 37.4723 90.3896 41.4012 93.0022 44.0294C93.0022 44.0294 94.4266 47.0762 97.5736 50.1817C97.5736 50.1817 99.9667 53.9673 102.092 56.2626" stroke="#302218" stroke-width="0.293855" stroke-miterlimit="10" stroke-linecap="round" stroke-linejoin="round"/>
<path d="M68.2553 13.8461C68.2553 13.8461 67.9164 15.9893 69.1804 17.2279C69.1804 17.2279 68.9252 20.8272 72.3705 22.5577C72.3705 22.5577 71.903 25.869 75.7107 28.0645C75.7107 28.0645 74.8535 32.4995 78.8944 34.4217C78.8944 34.4217 77.624 38.0787 82.2844 41.0566C82.2844 41.0566 83.0159 46.1732 87.3966 47.6137C87.3966 47.6137 88.1756 51.4419 93.012 53.0985C93.012 53.0985 95.4373 57.2783 99.8787 57.6773" stroke="#302218" stroke-width="0.293855" stroke-miterlimit="10" stroke-linecap="round" stroke-linejoin="round"/>
<path d="M70.7098 12.2764C70.7098 12.2764 72.9889 12.7449 73.7874 14.2817C73.7874 14.2817 77.5036 15.3408 78.0215 18.9441C78.0215 18.9441 81.5235 19.7167 82.3807 23.7991C82.3807 23.7991 87.1531 24.6333 87.6523 28.8213C87.6523 28.8213 91.788 29.0209 93.1298 34.1213C93.1298 34.1213 98.0239 36.5755 97.9168 40.8868C97.9168 40.8868 101.496 42.9238 101.444 47.707C101.444 47.707 104.792 51.2965 103.614 55.29" stroke="#302218" stroke-width="0.293855" stroke-miterlimit="10" stroke-linecap="round" stroke-linejoin="round"/>
<path d="M69.4738 23.1566C69.4738 23.1566 75.2691 22.8202 79.4723 16.7618" stroke="#302218" stroke-width="0.293855" stroke-miterlimit="10" stroke-linecap="round" stroke-linejoin="round"/>
<path d="M71.9778 29.4155C71.9778 29.4155 79.7794 26.8684 84.8872 21.1592" stroke="#302218" stroke-width="0.293855" stroke-miterlimit="10" stroke-linecap="round" stroke-linejoin="round"/>
<path d="M74.2384 35.7242C74.2384 35.7242 84.3905 33.8167 90.4381 25.3633" stroke="#302218" stroke-width="0.293855" stroke-miterlimit="10" stroke-linecap="round" stroke-linejoin="round"/>
<path d="M77.9437 42.5957C77.9437 42.5957 88.2229 39.8926 96.0421 31.0207" stroke="#302218" stroke-width="0.293855" stroke-miterlimit="10" stroke-linecap="round" stroke-linejoin="round"/>
<path d="M82.8619 49.6477C82.8619 49.6477 94.1484 44.865 101.396 37.7939" stroke="#302218" stroke-width="0.293855" stroke-miterlimit="10" stroke-linecap="round" stroke-linejoin="round"/>
<path d="M88.7905 55.31C88.7905 55.31 98.3123 51.1552 104.99 44.9492" stroke="#302218" stroke-width="0.293855" stroke-miterlimit="10" stroke-linecap="round" stroke-linejoin="round"/>
<path d="M74.1737 13.7772C74.1737 13.7772 71.5513 16.269 68.3519 17.5007" stroke="#302218" stroke-width="0.293855" stroke-miterlimit="10" stroke-linecap="round" stroke-linejoin="round"/>
<path d="M101.729 57.5379C101.729 57.5379 94.8148 50.7333 92.8311 40.9778C92.3001 38.3677 91.5989 35.7634 90.5901 33.229C87.1614 24.6153 87.8294 14.894 87.8294 14.894C87.8294 14.894 93.9826 25.114 101.177 35.3424C106.44 42.8242 113.072 53.2202 101.729 57.5379Z" fill="#CBC47A"/>
<path d="M101.953 57.6948C101.953 57.6948 101.996 47.6283 89.4601 42.4202C85.9566 40.9645 82.5015 39.3147 79.1882 37.3231C69.8478 31.7083 64.0247 32.7742 64.0247 32.7742C64.0247 32.7742 71.4644 40.2355 78.8582 46.7672C86.2519 53.2989 92.6394 64.292 101.953 57.6948Z" fill="#CBC47A"/>
<path d="M89.4601 42.4207C85.9566 40.9651 82.5015 39.3153 79.1882 37.3237C69.8479 31.7088 64.0247 32.7748 64.0247 32.7748" stroke="#302218" stroke-width="0.293855" stroke-miterlimit="10" stroke-linecap="round" stroke-linejoin="round"/>
<path d="M103.097 54.8323C103.966 56.043 105.208 58.1515 103.372 59.0673C101.325 60.0888 99.8826 58.0801 99.0132 56.8694C98.1438 55.6587 98.3531 54.2211 99.4807 53.6583C100.609 53.096 102.227 53.6211 103.097 54.8323Z" fill="#7B733D"/>
<path d="M99.577 55.0509C99.577 55.0509 94.3338 49.4189 92.8312 40.9783C92.8312 40.9783 91.8561 37.0851 90.5902 33.2295C89.3238 29.3739 88.4451 25.249 88.4451 25.249" stroke="#302218" stroke-width="0.293855" stroke-miterlimit="10" stroke-linecap="round" stroke-linejoin="round"/>
<path d="M98.9501 59.147C98.9501 59.147 94.1772 62.1488 86.5179 54.4583" stroke="#302218" stroke-width="0.293855" stroke-miterlimit="10" stroke-linecap="round" stroke-linejoin="round"/>
<path d="M66.1179 34.8441L78.8581 46.7677" stroke="#302218" stroke-width="0.293855" stroke-miterlimit="10" stroke-linecap="round" stroke-linejoin="round"/>
<path d="M83.0735 56.862C87.3508 54.7703 89.1225 49.6071 87.0308 45.3298C84.939 41.0525 79.7759 39.2808 75.4986 41.3725C71.2212 43.4643 69.4495 48.6274 71.5412 52.9047C73.633 57.1821 78.7962 58.9538 83.0735 56.862Z" fill="#FF4D4D"/>
<path d="M76.5974 57.3119C72.0734 55.8254 69.6114 50.9533 71.0979 46.4293C72.5844 41.9058 77.4565 39.4433 81.9805 40.9298" stroke="#302218" stroke-width="0.293855" stroke-miterlimit="10" stroke-linecap="round" stroke-linejoin="round"/>
<path d="M74.4719 48.7211C74.8259 48.8375 75.0186 49.2189 74.9022 49.5724C74.7858 49.9264 74.4049 50.1191 74.0509 50.0027C73.6969 49.8863 73.5042 49.5049 73.6206 49.1514C73.737 48.7974 74.1179 48.6047 74.4719 48.7211Z" stroke="#302218" stroke-width="0.293855" stroke-miterlimit="10" stroke-linecap="round" stroke-linejoin="round"/>
<path d="M78.4173 44.895C78.7714 45.0113 78.964 45.3927 78.8476 45.7463C78.7313 46.1003 78.3503 46.2929 77.9963 46.1765C77.6423 46.0602 77.4497 45.6788 77.566 45.3252C77.6824 44.9712 78.0633 44.7786 78.4173 44.895Z" stroke="#302218" stroke-width="0.293855" stroke-miterlimit="10" stroke-linecap="round" stroke-linejoin="round"/>
<path d="M75.0797 44.7111C75.4337 44.8275 75.6264 45.2084 75.51 45.5624C75.3936 45.9164 75.0127 46.1091 74.6587 45.9927C74.3047 45.8763 74.112 45.4949 74.2284 45.1414C74.3448 44.7874 74.7257 44.5947 75.0797 44.7111Z" stroke="#302218" stroke-width="0.293855" stroke-miterlimit="10" stroke-linecap="round" stroke-linejoin="round"/>
<path d="M79.3494 52.7346C79.3494 52.7346 74.7012 52.9102 73.2646 57.0562C73.2646 57.0562 67.4414 63.9727 72.3023 72.0193C77.1632 80.0658 84.8494 85.4485 91.5679 81.6516C91.5679 81.6516 97.2272 81.4208 100.744 76.6362C100.744 76.6362 112.143 68.9123 102.835 54.2108C102.835 54.2108 96.8322 44.9213 89.5743 47.5192C89.5743 47.5192 84.4494 47.4576 82.9081 51.412C82.9081 51.412 81.5576 52.2413 79.3494 52.7346Z" fill="#E26640"/>
<path d="M79.2894 54.5605C79.2894 54.5605 76.6915 53.6779 73.2648 57.0562" stroke="#302218" stroke-width="0.293855" stroke-miterlimit="10" stroke-linecap="round" stroke-linejoin="round"/>
<path d="M80.0061 55.8724C80.0061 55.8724 68.4297 67.685 91.5674 81.6521" stroke="#302218" stroke-width="0.293855" stroke-miterlimit="10" stroke-linecap="round" stroke-linejoin="round"/>
<path d="M83.9481 53.6476C83.9481 53.6476 100.714 51.6286 100.744 76.6367" stroke="#302218" stroke-width="0.293855" stroke-miterlimit="10" stroke-linecap="round" stroke-linejoin="round"/>
<path d="M76.0074 77.0117C76.0074 77.0117 81.6703 84.2867 88.5403 82.7503" stroke="#302218" stroke-width="0.293855" stroke-miterlimit="10" stroke-linecap="round" stroke-linejoin="round"/>
<path d="M89.574 47.5197C89.574 47.5197 86.3781 48.261 83.0892 52.4838" stroke="#302218" stroke-width="0.293855" stroke-miterlimit="10" stroke-linecap="round" stroke-linejoin="round"/>
<path d="M96.8278 48.4189C96.8278 48.4189 93.8015 46.132 89.5739 47.5197" stroke="#302218" stroke-width="0.293855" stroke-miterlimit="10" stroke-linecap="round" stroke-linejoin="round"/>
<path d="M79.3497 52.7346C79.3497 52.7346 77.6637 53.5462 78.5571 55.0278C79.4504 56.5099 80.2724 55.8811 82.2596 54.7951C84.2468 53.7091 85.211 52.5791 84.6971 51.6388C84.1832 50.6994 83.9241 49.8965 79.3497 52.7346Z" fill="#541126"/>
<path d="M83.0891 52.4838C83.0891 52.4838 81.8187 50.7724 81.7909 48.8825C81.763 46.9931 79.6496 47.9422 78.6179 48.506C77.5862 49.0698 77.2757 50.1661 78.481 50.7944C79.6858 51.4228 80.7308 53.7723 80.7308 53.7723C80.7308 53.7723 81.7449 53.7757 83.0891 52.4838Z" fill="#541126"/>
<path d="M163.683 184.072H83.8295V208H163.683V184.072Z" fill="#302218"/>
<path d="M151.216 76.2225C151.216 76.2225 169.74 71.2042 184.161 79.2566C184.161 79.2566 201.476 76.1233 214.066 84.0236C214.066 84.0236 214.7 56.4558 216.687 45.2764C216.687 45.2764 218.171 40.7245 229.017 45.183C229.017 45.183 240.196 68.0127 237.613 93.9679C236.919 100.941 234.277 104.214 229.46 107.152C226.229 109.123 222.676 110.501 218.991 111.362C210.908 113.249 194.775 116.231 185.312 112.679C185.312 112.679 149.504 120.378 144.728 97.9384C140.273 77.0117 151.216 76.2225 151.216 76.2225Z" fill="#994F31"/>
<path d="M216.636 52.9484C216.636 52.9484 214.951 50.1788 213.654 49.971C212.358 49.7632 203.804 46.7081 203.69 42.4339C203.577 38.1598 205.441 37.0401 205.441 37.0401C205.441 37.0401 204.67 24.8152 209.264 25.5516C209.264 25.5516 211.325 25.8817 211.575 27.6259C211.575 27.6259 213.442 24.2622 216.272 27.4156C216.272 27.4156 218.583 25.2974 220.524 28.6791C220.524 28.6791 224.369 27.442 225.073 31.3137C225.073 31.3137 232.36 44.9165 228.185 51.4316C226.643 53.8383 220.221 53.806 216.636 52.9484Z" fill="#994F31"/>
<path d="M213.654 49.971C212.358 49.7632 203.804 46.7081 203.69 42.4339C203.577 38.1598 205.441 37.0401 205.441 37.0401C205.441 37.0401 204.67 24.8152 209.264 25.5516C209.264 25.5516 211.325 25.8817 211.575 27.6259C211.575 27.6259 213.442 24.2622 216.272 27.4156" stroke="#302218" stroke-width="0.293855" stroke-miterlimit="10" stroke-linecap="round" stroke-linejoin="round"/>
<path d="M205.441 37.04C205.441 37.04 209.601 34.4925 211.679 32.4681C213.758 30.4438 218.334 36.4151 210.334 40.8653C210.334 40.8653 214.506 38.8634 217.391 41.9958" stroke="#302218" stroke-width="0.293855" stroke-miterlimit="10" stroke-linecap="round" stroke-linejoin="round"/>
<path d="M211.575 27.6254C211.575 27.6254 211.64 29.8811 210.895 33.1782" stroke="#302218" stroke-width="0.293855" stroke-miterlimit="10" stroke-linecap="round" stroke-linejoin="round"/>
<path d="M216.273 27.4151C216.273 27.4151 217.926 33.4857 216.293 35.9257C216.293 35.9257 215.764 36.7638 214.586 36.6015" stroke="#302218" stroke-width="0.293855" stroke-miterlimit="10" stroke-linecap="round" stroke-linejoin="round"/>
<path d="M220.524 28.6791C220.524 28.6791 222.017 33.1478 221.221 35.0489C220.425 36.9496 217.238 35.7521 216.706 35.0421" stroke="#302218" stroke-width="0.293855" stroke-miterlimit="10" stroke-linecap="round" stroke-linejoin="round"/>
<path d="M221.448 33.849C221.448 33.849 222.264 34.7693 223.68 34.4705C225.094 34.1713 225.086 32.6682 225.073 31.3137" stroke="#302218" stroke-width="0.293855" stroke-miterlimit="10" stroke-linecap="round" stroke-linejoin="round"/>
<path d="M211.544 32.5988C211.544 32.5988 213.177 33.8965 211.963 35.5262C210.749 37.156 209.148 36.4524 208.437 35.0583" stroke="#302218" stroke-width="0.293855" stroke-miterlimit="10" stroke-linecap="round" stroke-linejoin="round"/>
<path d="M180.448 77.4933C180.448 77.4933 183.638 78.4708 188.262 82.0124" stroke="#302218" stroke-width="0.293855" stroke-miterlimit="10" stroke-linecap="round" stroke-linejoin="round"/>
<path d="M211.552 82.6178C211.552 82.6178 214.316 83.5131 216.537 86.4474" stroke="#302218" stroke-width="0.293855" stroke-miterlimit="10" stroke-linecap="round" stroke-linejoin="round"/>
<path d="M180.918 111.12C180.918 111.12 185.137 112.934 188.38 113.566" stroke="#302218" stroke-width="0.293855" stroke-miterlimit="10" stroke-linecap="round" stroke-linejoin="round"/>
<path d="M96.2581 75.0421C96.2581 75.0421 70.9503 73.2496 60.9953 80.1578C60.9953 80.1578 43.5242 76.1233 30.9346 84.0241C30.9346 84.0241 30.3009 56.4562 28.3137 45.2768C28.3137 45.2768 26.8297 40.725 15.9833 45.1834C15.9833 45.1834 4.80435 68.0131 7.3876 93.9684C8.08146 100.942 10.7244 104.214 15.5403 107.152C18.7714 109.123 22.3243 110.502 26.0097 111.362C34.0924 113.25 50.2256 116.232 59.6887 112.679C59.6887 112.679 95.4963 120.379 100.273 97.9388C104.727 77.0117 96.2581 75.0421 96.2581 75.0421Z" fill="#994F31"/>
<path d="M28.364 52.9484C28.364 52.9484 30.0485 50.1788 31.3453 49.971C32.642 49.7632 41.1961 46.7081 41.3096 42.4339C41.423 38.1598 39.559 37.0401 39.559 37.0401C39.559 37.0401 40.3297 24.8152 35.7353 25.5516C35.7353 25.5516 33.6747 25.8817 33.4244 27.6259C33.4244 27.6259 31.5575 24.2622 28.7273 27.4156C28.7273 27.4156 26.4164 25.2974 24.4757 28.6791C24.4757 28.6791 20.6309 27.442 19.9272 31.3137C19.9272 31.3137 12.6396 44.9165 16.8144 51.4316C18.3566 53.8383 24.7788 53.806 28.364 52.9484Z" fill="#994F31"/>
<path d="M31.3456 49.971C32.6424 49.7632 41.1965 46.7081 41.3099 42.4339C41.4234 38.1598 39.5594 37.0401 39.5594 37.0401C39.5594 37.0401 40.33 24.8152 35.7356 25.5516C35.7356 25.5516 33.6751 25.8817 33.4247 27.6259C33.4247 27.6259 31.5578 24.2622 28.7277 27.4156" stroke="#302218" stroke-width="0.293855" stroke-miterlimit="10" stroke-linecap="round" stroke-linejoin="round"/>
<path d="M39.5593 37.04C39.5593 37.04 35.3991 34.4925 33.3205 32.4681C31.2418 30.4438 26.6655 36.4151 34.6656 40.8653C34.6656 40.8653 30.4942 38.8634 27.6093 41.9958" stroke="#302218" stroke-width="0.293855" stroke-miterlimit="10" stroke-linecap="round" stroke-linejoin="round"/>
<path d="M33.4247 27.6254C33.4247 27.6254 33.3602 29.8811 34.1054 33.1782" stroke="#302218" stroke-width="0.293855" stroke-miterlimit="10" stroke-linecap="round" stroke-linejoin="round"/>
<path d="M28.7276 27.4151C28.7276 27.4151 27.0743 33.4857 28.7075 35.9257C28.7075 35.9257 29.2356 36.7638 30.414 36.6015" stroke="#302218" stroke-width="0.293855" stroke-miterlimit="10" stroke-linecap="round" stroke-linejoin="round"/>
<path d="M24.476 28.6791C24.476 28.6791 22.9827 33.1478 23.7792 35.0489C24.5752 36.9496 27.7624 35.7521 28.2944 35.0421" stroke="#302218" stroke-width="0.293855" stroke-miterlimit="10" stroke-linecap="round" stroke-linejoin="round"/>
<path d="M23.5517 33.849C23.5517 33.849 22.7356 34.7693 21.3206 34.4705C19.9059 34.1713 19.9143 32.6682 19.9275 31.3137" stroke="#302218" stroke-width="0.293855" stroke-miterlimit="10" stroke-linecap="round" stroke-linejoin="round"/>
<path d="M33.4564 32.5988C33.4564 32.5988 31.8227 33.8965 33.0369 35.5262C34.2515 37.156 35.8524 36.4524 36.5633 35.0583" stroke="#302218" stroke-width="0.293855" stroke-miterlimit="10" stroke-linecap="round" stroke-linejoin="round"/>
<path d="M65.4906 77.9095C65.4906 77.9095 62.8805 78.529 58.2572 82.0702" stroke="#302218" stroke-width="0.293855" stroke-miterlimit="10" stroke-linecap="round" stroke-linejoin="round"/>
<path d="M33.8906 82.2902C33.8906 82.2902 31.1269 83.185 28.9065 86.1199" stroke="#302218" stroke-width="0.293855" stroke-miterlimit="10" stroke-linecap="round" stroke-linejoin="round"/>
<path d="M64.5249 110.792C64.5249 110.792 60.3065 112.607 57.0626 113.238" stroke="#302218" stroke-width="0.293855" stroke-miterlimit="10" stroke-linecap="round" stroke-linejoin="round"/>
<path d="M92.0533 49.6985C91.8826 58.3084 98.5292 65.5863 106.883 64.7731L112.455 63.6079L109.783 80.5621C109.783 80.5621 114.74 85.5247 124.194 82.8192C136.646 79.2565 139.768 72.8744 139.768 72.8744L139.195 52.0857C139.195 52.0857 148.765 54.5267 147.535 43.6455C145.994 30.0183 138.398 34.0088 140.476 37.8463L140.502 31.4989C140.834 25.3603 137.17 17.8331 127.232 16.2503L113.928 13.9863C113.928 13.9863 92.8283 10.5464 92.0533 49.6985Z" fill="#994F31"/>
<path d="M140.78 42.9742C140.78 42.9742 139.208 44.1263 140.476 44.9976C143.179 46.8543 139.152 47.108 139.919 48.3437" stroke="#302218" stroke-width="0.293855" stroke-miterlimit="10" stroke-linecap="round" stroke-linejoin="round"/>
<path d="M142.945 40.0174C142.945 40.0174 146.226 37.9808 145.11 45.0583" stroke="#302218" stroke-width="0.293855" stroke-miterlimit="10" stroke-linecap="round" stroke-linejoin="round"/>
<path d="M111.641 68.7759L112.455 63.6079L127.036 59.9465C127.036 59.9465 122.841 65.5897 111.641 68.7759Z" fill="#302218"/>
<path d="M112.328 31.2046C112.882 31.2721 113.673 31.3611 114.358 31.4926C115.068 31.6168 115.784 31.7674 116.496 31.965C117.208 32.162 117.918 32.3928 118.647 32.6324C119.388 32.8559 120.118 33.1307 120.962 33.3287L120.981 33.3331C121.186 33.381 121.391 33.2539 121.439 33.049C121.462 32.9502 121.445 32.8505 121.397 32.7693C120.95 32.0036 120.36 31.3484 119.687 30.7944C119.025 30.2179 118.255 29.7944 117.469 29.4013C116.678 29.016 115.837 28.728 114.971 28.5197C114.078 28.3285 113.263 28.1999 112.204 28.2805C111.401 28.3417 110.8 29.0419 110.861 29.8448C110.915 30.5499 111.461 31.099 112.137 31.1811L112.328 31.2046Z" fill="#302218"/>
<mask id="mask0_2443_10589" style="mask-type:luminance" maskUnits="userSpaceOnUse" x="94" y="23" width="9" height="9">
<path d="M97.7155 23.6342C97.7155 23.6342 95.6438 26.9539 94.637 30.9894C94.637 30.9894 101.275 31.9287 102.479 29.1073C102.479 29.1073 101.036 25.0654 97.7155 23.6342Z" fill="white"/>
</mask>
<g mask="url(#mask0_2443_10589)">
<path d="M99.9658 27.0053C99.268 26.6386 98.7008 26.4978 98.0427 26.3824C97.4021 26.2856 96.7484 26.2733 96.1029 26.3462C95.4594 26.42 94.8174 26.554 94.2302 26.845C93.6409 27.1144 93.1055 27.5183 92.7041 28.0532C92.5696 28.2322 92.6058 28.4864 92.7847 28.6209C92.8356 28.659 92.8918 28.6835 92.9505 28.6947L92.9896 28.7021C93.6204 28.8219 94.1377 28.8414 94.6482 28.9143C95.1509 28.974 95.6247 29.0052 96.0956 29.0879C96.564 29.1617 97.0256 29.2512 97.4794 29.3646C97.9155 29.4571 98.429 29.6135 98.7615 29.6717L99.0382 29.7206C99.8279 29.86 100.581 29.3324 100.72 28.5432C100.832 27.9055 100.509 27.2914 99.9658 27.0053Z" fill="#302218"/>
</g>
<path d="M136.917 51.5332L139.195 52.0857" stroke="#302218" stroke-width="0.293855" stroke-miterlimit="10" stroke-linecap="round" stroke-linejoin="round"/>
<path d="M96.5942 48.8399C96.5942 48.8399 100.72 49.855 107.026 49.8932C107.026 49.8932 106.851 57.1549 101.08 56.6405C96.7463 56.2537 96.5942 48.8399 96.5942 48.8399Z" fill="#302218"/>
<path d="M106.295 53.2622C106.295 53.2622 100.566 52.385 98.9463 55.6714C98.9463 55.6714 100.634 57.505 103.363 56.4836C103.363 56.4836 105.479 55.7164 106.295 53.2622Z" fill="#FF4D4D"/>
<path d="M96.5942 48.8399C96.5942 48.8399 100.302 53.4407 107.026 49.8932L96.5942 48.8399Z" fill="white"/>
<mask id="mask1_2443_10589" style="mask-type:luminance" maskUnits="userSpaceOnUse" x="92" y="30" width="10" height="13">
<path d="M94.7204 30.6648C94.7204 30.6648 92.8345 36.3168 92.5743 41.5166C92.5743 41.5166 95.0319 43.4148 97.8166 41.3709C99.0381 40.4746 100.118 38.8659 101.563 35.5878C101.563 35.5878 99.7104 31.7176 94.7204 30.6648Z" fill="white"/>
</mask>
<g mask="url(#mask1_2443_10589)">
<path d="M101.971 37.4537C101.971 37.4537 95.97 28.3642 87.9073 35.6724C87.9073 35.6724 89.4339 40.0746 94.0317 41.1807C98.6286 42.2863 101.971 37.4537 101.971 37.4537Z" fill="white"/>
<mask id="mask2_2443_10589" style="mask-type:luminance" maskUnits="userSpaceOnUse" x="87" y="32" width="15" height="10">
<path d="M101.971 37.4537C101.971 37.4537 95.97 28.3642 87.9073 35.6724C87.9073 35.6724 89.4339 40.0746 94.0317 41.1807C98.6286 42.2863 101.971 37.4537 101.971 37.4537Z" fill="white"/>
</mask>
<g mask="url(#mask2_2443_10589)">
<path d="M89.092 35.9741C88.6109 38.4214 90.2049 40.7954 92.6527 41.2765C95.1001 41.7577 97.474 40.1636 97.9552 37.7158C98.4363 35.2685 96.8423 32.8941 94.3945 32.4134C91.9471 31.9327 89.5732 33.5268 89.092 35.9741Z" fill="#302218"/>
</g>
<path d="M87.8625 35.4645C88.7118 34.3032 89.8428 33.356 91.1503 32.6798C92.451 32.0011 93.9996 31.6715 95.5095 31.8916C96.2591 32.0045 96.9921 32.2338 97.6615 32.5707C97.9891 32.7497 98.3192 32.9292 98.6179 33.1472L99.0693 33.4695L99.4849 33.8313C100.585 34.8024 101.437 35.9872 102.08 37.2551C102.104 37.3035 102.085 37.3627 102.037 37.3871C101.996 37.4077 101.948 37.3969 101.919 37.3646C100.977 36.3173 100.014 35.3168 98.9245 34.5203C97.8444 33.7218 96.6376 33.1257 95.3565 32.9502C94.0793 32.7487 92.7542 32.9766 91.5112 33.4719C90.2687 33.9741 89.0859 34.7115 88.0092 35.5931L88.0038 35.5975C87.9622 35.6317 87.9006 35.6254 87.8664 35.5838C87.8371 35.5486 87.8371 35.4992 87.8625 35.4645Z" fill="#302218"/>
</g>
<path d="M120.713 40.1469C120.713 40.1469 114.712 31.0574 106.65 38.3656C106.65 38.3656 108.176 42.7678 112.774 43.8739C117.371 44.9795 120.713 40.1469 120.713 40.1469Z" fill="white"/>
<mask id="mask3_2443_10589" style="mask-type:luminance" maskUnits="userSpaceOnUse" x="106" y="35" width="15" height="10">
<path d="M120.713 40.1469C120.713 40.1469 114.712 31.0574 106.65 38.3656C106.65 38.3656 108.176 42.7678 112.774 43.8739C117.371 44.9795 120.713 40.1469 120.713 40.1469Z" fill="white"/>
</mask>
<g mask="url(#mask3_2443_10589)">
<path d="M106.706 38.4184C106.225 40.8657 107.819 43.2402 110.267 43.7208C112.714 44.202 115.089 42.6079 115.569 40.1606C116.05 37.7133 114.456 35.3388 112.009 34.8577C109.561 34.3765 107.187 35.9711 106.706 38.4184Z" fill="#302218"/>
</g>
<path d="M106.621 38.1725C107.424 36.9549 108.537 35.9501 109.845 35.2147C111.145 34.4802 112.732 34.0783 114.299 34.29C115.872 34.4837 117.3 35.29 118.367 36.333C119.457 37.3671 120.258 38.6228 120.804 39.9626C120.82 40.0012 120.801 40.0457 120.763 40.0614C120.733 40.0736 120.699 40.0648 120.678 40.0433C119.688 39.0023 118.714 38.0004 117.629 37.2043C116.549 36.4107 115.372 35.8181 114.114 35.6489C112.861 35.4611 111.556 35.69 110.308 36.1843C109.061 36.6831 107.863 37.4111 106.734 38.2698L106.73 38.2732C106.697 38.2981 106.65 38.2918 106.624 38.259C106.605 38.2336 106.605 38.1984 106.621 38.1725Z" fill="#302218"/>
<path d="M101.625 34.7551C100.024 39.9666 97.6211 41.3127 97.6211 41.3127C97.6211 41.3127 96.228 42.1875 96.5869 43.539C96.9458 44.89 97.8196 44.3624 98.8147 45.2744" stroke="#302218" stroke-width="0.293855" stroke-miterlimit="10" stroke-linecap="round" stroke-linejoin="round"/>
<path d="M101.731 44.8C101.731 44.8 101.936 44.7521 102.274 44.8528C102.611 44.9531 102.814 45.3296 102.814 45.3296" stroke="#302218" stroke-width="0.293855" stroke-miterlimit="10" stroke-linecap="round" stroke-linejoin="round"/>
<path d="M104.537 42.4705C104.537 42.4705 106.201 43.8763 104.449 45.8322" stroke="#302218" stroke-width="0.293855" stroke-miterlimit="10" stroke-linecap="round" stroke-linejoin="round"/>
<path d="M121.481 23.5708C121.481 23.5708 121.365 31.7767 125.996 32.0682C130.626 32.3601 130.023 26.8821 130.023 26.8821C130.023 26.8821 133.72 33.4745 137.348 32.3542C140.975 31.2335 138.532 26.4469 138.532 26.4469C138.532 26.4469 143.713 31.5797 146.201 27.6058C148.088 24.5913 143.384 20.8721 143.384 20.8721C143.384 20.8721 148.525 20.5328 147.88 16.0773C147.235 11.6217 143.532 10.7166 140.616 13.2867C140.616 13.2867 143.066 9.00621 139.64 6.70558C135.515 3.93555 132.766 8.46883 132.766 8.46883C132.766 8.46883 134.767 3.10429 130.084 1.28824C124.953 -0.701883 122.63 6.6337 122.63 6.6337C122.63 6.6337 122.755 0.0110428 115.913 0.266287C109.071 0.522021 111.016 7.15446 111.016 7.15446C111.016 7.15446 109.343 -0.449083 101.878 3.03339C97.0587 5.28218 100.651 10.6008 100.651 10.6008C100.651 10.6008 94.8558 6.86548 91.9812 12.23C89.8678 16.1731 95.2182 18.2757 95.2182 18.2757C95.2182 18.2757 90.1421 20.4291 91.8066 24.3028C92.9704 27.0117 99.6458 26.3966 104.637 20.2458C104.637 20.2458 99.9211 26.0758 105.886 28.0058C110.45 29.4825 113.519 21.2799 113.519 21.2799C113.519 21.2799 111.343 27.5823 116.949 28.5867C121.611 29.4209 121.481 23.5708 121.481 23.5708Z" fill="#302218"/>
<path d="M140.486 35.2157C140.486 35.2157 138.907 36.4978 138.388 37.3608" stroke="#302218" stroke-width="0.293855" stroke-miterlimit="10" stroke-linecap="round" stroke-linejoin="round"/>
<path d="M90.3701 75.578C90.3701 75.578 103.186 74.7536 112.099 72.2672C121.013 69.7808 156.171 73.96 169.367 74.9531C169.367 74.9531 168.335 112.251 156.638 133.212C144.941 154.173 165.22 173.667 122.732 173.667C80.2444 173.667 99.6826 154.843 90.6782 135.956C79.1071 111.686 78.5364 88.3486 90.3701 75.578Z" fill="#994F31"/>
<path d="M165.546 102.293C165.546 102.293 164.428 114.197 161.822 121.08" stroke="#302218" stroke-width="0.293855" stroke-miterlimit="10" stroke-linecap="round" stroke-linejoin="round"/>
<path d="M81.3015 102.293C81.3015 102.293 82.4198 114.197 85.0255 121.08" stroke="#302218" stroke-width="0.293855" stroke-miterlimit="10" stroke-linecap="round" stroke-linejoin="round"/>
<path d="M105.477 77.0009C105.477 77.0009 115.652 75.7101 118.006 77.0009C120.36 78.2918 120.168 79.8106 123.757 79.8106C127.345 79.8106 126.394 77.84 128.712 77.0772C130.687 76.4274 134.92 75.9384 143.662 76.8494" stroke="#302218" stroke-width="0.293855" stroke-miterlimit="10" stroke-linecap="round" stroke-linejoin="round"/>
<path d="M122.937 92.3029C122.937 92.3029 123.39 107.459 121.136 113.636C118.881 119.813 95.6039 121.223 90.4897 118.225" stroke="#302218" stroke-width="0.293855" stroke-miterlimit="10" stroke-linecap="round" stroke-linejoin="round"/>
<path d="M124.576 92.3029C124.576 92.3029 124.123 107.459 126.377 113.636C128.632 119.813 151.909 121.223 157.023 118.225" stroke="#302218" stroke-width="0.293855" stroke-miterlimit="10" stroke-linecap="round" stroke-linejoin="round"/>
<path d="M166.711 195.776C166.711 195.776 162.813 169.379 159.216 127.963C159.216 127.963 151.073 119.519 150.935 108.212C150.798 96.9056 150.473 87.4782 150.935 73.2902C150.935 73.2902 146.942 72.0531 142.628 72.5767C142.628 72.5767 140.447 94.1537 139.76 104.762C138.783 119.831 107.289 120.048 107.289 107.134C107.289 94.2207 108.052 78.9515 108.145 73.2202C108.145 73.2202 102.629 73.5684 100.082 74.5766C100.082 74.5766 97.6924 98.5417 97.0924 108.675C96.4924 118.808 87.5408 129.623 87.5408 129.623C87.5408 129.623 84.7023 173.282 80.8022 195.776C80.8022 195.776 139.195 210.445 166.711 195.776Z" fill="#93DA46"/>
<path d="M67.4074 68.6962C65.7649 76.5501 59.6836 83.3571 50.2121 79.9431C40.0385 79.437 37.3228 70.6018 38.9652 62.7479C40.6077 54.894 45.6647 48.9265 56.1605 51.501C67.5355 53.0285 69.0499 60.8423 67.4074 68.6962Z" fill="#FF4D4D"/>
<path d="M53.8932 54.0959C53.9034 53.3278 55.0369 52.5547 55.0369 52.5547C56.5111 53.2099 57.3047 54.604 57.3047 54.604C58.7247 54.447 60.6904 54.9247 60.6904 54.9247C59.7623 56.1262 57.8509 56.5628 57.8509 56.5628C57.9057 57.6552 57.8509 59.2385 57.8509 59.2385C55.3933 58.5832 54.7782 56.908 54.7782 56.908C53.124 58.3148 50.421 57.9148 50.421 57.9148C50.421 57.9148 50.8987 56.3711 52.2952 55.8567C52.2952 55.8567 50.6234 54.6891 50.2924 53.9908C50.2924 53.9908 53.0008 53.5405 53.8932 54.0959Z" fill="#7B733D"/>
<path d="M39.4913 60.6868C39.4913 60.6868 36.001 69.0267 41.6687 76.2591C41.6687 76.2591 44.5063 79.4414 50.2121 79.9426" stroke="#302218" stroke-width="0.293855" stroke-miterlimit="10" stroke-linecap="round" stroke-linejoin="round"/>
<path d="M57.3251 51.6859C57.3251 51.6859 61.0354 52.187 62.9238 53.7131C62.9238 53.7131 68.1065 55.9155 67.9471 64.4906" stroke="#302218" stroke-width="0.293855" stroke-miterlimit="10" stroke-linecap="round" stroke-linejoin="round"/>
<path d="M70.5896 77.9167C74.7848 77.7929 78.0854 74.2916 77.9615 70.0964C77.8377 65.9012 74.3365 62.6007 70.1413 62.7245C65.9461 62.8483 62.6455 66.3496 62.7693 70.5448C62.8931 74.74 66.3944 78.0405 70.5896 77.9167Z" fill="#CBC47A"/>
<path d="M71.7757 77.7823C67.6517 78.5608 63.6773 75.8489 62.8984 71.7249C62.1199 67.6009 64.8318 63.6265 68.9558 62.8476" stroke="#302218" stroke-width="0.293855" stroke-miterlimit="10" stroke-linecap="round" stroke-linejoin="round"/>
<path d="M66.4782 72.0569C66.8009 71.9958 67.1119 72.208 67.173 72.5308C67.2342 72.8535 67.0219 73.1645 66.6992 73.2256C66.3765 73.2867 66.0655 73.0745 66.0044 72.7518C65.9433 72.4291 66.1555 72.1181 66.4782 72.0569Z" stroke="#302218" stroke-width="0.293855" stroke-miterlimit="10" stroke-linecap="round" stroke-linejoin="round"/>
<path d="M67.8941 67.4244C68.2168 67.3632 68.5278 67.5755 68.5884 67.8982C68.6496 68.2209 68.4373 68.5319 68.1146 68.593C67.7919 68.6541 67.4809 68.4419 67.4203 68.1192C67.3592 67.7965 67.5714 67.4855 67.8941 67.4244Z" stroke="#302218" stroke-width="0.293855" stroke-miterlimit="10" stroke-linecap="round" stroke-linejoin="round"/>
<path d="M65.2395 68.7036C65.5623 68.6425 65.8732 68.8547 65.9344 69.1774C65.9955 69.5001 65.7833 69.8111 65.4605 69.8723C65.1378 69.9334 64.8268 69.7212 64.7657 69.3984C64.7051 69.0757 64.9173 68.7647 65.2395 68.7036Z" stroke="#302218" stroke-width="0.293855" stroke-miterlimit="10" stroke-linecap="round" stroke-linejoin="round"/>
<path d="M196.6 57.9793C196.6 57.9793 196.974 52.6715 193.79 50.7817C193.704 50.7308 193.602 50.7132 193.504 50.7298C193.086 50.8007 191.962 51.0917 191.592 52.1904C191.529 52.3762 191.602 52.5806 191.767 52.6867C192.643 53.2515 195.429 55.2895 195.265 58.2747C195.265 58.2747 196.611 59.282 196.6 57.9793Z" fill="#541126"/>
<path d="M191.586 57.6884C191.586 57.6884 183.466 56.4909 182.648 64.8949C181.861 72.9703 185.674 85.2132 195.605 79.8135C196.406 79.3778 197.319 79.327 198.164 79.6702C208.635 83.9272 211.057 71.3347 209.374 63.3977C207.622 55.1379 199.687 57.2346 199.687 57.2346C199.687 57.2346 195.324 58.527 191.586 57.6884Z" fill="#FF4D4D"/>
<path d="M196.499 57.8449C195.121 58.0024 193.468 58.0547 191.899 57.7535C191.619 57.6997 191.337 57.6567 191.053 57.642C189.233 57.5486 183.339 57.8004 182.648 64.8949" stroke="#302218" stroke-width="0.293855" stroke-miterlimit="10" stroke-linecap="round" stroke-linejoin="round"/>
<path d="M205.539 57.818C202.786 56.4156 199.686 57.2346 199.686 57.2346" stroke="#302218" stroke-width="0.293855" stroke-miterlimit="10" stroke-linecap="round" stroke-linejoin="round"/>
<path d="M208.61 75.4582C210.048 71.9019 210.165 67.1344 209.373 63.3982" stroke="#302218" stroke-width="0.293855" stroke-miterlimit="10" stroke-linecap="round" stroke-linejoin="round"/>
<path d="M195.605 79.8136C196.406 79.3779 197.319 79.3271 198.164 79.6703C201.627 81.0786 204.211 80.6429 206.056 79.1422" stroke="#302218" stroke-width="0.293855" stroke-miterlimit="10" stroke-linecap="round" stroke-linejoin="round"/>
<path d="M152.786 52.7934C152.786 52.7934 150.913 63.321 166.033 74.1082C178.74 83.1748 193.144 72.8545 196.303 64.1424C199.463 55.4304 191.461 57.2728 189.879 58.9393C188.296 60.6057 178.236 66.269 172.267 61.7308C166.298 57.1927 162.862 47.5335 156.758 48.3672C156.758 48.3672 156.297 48.2596 155.215 44.5395C155.15 44.3185 154.964 44.1488 154.743 44.1175C154.15 44.0329 152.882 44.0236 151.147 44.9497C150.881 45.092 150.796 45.4407 150.963 45.7169C151.458 46.5408 152.573 48.2816 154.17 50.1133C154.17 50.1133 153.01 51.3206 152.786 52.7934Z" fill="#FFC34A"/>
<path d="M192.691 64.3708C193.537 63.321 194.359 62.1611 195.152 60.8854" stroke="#302218" stroke-width="0.293855" stroke-miterlimit="10" stroke-linecap="round" stroke-linejoin="round"/>
<path d="M166.015 69.0909C173.432 74.0388 183.083 74.5332 191.029 66.2632" stroke="#302218" stroke-width="0.293855" stroke-miterlimit="10" stroke-linecap="round" stroke-linejoin="round"/>
<path d="M152.785 52.7933C152.785 52.7933 153.15 50.2727 155.459 49.2189" stroke="#302218" stroke-width="0.293855" stroke-miterlimit="10" stroke-linecap="round" stroke-linejoin="round"/>
<path d="M168.093 57.4998C168.093 57.4998 171.385 61.7753 174.131 62.7846C176.241 63.5606 178.624 63.6941 181.511 62.9929" stroke="#302218" stroke-width="0.293855" stroke-miterlimit="10" stroke-linecap="round" stroke-linejoin="round"/>
<path d="M155.791 63.2041C155.791 63.2041 163.551 77.5472 177.46 77.6068" stroke="#302218" stroke-width="0.293855" stroke-miterlimit="10" stroke-linecap="round" stroke-linejoin="round"/>
<path d="M152.994 44.2314C152.994 44.2314 154.153 43.961 154.743 44.117C155.333 44.2734 155.175 44.7067 155.392 45.1335" stroke="#302218" stroke-width="0.293855" stroke-miterlimit="10" stroke-linecap="round" stroke-linejoin="round"/>
<path d="M197.031 60.4981C197.031 60.4981 197.322 65.5057 191.761 70.9196" stroke="#302218" stroke-width="0.293855" stroke-miterlimit="10" stroke-linecap="round" stroke-linejoin="round"/>
<path d="M184.916 61.8648C184.916 61.8648 188.024 60.5597 189.878 58.9388C189.878 58.9388 190.981 57.8762 192.727 57.6484" stroke="#302218" stroke-width="0.293855" stroke-miterlimit="10" stroke-linecap="round" stroke-linejoin="round"/>
<path d="M154.918 51.6472C154.918 51.6472 154.179 58.6977 163.047 66.7662" stroke="#302218" stroke-width="0.293855" stroke-miterlimit="10" stroke-linecap="round" stroke-linejoin="round"/>
</svg>
