<svg xmlns="http://www.w3.org/2000/svg" width="260" height="270" fill="none"><path fill="#BEE990" d="M177.893 36.235s-39.017-17.794-80.519 1.572S32 100.678 11.724 135.428c-20.275 34.75-13.623 72.456 15.085 91.87 28.709 19.414 51.376-3.583 93.804-1.127 42.427 2.455 53.284 9.488 90.48-11.374 37.198-20.863 48.454-76.759 24.382-120.92-24.072-44.163-57.582-57.642-57.582-57.642Z" opacity=".7"/><path fill="#93DA46" d="M202.716 211.67c-2.736-1.9-6.295 1.387-7.653 3.651-1.127 1.882-2.576 4.785-2.913 5.465l-.043-.167.079-.065c-.023.018-.055.031-.084.046-.647-2.51-1.581-4.781-2.656-6.837.596-.706 3.018-1.571 3.559-1.805 2.24-.966 4.397-1.742 5.71-3.948 1.039-1.745 1.5-4.199-.756-5.184-3.053-1.334-5.908 2.581-6.799 5.066-.701 1.951-1.506 4.851-1.76 5.783-1.043-1.98-2.21-3.76-3.371-5.361.59-.851 2.434-2.119 2.862-2.455 1.918-1.508 3.805-2.809 4.51-5.277.558-1.953.377-4.443-2.055-4.819-3.293-.509-5.052 4.006-5.279 6.636-.159 1.845-.206 4.443-.219 5.665a105.565 105.565 0 0 0-2.733-3.534c-.9-1.129-1.698-2.132-2.322-3.036.143-.063.224-.101.224-.101a.608.608 0 0 1-.268.036l-.032-.047c.451-.804 2.676-2.103 3.165-2.433 2.024-1.364 4-2.525 4.884-4.934.698-1.907.699-4.404-1.7-4.956-3.246-.747-5.33 3.627-5.747 6.235-.327 2.042-.583 5.032-.661 6.002a14.402 14.402 0 0 1-.295-.455c-1.229-1.975-2.252-4.037-3.049-5.835l.234-.042a.6.6 0 0 1-.266-.03l-.095-.217c.459-.936 2.053-2.466 2.418-2.864 1.65-1.797 3.302-3.386 3.601-5.935.236-2.017-.345-4.445-2.806-4.424-3.331.029-4.339 4.769-4.139 7.401.123 1.615.423 3.78.62 5.108a57.035 57.035 0 0 1-1.24-3.198.148.148 0 0 1 .009.008l-.012-.015c-.127-.36-.218-.633-.27-.791-.138-1.102.055-2.91.076-3.392.109-2.437.353-4.717-1.058-6.861-1.116-1.697-3.122-3.183-4.994-1.585-2.533 2.164-.258 6.442 1.588 8.329 1.3 1.329 3.248 3.067 4.162 3.871.248.736.823 2.361 1.691 4.361-.949-.554-2.309-1.912-2.682-2.242-1.829-1.615-3.45-3.235-6.005-3.484-2.021-.196-4.438.432-4.368 2.893.094 3.33 4.851 4.245 7.48 3.993 1.904-.182 4.572-.627 5.722-.826.808 1.828 1.849 3.933 3.103 5.951.069.11.143.223.218.337-1.056-.292-2.737-1.291-3.185-1.522-2.169-1.115-4.14-2.286-6.677-1.898-2.007.307-4.195 1.511-3.522 3.878.911 3.205 5.748 2.921 8.233 2.029 1.797-.644 4.271-1.731 5.34-2.208.635.926 1.449 1.949 2.368 3.103.926 1.161 1.953 2.451 2.985 3.882v.018c-.697.307-3.32-1.268-3.896-1.565-2.17-1.115-4.141-2.287-6.678-1.898-2.007.307-4.195 1.51-3.522 3.879.911 3.204 5.748 2.92 8.233 2.029 2.318-.832 5.766-2.4 5.863-2.444v.118c0-.034.01-.072.02-.109 1.127 1.564 2.256 3.301 3.265 5.225-.92.208-3.346-.473-3.915-.593-2.387-.506-4.596-1.12-6.942-.081-1.856.823-3.652 2.559-2.381 4.667 1.72 2.853 6.313 1.31 8.477-.202 1.715-1.198 4.076-3.123 4.8-3.717 1.058 2.03 1.979 4.271 2.617 6.744-1.008.119-3.231-.503-3.772-.618-2.387-.506-4.596-1.12-6.942-.08-1.856.823-3.652 2.558-2.381 4.666 1.72 2.854 6.313 1.31 8.477-.202 1.617-1.129 3.808-2.904 4.66-3.602.742 2.95 1.082 6.227.765 9.874l.328.028c.318-3.667-.019-6.963-.758-9.93.583-.62 3.325-1.025 3.925-1.155 2.385-.514 4.651-.857 6.367-2.766 1.357-1.51 2.285-3.828.263-5.232Z"/><path fill="#93DA46" d="M224.454 223.616c-2.529.439-4.024 2.176-5.727 3.924-.387.397-1.889 2.148-2.793 2.609-.845-2.41-1.325-4.784-1.573-7.06.932.093 3.965.381 6.057.424 2.639.054 7.316-1.215 7.16-4.543-.115-2.458-2.572-2.904-4.573-2.556-2.529.438-4.024 2.176-5.727 3.924-.406.416-2.046 2.33-2.926 2.669-.231-2.161-.257-4.233-.189-6.159.029.026.059.051.077.079l-.066-.098c.106-.017 3.843-.629 6.233-1.226 2.561-.641 6.741-3.091 5.717-6.262-.756-2.342-3.244-2.128-5.083-1.268-2.325 1.087-3.312 3.156-4.497 5.289-.315.566-1.621 3.334-2.37 3.466a.121.121 0 0 1-.01-.014c.062-1.764.2-3.407.324-4.886.124-1.47.232-2.774.246-3.897 1.154-.196 3.815-.668 5.666-1.131 2.562-.641 6.741-3.091 5.718-6.262-.756-2.342-3.244-2.128-5.084-1.268-2.325 1.087-3.312 3.156-4.497 5.289-.244.44-1.087 2.205-1.802 3.034a17.352 17.352 0 0 0-.006-.401c-.078-2.374-.382-4.703-.727-6.672 1.066-.473 3.532-1.586 5.216-2.493 2.325-1.251 5.773-4.656 4.001-7.477-1.31-2.084-3.669-1.263-5.239.023-1.986 1.626-2.433 3.874-3.057 6.233-.127.482-.502 2.366-.984 3.355a56.813 56.813 0 0 0-1.017-4.566c.313-1.176.967-3.704 1.309-5.53.486-2.595 0-7.416-3.308-7.808-2.444-.29-3.286 2.062-3.271 4.092.018 2.566 1.488 4.326 2.933 6.292.286.389 1.45 1.785 1.948 2.777.045.161.121.438.215.808l-.001.019.004-.012c.194.762.472 1.927.746 3.347-.575-1.213-1.528-3.18-2.323-4.591-1.296-2.3-4.768-5.68-7.554-3.853-2.058 1.35-1.191 3.692.126 5.237 1.664 1.954 3.921 2.358 6.292 2.934.524.128 2.7.514 3.601 1.037l.041.233a.622.622 0 0 1-.204.173l.217-.095c.336 1.938.631 4.22.708 6.546.006.175.007.356.007.542-.603-.762-2.477-3.106-3.885-4.622-1.796-1.936-5.959-4.415-8.243-1.99-1.687 1.792-.299 3.868 1.341 5.064 2.073 1.513 4.362 1.38 6.802 1.39.589.002 3.162-.154 3.984.264l-.001.056a.602.602 0 0 1-.242.119l.242-.04c-.017 1.098-.123 2.375-.244 3.813a108.01 108.01 0 0 0-.308 4.457c-.691-1.009-2.172-3.142-3.33-4.587-1.65-2.061-5.622-4.837-8.076-2.585-1.813 1.665-.58 3.836.969 5.149 1.958 1.66 4.25 1.694 6.683 1.881.542.041 2.779.072 3.743.451-.076 1.975-.057 4.104.177 6.33-.73-.633-3.01-2.597-4.677-3.83-2.122-1.57-6.671-3.239-8.468-.434-1.328 2.072.419 3.857 2.252 4.731 2.318 1.103 4.542.55 6.942.109.578-.106 3.074-.733 3.962-.476a31.92 31.92 0 0 0 1.59 7.16c-.032.003-.066.011-.095.008l.102.01.057.163c-.658-.379-3.476-1.986-5.459-2.925-2.387-1.129-7.172-1.884-8.392 1.217-.9 2.29 1.16 3.702 3.127 4.203 2.488.634 4.563-.34 6.831-1.238.57-.225 3.077-1.412 3.906-1.221 1.033 2.878 2.585 5.804 4.888 8.677l.256-.205c-2.29-2.857-3.829-5.77-4.85-8.635 1.096.107 3.904.364 5.876.405 2.639.055 7.316-1.215 7.16-4.542-.117-2.456-2.574-2.901-4.574-2.554ZM30.316 215.377c-2.518-.501-4.538.581-6.756 1.598-.504.231-2.537 1.323-3.546 1.428.08-2.552.488-4.94 1.076-7.153.837.422 3.563 1.783 5.498 2.577 2.443 1.001 7.262 1.502 8.316-1.659.778-2.335-1.354-3.635-3.346-4.033-2.517-.501-4.538.581-6.756 1.598-.528.243-2.747 1.438-3.69 1.436.563-2.099 1.284-4.04 2.041-5.813.018.034.037.069.044.102 0 0-.01-.047-.027-.115.105.022 3.812.797 6.257 1.101 2.62.325 7.402-.456 7.59-3.782.138-2.457-2.261-3.153-4.287-3.014-2.56.177-4.226 1.752-6.1 3.315-.497.415-2.712 2.526-3.459 2.379l-.004-.017c.693-1.622 1.413-3.105 2.062-4.441.645-1.327 1.215-2.504 1.632-3.546 1.148.232 3.8.75 5.694.986 2.62.325 7.402-.456 7.59-3.782.138-2.457-2.26-3.154-4.286-3.014-2.56.177-4.227 1.751-6.1 3.315-.386.322-1.808 1.665-2.774 2.181.048-.127.095-.254.138-.376.783-2.243 1.338-4.525 1.726-6.486 1.165-.058 3.866-.208 5.764-.447 2.62-.329 7.062-2.265 6.424-5.534-.47-2.416-2.967-2.499-4.895-1.865-2.439.801-3.666 2.738-5.096 4.714-.293.403-1.321 2.026-2.127 2.775.41-2.141.615-3.852.697-4.626.715-.984 2.236-3.107 3.213-4.687 1.388-2.246 2.67-6.918-.275-8.475-2.176-1.15-3.808.74-4.525 2.64-.907 2.401-.17 4.571.47 6.926.126.465.71 2.188.816 3.293-.016.165-.045.451-.09.83l-.008.018.008-.01a58.006 58.006 0 0 1-.51 3.392c-.099-1.339-.28-3.517-.513-5.12-.38-2.613-2.402-7.017-5.66-6.315-2.405.518-2.44 3.015-1.768 4.931.85 2.422 2.809 3.611 4.813 5.004.443.308 2.333 1.451 2.986 2.264l-.046.232a.612.612 0 0 1-.253.088l.238-.011c-.384 1.929-.931 4.165-1.698 6.362-.057.165-.12.334-.188.507-.289-.929-1.194-3.79-1.96-5.711-.979-2.452-3.968-6.265-6.973-4.825-2.22 1.064-1.672 3.5-.573 5.208 1.389 2.158 3.572 2.858 5.844 3.746.549.214 3.005.996 3.622 1.681l-.02.053a.62.62 0 0 1-.27.023s.088.019.24.049c-.41 1.019-.97 2.172-1.6 3.47a107.89 107.89 0 0 0-1.893 4.047c-.28-1.189-.894-3.713-1.454-5.48-.797-2.517-3.502-6.536-6.603-5.319-2.29.899-1.923 3.369-.95 5.151 1.228 2.254 3.354 3.111 5.557 4.161.49.234 2.567 1.069 3.328 1.769-.782 1.816-1.531 3.808-2.114 5.969-.453-.854-1.873-3.507-2.984-5.258-1.413-2.229-5.057-5.424-7.744-3.455-1.985 1.456-.998 3.749.398 5.224 1.764 1.864 4.04 2.15 6.436 2.602.578.109 3.132.424 3.867.982a31.926 31.926 0 0 0-1.095 7.253c-.031-.008-.065-.013-.091-.027l.091.046-.005.172c-.478-.59-2.527-3.105-4.039-4.694-1.82-1.913-6.013-4.342-8.266-1.889-1.666 1.813-.252 3.872 1.403 5.048 2.091 1.487 4.378 1.326 6.818 1.305.613-.005 3.379-.209 4.083.267-.072 3.057.32 6.346 1.434 9.855l.313-.099c-1.107-3.489-1.493-6.761-1.415-9.802.985.495 3.51 1.747 5.336 2.495 2.442 1.002 7.262 1.502 8.315-1.659.777-2.333-1.355-3.633-3.346-4.029ZM64.705 233.525c-1.67-.333-3.01.385-4.481 1.06-.334.153-1.683.878-2.352.947a20.96 20.96 0 0 1 .714-4.745c.555.28 2.362 1.183 3.646 1.709 1.62.664 4.817.996 5.516-1.1.516-1.549-.898-2.411-2.219-2.675-1.67-.332-3.01.386-4.481 1.06-.35.161-1.823.954-2.449.952a28.936 28.936 0 0 1 1.355-3.856c.011.023.024.046.029.068l-.017-.076c.07.014 2.528.528 4.15.73 1.737.216 4.91-.302 5.033-2.509.092-1.63-1.499-2.091-2.842-1.999-1.698.117-2.803 1.162-4.046 2.199-.33.276-1.8 1.676-2.295 1.578a.056.056 0 0 0-.003-.011c.46-1.077.938-2.06 1.368-2.946.428-.88.806-1.661 1.082-2.352.762.154 2.52.498 3.777.654 1.738.216 4.91-.302 5.035-2.509.091-1.63-1.5-2.091-2.843-1.999-1.698.117-2.803 1.162-4.046 2.198-.257.214-1.2 1.105-1.84 1.447.032-.084.063-.168.091-.25.52-1.488.888-3.001 1.145-4.302.773-.038 2.565-.137 3.823-.296 1.738-.219 4.684-1.502 4.262-3.671-.313-1.602-1.968-1.658-3.247-1.237-1.617.532-2.431 1.816-3.38 3.127-.194.268-.877 1.344-1.411 1.841.27-1.42.407-2.555.461-3.068.475-.653 1.484-2.061 2.131-3.109.92-1.49 1.772-4.589-.181-5.621-1.444-.764-2.526.49-3.002 1.75-.602 1.593-.113 3.032.311 4.594.084.309.471 1.451.542 2.184-.01.11-.03.3-.06.552l-.005.011.005-.006a38.386 38.386 0 0 1-.338 2.249c-.066-.887-.186-2.332-.341-3.395-.253-1.733-1.594-4.654-3.753-4.189-1.597.344-1.62 2-1.174 3.27.563 1.607 1.863 2.396 3.192 3.319.294.205 1.548.963 1.981 1.502l-.03.155a.407.407 0 0 1-.168.058l.158-.007c-.255 1.279-.618 2.762-1.126 4.219-.038.109-.08.222-.125.337-.192-.617-.791-2.514-1.3-3.789-.649-1.626-2.632-4.155-4.624-3.2-1.473.706-1.11 2.322-.381 3.454.921 1.431 2.37 1.896 3.877 2.485.364.142 1.993.66 2.401 1.115l-.014.035a.409.409 0 0 1-.179.015l.16.033c-.273.676-.644 1.441-1.062 2.301a71.92 71.92 0 0 0-1.255 2.684c-.186-.789-.594-2.462-.965-3.633-.529-1.67-2.322-4.337-4.38-3.529-1.52.597-1.275 2.235-.63 3.417.815 1.495 2.225 2.064 3.686 2.76.325.155 1.702.709 2.207 1.174a29.363 29.363 0 0 0-1.403 3.959c-.3-.567-1.242-2.326-1.978-3.487-.938-1.479-3.354-3.598-5.136-2.291-1.317.965-.663 2.486.263 3.465 1.17 1.236 2.679 1.426 4.269 1.726.383.073 2.077.281 2.565.651a21.207 21.207 0 0 0-.726 4.811c-.021-.005-.044-.009-.06-.018l.06.031-.004.114c-.317-.392-1.677-2.059-2.679-3.114-1.207-1.269-3.988-2.879-5.483-1.252-1.104 1.202-.167 2.568.93 3.348 1.388.987 2.905.88 4.524.866.407-.004 2.24-.139 2.708.177a19.87 19.87 0 0 0 .951 6.537l.208-.066a19.63 19.63 0 0 1-.939-6.501c.653.328 2.329 1.158 3.54 1.655 1.62.664 4.817.995 5.516-1.1.515-1.549-.899-2.412-2.22-2.675Z"/><path fill="#93DA46" d="M59.483 233.099c-1.466.865-1.987 2.293-2.634 3.777-.146.337-.669 1.776-1.121 2.273a20.96 20.96 0 0 1-2.63-4.012c.6-.161 2.55-.693 3.857-1.157 1.65-.585 4.255-2.468 3.378-4.497-.647-1.498-2.277-1.199-3.436-.515-1.466.866-1.987 2.294-2.634 3.777-.154.353-.723 1.926-1.19 2.342a29.009 29.009 0 0 1-1.56-3.777c.023.009.048.018.066.031l-.064-.046c.062-.035 2.237-1.291 3.58-2.221 1.44-.997 3.458-3.498 2.08-5.225-1.018-1.276-2.511-.56-3.451.405-1.188 1.219-1.316 2.735-1.551 4.335-.063.425-.224 2.449-.659 2.706l-.009-.006a65.962 65.962 0 0 1-.943-3.108c-.268-.941-.507-1.775-.761-2.475.67-.392 2.21-1.309 3.25-2.03 1.44-.997 3.459-3.498 2.082-5.225-1.019-1.276-2.512-.56-3.452.405-1.188 1.22-1.315 2.735-1.55 4.336-.05.33-.158 1.623-.408 2.305a11.589 11.589 0 0 0-.098-.247 32.213 32.213 0 0 0-2.014-3.969c.551-.543 1.82-1.812 2.653-2.769 1.15-1.322 2.49-4.242.73-5.577-1.302-.987-2.573.075-3.246 1.242-.851 1.474-.602 2.974-.436 4.584.034.329.242 1.586.175 2.313a37.765 37.765 0 0 0-1.701-2.595c-.081-.803-.268-2.525-.483-3.739-.307-1.724-1.738-4.602-3.883-4.069-1.584.393-1.556 2.049-1.07 3.306.613 1.588 1.937 2.335 3.294 3.216.269.175 1.318.768 1.86 1.267.065.089.177.243.323.451l.004.012-.001-.009c.3.428.745 1.086 1.247 1.903-.64-.619-1.693-1.615-2.517-2.305-1.344-1.123-4.29-2.407-5.59-.62-.96 1.32.125 2.57 1.305 3.22 1.49.822 2.986.544 4.592.346.355-.043 1.796-.313 2.478-.2l.08.135a.408.408 0 0 1-.086.155l.113-.11a31.818 31.818 0 0 1 1.973 3.896c.044.107.088.219.131.334-.553-.331-2.265-1.346-3.494-1.958-1.568-.78-4.731-1.343-5.58.697-.628 1.508.72 2.47 2.018 2.829 1.642.452 3.03-.166 4.546-.733.366-.136 1.926-.835 2.534-.769l.013.035a.407.407 0 0 1-.123.13l.14-.081c.248.685.481 1.502.743 2.423.248.87.522 1.829.853 2.838-.665-.464-2.084-1.441-3.141-2.067-1.507-.892-4.622-1.684-5.617.289-.735 1.458.538 2.516 1.807 2.968 1.604.571 3.035.055 4.588-.399.346-.101 1.74-.607 2.428-.598a29.417 29.417 0 0 0 1.593 3.887c-.6-.222-2.476-.906-3.799-1.28-1.685-.478-4.898-.447-5.356 1.715-.338 1.597 1.164 2.295 2.506 2.408 1.697.142 2.948-.723 4.333-1.559.335-.202 1.735-1.175 2.346-1.224a21.168 21.168 0 0 0 2.666 4.07c-.02.01-.039.022-.058.028l.066-.018.074.088c-.498-.081-2.623-.418-4.073-.536-1.745-.141-4.892.512-4.922 2.722-.022 1.632 1.587 2.025 2.925 1.875 1.692-.19 2.752-1.28 3.949-2.369.3-.273 1.578-1.597 2.137-1.673a19.842 19.842 0 0 0 5.067 4.239l.11-.187a19.66 19.66 0 0 1-5.033-4.221c.705-.19 2.508-.689 3.74-1.125 1.651-.586 4.256-2.469 3.379-4.497-.65-1.5-2.278-1.201-3.438-.516Z"/><path fill="#8A8992" stroke="#93DA46" stroke-width=".368" d="M29.572 139.876v-.486h6.263c-.553-3.139-3.285-5.526-6.582-5.526-3.297 0-6.03 2.387-6.582 5.526H28.933v.486l-.176.007c-6.366.261-11.446 5.5-11.446 11.93 0 4.219 2.19 7.925 5.494 10.05l.12.077-.045.136-1.598 4.746 8.29-26.946Zm0 0 .177.007m-.177-.007.177.007m0 0c6.364.26 11.446 5.5 11.446 11.93a11.94 11.94 0 0 1-5.679 10.169l-.124.077m-5.643-22.176 5.643 22.176m-11.315.518.186.085a11.89 11.89 0 0 0 4.99 1.094c1.706 0 3.327-.36 4.795-1.005l.184-.081.064.19 1.473 4.375-11.692-4.658Zm0 0-.066.194m.066-.194-.066.194m0 0-1.502 4.464a.647.647 0 0 1-.82.407m2.322-4.871-2.322 4.871m13.703-5.583.047.138m-.047-.138.047.138m0 0 1.556 4.626a.647.647 0 1 1-1.226.412l-.33-5.038Zm-13.75 5.445a.648.648 0 0 1-.407-.82l.407.82Zm-2.265-15.829c0 5.423 4.412 9.835 9.835 9.835 5.424 0 9.836-4.412 9.836-9.835 0-5.424-4.412-9.836-9.836-9.836-5.423 0-9.835 4.412-9.835 9.836Z"/><path fill="#8A8992" stroke="#93DA46" stroke-width=".368" d="M30.38 151.813c0 .416-.23.775-.567.968v4.245a.554.554 0 1 1-1.107 0v-4.245a1.114 1.114 0 0 1-.567-.968c0-.191.052-.367.136-.524l2.105.524Zm0 0a1.12 1.12 0 0 0-1.12-1.121l-.027.002m1.147 1.119-1.147-1.119m0 0-.022.003.022-.003Zm-.178.101.057.09.107-.004a.603.603 0 0 0 .027-.003l.016-.002h.002a.936.936 0 0 1 .932.936v.001c0 .346-.19.646-.474.809l-.093.053v4.351a.37.37 0 1 1-.739 0v-4.351l-.093-.053a.932.932 0 0 1-.474-.809c0-.157.042-.303.114-.438l.05-.094-.057-.091-3.21-5.09a.37.37 0 0 1 .114-.511l-.097-.155.097.155a.37.37 0 0 1 .51.116l3.211 5.09Z"/><path stroke="#93DA46" stroke-linecap="round" stroke-linejoin="round" stroke-miterlimit="10" stroke-width=".736" d="M34.665 174.21c12.66-2.866 20.598-15.451 17.732-28.11-2.866-12.659-15.451-20.598-28.11-17.732-12.66 2.866-20.598 15.451-17.732 28.11 2.866 12.659 15.451 20.598 28.11 17.732Z"/><path fill="#263238" stroke="#93DA46" stroke-width=".368" d="m218.952 148.072.388-.169-.388-.169c-.57-.248-.934-.722-.934-1.246v-7.227c0-.754.756-1.423 1.767-1.423h12.355c1.011 0 1.767.669 1.767 1.423v7.227c0 .525-.363.998-.935 1.246l-.388.169.388.169c.571.248.935.721.935 1.245v4.085c0 .6-.475 1.136-1.188 1.337l-.32.09.247.223c.351.319.669.902.9 1.513.231.609.361 1.205.361 1.525v9.56c0 .754-.756 1.422-1.767 1.422h-12.355c-1.011 0-1.767-.668-1.767-1.422v-9.56c0-.32.13-.916.361-1.525.231-.611.549-1.194.901-1.513l.245-.223-.319-.09c-.713-.202-1.188-.737-1.188-1.337v-4.085c0-.524.363-.997.934-1.245ZM228.093 136.569h-4.261v-2.154a.91.91 0 0 1 .91-.91h2.441a.91.91 0 0 1 .91.91v2.154Z"/><path fill="#263238" stroke="#93DA46" stroke-width=".368" d="M224.353 138.999v-3.063h3.22v3.063h-3.22Z"/><path fill="#fff" stroke="#93DA46" stroke-width=".368" d="M232.976 143.304v3.778l-.002.013v.003c-.002.011-.006.033-.007.056l-.004.067c-.054.434-.358.812-.806 1.018l-.363.167.363.167c.497.229.819.666.819 1.157v3.821c0 .561-.42 1.055-1.04 1.24l-.303.09.229.219c.308.295.589.839.794 1.41.205.57.32 1.127.32 1.427v8.944c0 .705-.666 1.319-1.544 1.319h-10.94c-.877 0-1.543-.614-1.543-1.319v-8.944c0-.3.115-.856.319-1.426.205-.572.486-1.116.795-1.411l.228-.219-.303-.09c-.619-.185-1.039-.68-1.039-1.24v-3.821c0-.491.321-.928.818-1.157l.363-.167-.363-.167c-.451-.207-.756-.59-.806-1.027l-.003-.057a.418.418 0 0 0-.007-.056l-.001-.004-.001-.012v-3.017a3.586 3.586 0 0 1 1.576-.378c1.292 0 2.192.223 3.1.449l.37.091c1.047.254 2.155.465 3.88.285 1.981-.207 3.864-.771 5.101-1.209Z"/><path fill="#263238" stroke="#93DA46" stroke-width=".368" d="M229.453 154.139a3.635 3.635 0 1 1-7.269 0c0-.482.221-1.118.577-1.82.352-.695.824-1.432 1.299-2.107a33.227 33.227 0 0 1 1.735-2.245l.024-.028.023.028a33.227 33.227 0 0 1 1.735 2.245c.475.675.947 1.412 1.299 2.107.356.702.577 1.338.577 1.82Z"/><path stroke="#93DA46" stroke-linecap="round" stroke-linejoin="round" stroke-miterlimit="10" stroke-width=".736" d="M242.578 167.907c9.178-9.178 9.178-24.058 0-33.236-9.178-9.178-24.058-9.178-33.236 0-9.178 9.178-9.178 24.058 0 33.236 9.178 9.178 24.058 9.178 33.236 0Z"/><path fill="#90A2FF" stroke="#93DA46" stroke-width=".368" d="M55.11 97.435c0 5.784-4.09 10.429-9.082 10.429-4.993 0-9.082-4.645-9.082-10.43 0-5.783 4.089-10.428 9.082-10.428s9.081 4.645 9.081 10.429Z"/><path fill="#fff" stroke="#93DA46" stroke-width=".368" d="M46.028 108.201c-5.172 0-9.419-4.806-9.419-10.766s4.247-10.766 9.419-10.766c5.17 0 9.418 4.806 9.418 10.766 0 5.959-4.247 10.766-9.418 10.766Zm0-21.226c-5.048 0-9.113 4.717-9.113 10.46 0 5.743 4.065 10.46 9.113 10.46 5.047 0 9.112-4.717 9.112-10.46 0-5.743-4.065-10.46-9.112-10.46Z"/><path fill="#90A2FF" stroke="#93DA46" stroke-width=".368" d="M52.076 97.435c0 5.784-4.088 10.429-9.081 10.429-4.993 0-9.082-4.645-9.082-10.43 0-5.783 4.089-10.428 9.082-10.428s9.081 4.645 9.081 10.429Z"/><path fill="#fff" stroke="#93DA46" stroke-width=".368" d="M42.995 108.201c-5.171 0-9.418-4.806-9.418-10.766s4.247-10.766 9.418-10.766c5.172 0 9.419 4.806 9.419 10.766 0 5.959-4.248 10.766-9.419 10.766Zm0-21.226c-5.047 0-9.112 4.717-9.112 10.46 0 5.743 4.064 10.46 9.112 10.46s9.113-4.717 9.113-10.46c0-5.743-4.065-10.46-9.113-10.46Z"/><path fill="#90A2FF" stroke="#93DA46" stroke-width=".368" d="M44.006 98.43H25.154v-2.664h18.852a1.332 1.332 0 1 1 0 2.664Z"/><path fill="#fff" stroke="#93DA46" stroke-width=".368" d="M25.123 98.277v.184H44.006a1.364 1.364 0 0 0 0-2.726H25.123V98.277Zm18.883.49h-19.19v-3.339h19.19c.92 0 1.67.75 1.67 1.67 0 .92-.75 1.669-1.67 1.669Z"/><path fill="#90A2FF" stroke="#93DA46" stroke-width=".368" d="M38.6 97.435c0 5.784-4.089 10.429-9.082 10.429s-9.081-4.645-9.081-10.43c0-5.783 4.088-10.428 9.081-10.428 4.993 0 9.082 4.645 9.082 10.429Z"/><path fill="#fff" stroke="#93DA46" stroke-width=".368" d="M29.518 108.201c-5.171 0-9.418-4.806-9.418-10.766s4.247-10.766 9.418-10.766c5.171 0 9.419 4.806 9.419 10.766 0 5.959-4.248 10.766-9.419 10.766Zm0-21.226c-5.048 0-9.112 4.717-9.112 10.46 0 5.743 4.064 10.46 9.112 10.46s9.113-4.717 9.113-10.46c0-5.743-4.065-10.46-9.113-10.46Z"/><path fill="#90A2FF" stroke="#93DA46" stroke-width=".368" d="M35.568 97.435c0 5.784-4.089 10.429-9.082 10.429-4.992 0-9.081-4.645-9.081-10.43 0-5.783 4.088-10.428 9.081-10.428 4.993 0 9.082 4.645 9.082 10.429Z"/><path fill="#fff" stroke="#93DA46" stroke-width=".368" d="M26.486 108.201c-5.171 0-9.418-4.806-9.418-10.766s4.247-10.766 9.418-10.766c5.171 0 9.418 4.806 9.418 10.766 0 5.959-4.247 10.766-9.418 10.766Zm0-21.226c-5.048 0-9.112 4.717-9.112 10.46 0 5.743 4.064 10.46 9.112 10.46s9.113-4.717 9.113-10.46c0-5.743-4.065-10.46-9.113-10.46Z"/><path fill="#90A2FF" stroke="#93DA46" stroke-width=".368" d="M26.486 93.744c1.744 0 3.199 1.628 3.199 3.691 0 2.062-1.455 3.691-3.199 3.691-1.744 0-3.199-1.629-3.199-3.691s1.455-3.69 3.2-3.69Z"/><path fill="#fff" stroke="#93DA46" stroke-width=".368" d="M26.486 101.462c-1.929 0-3.535-1.784-3.535-4.027 0-2.243 1.606-4.027 3.535-4.027 1.93 0 3.536 1.784 3.536 4.027 0 2.243-1.607 4.027-3.536 4.027Zm0-7.749c-1.806 0-3.229 1.696-3.229 3.722 0 2.025 1.424 3.722 3.23 3.722 1.805 0 3.228-1.697 3.228-3.722 0-2.026-1.423-3.722-3.229-3.722Z"/><path fill="#90A2FF" stroke="#93DA46" stroke-width=".368" d="M28.337 97.435c0 2.062-1.454 3.691-3.198 3.691-1.745 0-3.2-1.629-3.2-3.691s1.455-3.69 3.2-3.69c1.744 0 3.198 1.627 3.198 3.69Z"/><path fill="#fff" stroke="#93DA46" stroke-width=".368" d="M25.139 101.462c-1.93 0-3.536-1.784-3.536-4.027 0-2.243 1.607-4.027 3.536-4.027s3.535 1.784 3.535 4.027c0 2.243-1.606 4.027-3.535 4.027Zm0-7.749c-1.806 0-3.23 1.696-3.23 3.722 0 2.025 1.424 3.722 3.23 3.722 1.805 0 3.229-1.697 3.229-3.722 0-2.026-1.423-3.722-3.23-3.722Z"/><path stroke="#93DA46" stroke-linecap="round" stroke-linejoin="round" stroke-miterlimit="10" stroke-width=".736" d="M58.29 106.221c5.162-11.908-.309-25.746-12.218-30.907-11.909-5.16-25.746.31-30.907 12.219-5.16 11.909.31 25.746 12.219 30.907 11.908 5.161 25.746-.31 30.907-12.219Z"/><path fill="#CD7006" stroke="#93DA46" stroke-width=".368" d="m237.023 85.992.21.288-.07-.17.071.17h.001l.004-.002.019-.008.071-.029a43.074 43.074 0 0 1 1.243-.474 33.7 33.7 0 0 1 2.884-.917c1.035-.27 2.02-.445 2.688-.386.337.03.554.115.669.238.102.11.157.288.068.605-.184.654-.691 1.275-1.376 1.842-.683.565-1.525 1.062-2.349 1.474a23.105 23.105 0 0 1-3.127 1.277l-.051.016-.013.004-.003.001h-.001l.054.176-.054-.175.027.357h.002l.009.002.032.005.124.02c.107.02.257.047.434.084a9.43 9.43 0 0 1 1.21.331c.201.073.387.153.541.24.156.088.267.176.332.26.061.08.074.146.059.21-.017.074-.081.182-.251.318-.241.194-.658.342-1.207.444-.543.1-1.189.153-1.866.172-1.353.038-2.807-.056-3.755-.137l-.38-.032.211.318c.924 1.385 1.331 2.827 1.052 4.27-.279 1.445-1.252 2.926-3.158 4.375-2.676 2.035-8.876 5.674-14.175 7.993-2.653 1.161-5.057 1.98-6.674 2.111-.815.066-1.377-.047-1.683-.321-.288-.257-.405-.714-.182-1.499.454-1.594 1.48-3.375 2.776-5.157 1.295-1.78 2.85-3.549 4.351-5.118a83.545 83.545 0 0 1 5.29-5.053c.153-.134.273-.237.354-.306l.093-.08.024-.019.005-.005.002-.001-.118-.141.118.14.025-.02.016-.028.003-.005.009-.015.038-.063c.034-.055.084-.136.15-.238.132-.205.325-.493.572-.828.493-.672 1.196-1.528 2.037-2.275.843-.748 1.812-1.375 2.837-1.606 1.016-.23 2.099-.075 3.194.764.704.539 1.33 1.104 1.881 1.685l.303-.199c-.273-.646-.7-1.846-1.005-3.597l-.182.031m5.587-1.317-3.433 1.688.183.022m3.25-1.71h-.001.001l.001-.002.005-.006.021-.026a8.336 8.336 0 0 0 .352-.47c.218-.311.483-.73.684-1.172.202-.446.327-.892.29-1.263a.926.926 0 0 0-.179-.48 1.116 1.116 0 0 0-.498-.354c-.419-.166-.854.014-1.311.488-.452.47-.876 1.182-1.241 1.936a21.05 21.05 0 0 0-.872 2.12 21.274 21.274 0 0 0-.304.92l-.016.053-.004.013-.001.004h-.001l-.176-.05m3.25-1.71-3.25 1.71m-2.337-.394c-.489-2.804-.068-6.257 1.345-4.658.996 1.127 1.081 3.177 1.044 4.287a19.044 19.044 0 0 0-.206.638l-.017.055-.004.014-.001.004-.001.001.177.052m-2.337-.393c.249 1.425.578 2.49.842 3.195.105.105.208.21.309.316l-.133.127-.17.071c-.05-.12-.106-.257-.164-.412a16.495 16.495 0 0 0-1.569-1.363l.885-1.934Zm2.433 5.122c1.973.158 5.659.321 6.727-.538 1.195-.962-1.218-1.54-2.195-1.728l-4.532 2.266Zm0 0a7.91 7.91 0 0 0-.08-.121l-.153.102-.015.183.142.012c1.748 2.775 1.495 5.833-2.275 8.699l2.381-8.875Z"/><path fill="#CD7006" stroke="#93DA46" stroke-width=".368" d="M215.13 104.446a.178.178 0 0 1-.155-.026h-.001a3.098 3.098 0 0 0-1.299-.547c-.042-.008-.075-.012-.098-.015a.178.178 0 0 0-.028-.003l-.011-.001v-.001h-.003a.176.176 0 0 1-.162-.188.176.176 0 0 1 .185-.161h.004l.011.001a3.295 3.295 0 0 1 .517.104c.308.088.706.247 1.09.528l.001.001a.174.174 0 0 1 .037.245.168.168 0 0 1-.088.063Zm.053.176a.359.359 0 0 1-.317-.054l.317.054ZM224.151 97.733a.175.175 0 1 1 .25-.244c1.063 1.093 1.882 2.55 2.43 4.34a.175.175 0 1 1-.335.103c-.527-1.723-1.314-3.138-2.345-4.199ZM222.876 96.278c.084.05.111.157.061.24a.173.173 0 0 1-.099.078.172.172 0 0 1-.14-.017h-.001c-.984-.585-1.764-.693-1.82-.7a.176.176 0 0 1-.155-.193.176.176 0 0 1 .192-.155c.044.005.887.107 1.962.747Zm0 0 .094-.158m-.094.158.094-.158m0 0a.359.359 0 1 1-.367.617c-.976-.58-1.74-.674-1.747-.675l2.114.058ZM231.235 99.926h.001a.177.177 0 0 0 .121-.139c.269-1.601-.236-2.783-.811-3.57-.576-.789-1.221-1.178-1.226-1.181l-.002-.001a.174.174 0 0 0-.237.062.175.175 0 0 0 .061.24l2.093 4.589Zm0 0a.174.174 0 0 1-.08.005l.08-.005Zm.054.176a.348.348 0 0 1-.164.01l.164-.01Zm0 0a.358.358 0 0 0 .249-.284l-.249.284ZM220.897 104.754h-.001c-.245-.801-.821-1.373-1.323-1.74-.494-.362-.935-.539-.969-.553a.176.176 0 0 1-.101-.227.174.174 0 0 1 .224-.1h.002c.032.013.528.205 1.082.617.555.412 1.155 1.034 1.42 1.9a.176.176 0 0 1-.116.219.173.173 0 0 1-.218-.116Z"/><path stroke="#93DA46" stroke-linecap="round" stroke-linejoin="round" stroke-miterlimit="10" stroke-width=".736" d="M231.835 119.763c12.642-2.941 20.506-15.574 17.565-28.216-2.941-12.642-15.574-20.507-28.216-17.565-12.642 2.94-20.506 15.574-17.565 28.216 2.941 12.642 15.574 20.506 28.216 17.565Z"/><path fill="#CD7006" stroke="#93DA46" stroke-width=".368" d="M82.133 50.483c-.186.291-.43.5-.743.637-.661-4.772-3.455-8.816-7.306-10.847 3.278.459 6.126 2.24 7.993 4.794.244.873.458 1.914.51 2.896.053 1-.063 1.908-.454 2.52ZM72.452 49.273l.007.005c1.28.881 2.539 1.748 3.814 2.393 1.235.625 2.496 1.049 3.822 1.078.008.183.012.368.012.553 0 .456-.027.907-.069 1.356-3.14.863-7.065 1.09-11.177.543-5.258-.702-7.572-2.347-8.437-3.182.021-2.508.82-4.828 2.159-6.744 1.393-.026 3.61.214 6.058 1.56 1.342.739 2.593 1.6 3.811 2.438ZM81.525 52.59a3.07 3.07 0 0 0 1.818-1.335c.393-.615.587-1.355.658-2.126.251.958.39 1.96.391 2.996 0 .151-.01.296-.02.447l-.009.133c-.798.572-1.755 1.068-2.845 1.475a15.05 15.05 0 0 0 .006-1.59ZM84.13 54.56a11.87 11.87 0 0 1-1.106 3.126c-.547-.332-1.21-.484-1.968-.465.12-.474.219-.957.295-1.447a15.504 15.504 0 0 0 2.78-1.213ZM77.108 60.351a43.35 43.35 0 0 1 1.628-.922 12.663 12.663 0 0 1-3.294 4.279c-.973.255-1.986.403-3.036.403-1.55 0-3.027-.3-4.386-.838a11 11 0 0 0 2.475-.107c2.47-.39 4.68-1.683 6.598-2.806l.015-.009ZM80.69 58.684c.692-.084 1.217.003 1.59.229a12.021 12.021 0 0 1-3.6 3.414 14.712 14.712 0 0 0 1.922-3.628c.031-.006.06-.012.088-.015Z"/><path fill="#CD7006" stroke="#93DA46" stroke-width=".368" d="M69.333 45.577c-2.123-1.167-4.082-1.594-5.594-1.711a11.946 11.946 0 0 1 6.159-3.46c5.17.707 9.278 5.214 10.069 10.901-1.047-.052-2.078-.41-3.143-.961-1.138-.59-2.302-1.39-3.558-2.255-1.238-.853-2.525-1.739-3.933-2.514ZM70.272 61.747c-2.667.421-4.976-.417-6.16-.985a11.938 11.938 0 0 1-3.542-6.793c1.457.977 3.955 2.1 8.1 2.654 1.6.214 3.165.317 4.67.317 2.334 0 4.522-.253 6.473-.73-.09.443-.202.878-.332 1.305-.945.336-1.977.94-3.099 1.597l.093.158-.093-.158c-1.851 1.084-3.913 2.288-6.11 2.635Z"/><path stroke="#93DA46" stroke-linecap="round" stroke-linejoin="round" stroke-miterlimit="10" stroke-width=".736" d="M77.735 75.03C90.377 72.089 98.242 59.456 95.3 46.814c-2.94-12.642-15.574-20.507-28.216-17.566C54.442 32.19 46.578 44.822 49.52 57.465 52.46 70.107 65.093 77.97 77.735 75.03Z"/><path fill="#16FF2D" stroke="#93DA46" stroke-width=".368" d="M181.27 45.043c1.342-1.13 2.75-1.343 4.239-1.268.648.032 1.307.119 1.984.207l.315.042c.785.101 1.591.194 2.41.194.712 0 1.493-.072 2.29-.155l.372-.04c.68-.071 1.367-.144 2.039-.182 1.6-.09 3.059.024 4.072.771 2.622 1.934 3.147 5.208 3.147 8.335 0 3.106-1.271 6.316-3.157 8.749-1.889 2.438-4.365 4.062-6.754 4.062h-.04c-.613 0-1.673 0-2.723-.052a20.215 20.215 0 0 1-1.533-.125c-.468-.06-.857-.139-1.116-.239-6.027-2.328-8.366-8.1-8.366-13.146 0-2.619.784-5.44 2.821-7.153Z"/><mask id="a" fill="#fff"><path d="M189.896 44.893s.935-2.9 1.687-4.403c.752-1.504 2.04-2.148 2.04-2.148l1.289.537s-1.503.967-2.47 2.256c-.966 1.288-2.255 4.51-2.255 4.51"/></mask><path fill="#8AA32D" d="M189.896 44.893s.935-2.9 1.687-4.403c.752-1.504 2.04-2.148 2.04-2.148l1.289.537s-1.503.967-2.47 2.256c-.966 1.288-2.255 4.51-2.255 4.51"/><path fill="#93DA46" d="m193.623 38.342.142-.34-.155-.064-.151.075.164.329Zm1.289.537.199.31.59-.38-.647-.27-.142.34Zm-5.016 6.014.35.112.001-.001.002-.006.008-.024.03-.094.116-.347c.098-.293.238-.7.401-1.154.327-.912.743-1.994 1.108-2.725l-.658-.329c-.387.773-.815 1.892-1.143 2.806-.165.459-.306.87-.406 1.168l-.117.351-.031.096-.008.025-.002.006-.001.002.35.114Zm2.016-4.239a4.806 4.806 0 0 1 1.834-1.96l.035-.02.007-.003h.001-.001l-.165-.329-.164-.329h-.001l-.002.001-.004.003a5.189 5.189 0 0 0-.803.553 5.536 5.536 0 0 0-1.395 1.755l.658.33Zm1.57-1.972 1.289.537.283-.68-1.289-.537-.283.68Zm1.43.197-.199-.31v.001h-.001l-.005.004-.014.009-.053.035a11.498 11.498 0 0 0-.832.62c-.508.412-1.151.997-1.66 1.676l.589.441c.457-.61 1.049-1.152 1.534-1.546a12.188 12.188 0 0 1 .78-.58l.046-.031.011-.008.003-.001-.199-.31Zm-2.764 2.035c-.51.68-1.088 1.842-1.53 2.806a44.55 44.55 0 0 0-.714 1.645l-.043.106a.608.608 0 0 1-.015.035v.002h-.001l.342.137.341.137h.001v-.002a.026.026 0 0 0 .003-.007l.011-.026.042-.103a44.352 44.352 0 0 1 .702-1.617c.444-.97.993-2.063 1.45-2.672l-.589-.441Z" mask="url(#a)"/><path fill="#8AA32D" stroke="#93DA46" stroke-width=".368" d="M185.936 39.159a56.762 56.762 0 0 1 1.533.782c.469.248.962.518 1.392.772.432.257.788.491.989.667l-3.914-2.221Zm0 0a4.446 4.446 0 0 0 .004.751c.051.57.231 1.245.725 1.738.241.241.608.438 1.04.595.43.157.909.268 1.359.348a13.701 13.701 0 0 0 1.477.175 1.993 1.993 0 0 0-.691-1.386l-3.914-2.221ZM198.854 48.62c-.161.279-.498.451-.956.471-.456.02-1.005-.115-1.533-.42s-.919-.713-1.13-1.117c-.212-.407-.232-.785-.071-1.064.161-.279.498-.451.956-.47.456-.02 1.005.114 1.533.42.528.304.919.712 1.13 1.117.213.407.232.784.071 1.063Z"/><path stroke="#93DA46" stroke-linecap="round" stroke-linejoin="round" stroke-miterlimit="10" stroke-width=".736" d="M212.275 60.434c4.578-12.145-1.557-25.702-13.702-30.28-12.145-4.578-25.701 1.557-30.279 13.702-4.578 12.145 1.556 25.702 13.701 30.28 12.145 4.578 25.702-1.557 30.28-13.702Z"/><mask id="b" width="41" height="42" x="116" y="12" maskUnits="userSpaceOnUse" style="mask-type:luminance"><path fill="#fff" stroke="#fff" stroke-width=".368" d="M156.177 32.98c0 10.964-8.888 19.852-19.853 19.852-10.964 0-19.852-8.888-19.852-19.852 0-10.965 8.888-19.853 19.852-19.853 10.965 0 19.853 8.888 19.853 19.853Z"/></mask><g mask="url(#b)"><path fill="#FBAB0F" stroke="#93DA46" stroke-width=".368" d="m149.365 31.574-.058-.032-.106-.057h-.001a.266.266 0 0 0-.016-.009c-.19-.101-1.937-1.034-3.871-2.001a80.639 80.639 0 0 0-2.994-1.433c-.923-.414-1.678-.71-2.083-.792-.695-.14-1.856-.194-3.053-.209a96.475 96.475 0 0 0-3.192.028h-.046c-.332.008-.594.013-.749.013-.533 0-1.017.054-1.376.14-.18.044-.322.095-.422.147-.094.049-.126.087-.134.1.001.007.001.053.062.156.071.121.207.289.439.5.681.62 1.697.987 2.73 1.21 1.029.224 2.048.298 2.718.347.258.02.455.034.606.05.151.018.269.037.365.069h.001c.18.06.382.192.577.344.2.156.408.345.602.533.388.376.727.758.838.884l9.163.012Zm0 0 .064-.013 11.248-2.142 3.6 11.616-16.09.35h-.018l-.017.004-.124.026-.016.004-.015.006-.026.01c-.245.101-2.191.902-4.302 1.738-1.118.443-2.281.895-3.261 1.258-.986.365-1.773.634-2.149.718-.701.156-3.182.46-5.718.747-2.527.288-5.09.557-5.94.646h-.002a.131.131 0 0 1-.094-.028.134.134 0 0 1-.055-.074.167.167 0 0 1-.004-.064l-.183-.024m23.102-14.778-9.163-.011.44.502.235.268-.354.036-18.598 1.912a.683.683 0 0 0-.615.736.689.689 0 0 0 .685.634H122.008l14.004-.212.043.363-15.748 3.523a.546.546 0 0 0-.354.255l-.158-.096.158.096a.55.55 0 0 0-.06.431l-.177.048.177-.048a.563.563 0 0 0 .582.406h.001l11.78-.995.166-.014.031.163.126.676.031.163-.16.047-10.533 3.079a.636.636 0 0 0-.44.768c.08.322.399.53.729.475L132.388 43l.166-.029.043.163.179.665.043.162-.158.058-6.12 2.24a.134.134 0 0 0-.074.056.144.144 0 0 0-.021.06l-.183-.024m0 0a.326.326 0 0 0 .135.312m-.135-.313a.324.324 0 0 1 .214-.264l6.121-2.24-.178-.665-10.183 1.778 4.161 1.704m0 0c.069.049.144.07.222.06 1.701-.176 10.252-1.078 11.679-1.396 1.517-.337 9.24-3.516 9.742-3.722l-21.643 5.058Zm4.864-19.19Z"/><path fill="#FBAB0F" stroke="#93DA46" stroke-width=".368" d="m127.088 40.922-2.645.773.287-.574 2.358-.199Z"/><mask id="c" fill="#fff"><path d="m127.843 40.673-.082.244 1.139-.333-1.057.09Z"/></mask><path fill="#FBAB0F" d="m127.843 40.673-.082.244 1.139-.333-1.057.09Z"/><path fill="#93DA46" d="m127.843 40.673-.031-.366-.242.02-.076.23.349.116Zm-.082.244-.348-.117-.223.667.675-.197-.104-.353Zm1.139-.333.104.353-.135-.72.031.367Zm-1.406-.027-.081.243.697.233.082-.243-.698-.233Zm.371.713 1.139-.333-.207-.706-1.139.333.207.706Zm1.004-1.053-1.057.09.062.733 1.057-.09-.062-.733Z" mask="url(#c)"/><path fill="#FBAB0F" stroke="#93DA46" stroke-width=".368" d="M122.454 37.76c.039-.065.079-.129.12-.19l.585-.877 4.358-.066-5.063 1.133Z"/><path fill="#FBAB0F" stroke="#93DA46" stroke-width=".368" d="m130.949 44.484-.005-.012-.007-.016-.173.063a.274.274 0 0 0 .053.093l.062.06.07-.188Zm0 0-.002-.002-.001-.001.001.002c.004.003.004.005.002.001Zm-4.97-5.862-.294-.213.13.13-.13-.13-.001.001-.002.002-.007.007-.029.029-.108.109-.386.392c-.307.314-.714.733-1.125 1.17l-2.587.218c.106-.412.247-.885.43-1.36l14.185-3.173-.043-.363-12.141.184.853-1.28.251-.376 15.547-1.598.354-.037-.234-.267-.44-.503c-.111-.127-.45-.509-.838-.885a7.604 7.604 0 0 0-.602-.532c-.196-.153-.398-.285-.578-.345a1.837 1.837 0 0 0-.365-.068 18.197 18.197 0 0 0-.606-.05c-.67-.05-1.689-.124-2.718-.347-1.034-.223-2.05-.591-2.73-1.21a2.332 2.332 0 0 1-.44-.5c-.06-.104-.061-.15-.062-.156a.36.36 0 0 1 .135-.1c.1-.053.242-.103.422-.147.359-.087.842-.14 1.376-.14.155 0 .417-.006.748-.013h.047a96.446 96.446 0 0 1 3.191-.028c1.197.015 2.358.07 3.054.208.304.061.81.245 1.444.513.63.266 1.371.608 2.141.978 1.439.692 2.968 1.478 4.027 2.03-1.475 1.618-2.65 2.854-3.218 3.341-2.228 1.91-4.742 3.392-5.887 4.067l-.34.202c-.133.08-.312.24-.515.443-.208.207-.453.473-.722.775a77.706 77.706 0 0 0-1.802 2.127c-.453.55-.901 1.1-1.3 1.591l-.431.53c-.496.609-.856 1.045-.981 1.17-.196.196-.464.213-.788.092a2.646 2.646 0 0 1-.791-.508l1.59-.581.158-.058-.043-.163-.178-.665-.044-.162-.165.029-.981.17c.211-.353.455-.71.666-1.005.139-.193.262-.357.351-.473l.104-.135.028-.035.008-.01.001-.001h.001v-.001l-.281-.238.137.123-.137-.123-.002.003-.008.01-.033.035-.124.136a68.314 68.314 0 0 1-1.808 1.906l-3.369.588.696-2.088 4.811-1.406.16-.047-.031-.163-.126-.676-.031-.164-.166.014-6.973.59.695-1.39Z"/><path fill="#FBAB0F" stroke="#93DA46" stroke-width=".368" d="M121.187 41.526a4.164 4.164 0 0 0 .506.535c.152.13.29.216.394.24.048.01.076.005.093-.003s.046-.029.077-.09l.164.082c.101-.202.418-.59.819-1.043l-2.053.279Zm0 0 .001-.008.016-.099 1.771-.15-1.788.257ZM142.963 22.464l.164.083.001-.001.003-.006.012-.024.046-.09.176-.346.635-1.234a336.173 336.173 0 0 1 1.961-3.743 121.468 121.468 0 0 1 2.059-3.74c.297-.51.554-.93.753-1.223a3.52 3.52 0 0 1 .282-.369l11.637 4.343-.158.184a1165.204 1165.204 0 0 1-4.01 4.648c-2.446 2.822-5.492 6.306-7.94 9.016a145.437 145.437 0 0 0-4.227-2.136c-.81-.39-1.601-.755-2.281-1.04-.675-.285-1.254-.497-1.633-.573-.771-.154-1.995-.211-3.215-.227-1.216-.016-2.444.01-3.244.026h-.016a40.96 40.96 0 0 1-.773.013c-.45 0-1.075.03-1.633.17-.544.137-1.093.394-1.288.899-.167.431-.012.844.188 1.152.199.308.465.55.589.663l.002.001c.839.763 1.987 1.19 3.101 1.441 1.113.252 2.213.332 2.974.388h.008l.005.001c.157.012.322.024.459.036a4.185 4.185 0 0 1 .251.031c.001 0 .001 0 0 0a.695.695 0 0 1 .154.091c.077.055.168.128.269.216.126.11.265.24.408.38l-12.946 1.332 2.4-3.599.886-1.33.251-.376.066-.099.017-.026.005-.006.001-.002-.153-.102m13.754-4.822-.027.182h-.007l-.021-.004-.081-.012-.308-.045a331.177 331.177 0 0 0-4.559-.63 133.373 133.373 0 0 0-3.682-.438 33.726 33.726 0 0 0-1.394-.117c-.386-.022-.656-.023-.791-.004-.136.02-.344.08-.615.181-.269.1-.589.233-.944.391a62.78 62.78 0 0 0-2.404 1.152c-.605.303-1.212.612-1.772.897-1.002.511-1.851.944-2.256 1.117l-.247.105c-.553.235-1.089.463-1.441.704-.205.14-.312.262-.345.361-.025.074-.021.171.126.317.328.329.877.628 1.503.8.625.172 1.304.212 1.888.046.646-.185 1.557-.275 2.295-.32a25.509 25.509 0 0 1 1.224-.044l.077-.001H129.209v.184m13.754-4.822-.027.182.131.02.06-.119-.164-.083Zm-13.754 4.822.153.102.191-.286h-.344v.184Zm19.885-15.548-.004.002a.028.028 0 0 1 .004-.002Z"/><mask id="d" fill="#fff"><path d="m128.248 45.44-.497.181c.12-.011.249-.046.387-.115.032-.017.073-.045.11-.066Z"/></mask><path fill="#263238" d="m128.248 45.44-.497.181c.12-.011.249-.046.387-.115.032-.017.073-.045.11-.066Z"/><path fill="#93DA46" d="m128.248 45.44.186.317-.313-.663.127.346Zm-.497.181-.126-.345.162.711-.036-.366Zm.387-.115.164.329.003-.002-.167-.327Zm-.017-.412-.496.182.253.69.496-.18-.253-.692Zm-.334.893a1.46 1.46 0 0 0 .515-.152l-.329-.658a.722.722 0 0 1-.257.078l.071.732Zm.518-.154c.032-.016.062-.035.081-.046l.048-.03-.373-.634c-.024.014-.051.03-.065.04a.18.18 0 0 1-.02.012l-.006.003.335.655Z" mask="url(#d)"/><mask id="e" fill="#fff"><path d="m128.724 44.53-2.059.358c.055.097.129.207.218.314l1.841-.673Z"/></mask><path fill="#FBAB0F" d="m128.724 44.53-2.059.358c.055.097.129.207.218.314l1.841-.673Z"/><path fill="#93DA46" d="m128.724 44.53.126.345-.189-.708.063.362Zm-2.059.358-.063-.362-.516.09.26.454.319-.182Zm.218.314-.281.236.165.198.243-.089-.127-.345Zm1.778-1.035-2.059.359.126.725 2.059-.36-.126-.724Zm-2.315.903c.064.114.15.242.256.368l.563-.473a1.714 1.714 0 0 1-.18-.26l-.639.365Zm.664.477 1.84-.672-.253-.691-1.84.672.253.691Z" mask="url(#e)"/><path fill="#FBAB0F" stroke="#93DA46" stroke-width=".368" d="m123.797 42.987 2.654-.776a59.084 59.084 0 0 1-1.504 2.09l-.954.166a4.337 4.337 0 0 1-.229-.784 6.541 6.541 0 0 1-.081-.467l.114-.229Z"/></g><path fill="#5F9CBB" stroke="#93DA46" stroke-width=".368" d="M126.157 17.625c.212-.21.423-.306.627-.33.207-.025.426.022.656.135.466.227.94.703 1.372 1.259.428.551.8 1.162 1.066 1.637.094.17.175.32.24.445a20.149 20.149 0 0 1-.573-.17 15.922 15.922 0 0 1-1.973-.754c-.676-.32-1.258-.688-1.551-1.076-.143-.19-.207-.37-.195-.546.012-.174.101-.375.331-.6ZM142.562 17.625c.23.225.32.426.331.6.012.175-.052.356-.195.546-.293.388-.874.756-1.551 1.076-.67.317-1.404.575-1.973.753-.221.07-.416.127-.573.17.065-.124.146-.275.24-.444a13.49 13.49 0 0 1 1.066-1.637c.432-.556.906-1.032 1.372-1.26.23-.112.449-.16.656-.135.204.025.415.122.627.33ZM131.707 20.478a.161.161 0 0 1-.162-.161V8.424a.161.161 0 1 1 .323 0v11.893c0 .089-.072.161-.161.161ZM134.229 24.802a.161.161 0 0 1-.161-.161v-2.523c0-.09.072-.161.161-.161.09 0 .162.072.162.161v2.523c0 .089-.072.161-.162.161Z"/><path fill="#5F9CBB" stroke="#93DA46" stroke-width=".368" d="M134.229 22.28a.161.161 0 0 1-.161-.161v-6.487a.161.161 0 1 1 .323 0v6.487a.162.162 0 0 1-.162.161ZM137.293 23.721a.161.161 0 0 1-.161-.161V12.928c0-.09.072-.161.161-.161.09 0 .162.072.162.161V23.56c0 .09-.073.162-.162.162ZM137.293 12.009a.161.161 0 0 1-.161-.162V9.146a.161.161 0 1 1 .323 0v2.701a.162.162 0 0 1-.162.162ZM124.099 30.948c-.752.167-1.308-.177-1.428-.572-.059-.194-.028-.431.168-.68.2-.254.57-.52 1.181-.738a5.848 5.848 0 0 1 3.102-.24 5.477 5.477 0 0 1 .958.276l-.162.103c-.277.173-.663.408-1.099.654-.879.496-1.939 1.023-2.72 1.197ZM129.365 32.731a.161.161 0 0 1-.162-.161v-3.244a.161.161 0 1 1 .323 0v3.244c0 .09-.072.161-.161.161Z"/><path stroke="#93DA46" stroke-linecap="round" stroke-linejoin="round" stroke-miterlimit="10" stroke-width=".736" d="M151.896 49.854c9.178-9.178 9.178-24.058 0-33.236-9.178-9.178-24.058-9.178-33.236 0-9.178 9.178-9.178 24.058 0 33.236 9.178 9.178 24.058 9.178 33.236 0Z"/><path fill="#263238" d="M120.323 270c34.726 0 62.877-4.34 62.877-9.693 0-5.354-28.151-9.694-62.877-9.694-34.725 0-62.876 4.34-62.876 9.694 0 5.353 28.15 9.693 62.876 9.693Z"/><path fill="#fff" d="M109.895 154.751s-1.41 5.623-2.442 14.029c-1.031 8.407.675 21.57.675 21.57s-12.233-6.261-18.844-5.433c-6.611.828-33.39 10.313-36.912 9.983 0 0-2.636 4.675-.078 4.613 3.508-.087 40.853.69 46.888 1.396 6.172.723 14.91 2.586 17.978-.197 2.082-1.888 9.697-25.587 9.814-33.351.115-7.763.914-13.06.914-13.06"/><path stroke="#263238" stroke-linecap="round" stroke-linejoin="round" stroke-miterlimit="10" stroke-width=".368" d="M109.895 154.751s-1.41 5.623-2.442 14.029c-1.031 8.407.675 21.57.675 21.57s-12.233-6.261-18.844-5.433c-6.611.828-33.39 10.313-36.912 9.983 0 0-2.636 4.675-.078 4.613 3.508-.087 40.853.69 46.888 1.396 6.172.723 14.91 2.586 17.978-.197 2.082-1.888 9.697-25.587 9.814-33.351.115-7.763.914-13.06.914-13.06"/><path fill="#263238" stroke="#263238" stroke-linecap="round" stroke-linejoin="round" stroke-miterlimit="10" stroke-width=".368" d="M107.453 168.78c-1.031 8.407.675 21.57.675 21.57s-12.233-6.261-18.844-5.433c-1.475.185-3.957.802-6.958 1.644-1.67 3.237-3.152 8.196-.835 13.539 8.098.243 15.316.531 17.69.809 6.172.723 14.91 2.586 17.979-.197 2.081-1.888 9.697-25.587 9.813-33.351.116-7.763.915-13.06.915-13.06l-17.993.45s-1.411 5.623-2.442 14.029Z"/><path fill="#fff" d="m119.091 158.24-4.001 2.016s-1.333-.143 1.2-3.646"/><path stroke="#263238" stroke-linecap="round" stroke-linejoin="round" stroke-miterlimit="10" stroke-width=".368" d="m119.091 158.24-4.001 2.016s-1.333-.143 1.2-3.646"/><path fill="#263238" stroke="#263238" stroke-linecap="round" stroke-linejoin="round" stroke-miterlimit="10" stroke-width=".368" d="M132.484 74.795s-4.016-2.78-10.813-3.09c-6.797-.309-11.431 8.959-10.504 14.829.927 5.87.618 12.048-7.414 11.121-8.033-.927-17.919 0-20.082 8.65-2.162 8.651 7.415 19.463 18.228 15.447 10.812-4.016 8.204-11.949 13.284-13.593 5.081-1.643 10.194-1.544 10.813-7.723.618-6.178-3.399-11.74-.619-17.3 2.781-5.56 7.107-8.341 7.107-8.341Z"/><path stroke="#fff" stroke-linecap="round" stroke-linejoin="round" stroke-miterlimit="10" stroke-width=".368" d="M128.091 76.06s-8.43-1.639-11.24 5.387c-2.81 7.025 3.513 13.113 1.405 20.138-2.107 7.025-10.069 12.411-16.626 10.069-6.557-2.341-12.88-4.684-13.347-.937-.468 3.747 4.449 4.684 5.62 3.981 1.17-.702-.468-2.108-.468-2.108"/><path stroke="#fff" stroke-linecap="round" stroke-linejoin="round" stroke-miterlimit="10" stroke-width=".368" d="M101.101 103.491a16.231 16.231 0 0 0-2.983-.501M121.534 75.124s-7.962 1.406-7.962 9.835c0 8.43 3.981 13.582.468 18.968-2.434 3.731-5.767 2.067-9.921.537"/><path fill="#fff" stroke="#263238" stroke-linecap="round" stroke-linejoin="round" stroke-miterlimit="10" stroke-width=".368" d="M137.093 83.125s.278 4.519-.744 7.156c-1.022 2.637-5.457 6.916-5.195 9.187.262 2.272 6.762 6.938 8.838 6.156 2.076-.782 3.8-12.574 3.8-12.574s-3.619-8.358-6.699-9.925Z"/><path fill="#fff" d="M140.733 91.336c1.336 2.495 2.475 4.572 5.447 5.119 4.074.75 5.569-4.524 6.121-9.842.138.06.279.106.421.121 1.015.106 2.065-.127 2.831-.903.326-.333-.174-.979-.833-1.675-1.945-2.057-2.108-3.646-2.085-6.443.01-1.262.016-2.544-.316-3.763a6.801 6.801 0 0 0-.267-.787c-2.967-7.253-17.804-7.522-18.607 1.403-.261 2.894.116 6.211 1.09 9.38"/><mask id="f" width="23" height="30" x="133" y="67" maskUnits="userSpaceOnUse" style="mask-type:luminance"><path fill="#fff" d="M140.733 91.336c1.336 2.495 2.475 4.572 5.447 5.119 4.074.75 5.569-4.524 6.121-9.842.138.06.279.106.421.121 1.015.106 2.065-.127 2.831-.903.326-.333-.174-.979-.833-1.675-1.945-2.057-2.108-3.646-2.085-6.443.01-1.262.016-2.544-.316-3.763a6.801 6.801 0 0 0-.267-.787c-2.967-7.253-17.804-7.522-18.607 1.403-.261 2.894.116 6.211 1.09 9.38"/></mask><g mask="url(#f)"><path fill="#C6FF00" d="M152.635 77.712c.01-1.262.015-2.544-.316-3.762a6.8 6.8 0 0 0-.267-.788c-2.967-7.253-17.805-7.521-18.608 1.403-.26 2.883.114 6.185 1.08 9.342 7.269-2.444 14.231-3.713 18.153-4.296-.042-.573-.048-1.198-.042-1.899Z"/></g><mask id="g" width="23" height="30" x="133" y="67" maskUnits="userSpaceOnUse" style="mask-type:luminance"><path fill="#fff" d="M140.733 91.336c1.336 2.495 2.475 4.572 5.447 5.119 4.074.75 5.569-4.524 6.121-9.842.138.06.279.106.421.121 1.015.106 2.065-.127 2.831-.903.326-.333-.174-.979-.833-1.675-1.945-2.057-2.108-3.646-2.085-6.443.01-1.262.016-2.544-.316-3.763a6.801 6.801 0 0 0-.267-.787c-2.967-7.253-17.804-7.522-18.607 1.403-.261 2.894.116 6.211 1.09 9.38"/></mask><g mask="url(#g)"><path fill="#fff" d="M152.635 77.712c.01-1.262.015-2.544-.316-3.762a6.8 6.8 0 0 0-.267-.788c-2.967-7.253-17.805-7.521-18.608 1.403-.26 2.883.114 6.185 1.08 9.342 7.269-2.444 14.231-3.713 18.153-4.296-.042-.573-.048-1.198-.042-1.899Z" opacity=".5"/></g><path stroke="#263238" stroke-linecap="round" stroke-linejoin="round" stroke-miterlimit="10" stroke-width=".368" d="M140.733 91.336c1.336 2.495 2.475 4.572 5.447 5.119 4.074.75 5.569-4.524 6.121-9.842.138.06.279.106.421.121 1.015.106 2.065-.127 2.831-.903.326-.333-.174-.979-.833-1.675-1.945-2.057-2.108-3.646-2.085-6.443.01-1.262.016-2.544-.316-3.763a6.801 6.801 0 0 0-.267-.787c-2.967-7.253-17.804-7.522-18.607 1.403-.261 2.894.116 6.211 1.09 9.38"/><path fill="#263238" d="M150.581 81c.032.546-.151 1.001-.408 1.016-.258.015-.492-.416-.523-.962-.032-.547.151-1.001.408-1.016.258-.014.491.416.523.962Z"/><path stroke="#263238" stroke-linecap="round" stroke-linejoin="round" stroke-miterlimit="10" stroke-width=".368" d="M150.479 88.774s-2.205.147-2.646-1.47"/><path fill="#263238" stroke="#263238" stroke-linecap="round" stroke-linejoin="round" stroke-miterlimit="10" stroke-width=".368" d="M151.229 71.709c-4.216-5.785-17.864-1.556-18.609 6.725-.378 4.192-.535 9.814 3.486 10.465 1.239-3.9 5.253-4.004 5.129-6.008-.183-2.976 5.718-2.855 4.955-7.37-.659-3.9 2.442-1.536 5.039-3.812Z"/><path fill="#93DA46" d="m132.728 81.761 20.684-6.968s-2.704-7.18-6.208-9.023c-3.505-1.843-11.829.003-14.672 3.65s-1.146 6.287.196 12.341Z"/><mask id="h" width="24" height="17" x="130" y="65" maskUnits="userSpaceOnUse" style="mask-type:luminance"><path fill="#fff" d="m132.728 81.761 20.684-6.968s-2.704-7.18-6.208-9.023c-3.505-1.843-11.829.003-14.672 3.65s-1.146 6.287.196 12.341Z"/></mask><g mask="url(#h)"><path fill="#000" d="M136.294 71.49c.229-3.436 3.81-5.682 4.792-6.236-3.353.523-6.891 2.032-8.555 4.166-2.843 3.647-1.146 6.288.196 12.342l6.378-2.148c-1.183-2.335-2.976-5.642-2.811-8.124Z" opacity=".2"/></g><path stroke="#263238" stroke-linecap="round" stroke-linejoin="round" stroke-miterlimit="10" stroke-width=".368" d="m132.728 81.761 20.684-6.968s-2.705-7.18-6.208-9.023c-3.505-1.843-11.829.003-14.672 3.65s-1.146 6.287.196 12.341Z"/><path fill="#fff" stroke="#263238" stroke-linecap="round" stroke-linejoin="round" stroke-miterlimit="10" stroke-width=".368" d="M146.5 77.278s8.903-.307 13.291.149c4.388.456 1.665-1.798-6.38-2.634 0 0-5.373 1.905-6.911 2.485Z"/><path fill="#263238" stroke="#263238" stroke-linecap="round" stroke-linejoin="round" stroke-miterlimit="10" stroke-width=".368" d="M133.465 94.314s8.342 6.102 10.135 11.609c2.242 6.888 1.301 12.445-.846 18.706-2.147 6.261-4.953 6.51-6.631 13.135-1.853 7.308-2.223 21.586-5.818 28.099-6.677 12.098-25.338 1.304-25.655-10.304-.342-12.544 11.266-20.035 12.612-26.338 1.458-6.832-.157-16.3 3.002-22.706 3.16-6.405 9.199-12.46 13.201-12.2Z"/><path fill="#93DA46" d="M131.008 100.286c-1.679.478-3.759 1.465-5.465 3.498-3.485 4.151-7.698 20.483-8.554 22.993-1.258 3.692-3.444 16.973-2.561 17.27.882.297 6.381.083 15.897.995 9.516.914 27.323-4.09 27.323-4.09s2.937 1.971 5.491 1.195c.328-.1.625-.198.896-.292a3.59 3.59 0 0 0 1.893-1.534c.178-.297.327-.607.389-.878.123-.413.179-.89.061-1.432-.093-.869-.142-1.95-.749-2.988-.606-1.038-1.001-.462-1.842-.913-.842-.45-2.701-.627-3.386-.333-.685.293-3.234 3.739-3.234 3.739s-10.427 1.158-19.635-1.781c-8.29-2.646-10.268-2.634-10.268-2.634s7.996-18.372 10.739-23.518"/><path stroke="#263238" stroke-linecap="round" stroke-linejoin="round" stroke-miterlimit="10" stroke-width=".368" d="M131.008 100.286c-1.679.478-3.759 1.465-5.465 3.498-3.485 4.151-7.698 20.483-8.554 22.993-1.258 3.692-3.444 16.973-2.561 17.27.882.297 6.381.083 15.897.995 9.516.914 27.323-4.09 27.323-4.09s2.937 1.971 5.491 1.195c.328-.1.625-.198.896-.292a3.59 3.59 0 0 0 1.893-1.534c.178-.297.327-.607.389-.878.123-.413.179-.89.061-1.432-.093-.869-.142-1.95-.749-2.988-.606-1.038-1.001-.462-1.842-.913-.842-.45-2.701-.627-3.386-.333-.685.293-3.234 3.739-3.234 3.739s-10.427 1.158-19.635-1.781c-8.29-2.646-10.268-2.634-10.268-2.634s7.996-18.372 10.739-23.518"/><path fill="#fff" stroke="#263238" stroke-linecap="round" stroke-linejoin="round" stroke-miterlimit="10" stroke-width=".368" d="M163.14 142.145c.234-.071.452-.141.656-.21 1-.336 1.864-1.022 2.327-1.97.088-.181.158-.36.195-.524.123-.414.179-.89.061-1.432-.093-.869-.142-1.95-.749-2.988-.606-1.038-1.001-.463-1.842-.913-.842-.45-2.701-.627-3.386-.334-.685.294-3.234 3.74-3.234 3.74s-3.027.335-7.256.186l.095 5.121c4.424-.969 7.64-1.871 7.64-1.871s2.939 1.973 5.493 1.195Z"/><path stroke="#263238" stroke-linecap="round" stroke-linejoin="round" stroke-miterlimit="10" stroke-width=".368" d="M163.788 134.109s.884 2.439.334 3.721c-.549 1.283-2.381-1.831-2.381-1.831M163.023 140.029l-.366-2.382s-2.931 3.114-4.214 1.832"/><path fill="#93DA46" d="M146.974 117.027c-.351-1.623-.806-3.234-1.306-4.835-.658-2.106-1.393-4.194-2.068-6.269a10.02 10.02 0 0 0-.578-1.381v-1.063c0-1.148 1.339-3.252 1.339-3.252s-.765-.956-3.251-3.06c-2.488-2.105-6.888-4.974-6.888-4.974l-2.066 2.254c-3.918.885-9.06 6.329-11.892 12.07-3.159 6.405-1.545 15.873-3.003 22.705-.763 3.575-4.826 7.534-8.139 12.578 4.074 2.399 12.875 6.72 25.069 8.008.618-4.52 1.14-8.919 1.932-12.042.822-3.245 2.52-6.276 4.788-8.728 3.307-3.576 7.261-6.47 6.063-12.011Z"/><mask id="i" width="39" height="58" x="109" y="92" maskUnits="userSpaceOnUse" style="mask-type:luminance"><path fill="#fff" d="M146.974 117.027c-.351-1.623-.806-3.234-1.306-4.835-.658-2.106-1.393-4.194-2.068-6.269a10.02 10.02 0 0 0-.578-1.381v-1.063c0-1.148 1.339-3.252 1.339-3.252s-.765-.956-3.251-3.06c-2.488-2.105-6.888-4.974-6.888-4.974l-2.066 2.254c-3.918.885-9.06 6.329-11.892 12.07-3.159 6.405-1.545 15.873-3.003 22.705-.763 3.575-4.826 7.534-8.139 12.578 4.074 2.399 12.875 6.72 25.069 8.008.618-4.52 1.14-8.919 1.932-12.042.822-3.245 2.52-6.276 4.788-8.728 3.307-3.576 7.261-6.47 6.063-12.011Z"/></mask><g mask="url(#i)"><path fill="#000" d="M120.626 145.05c0-1.062 7.435-9.295 9.029-11.419 1.593-2.124-6.639-.531-7.967-.531-1.328 0 3.718-6.108 7.17-12.481 3.452-6.374 2.656-7.967 2.656-7.967l-9.029-3.984s-1.474.68-3.537 1.699c-1.349 5.981-.5 13.292-1.687 18.854-.763 3.575-4.826 7.534-8.139 12.577 2.318 1.365 6.169 3.351 11.301 5.048.137-.817.203-1.498.203-1.796Z" opacity=".2"/></g><path stroke="#263238" stroke-linecap="round" stroke-linejoin="round" stroke-miterlimit="10" stroke-width=".368" d="M146.974 117.027c-.351-1.623-.806-3.234-1.306-4.835-.658-2.106-1.393-4.194-2.068-6.269a10.02 10.02 0 0 0-.578-1.381v-1.063c0-1.148 1.339-3.252 1.339-3.252s-.765-.956-3.251-3.06c-2.488-2.105-6.888-4.974-6.888-4.974l-2.066 2.254c-3.918.885-9.06 6.329-11.892 12.07-3.159 6.405-1.545 15.873-3.003 22.705-.763 3.575-4.826 7.534-8.139 12.578 4.074 2.399 12.875 6.72 25.069 8.008.618-4.52 1.14-8.919 1.932-12.042.822-3.245 2.52-6.276 4.788-8.728 3.307-3.576 7.261-6.47 6.063-12.011Z"/><path fill="#93DA46" d="M134.168 99.513c-1.648-.576-3.917-.967-6.483-.287-5.239 1.388-18.087 12.316-20.231 13.876-3.154 2.294-12.588 11.894-12.037 12.646.55.751 5.171 3.74 12.426 9.966 7.254 6.224 22.285 11.864 22.285 11.864s3.678 3.825 6.213 4.66c.759.25 1.376.414 1.889.531.146.05.292.096.44.139 1.389.399 2.329-.019 2.954-.582a2.81 2.81 0 0 0 .873-1.137c.425-.764 1.007-1.675 1.109-2.872.101-1.198-1.679-1.424-2.108-2.276-.429-.853-1.848-2.068-2.576-2.222-.729-.155-4.797 1.196-4.797 1.196s-9.193-5.056-15.029-12.76c-5.255-6.937-6.879-8.066-6.879-8.066s17.115-10.417 22.32-13.046"/><mask id="j" width="49" height="56" x="95" y="98" maskUnits="userSpaceOnUse" style="mask-type:luminance"><path fill="#fff" d="M134.168 99.513c-1.648-.576-3.917-.967-6.483-.287-5.239 1.388-18.087 12.316-20.231 13.876-3.154 2.294-12.588 11.894-12.037 12.646.55.751 5.171 3.74 12.426 9.966 7.254 6.224 22.285 11.864 22.285 11.864s3.678 3.825 6.213 4.66c.759.25 1.376.414 1.889.531.146.05.292.096.44.139 1.389.399 2.329-.019 2.954-.582a2.81 2.81 0 0 0 .873-1.137c.425-.764 1.007-1.675 1.109-2.872.101-1.198-1.679-1.424-2.108-2.276-.429-.853-1.848-2.068-2.576-2.222-.729-.155-4.797 1.196-4.797 1.196s-9.193-5.056-15.029-12.76c-5.255-6.937-6.879-8.066-6.879-8.066s17.115-10.417 22.32-13.046"/></mask><g mask="url(#j)"><path fill="#000" d="M140.808 151.955c-5.842-1.594-12.747-6.905-17.792-10.091-5.046-3.187-18.855-14.872-20.714-15.403-1.859-.531.531-1.327 3.452-3.452s-3.718 0-5.311 0 23.104-15.934 26.556-19.917c2.607-3.009-.843-2.685-2.688-2.346-6.057 3.428-15.089 11.071-16.856 12.356-3.154 2.295-12.587 11.895-12.037 12.646.55.751 5.171 3.741 12.426 9.966s22.285 11.864 22.285 11.864 3.678 3.826 6.213 4.661c.759.25 1.377.414 1.889.531.145.049.293.096.441.138 1.389.4 2.328-.018 2.953-.581.041-.033.08-.071.12-.107-.308-.09-.619-.178-.937-.265Z" opacity=".2"/></g><path stroke="#263238" stroke-linecap="round" stroke-linejoin="round" stroke-miterlimit="10" stroke-width=".368" d="M134.168 99.513c-1.648-.576-3.917-.967-6.483-.287-5.239 1.388-18.087 12.316-20.231 13.876-3.154 2.294-12.588 11.894-12.037 12.646.55.751 5.171 3.74 12.426 9.966 7.254 6.224 22.285 11.864 22.285 11.864s3.678 3.825 6.213 4.66c.759.25 1.377.414 1.889.531.146.05.292.096.44.139 1.389.399 2.329-.019 2.954-.582a2.81 2.81 0 0 0 .873-1.137c.425-.764 1.007-1.675 1.109-2.872.101-1.198-1.679-1.424-2.108-2.276-.429-.853-1.848-2.068-2.576-2.222-.729-.155-4.798 1.196-4.798 1.196s-9.192-5.056-15.028-12.76c-5.255-6.937-6.879-8.066-6.879-8.066s17.115-10.417 22.32-13.046"/><path fill="#fff" stroke="#263238" stroke-linecap="round" stroke-linejoin="round" stroke-miterlimit="10" stroke-width=".368" d="M141.498 146.04c-.429-.853-1.848-2.068-2.576-2.222-.73-.154-4.798 1.196-4.798 1.196s-1.795-.988-4.301-2.754l-3.308 3.859c2.185.922 3.613 1.459 3.613 1.459s3.678 3.825 6.213 4.66c.759.25 1.376.414 1.889.531.146.05.292.096.44.139 1.389.399 2.329-.019 2.954-.582a2.81 2.81 0 0 0 .873-1.137c.425-.764 1.007-1.675 1.109-2.872.101-1.199-1.679-1.424-2.108-2.277Z"/><path fill="#fff" d="M140.284 84.406s-2.239-4.08-4.008-2.643c-1.77 1.437.339 4.153 2.689 4.937 2.35.784 1.376-.747 1.376-.747"/><path stroke="#263238" stroke-linecap="round" stroke-linejoin="round" stroke-miterlimit="10" stroke-width=".368" d="M140.284 84.406s-2.239-4.08-4.008-2.643c-1.77 1.437.339 4.153 2.689 4.937 2.35.784 1.376-.747 1.376-.747"/><path fill="#fff" d="M114.693 165.923s3.92 4.27 10.376 9.753c6.455 5.484 18.229 10.487 18.229 10.487s-6.406 14.954-6.171 21.612c.236 6.658 7.299 34.175 6.656 37.654 0 0 3.888 2.95 4.587.488 1.131-3.98 3.26-36.313 4.108-42.469.833-6.044 3.042-16.911 3.039-19.721-.006-5.385-14.481-20.772-20.902-25.138-6.421-4.365-10.406-7.945-10.406-7.945"/><path stroke="#263238" stroke-linecap="round" stroke-linejoin="round" stroke-miterlimit="10" stroke-width=".368" d="M114.693 165.923s3.92 4.27 10.376 9.753c6.455 5.484 18.229 10.487 18.229 10.487s-6.406 14.954-6.171 21.612c.236 6.658 7.299 34.175 6.656 37.654 0 0 3.888 2.95 4.587.488 1.131-3.98 3.26-36.313 4.108-42.469.833-6.044 3.042-16.911 3.039-19.721-.006-5.385-14.481-20.772-20.902-25.138-6.421-4.365-10.406-7.945-10.406-7.945"/><path fill="#263238" stroke="#263238" stroke-linecap="round" stroke-linejoin="round" stroke-miterlimit="10" stroke-width=".368" d="M134.615 158.591c-6.421-4.365-10.406-7.945-10.406-7.945l-9.517 15.277s3.92 4.27 10.376 9.753c6.455 5.484 18.229 10.487 18.229 10.487s-6.406 14.954-6.17 21.612c.062 1.771.61 5.024 1.365 8.901a37.52 37.52 0 0 0 12.727.446c.511-6.198.962-11.528 1.258-13.674.833-6.044 3.042-16.911 3.039-19.721-.005-5.385-14.481-20.771-20.901-25.136Z"/><path stroke="#fff" stroke-linecap="round" stroke-linejoin="round" stroke-miterlimit="10" stroke-width=".368" d="M113.183 167.756c3.251 2.626 8.335 6.472 11.886 7.92M110.035 165.126s.548.481 1.459 1.243M120.354 149.521l11.074 6.292"/><path stroke="#fff" stroke-linecap="round" stroke-linejoin="round" stroke-miterlimit="10" stroke-width=".368" d="M113.307 145.746s-4.782 2.517-4.531 4.782c.251 2.265 5.789-1.51 5.285 1.007-.503 2.516-3.234 2.978-.503 4.026 2.731 1.049 14.85 10.823 22.4 15.857 7.551 5.034 15.354 11.83 14.599 13.843-.756 2.014-7.803 20.136-6.293 31.965M80.838 195.329s18.122 2.769 25.672 3.524c7.551.754 8.307-.756 7.048-2.266-1.259-1.51 1.259.504 1.762-1.762.503-2.265 1.51-16.36 1.762-19.883"/><path fill="#C6FF00" stroke="#263238" stroke-linecap="round" stroke-linejoin="round" stroke-miterlimit="10" stroke-width=".368" d="M53.058 195.261s-4.663-6.523-6.188-5.76c-1.526.763-5.164 3.317-7.13 4.373-1.965 1.056-5.485 5.311-5.456 6.691.03 1.378 3.755-.852 6.22-1.351 2.464-.499 11.79.299 11.79.299s-.5-3.568.764-4.252Z"/><path fill="#fff" stroke="#263238" stroke-linecap="round" stroke-linejoin="round" stroke-miterlimit="10" stroke-width=".368" d="M48.353 189.986c-.6-.441-1.127-.663-1.484-.485-1.526.764-5.163 3.317-7.13 4.373-1.965 1.056-5.485 5.311-5.455 6.691.01.509.527.524 1.296.318 1.5-2.978 4.738-4.528 7.799-7.152 2.321-1.989 4.022-3.151 4.974-3.745Z"/><path fill="#C6FF00" stroke="#263238" stroke-linecap="round" stroke-linejoin="round" stroke-miterlimit="10" stroke-width=".368" d="M143.783 245.43s-3.351 7.284-1.932 8.231c1.42.946 5.441 2.838 7.333 4.021 1.893 1.183 7.334 2.129 8.516 1.42 1.183-.71-2.602-2.839-4.258-4.731-1.655-1.893-5.072-8.452-5.072-8.452s-3.365.269-4.587-.489Z"/><path fill="#fff" stroke="#263238" stroke-linecap="round" stroke-linejoin="round" stroke-miterlimit="10" stroke-width=".368" d="M157.7 259.101c.513-.308.091-.883-.686-1.59-1.031.111-2.193.171-3.234.066-2.083-.208-9.218-4.002-12.22-5.64-.121.834-.069 1.483.291 1.724 1.42.946 5.441 2.838 7.333 4.02 1.893 1.183 7.334 2.129 8.516 1.42Z"/></svg>