<svg width="80" height="80" viewBox="0 0 80 80" fill="none" xmlns="http://www.w3.org/2000/svg">
<path d="M80 40C80 62.0914 62.0914 80 40 80C17.9086 80 0 62.0914 0 40C0 17.9086 17.9086 0 40 0C62.0914 0 80 17.9086 80 40ZM13.76 40C13.76 54.4919 25.5081 66.24 40 66.24C54.4919 66.24 66.24 54.4919 66.24 40C66.24 25.5081 54.4919 13.76 40 13.76C25.5081 13.76 13.76 25.5081 13.76 40Z" fill="url(#paint0_angular_3621_8358)"/>
<ellipse cx="39.5" cy="73" rx="6.5" ry="7" fill="#3F6A11"/>
<defs>
<radialGradient id="paint0_angular_3621_8358" cx="0" cy="0" r="1" gradientUnits="userSpaceOnUse" gradientTransform="translate(40 40) rotate(90) scale(40)">
<stop stop-color="#3F6A11"/>
<stop offset="1" stop-color="white"/>
</radialGradient>
</defs>
</svg>
