<svg xmlns="http://www.w3.org/2000/svg" width="130" height="24" fill="none"><g clip-path="url(#a)"><mask id="b" width="24" height="24" x="2" y="0" maskUnits="userSpaceOnUse" style="mask-type:luminance"><path fill="#fff" d="M2 0h24v24H2V0Z"/><path fill="#000" fill-rule="evenodd" d="M17.95 3.74c-1.993.982-3.027 2.362-3.027 4.112 0 1.68.957 2.816 2.77 3.351v1.72a.462.462 0 0 0 .922 0v-8.77a.46.46 0 0 0-.664-.414Zm-2.104 4.112c0-1.17.6-2.136 1.846-2.915v5.298c-1.259-.44-1.846-1.22-1.846-2.383Z" clip-rule="evenodd"/><path fill="#000" fill-rule="evenodd" d="M16.77 14.308v4.615a1.385 1.385 0 0 0 2.768 0v-4.615a1.385 1.385 0 0 0-2.769 0Zm1.384 5.077a.462.462 0 0 1-.462-.462v-4.615a.461.461 0 1 1 .923 0v4.615a.462.462 0 0 1-.461.462Z" clip-rule="evenodd"/><path fill="#000" d="M8.953 5.054a.462.462 0 0 1 .923.046c-.078 1.543.003 2.594.219 3.114.168.408.502.586 1.11.552a.461.461 0 0 1 .053.92c-.977.056-1.686-.321-2.016-1.117-.284-.683-.372-1.843-.29-3.515Z"/><path fill="#000" d="M13.508 5.054a.46.46 0 1 0-.921.046c.076 1.543-.004 2.594-.22 3.114-.169.409-.502.586-1.11.552a.462.462 0 0 0-.053.92c.977.056 1.685-.321 2.016-1.117.283-.683.372-1.843.288-3.515Z"/><path fill="#000" d="M10.77 5.077a.461.461 0 1 1 .922 0v8.308a.462.462 0 0 1-.923 0V5.077Z"/><path fill="#000" fill-rule="evenodd" d="M9.846 14.308v4.615a1.385 1.385 0 0 0 2.77 0v-4.615a1.385 1.385 0 0 0-2.77 0Zm1.385 5.077a.462.462 0 0 1-.462-.462v-4.615a.461.461 0 1 1 .923 0v4.615a.462.462 0 0 1-.461.462Z" clip-rule="evenodd"/></mask><g mask="url(#b)"><path fill="#3F6A11" d="M14 24c6.627 0 12-5.373 12-12S20.627 0 14 0 2 5.373 2 12s5.373 12 12 12Z"/></g></g><path fill="#3F6A11" d="M31.38 5.72h10.04v2.64h-6.9v3.3h5.98v2.44h-5.98V20h-3.14V5.72ZM52.636 20h-2.7v-1.44h-.06c-.36.6-.827 1.033-1.4 1.3-.574.267-1.16.4-1.76.4-.76 0-1.387-.1-1.88-.3-.48-.2-.86-.48-1.14-.84-.28-.373-.48-.82-.6-1.34a8.987 8.987 0 0 1-.16-1.76V9.66h2.84v5.84c0 .853.133 1.493.4 1.92.266.413.74.62 1.42.62.773 0 1.333-.227 1.68-.68.346-.467.52-1.227.52-2.28V9.66h2.84V20Zm9.495-5.2c0-.427-.04-.833-.12-1.22-.08-.4-.22-.747-.42-1.04a2.182 2.182 0 0 0-.74-.74c-.307-.187-.693-.28-1.16-.28-.467 0-.86.093-1.18.28-.32.187-.58.433-.78.74a3.6 3.6 0 0 0-.42 1.06 6.01 6.01 0 0 0-.12 1.22c0 .4.047.8.14 1.2.093.4.24.76.44 1.08.213.307.473.56.78.76.32.187.7.28 1.14.28.467 0 .853-.093 1.16-.28.32-.187.573-.433.76-.74.187-.32.32-.68.4-1.08.08-.4.12-.813.12-1.24Zm.04 3.88h-.04c-.333.56-.773.967-1.32 1.22-.533.24-1.14.36-1.82.36-.773 0-1.453-.147-2.04-.44a4.337 4.337 0 0 1-1.46-1.22 5.963 5.963 0 0 1-.86-1.78 7.68 7.68 0 0 1-.28-2.08c0-.693.093-1.36.28-2a5.48 5.48 0 0 1 .86-1.72 4.283 4.283 0 0 1 1.44-1.18c.573-.307 1.24-.46 2-.46.613 0 1.193.133 1.74.4.56.253 1 .633 1.32 1.14h.04v-5.2h2.84V20h-2.7v-1.32Zm5.146-12.96h3.14v5.48h5.78V5.72h3.14V20h-3.14v-6.16h-5.78V20h-3.14V5.72Zm17.045 9.12c0 .413.04.82.12 1.22.08.387.213.74.4 1.06.2.307.46.553.78.74.32.187.72.28 1.2.28s.88-.093 1.2-.28c.333-.187.593-.433.78-.74.2-.32.34-.673.42-1.06a6.206 6.206 0 0 0 0-2.44c-.08-.4-.22-.753-.42-1.06a2.083 2.083 0 0 0-.78-.74c-.32-.2-.72-.3-1.2-.3s-.88.1-1.2.3c-.32.187-.58.433-.78.74-.187.307-.32.66-.4 1.06-.08.4-.12.807-.12 1.22Zm-2.84 0c0-.827.126-1.573.38-2.24a4.73 4.73 0 0 1 2.76-2.82c.653-.267 1.386-.4 2.2-.4.813 0 1.546.133 2.2.4.666.253 1.233.62 1.7 1.1.466.467.826 1.04 1.08 1.72.253.667.38 1.413.38 2.24 0 .827-.127 1.573-.38 2.24a4.962 4.962 0 0 1-1.08 1.72 4.756 4.756 0 0 1-1.7 1.08c-.654.253-1.387.38-2.2.38-.814 0-1.547-.127-2.2-.38a4.793 4.793 0 0 1-1.68-1.08 4.964 4.964 0 0 1-1.08-1.72c-.254-.667-.38-1.413-.38-2.24ZM103.768 20h-2.7v-1.44h-.06c-.36.6-.826 1.033-1.4 1.3-.573.267-1.16.4-1.76.4-.76 0-1.386-.1-1.88-.3-.48-.2-.86-.48-1.14-.84-.28-.373-.48-.82-.6-1.34a8.987 8.987 0 0 1-.16-1.76V9.66h2.84v5.84c0 .853.134 1.493.4 1.92.267.413.74.62 1.42.62.774 0 1.334-.227 1.68-.68.347-.467.52-1.227.52-2.28V9.66h2.84V20Zm4.356-3.36c0 .307.06.573.18.8.133.213.3.393.5.54.2.133.426.233.68.3a3.362 3.362 0 0 0 1.44.04c.226-.053.426-.127.6-.22.186-.107.34-.24.46-.4.12-.173.18-.387.18-.64 0-.427-.287-.747-.86-.96-.56-.213-1.347-.427-2.36-.64-.414-.093-.82-.2-1.22-.32a4.676 4.676 0 0 1-1.04-.5 2.562 2.562 0 0 1-.74-.78c-.187-.32-.28-.707-.28-1.16 0-.667.126-1.213.38-1.64.266-.427.613-.76 1.04-1a4.207 4.207 0 0 1 1.44-.52 8.34 8.34 0 0 1 1.64-.16c.56 0 1.1.053 1.62.16a4.319 4.319 0 0 1 1.42.54c.413.253.753.593 1.02 1.02.28.413.446.94.5 1.58h-2.7c-.04-.547-.247-.913-.62-1.1-.374-.2-.814-.3-1.32-.3-.16 0-.334.013-.52.04-.187.013-.36.053-.52.12a1.02 1.02 0 0 0-.38.3c-.107.12-.16.287-.16.5 0 .253.093.46.28.62.186.16.426.293.72.4.306.093.653.18 1.04.26.386.08.78.167 1.18.26.413.093.813.207 1.2.34.4.133.753.313 1.06.54.306.213.553.487.74.82.186.32.28.72.28 1.2 0 .68-.14 1.253-.42 1.72-.267.453-.62.82-1.06 1.1a4.25 4.25 0 0 1-1.52.58 8.19 8.19 0 0 1-1.72.18c-.6 0-1.187-.06-1.76-.18a4.75 4.75 0 0 1-1.54-.6 3.604 3.604 0 0 1-1.1-1.1c-.28-.467-.434-1.047-.46-1.74h2.7Zm15.502-2.92c-.133-.72-.373-1.267-.72-1.64-.333-.373-.847-.56-1.54-.56-.453 0-.833.08-1.14.24a2.185 2.185 0 0 0-.72.56 2.35 2.35 0 0 0-.38.72c-.067.253-.107.48-.12.68h4.62Zm-4.62 1.8c.04.92.273 1.587.7 2 .427.413 1.04.62 1.84.62.573 0 1.067-.14 1.48-.42.413-.293.667-.6.76-.92h2.5c-.4 1.24-1.013 2.127-1.84 2.66-.827.533-1.827.8-3 .8-.813 0-1.547-.127-2.2-.38a4.683 4.683 0 0 1-1.66-1.12 5.121 5.121 0 0 1-1.06-1.72c-.24-.667-.36-1.4-.36-2.2 0-.773.127-1.493.38-2.16a4.953 4.953 0 0 1 1.08-1.72 5.042 5.042 0 0 1 1.66-1.16 5.425 5.425 0 0 1 2.16-.42c.88 0 1.647.173 2.3.52a4.408 4.408 0 0 1 1.6 1.36 5.53 5.53 0 0 1 .92 1.96 7.3 7.3 0 0 1 .2 2.3h-7.46Z"/><defs><clipPath id="a"><path fill="#fff" d="M2 0h24v24H2z"/></clipPath></defs></svg>