<svg width="63" height="69" viewBox="0 0 63 69" fill="none" xmlns="http://www.w3.org/2000/svg">
<rect width="63" height="69" rx="4" fill="#D0D0D3"/>
<path d="M61.6064 20.9126L56.6483 63.4801H39.9017L34.9637 20.7001H55.4085L59.4493 5.41382L61.74 6.17006L57.863 20.8809L61.6064 20.9126ZM32.5962 45.5401C32.5962 45.5401 33.2224 40.0201 24.5385 40.0201H10.7087C2.03743 40.0201 2.65105 45.5401 2.65105 45.5401H32.5962ZM2.65105 57.9601C2.65105 57.9601 2.03743 63.4801 10.7087 63.4801H24.5398C33.2237 63.4801 32.5975 57.9601 32.5975 57.9601H2.65105ZM31.2971 55.2001C32.7184 55.2001 33.8663 53.6628 33.8663 51.7515C33.8663 49.8291 32.7184 48.3001 31.2971 48.3001H3.83041C2.41543 48.3001 1.26001 49.8291 1.26001 51.7515C1.26001 53.6628 2.41543 55.2001 3.83041 55.2001H31.2971Z" fill="#3C3B49"/>
</svg>
