<svg width="15" height="19" viewBox="0 0 15 19" fill="none" xmlns="http://www.w3.org/2000/svg">
<path d="M2.66667 15.167V7.66699C2.66667 6.34091 3.19345 5.06914 4.13113 4.13146C5.06881 3.19378 6.34058 2.66699 7.66667 2.66699C8.99275 2.66699 10.2645 3.19378 11.2022 4.13146C12.1399 5.06914 12.6667 6.34091 12.6667 7.66699V15.167M2.66667 15.167H12.6667M2.66667 15.167H1M12.6667 15.167H14.3333M6.83333 17.667H8.5" stroke="#3F6A11" stroke-linecap="round" stroke-linejoin="round"/>
<path d="M7.66671 2.66667C8.12694 2.66667 8.50004 2.29357 8.50004 1.83333C8.50004 1.3731 8.12694 1 7.66671 1C7.20647 1 6.83337 1.3731 6.83337 1.83333C6.83337 2.29357 7.20647 2.66667 7.66671 2.66667Z" stroke="#3F6A11"/>
</svg>
