<svg width="231" height="208" viewBox="0 0 231 208" fill="none" xmlns="http://www.w3.org/2000/svg">
<path d="M104.641 55.8724C104.641 55.8724 114.133 64.872 109.153 73.2359C104.172 81.5998 96.8671 80.416 73.3953 84.9243C49.9236 89.4326 15.8416 87.8948 12.9244 75.3155C9.86296 62.1137 21.5509 42.3982 39.6733 39.6654C64.6359 35.9022 99.5613 52.5479 104.641 55.8724Z" fill="#541126"/>
<path d="M166.31 51.2365C166.31 51.2365 132.561 41.7484 127.735 53.6085C122.909 65.4686 142.552 76.7184 160.482 77.6068C178.411 78.4953 209.074 98.5623 210.483 82.8951C211.892 67.2279 212.455 52.5416 210.483 48.2953C208.512 44.0491 182.537 52.6291 166.31 51.2365Z" fill="#541126"/>
<path d="M161.421 28.9647C163.748 35.026 162.598 42.322 154.66 44.1542C147.519 48.2718 141.798 43.4544 139.47 37.3931C137.143 31.3318 137.965 25.0558 146.231 22.2036C154.637 18.2542 159.093 22.9034 161.421 28.9647Z" fill="#7B733D"/>
<path d="M145.827 24.9629C145.497 24.4363 145.928 23.4133 145.928 23.4133C147.218 23.2124 148.369 23.8123 148.369 23.8123C149.266 23.0828 150.812 22.5459 150.812 22.5459C150.708 23.7698 149.6 24.9052 149.6 24.9052C150.116 25.624 150.773 26.7247 150.773 26.7247C148.815 27.3569 147.662 26.4875 147.662 26.4875C147.154 28.1696 145.14 29.0835 145.14 29.0835C145.14 29.0835 144.788 27.8244 145.512 26.8616C145.512 26.8616 143.863 26.8005 143.332 26.4709C143.332 26.4709 144.976 24.9766 145.827 24.9629Z" fill="#541126"/>
<path d="M138.924 35.761C138.924 35.761 140.208 42.9631 147.234 45.3957C147.234 45.3957 150.559 46.315 154.659 44.1537" stroke="#302218" stroke-width="0.293855" stroke-miterlimit="10" stroke-linecap="round" stroke-linejoin="round"/>
<path d="M147.104 21.8188C147.104 21.8188 149.847 20.5323 151.801 20.7421C151.801 20.7421 156.291 19.9666 159.944 25.868" stroke="#302218" stroke-width="0.293855" stroke-miterlimit="10" stroke-linecap="round" stroke-linejoin="round"/>
<path d="M140.032 42.9385L190.421 9.79001C190.706 9.60273 191.09 9.72546 191.211 10.0443C192.583 13.6514 198.524 32.4916 179.354 46.7159C159.19 61.6775 142.458 46.0557 139.968 43.5253C139.799 43.3537 139.831 43.071 140.032 42.9385Z" fill="#7B733D"/>
<path d="M140.237 42.8119L190.249 9.91174C190.249 9.91174 199.676 30.7117 178.897 46.0621C158.117 61.4124 140.237 42.8119 140.237 42.8119Z" fill="#CBC47A"/>
<path d="M141.913 41.6911L188.779 10.8604C188.779 10.8604 197.613 30.3518 178.141 44.7365C158.668 59.1216 141.913 41.6911 141.913 41.6911Z" fill="#FF4D4D"/>
<path d="M180.467 20.1436C180.303 20.1059 180.25 19.9 180.375 19.7886C181.022 19.214 182.615 18.0038 183.248 19.391C183.899 20.8159 181.43 20.3665 180.467 20.1436Z" fill="#541126"/>
<path d="M180.671 26.2997C180.524 26.2117 180.537 25.9961 180.693 25.9276C181.498 25.5736 183.42 24.9003 183.6 26.4415C183.784 28.0243 181.534 26.817 180.671 26.2997Z" fill="#541126"/>
<path d="M155.636 36.8293C155.686 36.6684 155.535 36.5169 155.374 36.5687C154.547 36.8352 152.684 37.5985 153.562 38.8561C154.464 40.148 155.336 37.7784 155.636 36.8293Z" fill="#541126"/>
<path d="M161.625 39.233C161.609 39.0639 161.409 38.9837 161.281 39.0952C160.619 39.6697 159.196 41.1136 160.507 41.9307C161.854 42.7703 161.724 40.231 161.625 39.233Z" fill="#541126"/>
<path d="M177.783 31.9566C177.69 31.8124 177.798 31.6236 177.969 31.6309C178.852 31.6706 180.883 31.9185 180.359 33.3873C179.821 34.8958 178.331 32.8069 177.783 31.9566Z" fill="#541126"/>
<path d="M173.657 35.8543C173.655 35.6979 173.829 35.6035 173.958 35.6915C174.623 36.1472 176.077 37.3168 174.965 38.2024C173.822 39.1128 173.672 36.777 173.657 35.8543Z" fill="#541126"/>
<path d="M167.603 38.9637C167.677 38.8268 167.875 38.8298 167.944 38.9701C168.298 39.6923 168.986 41.4213 167.585 41.6443C166.147 41.8736 167.163 39.772 167.603 38.9637Z" fill="#541126"/>
<path d="M189.488 10.4124L179.419 17.0175" stroke="#302218" stroke-width="0.293855" stroke-miterlimit="10" stroke-linecap="round" stroke-linejoin="round"/>
<path d="M190.5 17.4327C190.5 17.4327 191.495 23.3669 189.713 29.0272C187.826 35.0269 184.59 38.6664 184.59 38.6664" stroke="#302218" stroke-width="0.293855" stroke-miterlimit="10" stroke-linecap="round" stroke-linejoin="round"/>
<path d="M140.237 42.8119L145.715 39.2081" stroke="#302218" stroke-width="0.293855" stroke-miterlimit="10" stroke-linecap="round" stroke-linejoin="round"/>
<path d="M196.145 25.8098C196.145 25.8098 196.916 22.7185 197.841 21.0453C197.841 21.0453 197.696 19.9495 196.563 20.658C196.563 20.658 194.753 23.2295 194.884 25.8886C195.015 28.5476 195.86 26.8474 196.145 25.8098Z" fill="#86304A"/>
<path d="M208.289 49.6028C208.289 49.6028 213.578 40.8247 205.106 33.7092C205.106 33.7092 202.515 31.409 201.365 29.7133C200.215 28.0175 199.948 24.2778 195.482 24.4876C191.016 24.6969 192.554 29.4996 189.586 33.4388C186.618 37.3774 184.711 54.5634 196.062 56.0743C205.739 57.3623 208.289 49.6028 208.289 49.6028Z" fill="#FFC34A"/>
<path d="M208.288 49.6028C208.288 49.6028 213.578 40.8247 205.106 33.7092C205.106 33.7092 202.515 31.409 201.365 29.7133C200.215 28.0175 199.948 24.2778 195.482 24.4876C191.015 24.6969 192.554 29.4996 189.586 33.4388C188.031 35.5022 186.767 41.2017 187.549 46.3785" stroke="#302218" stroke-width="0.293855" stroke-miterlimit="10" stroke-linecap="round" stroke-linejoin="round"/>
<path d="M64.4874 45.6015C64.4874 45.6015 65.1881 41.2785 67.3171 40.5348C69.4461 39.791 69.4246 37.0655 67.8198 38.0552C66.2149 39.0448 68.253 35.4396 69.206 35.2959C70.159 35.1521 71.3091 31.2589 68.9341 32.5268C66.5592 33.7952 67.3464 29.9729 68.4109 29.6008C69.4754 29.2287 67.8863 26.4479 65.7235 28.6908C63.5608 30.9342 63.5129 30.6164 63.2982 29.3006C63.0831 27.9848 61.8704 26.8362 60.9521 28.5016C60.0343 30.167 60.9829 32.3625 59.7522 31.8501C58.5214 31.3376 57.1127 31.2579 57.3562 33.2999C57.5997 35.3423 59.2529 37.5774 57.8183 37.1119C56.3836 36.6464 55.5944 38.4522 56.8252 39.8595C58.0559 41.2667 59.2818 42.808 58.2667 42.8696C57.2516 42.9312 58.4231 44.8206 60.9374 46.7129C63.4518 48.6062 64.4874 45.6015 64.4874 45.6015Z" fill="#CBC47A"/>
<path d="M67.8195 38.0552C66.2147 39.0449 68.2527 35.4397 69.2058 35.2959C70.1588 35.1521 71.3088 31.2589 68.9339 32.5268C66.5589 33.7952 67.3462 29.9729 68.4107 29.6008" stroke="#302218" stroke-width="0.293855" stroke-miterlimit="10" stroke-linecap="round" stroke-linejoin="round"/>
<path d="M60.9373 46.7139C63.452 48.6062 64.4872 45.602 64.4872 45.602" stroke="#302218" stroke-width="0.293855" stroke-miterlimit="10" stroke-linecap="round" stroke-linejoin="round"/>
<path d="M59.7522 31.8506C58.5214 31.3381 57.1127 31.2584 57.3562 33.3004C57.5997 35.3428 59.2529 37.5779 57.8183 37.1124C56.3836 36.6469 55.5944 38.4527 56.8252 39.86" stroke="#302218" stroke-width="0.293855" stroke-miterlimit="10" stroke-linecap="round" stroke-linejoin="round"/>
<path d="M42.1605 42.9122C42.1605 42.9122 39.9245 39.1001 37.6498 39.1774C35.3751 39.2542 34.4015 36.6822 36.2723 37.0279C38.1431 37.3736 34.9105 34.7253 33.9614 34.9375C33.0123 35.1497 30.5102 31.9064 33.2074 32.233C35.9046 32.5601 33.7693 29.2507 32.6324 29.2894C31.495 29.3275 31.9762 26.1311 34.8289 27.4528C37.682 28.7745 37.6111 28.4581 37.3334 27.1418C37.0557 25.8255 37.7779 24.3023 39.2492 25.5345C40.7205 26.7668 40.6286 29.1784 41.5997 28.2474C42.5708 27.3164 43.8671 26.7272 44.3829 28.7378C44.8988 30.748 44.159 33.4545 45.3389 32.4931C46.5188 31.5318 47.9202 32.943 47.2757 34.716C46.6312 36.489 46.0396 38.3862 47.0175 38.0738C47.9955 37.7613 47.5823 39.9666 45.9066 42.6643C44.2304 45.3615 42.1605 42.9122 42.1605 42.9122Z" fill="#CBC47A"/>
<path d="M41.5994 28.2469C42.5705 27.3159 43.8667 26.7267 44.3826 28.7373C44.8985 30.7475 44.1587 33.454 45.3386 32.4927C46.5184 31.5313 47.9198 32.9425 47.2754 34.7155C46.6309 36.4885 46.0392 38.3858 47.0172 38.0733" stroke="#302218" stroke-width="0.293855" stroke-miterlimit="10" stroke-linecap="round" stroke-linejoin="round"/>
<path d="M36.2723 37.0273C38.1431 37.373 34.9105 34.7247 33.9614 34.9369C33.0123 35.1492 30.5102 31.9058 33.2074 32.2324" stroke="#302218" stroke-width="0.293855" stroke-miterlimit="10" stroke-linecap="round" stroke-linejoin="round"/>
<path d="M58.2803 42.5532C58.2803 42.5532 56.8901 37.3476 58.9057 35.4406C60.9212 33.5336 59.5247 30.4849 58.2211 32.4036C56.918 34.3223 58.4099 30.3465 58.3879 28.6082C58.3727 27.4229 58.716 23.0173 56.6882 25.6367C54.6609 28.2561 55.212 24.5874 54.6276 22.6153C54.2335 21.2853 52.4507 19.3402 51.1525 22.9473C49.8543 26.5545 49.6406 26.222 48.737 24.8534C47.8334 23.4847 47.2114 22.1523 45.7014 25.1375C44.6452 27.2254 47.6803 29.4566 46.0403 29.5006C44.4008 29.5446 42.7793 30.1646 44.0805 32.3347C45.3821 34.5047 48.3634 36.1819 46.5185 36.3814C44.6736 36.5814 44.6971 39.0057 46.7869 39.9661C48.8773 40.9259 51.0293 42.0388 49.9208 42.6193C48.8123 43.1997 51.0787 44.7306 54.8545 45.5893C58.6309 46.4479 58.2803 42.5532 58.2803 42.5532Z" fill="#CBC47A"/>
<path d="M58.2804 42.5533C58.2804 42.5533 56.8903 37.3476 58.9058 35.4406C60.9214 33.5336 59.5248 30.4849 58.2212 32.4036C56.9181 34.3224 58.41 30.3465 58.388 28.6082" stroke="#302218" stroke-width="0.293855" stroke-miterlimit="10" stroke-linecap="round" stroke-linejoin="round"/>
<path d="M45.7014 25.138C44.6452 27.2259 47.6803 29.4571 46.0403 29.5011C44.4008 29.5451 42.7793 30.1651 44.0805 32.3352C45.3821 34.5053 48.3634 36.1825 46.5185 36.382C44.6736 36.5819 44.6971 39.0063 46.7869 39.9666" stroke="#302218" stroke-width="0.293855" stroke-miterlimit="10" stroke-linecap="round" stroke-linejoin="round"/>
<path d="M44.2591 56.5481C44.2591 56.5481 39.8725 53.4192 37.3792 54.6372C34.886 55.8553 32.5218 53.4774 34.7759 52.9307C37.0301 52.3836 32.7834 52.3855 31.1634 51.7547C30.0588 51.3244 25.813 50.0996 28.9772 49.1206C32.1413 48.1417 28.5127 47.3701 26.8712 46.131C25.7637 45.2954 24.5681 42.9434 28.4017 42.9933C32.2347 43.0437 31.9986 42.7268 31.0343 41.4002C30.0701 40.0736 29.0408 39.0238 32.3658 38.6576C34.6913 38.4013 35.7157 42.0261 36.3323 40.5064C36.9489 38.9866 38.099 37.6855 39.674 39.6658C41.2495 41.6462 41.7732 45.0264 42.6078 43.3693C43.4425 41.7117 45.7045 42.5845 45.8703 44.8788C46.0355 47.173 46.3221 49.5788 47.2546 48.7446C48.187 47.9104 48.8251 50.5699 48.3039 54.4064C47.7826 58.2434 44.2591 56.5481 44.2591 56.5481Z" fill="#CBC47A"/>
<path d="M32.3657 38.6576C34.6913 38.4013 35.7157 42.0261 36.3323 40.5064C36.9489 38.9866 38.0989 37.6855 39.6739 39.6658C41.2494 41.6462 41.7731 45.0264 42.6078 43.3693C43.4424 41.7117 45.7044 42.5845 45.8702 44.8788C46.0355 47.173 46.322 49.5788 47.2545 48.7446" stroke="#302218" stroke-width="0.293855" stroke-miterlimit="10" stroke-linecap="round" stroke-linejoin="round"/>
<path d="M28.9772 49.1207C32.1413 48.1417 28.5127 47.3701 26.8712 46.1311C25.7637 45.2954 24.5681 42.9435 28.4017 42.9933" stroke="#302218" stroke-width="0.293855" stroke-miterlimit="10" stroke-linecap="round" stroke-linejoin="round"/>
<path d="M37.3797 54.6377C34.8864 55.8558 32.5222 53.4779 34.7764 52.9312" stroke="#302218" stroke-width="0.293855" stroke-miterlimit="10" stroke-linecap="round" stroke-linejoin="round"/>
<path d="M58.5918 40.9147C60.2308 45.3154 60.378 47.1354 60.378 47.1354C58.3448 47.0156 56.3156 44.1175 53.8648 41.0232C51.4141 37.929 51.3109 29.9269 50.1941 32.5117C49.0455 35.1692 48.5204 38.0239 51.8473 41.8995C55.1743 45.7756 55.4232 53.5151 51.7016 50.4086C47.98 47.3022 43.7299 35.7726 41.5266 33.7742C40.2171 32.587 41.2156 36.2416 41.2156 36.2416C45.6584 47.6395 44.9044 49.2629 44.9044 49.2629C41.5931 46.2533 36.6359 43.6202 36.6359 43.6202C35.0824 42.8275 35.4056 43.7698 36.0403 44.8157C36.6505 45.821 37.4114 46.7252 38.2705 47.5202C40.7921 49.8536 47.9742 56.7951 51.13 62.9562C54.9924 70.4966 65.478 80.9245 71.9877 76.4934C78.4974 72.0623 72.7172 58.4121 67.0427 52.1244C64.4599 49.2629 60.8777 42.8535 60.5007 40.3856C60.5007 40.3856 60.2914 38.4102 59.0426 38.8209C57.7938 39.2326 58.5918 40.9147 58.5918 40.9147Z" fill="#7B733D"/>
<path d="M44.9045 49.2635C44.9045 49.2635 44.8282 51.4722 47.0071 54.6686C47.0071 54.6686 60.5204 74.7718 71.9878 76.4939C71.9878 76.4939 67.8217 67.9956 62.8459 61.0541C55.8062 51.233 53.1178 43.7664 53.1178 43.7664" stroke="#302218" stroke-width="0.293855" stroke-miterlimit="10" stroke-linecap="round" stroke-linejoin="round"/>
<path d="M71.9876 76.4939C72.5357 66.7316 68.3369 59.6644 65.0408 55.6827C62.9225 53.1244 61.3407 50.1593 60.4102 46.9985C60.1686 46.1775 59.973 45.6064 59.973 45.6064C59.973 45.6064 59.4469 43.3107 59.0953 42.3186C58.7433 41.3264 57.5506 39.4644 59.0425 38.8214C60.5344 38.1779 60.4869 42.9141 63.765 47.5198" stroke="#302218" stroke-width="0.293855" stroke-miterlimit="10" stroke-linecap="round" stroke-linejoin="round"/>
<path d="M48.1272 45.5604C48.1272 45.5604 60.4811 71.4076 71.9877 76.4939" stroke="#302218" stroke-width="0.293855" stroke-miterlimit="10" stroke-linecap="round" stroke-linejoin="round"/>
<path d="M185.503 30.2781C176.314 30.2805 178.636 45.9986 171.065 41.014C162.261 35.2182 159.012 49.438 163.422 54.0745C167.383 58.2396 165.074 62.0203 160.005 66.8303C149.248 77.0401 170.596 81.7528 170.596 81.7528C170.596 81.7528 191.944 86.4656 188.353 73.0882C186.661 66.7858 186.795 62.5244 192.63 60.5221C199.125 58.2933 204.383 44.517 193.386 45.9414C183.928 47.1663 194.91 34.385 186.876 30.5808C186.876 30.5808 186.263 30.3089 185.503 30.2781Z" fill="#7B733D"/>
<path d="M170.595 81.7528C170.595 81.7528 191.943 86.4656 188.352 73.0882C186.66 66.7858 186.795 62.5244 192.63 60.5221" stroke="#302218" stroke-width="0.293855" stroke-miterlimit="10" stroke-linecap="round" stroke-linejoin="round"/>
<path d="M163.421 54.0745C159.012 49.4385 162.261 35.2187 171.064 41.014C178.635 45.9986 176.313 30.28 185.503 30.2781" stroke="#302218" stroke-width="0.293855" stroke-miterlimit="10" stroke-linecap="round" stroke-linejoin="round"/>
<path d="M168.951 80.389C169.915 76.3966 171.068 72.4457 172.249 68.5011C173.443 64.5595 174.717 60.635 176.042 56.7222C177.362 52.8085 178.755 48.9104 180.25 45.0353C181.76 41.1631 183.33 37.3046 185.161 33.5033C185.182 33.4603 185.237 33.4392 185.283 33.4569C185.321 33.471 185.343 33.5062 185.338 33.5424C184.774 37.6234 183.949 41.6467 183.065 45.6567C182.165 49.6634 181.162 53.6476 180.088 57.6156C179.018 61.5846 177.896 65.5423 176.696 69.483C175.482 73.4202 174.24 77.3515 172.81 81.2408C172.456 82.2012 171.319 82.7464 170.269 82.4589C169.292 82.1909 168.738 81.2863 168.951 80.389Z" fill="#CBC47A"/>
<path d="M174.003 64.7479C175.272 63.3372 176.659 62.036 178.089 60.7749C179.518 59.5134 181.004 58.3042 182.526 57.1296C184.045 55.9522 185.615 54.8217 187.258 53.7601C188.911 52.7083 190.608 51.6957 192.489 50.8571C192.538 50.8356 192.595 50.8532 192.618 50.8962C192.631 50.9216 192.629 50.9505 192.615 50.9744C191.634 52.6541 190.466 54.1606 189.257 55.6275C188.037 57.0842 186.744 58.4724 185.4 59.8136C184.059 61.1578 182.681 62.4673 181.247 63.7244C179.814 64.9821 178.337 66.1996 176.744 67.3076C175.846 67.9316 174.584 67.7951 173.924 67.003C173.363 66.3282 173.421 65.3953 174.003 64.7479Z" fill="#CBC47A"/>
<path d="M173.473 66.5848C172.71 64.9565 172.113 63.2813 171.576 61.5889C171.038 59.8966 170.579 58.1813 170.172 56.4518C169.762 54.7232 169.421 52.9742 169.184 51.1958C168.962 49.413 168.8 47.6131 168.898 45.7383C168.901 45.6899 168.946 45.6513 168.999 45.6518C169.031 45.6523 169.058 45.6665 169.075 45.6875C170.242 47.1994 171.148 48.7866 171.995 50.3905C172.827 51.9987 173.555 53.6363 174.213 55.2944C174.874 56.951 175.485 58.6228 176.016 60.3171C176.547 62.0114 177.019 63.7228 177.325 65.4812C177.498 66.4718 176.746 67.4283 175.646 67.618C174.709 67.7793 173.822 67.3319 173.473 66.5848Z" fill="#CBC47A"/>
<path d="M174.292 77.0132C174.292 77.0132 176.788 69.1691 177.527 66.7467" stroke="#302218" stroke-width="0.293855" stroke-miterlimit="10" stroke-linecap="round" stroke-linejoin="round"/>
<path d="M179.628 59.4532C179.628 59.4532 187.983 52.6413 192.489 50.856" stroke="#302218" stroke-width="0.293855" stroke-miterlimit="10" stroke-linecap="round" stroke-linejoin="round"/>
<path d="M168.898 45.7379C168.898 45.7379 169.094 57.2435 173.14 65.5692" stroke="#302218" stroke-width="0.293855" stroke-miterlimit="10" stroke-linecap="round" stroke-linejoin="round"/>
<path d="M158.956 32.1434C158.956 32.1434 159.607 29.5822 161.835 29.0912C161.985 29.058 162.144 29.077 162.277 29.1543C162.491 29.2795 162.793 29.5406 162.91 30.0535C162.974 30.3366 162.835 30.6281 162.57 30.7479C161.895 31.054 160.521 31.7811 159.984 32.8382C159.984 32.8382 158.442 33.0211 158.956 32.1434Z" fill="#CBC47A"/>
<path d="M164.236 35.7853C164.236 35.7853 167.191 41.786 162.167 54.3144C158.772 62.7801 155.423 71.0466 150.273 75.2132C146.614 78.1734 141.527 78.6957 137.318 76.5897L137.202 76.531C133.018 74.3751 130.438 69.9597 130.67 65.2587C130.995 58.6428 135.693 51.0613 140.525 43.3252C147.677 31.8769 154.265 30.7229 154.265 30.7229C154.265 30.7229 156.841 30.3493 159.929 31.9175C163.018 33.4851 164.236 35.7853 164.236 35.7853Z" fill="#86304A"/>
<path d="M149.414 33.1987C149.414 33.1987 150.076 35.8098 153.423 37.0752C153.423 37.0752 153.111 38.6512 155.813 40.0233C158.516 41.3953 159.603 40.213 159.603 40.213C162.6 42.1684 165.099 41.0746 165.099 41.0746C165.099 41.0746 166.126 34.4255 160.103 31.5733C153.764 28.572 149.414 33.1987 149.414 33.1987Z" fill="#CBC47A"/>
<path d="M149.414 33.1987C149.414 33.1987 149.98 35.735 153.423 37.0753C153.423 37.0753 152.947 38.5857 155.813 40.0233" stroke="#302218" stroke-width="0.293855" stroke-miterlimit="10" stroke-linecap="round" stroke-linejoin="round"/>
<path d="M156.213 30.5675C156.213 30.5675 159.273 30.4546 162.429 33.1385C165.586 35.8225 165.099 41.0756 165.099 41.0756" stroke="#302218" stroke-width="0.293855" stroke-miterlimit="10" stroke-linecap="round" stroke-linejoin="round"/>
<path d="M161.91 31.0805C161.91 31.0805 162.236 30.9069 162.57 30.7475C162.905 30.5886 162.961 30.2331 162.909 30.0531C162.858 29.8732 162.714 29.4014 162.276 29.1539" stroke="#302218" stroke-width="0.293855" stroke-miterlimit="10" stroke-linecap="round" stroke-linejoin="round"/>
<path d="M135.009 52.5816C135.009 52.5816 138.92 45.4367 141.227 42.2329" stroke="#302218" stroke-width="0.293855" stroke-miterlimit="10" stroke-linecap="round" stroke-linejoin="round"/>
<path d="M35.3687 49.4693C35.3687 49.4693 37.3623 46.2983 39.0101 44.7678C39.0101 44.7678 39.2488 43.4901 37.7241 43.8666C37.7241 43.8666 34.7595 46.0763 33.9316 49.0952C33.1033 52.1136 34.671 50.5245 35.3687 49.4693Z" fill="#86304A"/>
<path d="M40.2169 80.501C40.2169 80.501 49.3426 72.6324 42.4862 61.5787C42.4862 61.5787 40.4335 58.0595 39.77 55.7433C39.1064 53.4275 40.1788 49.1519 35.1125 47.749C30.0462 46.3462 30.0047 52.2755 25.2455 55.5883C20.4863 58.901 12.0584 77.4024 24.1859 83.25C34.5248 88.2356 40.2169 80.501 40.2169 80.501Z" fill="#FFC34A"/>
<path d="M40.2171 80.501C40.2171 80.501 49.3428 72.6324 42.4864 61.5787C42.4864 61.5787 40.4337 58.0595 39.7701 55.7433C39.1066 53.4275 40.1789 49.1519 35.1127 47.749C30.0464 46.3462 30.0048 52.2755 25.2457 55.5882C22.7524 57.3236 19.2518 63.228 18.2279 69.2976" stroke="#302218" stroke-width="0.293855" stroke-miterlimit="10" stroke-linecap="round" stroke-linejoin="round"/>
<path d="M195.568 54.3307C195.568 54.3307 194.471 51.8673 193.965 51.4971C193.46 51.1269 194.652 50.5583 195.099 50.857C195.546 51.1563 195.809 50.8341 196.123 50.2536C196.437 49.6732 197.109 49.3608 197.488 49.6385C197.868 49.9162 198.184 49.7872 198.641 49.1236C199.099 48.4601 199.531 48.6655 199.928 48.9564C200.326 49.2468 200.597 48.7246 200.822 48.4175C201.046 48.1105 201.935 48.373 201.727 49.3021C201.519 50.2311 201.22 52.3601 201.902 53.3909C202.584 54.4212 195.945 55.7688 195.568 54.3307Z" fill="#CBC47A"/>
<path d="M207.043 86.4983C207.427 87.1032 208.361 86.8523 208.39 86.1365C208.623 80.4345 209.024 65.603 207.269 59.0693C205.073 50.8903 198.69 52.7053 198.69 52.7053C198.69 52.7053 192.256 54.3321 194.453 62.5112C196.208 69.0449 203.985 81.68 207.043 86.4983Z" fill="#F0865F"/>
<path d="M207.269 59.0693C207.269 59.0693 204.603 59.1882 201.859 60.0864C201.859 60.0864 203.968 59.9593 207.59 60.4756C207.59 60.4756 207.336 59.3084 207.269 59.0693Z" fill="#E26640"/>
<path d="M196.586 68.0288C196.586 68.0288 198.855 67.3149 201.813 67.1198C201.813 67.1198 200.153 68.3447 197.131 69.1779C197.131 69.1779 196.699 68.2748 196.586 68.0288Z" fill="#E26640"/>
<path d="M193.996 59.3143C193.996 59.3143 195.409 58.4801 198.328 57.7266C198.328 57.7266 196.506 57.4166 194.099 57.9926C194.099 57.9926 193.987 58.8708 193.996 59.3143Z" fill="#E26640"/>
<path d="M208.601 76.6332C208.601 76.6332 206.912 76.2279 205.031 76.0856C205.031 76.0856 206.568 75.4626 208.6 75.3159L208.601 76.6332Z" fill="#E26640"/>
<path d="M208.39 86.1365C208.623 80.4346 209.024 65.603 207.269 59.0693" stroke="#302218" stroke-width="0.293855" stroke-miterlimit="10" stroke-linecap="round" stroke-linejoin="round"/>
<path d="M198.69 52.7053C198.69 52.7053 192.257 54.3321 194.453 62.5112C194.799 63.7982 197.605 70.8746 200.113 74.8837" stroke="#302218" stroke-width="0.293855" stroke-miterlimit="10" stroke-linecap="round" stroke-linejoin="round"/>
<path d="M88.7189 59.3651C85.1196 59.8878 81.7911 55.31 81.7911 55.31C77.6358 53.6123 75.8623 49.6482 75.8623 49.6482C72.3315 47.3388 70.9442 42.5962 70.9442 42.5962C67.2324 39.234 67.2388 35.7247 67.2388 35.7247C64.0815 32.8578 64.9783 29.4159 64.9783 29.4159C61.0621 25.6533 62.4747 23.1566 62.4747 23.1566C59.1864 19.7362 61.353 17.5006 61.353 17.5006C59.2763 14.58 62.2845 12.9747 62.2845 12.9747C62.2845 12.9747 64.9714 10.9376 67.1752 13.7771C67.1752 13.7771 70.1976 12.6935 72.4738 16.7618C72.4738 16.7618 75.4912 16.4254 77.8886 21.1591C77.8886 21.1591 81.6748 21.6056 83.4395 25.3633C83.4395 25.3633 86.9767 26.6063 89.0436 31.0207C89.0436 31.0207 93.3275 33.9106 94.3979 37.794C94.3979 37.794 97.7605 40.742 97.9923 44.9492C97.9923 44.9492 101.42 49.4634 99.6128 52.3987C99.6113 52.3987 96.8941 56.3291 88.7189 59.3651Z" fill="#FFC34A"/>
<path d="M62.2836 12.9742C62.2836 12.9742 63.129 14.5741 64.393 15.8132C64.393 15.8132 65.766 18.6883 68.1053 20.809C68.1053 20.809 69.5282 23.3111 72.2283 25.8151C72.2283 25.8151 73.9246 28.8248 76.456 31.5048C76.456 31.5048 77.6119 34.1096 80.89 37.4723C80.89 37.4723 83.3896 41.4012 86.0022 44.0294C86.0022 44.0294 87.4266 47.0762 90.5736 50.1817C90.5736 50.1817 92.9667 53.9673 95.0918 56.2626" stroke="#302218" stroke-width="0.293855" stroke-miterlimit="10" stroke-linecap="round" stroke-linejoin="round"/>
<path d="M61.2553 13.8461C61.2553 13.8461 60.9164 15.9893 62.1804 17.2279C62.1804 17.2279 61.9252 20.8272 65.3705 22.5577C65.3705 22.5577 64.903 25.869 68.7107 28.0645C68.7107 28.0645 67.8535 32.4995 71.8944 34.4217C71.8944 34.4217 70.624 38.0787 75.2844 41.0566C75.2844 41.0566 76.0159 46.1732 80.3966 47.6137C80.3966 47.6137 81.1756 51.4419 86.012 53.0985C86.012 53.0985 88.4373 57.2783 92.8787 57.6773" stroke="#302218" stroke-width="0.293855" stroke-miterlimit="10" stroke-linecap="round" stroke-linejoin="round"/>
<path d="M63.7098 12.2764C63.7098 12.2764 65.9889 12.7449 66.7874 14.2817C66.7874 14.2817 70.5036 15.3408 71.0215 18.9441C71.0215 18.9441 74.5235 19.7167 75.3807 23.7991C75.3807 23.7991 80.1531 24.6333 80.6523 28.8213C80.6523 28.8213 84.788 29.0209 86.1298 34.1213C86.1298 34.1213 91.0239 36.5755 90.9168 40.8868C90.9168 40.8868 94.4961 42.9238 94.4443 47.707C94.4443 47.707 97.7918 51.2965 96.6139 55.29" stroke="#302218" stroke-width="0.293855" stroke-miterlimit="10" stroke-linecap="round" stroke-linejoin="round"/>
<path d="M62.4738 23.1566C62.4738 23.1566 68.2691 22.8202 72.4723 16.7618" stroke="#302218" stroke-width="0.293855" stroke-miterlimit="10" stroke-linecap="round" stroke-linejoin="round"/>
<path d="M64.9778 29.4155C64.9778 29.4155 72.7794 26.8684 77.8872 21.1592" stroke="#302218" stroke-width="0.293855" stroke-miterlimit="10" stroke-linecap="round" stroke-linejoin="round"/>
<path d="M67.2384 35.7242C67.2384 35.7242 77.3905 33.8167 83.4381 25.3633" stroke="#302218" stroke-width="0.293855" stroke-miterlimit="10" stroke-linecap="round" stroke-linejoin="round"/>
<path d="M70.9437 42.5957C70.9437 42.5957 81.2229 39.8926 89.0421 31.0207" stroke="#302218" stroke-width="0.293855" stroke-miterlimit="10" stroke-linecap="round" stroke-linejoin="round"/>
<path d="M75.8619 49.6477C75.8619 49.6477 87.1484 44.865 94.396 37.7939" stroke="#302218" stroke-width="0.293855" stroke-miterlimit="10" stroke-linecap="round" stroke-linejoin="round"/>
<path d="M81.7905 55.31C81.7905 55.31 91.3123 51.1552 97.9902 44.9492" stroke="#302218" stroke-width="0.293855" stroke-miterlimit="10" stroke-linecap="round" stroke-linejoin="round"/>
<path d="M67.1737 13.7772C67.1737 13.7772 64.5513 16.269 61.3519 17.5007" stroke="#302218" stroke-width="0.293855" stroke-miterlimit="10" stroke-linecap="round" stroke-linejoin="round"/>
<path d="M94.7289 57.5379C94.7289 57.5379 87.8148 50.7333 85.8311 40.9778C85.3001 38.3677 84.5989 35.7634 83.5901 33.229C80.1614 24.6153 80.8294 14.894 80.8294 14.894C80.8294 14.894 86.9826 25.114 94.1769 35.3424C99.4397 42.8242 106.072 53.2202 94.7289 57.5379Z" fill="#CBC47A"/>
<path d="M94.9534 57.6948C94.9534 57.6948 94.9959 47.6283 82.4601 42.4202C78.9566 40.9645 75.5015 39.3147 72.1882 37.3231C62.8478 31.7083 57.0247 32.7742 57.0247 32.7742C57.0247 32.7742 64.4644 40.2355 71.8582 46.7672C79.2519 53.2989 85.6394 64.292 94.9534 57.6948Z" fill="#CBC47A"/>
<path d="M82.4601 42.4207C78.9566 40.9651 75.5015 39.3153 72.1882 37.3237C62.8479 31.7088 57.0247 32.7748 57.0247 32.7748" stroke="#302218" stroke-width="0.293855" stroke-miterlimit="10" stroke-linecap="round" stroke-linejoin="round"/>
<path d="M96.0966 54.8323C96.966 56.043 98.208 58.1515 96.3719 59.0673C94.3251 60.0888 92.8826 58.0801 92.0132 56.8694C91.1438 55.6587 91.3531 54.2211 92.4807 53.6583C93.6087 53.096 95.2272 53.6211 96.0966 54.8323Z" fill="#7B733D"/>
<path d="M92.577 55.0509C92.577 55.0509 87.3338 49.4189 85.8312 40.9783C85.8312 40.9783 84.8561 37.0851 83.5902 33.2295C82.3238 29.3739 81.4451 25.249 81.4451 25.249" stroke="#302218" stroke-width="0.293855" stroke-miterlimit="10" stroke-linecap="round" stroke-linejoin="round"/>
<path d="M91.9501 59.147C91.9501 59.147 87.1772 62.1488 79.5179 54.4583" stroke="#302218" stroke-width="0.293855" stroke-miterlimit="10" stroke-linecap="round" stroke-linejoin="round"/>
<path d="M59.1179 34.8441L71.8581 46.7677" stroke="#302218" stroke-width="0.293855" stroke-miterlimit="10" stroke-linecap="round" stroke-linejoin="round"/>
<path d="M76.0735 56.862C80.3508 54.7703 82.1225 49.6071 80.0308 45.3298C77.939 41.0525 72.7759 39.2808 68.4986 41.3725C64.2212 43.4643 62.4495 48.6274 64.5412 52.9047C66.633 57.1821 71.7962 58.9538 76.0735 56.862Z" fill="#FF4D4D"/>
<path d="M69.5974 57.3119C65.0734 55.8254 62.6114 50.9533 64.0979 46.4293C65.5844 41.9058 70.4565 39.4433 74.9805 40.9298" stroke="#302218" stroke-width="0.293855" stroke-miterlimit="10" stroke-linecap="round" stroke-linejoin="round"/>
<path d="M67.4719 48.7211C67.8259 48.8375 68.0186 49.2189 67.9022 49.5724C67.7858 49.9264 67.4049 50.1191 67.0509 50.0027C66.6969 49.8863 66.5042 49.5049 66.6206 49.1514C66.737 48.7974 67.1179 48.6047 67.4719 48.7211Z" stroke="#302218" stroke-width="0.293855" stroke-miterlimit="10" stroke-linecap="round" stroke-linejoin="round"/>
<path d="M71.4173 44.895C71.7714 45.0113 71.964 45.3927 71.8476 45.7463C71.7313 46.1003 71.3503 46.2929 70.9963 46.1765C70.6423 46.0602 70.4497 45.6788 70.566 45.3252C70.6824 44.9712 71.0633 44.7786 71.4173 44.895Z" stroke="#302218" stroke-width="0.293855" stroke-miterlimit="10" stroke-linecap="round" stroke-linejoin="round"/>
<path d="M68.0797 44.7111C68.4337 44.8275 68.6264 45.2084 68.51 45.5624C68.3936 45.9164 68.0127 46.1091 67.6587 45.9927C67.3047 45.8763 67.112 45.4949 67.2284 45.1414C67.3448 44.7874 67.7257 44.5947 68.0797 44.7111Z" stroke="#302218" stroke-width="0.293855" stroke-miterlimit="10" stroke-linecap="round" stroke-linejoin="round"/>
<path d="M72.3494 52.7346C72.3494 52.7346 67.7012 52.9102 66.2646 57.0562C66.2646 57.0562 60.4414 63.9727 65.3023 72.0193C70.1632 80.0658 77.8494 85.4485 84.5679 81.6516C84.5679 81.6516 90.2272 81.4208 93.7444 76.6362C93.7444 76.6362 105.143 68.9123 95.8353 54.2108C95.8353 54.2108 89.8322 44.9213 82.5743 47.5192C82.5743 47.5192 77.4494 47.4576 75.9081 51.412C75.9081 51.412 74.5576 52.2413 72.3494 52.7346Z" fill="#E26640"/>
<path d="M72.2894 54.5605C72.2894 54.5605 69.6915 53.6779 66.2648 57.0562" stroke="#302218" stroke-width="0.293855" stroke-miterlimit="10" stroke-linecap="round" stroke-linejoin="round"/>
<path d="M73.0061 55.8724C73.0061 55.8724 61.4297 67.685 84.5674 81.6521" stroke="#302218" stroke-width="0.293855" stroke-miterlimit="10" stroke-linecap="round" stroke-linejoin="round"/>
<path d="M76.9481 53.6476C76.9481 53.6476 93.7136 51.6286 93.7439 76.6367" stroke="#302218" stroke-width="0.293855" stroke-miterlimit="10" stroke-linecap="round" stroke-linejoin="round"/>
<path d="M69.0074 77.0117C69.0074 77.0117 74.6703 84.2867 81.5403 82.7503" stroke="#302218" stroke-width="0.293855" stroke-miterlimit="10" stroke-linecap="round" stroke-linejoin="round"/>
<path d="M82.574 47.5197C82.574 47.5197 79.3781 48.261 76.0892 52.4838" stroke="#302218" stroke-width="0.293855" stroke-miterlimit="10" stroke-linecap="round" stroke-linejoin="round"/>
<path d="M89.8278 48.4189C89.8278 48.4189 86.8015 46.132 82.5739 47.5197" stroke="#302218" stroke-width="0.293855" stroke-miterlimit="10" stroke-linecap="round" stroke-linejoin="round"/>
<path d="M72.3497 52.7346C72.3497 52.7346 70.6637 53.5462 71.5571 55.0278C72.4504 56.5099 73.2724 55.8811 75.2596 54.7951C77.2468 53.7091 78.211 52.5791 77.6971 51.6388C77.1832 50.6994 76.9241 49.8965 72.3497 52.7346Z" fill="#541126"/>
<path d="M76.0891 52.4838C76.0891 52.4838 74.8187 50.7724 74.7909 48.8825C74.763 46.9931 72.6496 47.9422 71.6179 48.506C70.5862 49.0698 70.2757 50.1661 71.481 50.7944C72.6858 51.4228 73.7308 53.7723 73.7308 53.7723C73.7308 53.7723 74.7449 53.7757 76.0891 52.4838Z" fill="#541126"/>
<path d="M156.683 184.072H76.8295V208H156.683V184.072Z" fill="#302218"/>
<path d="M144.216 76.2225C144.216 76.2225 162.74 71.2042 177.161 79.2566C177.161 79.2566 194.476 76.1233 207.066 84.0236C207.066 84.0236 207.7 56.4558 209.687 45.2764C209.687 45.2764 211.171 40.7245 222.017 45.183C222.017 45.183 233.196 68.0127 230.613 93.9679C229.919 100.941 227.277 104.214 222.46 107.152C219.229 109.123 215.676 110.501 211.991 111.362C203.908 113.249 187.775 116.231 178.312 112.679C178.312 112.679 142.504 120.378 137.728 97.9384C133.273 77.0117 144.216 76.2225 144.216 76.2225Z" fill="#994F31"/>
<path d="M209.636 52.9484C209.636 52.9484 207.951 50.1788 206.654 49.971C205.358 49.7632 196.804 46.7081 196.69 42.4339C196.577 38.1598 198.441 37.0401 198.441 37.0401C198.441 37.0401 197.67 24.8152 202.264 25.5516C202.264 25.5516 204.325 25.8817 204.575 27.6259C204.575 27.6259 206.442 24.2622 209.272 27.4156C209.272 27.4156 211.583 25.2974 213.524 28.6791C213.524 28.6791 217.369 27.442 218.073 31.3137C218.073 31.3137 225.36 44.9165 221.185 51.4316C219.643 53.8383 213.221 53.806 209.636 52.9484Z" fill="#994F31"/>
<path d="M206.654 49.971C205.358 49.7632 196.804 46.7081 196.69 42.4339C196.577 38.1598 198.441 37.0401 198.441 37.0401C198.441 37.0401 197.67 24.8152 202.264 25.5516C202.264 25.5516 204.325 25.8817 204.575 27.6259C204.575 27.6259 206.442 24.2622 209.272 27.4156" stroke="#302218" stroke-width="0.293855" stroke-miterlimit="10" stroke-linecap="round" stroke-linejoin="round"/>
<path d="M198.441 37.04C198.441 37.04 202.601 34.4925 204.679 32.4681C206.758 30.4438 211.334 36.4151 203.334 40.8653C203.334 40.8653 207.506 38.8634 210.391 41.9958" stroke="#302218" stroke-width="0.293855" stroke-miterlimit="10" stroke-linecap="round" stroke-linejoin="round"/>
<path d="M204.575 27.6254C204.575 27.6254 204.64 29.8811 203.895 33.1782" stroke="#302218" stroke-width="0.293855" stroke-miterlimit="10" stroke-linecap="round" stroke-linejoin="round"/>
<path d="M209.273 27.4151C209.273 27.4151 210.926 33.4857 209.293 35.9257C209.293 35.9257 208.764 36.7638 207.586 36.6015" stroke="#302218" stroke-width="0.293855" stroke-miterlimit="10" stroke-linecap="round" stroke-linejoin="round"/>
<path d="M213.524 28.6791C213.524 28.6791 215.017 33.1478 214.221 35.0489C213.425 36.9496 210.238 35.7521 209.706 35.0421" stroke="#302218" stroke-width="0.293855" stroke-miterlimit="10" stroke-linecap="round" stroke-linejoin="round"/>
<path d="M214.448 33.849C214.448 33.849 215.264 34.7693 216.68 34.4705C218.094 34.1713 218.086 32.6682 218.073 31.3137" stroke="#302218" stroke-width="0.293855" stroke-miterlimit="10" stroke-linecap="round" stroke-linejoin="round"/>
<path d="M204.544 32.5988C204.544 32.5988 206.177 33.8965 204.963 35.5262C203.749 37.156 202.148 36.4524 201.437 35.0583" stroke="#302218" stroke-width="0.293855" stroke-miterlimit="10" stroke-linecap="round" stroke-linejoin="round"/>
<path d="M173.448 77.4933C173.448 77.4933 176.638 78.4708 181.262 82.0124" stroke="#302218" stroke-width="0.293855" stroke-miterlimit="10" stroke-linecap="round" stroke-linejoin="round"/>
<path d="M204.552 82.6178C204.552 82.6178 207.316 83.5131 209.537 86.4474" stroke="#302218" stroke-width="0.293855" stroke-miterlimit="10" stroke-linecap="round" stroke-linejoin="round"/>
<path d="M173.918 111.12C173.918 111.12 178.137 112.934 181.38 113.566" stroke="#302218" stroke-width="0.293855" stroke-miterlimit="10" stroke-linecap="round" stroke-linejoin="round"/>
<path d="M89.2581 75.0421C89.2581 75.0421 63.9503 73.2496 53.9953 80.1578C53.9953 80.1578 36.5242 76.1233 23.9346 84.0241C23.9346 84.0241 23.3009 56.4562 21.3137 45.2768C21.3137 45.2768 19.8297 40.725 8.98327 45.1834C8.98327 45.1834 -2.19565 68.0131 0.387602 93.9684C1.08146 100.942 3.72436 104.214 8.54026 107.152C11.7714 109.123 15.3243 110.502 19.0097 111.362C27.0924 113.25 43.2256 116.232 52.6887 112.679C52.6887 112.679 88.4963 120.379 93.2726 97.9388C97.7267 77.0117 89.2581 75.0421 89.2581 75.0421Z" fill="#994F31"/>
<path d="M21.364 52.9484C21.364 52.9484 23.0485 50.1788 24.3453 49.971C25.642 49.7632 34.1961 46.7081 34.3096 42.4339C34.423 38.1598 32.559 37.0401 32.559 37.0401C32.559 37.0401 33.3297 24.8152 28.7353 25.5516C28.7353 25.5516 26.6747 25.8817 26.4244 27.6259C26.4244 27.6259 24.5575 24.2622 21.7273 27.4156C21.7273 27.4156 19.4164 25.2974 17.4757 28.6791C17.4757 28.6791 13.6309 27.442 12.9272 31.3137C12.9272 31.3137 5.63955 44.9165 9.81441 51.4316C11.3566 53.8383 17.7788 53.806 21.364 52.9484Z" fill="#994F31"/>
<path d="M24.3456 49.971C25.6424 49.7632 34.1965 46.7081 34.3099 42.4339C34.4234 38.1598 32.5594 37.0401 32.5594 37.0401C32.5594 37.0401 33.33 24.8152 28.7356 25.5516C28.7356 25.5516 26.6751 25.8817 26.4247 27.6259C26.4247 27.6259 24.5578 24.2622 21.7277 27.4156" stroke="#302218" stroke-width="0.293855" stroke-miterlimit="10" stroke-linecap="round" stroke-linejoin="round"/>
<path d="M32.5593 37.04C32.5593 37.04 28.3991 34.4925 26.3205 32.4681C24.2418 30.4438 19.6655 36.4151 27.6656 40.8653C27.6656 40.8653 23.4942 38.8634 20.6093 41.9958" stroke="#302218" stroke-width="0.293855" stroke-miterlimit="10" stroke-linecap="round" stroke-linejoin="round"/>
<path d="M26.4247 27.6254C26.4247 27.6254 26.3602 29.8811 27.1054 33.1782" stroke="#302218" stroke-width="0.293855" stroke-miterlimit="10" stroke-linecap="round" stroke-linejoin="round"/>
<path d="M21.7276 27.4151C21.7276 27.4151 20.0743 33.4857 21.7075 35.9257C21.7075 35.9257 22.2356 36.7638 23.414 36.6015" stroke="#302218" stroke-width="0.293855" stroke-miterlimit="10" stroke-linecap="round" stroke-linejoin="round"/>
<path d="M17.476 28.6791C17.476 28.6791 15.9827 33.1478 16.7792 35.0489C17.5752 36.9496 20.7624 35.7521 21.2944 35.0421" stroke="#302218" stroke-width="0.293855" stroke-miterlimit="10" stroke-linecap="round" stroke-linejoin="round"/>
<path d="M16.5517 33.849C16.5517 33.849 15.7356 34.7693 14.3206 34.4705C12.9059 34.1713 12.9143 32.6682 12.9275 31.3137" stroke="#302218" stroke-width="0.293855" stroke-miterlimit="10" stroke-linecap="round" stroke-linejoin="round"/>
<path d="M26.4564 32.5988C26.4564 32.5988 24.8227 33.8965 26.0369 35.5262C27.2515 37.156 28.8524 36.4524 29.5633 35.0583" stroke="#302218" stroke-width="0.293855" stroke-miterlimit="10" stroke-linecap="round" stroke-linejoin="round"/>
<path d="M58.4906 77.9095C58.4906 77.9095 55.8805 78.529 51.2572 82.0702" stroke="#302218" stroke-width="0.293855" stroke-miterlimit="10" stroke-linecap="round" stroke-linejoin="round"/>
<path d="M26.8906 82.2902C26.8906 82.2902 24.1269 83.185 21.9065 86.1199" stroke="#302218" stroke-width="0.293855" stroke-miterlimit="10" stroke-linecap="round" stroke-linejoin="round"/>
<path d="M57.5249 110.792C57.5249 110.792 53.3065 112.607 50.0626 113.238" stroke="#302218" stroke-width="0.293855" stroke-miterlimit="10" stroke-linecap="round" stroke-linejoin="round"/>
<path d="M85.0533 49.6985C84.8826 58.3084 91.5292 65.5863 99.8834 64.7731L105.455 63.6079L102.783 80.5621C102.783 80.5621 107.74 85.5247 117.194 82.8192C129.646 79.2565 132.768 72.8744 132.768 72.8744L132.195 52.0857C132.195 52.0857 141.765 54.5267 140.535 43.6455C138.994 30.0183 131.398 34.0088 133.476 37.8463L133.502 31.4989C133.834 25.3603 130.17 17.8331 120.232 16.2503L106.928 13.9863C106.928 13.9863 85.8283 10.5464 85.0533 49.6985Z" fill="#994F31"/>
<path d="M133.78 42.9742C133.78 42.9742 132.208 44.1263 133.476 44.9976C136.179 46.8543 132.152 47.108 132.919 48.3437" stroke="#302218" stroke-width="0.293855" stroke-miterlimit="10" stroke-linecap="round" stroke-linejoin="round"/>
<path d="M135.945 40.0174C135.945 40.0174 139.226 37.9808 138.11 45.0583" stroke="#302218" stroke-width="0.293855" stroke-miterlimit="10" stroke-linecap="round" stroke-linejoin="round"/>
<path d="M104.641 68.7759L105.455 63.6079L120.036 59.9465C120.036 59.9465 115.841 65.5897 104.641 68.7759Z" fill="#302218"/>
<path d="M105.328 31.2046C105.882 31.2721 106.673 31.3611 107.358 31.4926C108.068 31.6168 108.784 31.7674 109.496 31.965C110.208 32.162 110.918 32.3928 111.647 32.6324C112.388 32.8559 113.118 33.1307 113.962 33.3287L113.981 33.3331C114.186 33.381 114.391 33.2539 114.439 33.049C114.462 32.9502 114.445 32.8505 114.397 32.7693C113.95 32.0036 113.36 31.3484 112.687 30.7944C112.025 30.2179 111.255 29.7944 110.469 29.4013C109.678 29.016 108.837 28.728 107.971 28.5197C107.078 28.3285 106.263 28.1999 105.204 28.2805C104.401 28.3417 103.8 29.0419 103.861 29.8448C103.915 30.5499 104.461 31.099 105.137 31.1811L105.328 31.2046Z" fill="#302218"/>
<mask id="mask0_1416_6538" style="mask-type:luminance" maskUnits="userSpaceOnUse" x="87" y="23" width="9" height="9">
<path d="M90.7155 23.6342C90.7155 23.6342 88.6438 26.9539 87.637 30.9894C87.637 30.9894 94.2753 31.9287 95.4791 29.1073C95.4791 29.1073 94.0357 25.0654 90.7155 23.6342Z" fill="white"/>
</mask>
<g mask="url(#mask0_1416_6538)">
<path d="M92.9658 27.0053C92.268 26.6386 91.7008 26.4978 91.0427 26.3824C90.4021 26.2856 89.7484 26.2733 89.1029 26.3462C88.4594 26.42 87.8174 26.554 87.2302 26.845C86.6409 27.1144 86.1055 27.5183 85.7041 28.0532C85.5696 28.2322 85.6058 28.4864 85.7847 28.6209C85.8356 28.659 85.8918 28.6835 85.9505 28.6947L85.9896 28.7021C86.6204 28.8219 87.1377 28.8414 87.6482 28.9143C88.1509 28.974 88.6247 29.0052 89.0956 29.0879C89.564 29.1617 90.0256 29.2512 90.4794 29.3646C90.9155 29.4571 91.429 29.6135 91.7615 29.6717L92.0382 29.7206C92.8279 29.86 93.5814 29.3324 93.7203 28.5432C93.8323 27.9055 93.5091 27.2914 92.9658 27.0053Z" fill="#302218"/>
</g>
<path d="M129.917 51.5332L132.195 52.0857" stroke="#302218" stroke-width="0.293855" stroke-miterlimit="10" stroke-linecap="round" stroke-linejoin="round"/>
<path d="M89.5942 48.8399C89.5942 48.8399 93.7197 49.855 100.026 49.8932C100.026 49.8932 99.851 57.1549 94.0796 56.6405C89.7463 56.2537 89.5942 48.8399 89.5942 48.8399Z" fill="#302218"/>
<path d="M99.2951 53.2622C99.2951 53.2622 93.5663 52.385 91.9463 55.6714C91.9463 55.6714 93.6342 57.505 96.3627 56.4836C96.3627 56.4836 98.4795 55.7164 99.2951 53.2622Z" fill="#FF4D4D"/>
<path d="M89.5942 48.8399C89.5942 48.8399 93.3021 53.4407 100.026 49.8932L89.5942 48.8399Z" fill="white"/>
<mask id="mask1_1416_6538" style="mask-type:luminance" maskUnits="userSpaceOnUse" x="85" y="30" width="10" height="13">
<path d="M87.7204 30.6648C87.7204 30.6648 85.8345 36.3168 85.5743 41.5166C85.5743 41.5166 88.0319 43.4148 90.8166 41.3709C92.0381 40.4746 93.1182 38.8659 94.5631 35.5878C94.5631 35.5878 92.7104 31.7176 87.7204 30.6648Z" fill="white"/>
</mask>
<g mask="url(#mask1_1416_6538)">
<path d="M94.9707 37.4537C94.9707 37.4537 88.97 28.3642 80.9073 35.6724C80.9073 35.6724 82.4339 40.0746 87.0317 41.1807C91.6286 42.2863 94.9707 37.4537 94.9707 37.4537Z" fill="white"/>
<mask id="mask2_1416_6538" style="mask-type:luminance" maskUnits="userSpaceOnUse" x="80" y="32" width="15" height="10">
<path d="M94.9707 37.4537C94.9707 37.4537 88.97 28.3642 80.9073 35.6724C80.9073 35.6724 82.4339 40.0746 87.0317 41.1807C91.6286 42.2863 94.9707 37.4537 94.9707 37.4537Z" fill="white"/>
</mask>
<g mask="url(#mask2_1416_6538)">
<path d="M82.092 35.9741C81.6109 38.4214 83.2049 40.7954 85.6527 41.2765C88.1001 41.7577 90.474 40.1636 90.9552 37.7158C91.4363 35.2685 89.8423 32.8941 87.3945 32.4134C84.9471 31.9327 82.5732 33.5268 82.092 35.9741Z" fill="#302218"/>
</g>
<path d="M80.8625 35.4645C81.7118 34.3032 82.8428 33.356 84.1503 32.6798C85.451 32.0011 86.9996 31.6715 88.5095 31.8916C89.2591 32.0045 89.9921 32.2338 90.6615 32.5707C90.9891 32.7497 91.3192 32.9292 91.6179 33.1472L92.0693 33.4695L92.4849 33.8313C93.5851 34.8024 94.4369 35.9872 95.0799 37.2551C95.1043 37.3035 95.0853 37.3627 95.0369 37.3871C94.9963 37.4077 94.9484 37.3969 94.919 37.3646C93.9773 36.3173 93.014 35.3168 91.9245 34.5203C90.8444 33.7218 89.6376 33.1257 88.3565 32.9502C87.0793 32.7487 85.7542 32.9766 84.5112 33.4719C83.2687 33.9741 82.0859 34.7115 81.0092 35.5931L81.0038 35.5975C80.9622 35.6317 80.9006 35.6254 80.8664 35.5838C80.8371 35.5486 80.8371 35.4992 80.8625 35.4645Z" fill="#302218"/>
</g>
<path d="M113.713 40.1469C113.713 40.1469 107.712 31.0574 99.6497 38.3656C99.6497 38.3656 101.176 42.7678 105.774 43.8739C110.371 44.9795 113.713 40.1469 113.713 40.1469Z" fill="white"/>
<mask id="mask3_1416_6538" style="mask-type:luminance" maskUnits="userSpaceOnUse" x="99" y="35" width="15" height="10">
<path d="M113.713 40.1469C113.713 40.1469 107.712 31.0574 99.6497 38.3656C99.6497 38.3656 101.176 42.7678 105.774 43.8739C110.371 44.9795 113.713 40.1469 113.713 40.1469Z" fill="white"/>
</mask>
<g mask="url(#mask3_1416_6538)">
<path d="M99.706 38.4184C99.2249 40.8657 100.819 43.2402 103.267 43.7208C105.714 44.202 108.089 42.6079 108.569 40.1606C109.05 37.7133 107.456 35.3388 105.009 34.8577C102.561 34.3765 100.187 35.9711 99.706 38.4184Z" fill="#302218"/>
</g>
<path d="M99.6214 38.1725C100.424 36.9549 101.537 35.9501 102.845 35.2147C104.145 34.4802 105.732 34.0783 107.299 34.29C108.872 34.4837 110.3 35.29 111.367 36.333C112.457 37.3671 113.258 38.6228 113.804 39.9626C113.82 40.0012 113.801 40.0457 113.763 40.0614C113.733 40.0736 113.699 40.0648 113.678 40.0433C112.688 39.0023 111.714 38.0004 110.629 37.2043C109.549 36.4107 108.372 35.8181 107.114 35.6489C105.861 35.4611 104.556 35.69 103.308 36.1843C102.061 36.6831 100.863 37.4111 99.7343 38.2698L99.7299 38.2732C99.6967 38.2981 99.6497 38.2918 99.6243 38.259C99.6048 38.2336 99.6047 38.1984 99.6214 38.1725Z" fill="#302218"/>
<path d="M94.6248 34.7551C93.0239 39.9666 90.6211 41.3127 90.6211 41.3127C90.6211 41.3127 89.228 42.1875 89.5869 43.539C89.9458 44.89 90.8196 44.3624 91.8147 45.2744" stroke="#302218" stroke-width="0.293855" stroke-miterlimit="10" stroke-linecap="round" stroke-linejoin="round"/>
<path d="M94.7313 44.8C94.7313 44.8 94.9357 44.7521 95.2736 44.8528C95.6115 44.9531 95.8144 45.3296 95.8144 45.3296" stroke="#302218" stroke-width="0.293855" stroke-miterlimit="10" stroke-linecap="round" stroke-linejoin="round"/>
<path d="M97.5366 42.4705C97.5366 42.4705 99.2011 43.8763 97.4491 45.8322" stroke="#302218" stroke-width="0.293855" stroke-miterlimit="10" stroke-linecap="round" stroke-linejoin="round"/>
<path d="M114.481 23.5708C114.481 23.5708 114.365 31.7767 118.996 32.0682C123.626 32.3601 123.023 26.8821 123.023 26.8821C123.023 26.8821 126.72 33.4745 130.348 32.3542C133.975 31.2335 131.532 26.4469 131.532 26.4469C131.532 26.4469 136.713 31.5797 139.201 27.6058C141.088 24.5913 136.384 20.8721 136.384 20.8721C136.384 20.8721 141.525 20.5328 140.88 16.0773C140.235 11.6217 136.532 10.7166 133.616 13.2867C133.616 13.2867 136.066 9.00621 132.64 6.70558C128.515 3.93555 125.766 8.46883 125.766 8.46883C125.766 8.46883 127.767 3.10429 123.084 1.28824C117.953 -0.701883 115.63 6.6337 115.63 6.6337C115.63 6.6337 115.755 0.0110428 108.913 0.266287C102.071 0.522021 104.016 7.15446 104.016 7.15446C104.016 7.15446 102.343 -0.449083 94.8785 3.03339C90.0587 5.28218 93.6512 10.6008 93.6512 10.6008C93.6512 10.6008 87.8558 6.86548 84.9812 12.23C82.8678 16.1731 88.2182 18.2757 88.2182 18.2757C88.2182 18.2757 83.1421 20.4291 84.8066 24.3028C85.9704 27.0117 92.6458 26.3966 97.6368 20.2458C97.6368 20.2458 92.9211 26.0758 98.8861 28.0058C103.45 29.4825 106.519 21.2799 106.519 21.2799C106.519 21.2799 104.343 27.5823 109.949 28.5867C114.611 29.4209 114.481 23.5708 114.481 23.5708Z" fill="#302218"/>
<path d="M133.486 35.2157C133.486 35.2157 131.907 36.4978 131.388 37.3608" stroke="#302218" stroke-width="0.293855" stroke-miterlimit="10" stroke-linecap="round" stroke-linejoin="round"/>
<path d="M83.3701 75.578C83.3701 75.578 96.1856 74.7536 105.099 72.2672C114.013 69.7808 149.171 73.96 162.367 74.9531C162.367 74.9531 161.335 112.251 149.638 133.212C137.941 154.173 158.22 173.667 115.732 173.667C73.2444 173.667 92.6826 154.843 83.6782 135.956C72.1071 111.686 71.5364 88.3486 83.3701 75.578Z" fill="#994F31"/>
<path d="M158.546 102.293C158.546 102.293 157.428 114.197 154.822 121.08" stroke="#302218" stroke-width="0.293855" stroke-miterlimit="10" stroke-linecap="round" stroke-linejoin="round"/>
<path d="M74.3015 102.293C74.3015 102.293 75.4198 114.197 78.0255 121.08" stroke="#302218" stroke-width="0.293855" stroke-miterlimit="10" stroke-linecap="round" stroke-linejoin="round"/>
<path d="M98.4769 77.0009C98.4769 77.0009 108.652 75.7101 111.006 77.0009C113.36 78.2918 113.168 79.8106 116.757 79.8106C120.345 79.8106 119.394 77.84 121.712 77.0772C123.687 76.4274 127.92 75.9384 136.662 76.8494" stroke="#302218" stroke-width="0.293855" stroke-miterlimit="10" stroke-linecap="round" stroke-linejoin="round"/>
<path d="M115.937 92.3029C115.937 92.3029 116.39 107.459 114.136 113.636C111.881 119.813 88.6039 121.223 83.4897 118.225" stroke="#302218" stroke-width="0.293855" stroke-miterlimit="10" stroke-linecap="round" stroke-linejoin="round"/>
<path d="M117.576 92.3029C117.576 92.3029 117.123 107.459 119.377 113.636C121.632 119.813 144.909 121.223 150.023 118.225" stroke="#302218" stroke-width="0.293855" stroke-miterlimit="10" stroke-linecap="round" stroke-linejoin="round"/>
<path d="M159.711 195.776C159.711 195.776 155.813 169.379 152.216 127.963C152.216 127.963 144.073 119.519 143.935 108.212C143.798 96.9056 143.473 87.4782 143.935 73.2902C143.935 73.2902 139.942 72.0531 135.628 72.5767C135.628 72.5767 133.447 94.1537 132.76 104.762C131.783 119.831 100.289 120.048 100.289 107.134C100.289 94.2207 101.052 78.9515 101.145 73.2202C101.145 73.2202 95.6291 73.5684 93.082 74.5766C93.082 74.5766 90.6924 98.5417 90.0924 108.675C89.4924 118.808 80.5408 129.623 80.5408 129.623C80.5408 129.623 77.7023 173.282 73.8022 195.776C73.8022 195.776 132.195 210.445 159.711 195.776Z" fill="#93DA46"/>
<path d="M60.4074 68.6962C58.7649 76.5501 52.6836 83.3571 43.2121 79.9431C33.0385 79.437 30.3228 70.6018 31.9652 62.7479C33.6077 54.894 38.6647 48.9265 49.1605 51.501C60.5355 53.0285 62.0499 60.8423 60.4074 68.6962Z" fill="#FF4D4D"/>
<path d="M46.8932 54.0959C46.9034 53.3278 48.0369 52.5547 48.0369 52.5547C49.5111 53.2099 50.3047 54.604 50.3047 54.604C51.7247 54.447 53.6904 54.9247 53.6904 54.9247C52.7623 56.1262 50.8509 56.5628 50.8509 56.5628C50.9057 57.6552 50.8509 59.2385 50.8509 59.2385C48.3933 58.5832 47.7782 56.908 47.7782 56.908C46.124 58.3148 43.421 57.9148 43.421 57.9148C43.421 57.9148 43.8987 56.3711 45.2952 55.8567C45.2952 55.8567 43.6234 54.6891 43.2924 53.9908C43.2924 53.9908 46.0008 53.5405 46.8932 54.0959Z" fill="#7B733D"/>
<path d="M32.4913 60.6868C32.4913 60.6868 29.001 69.0267 34.6687 76.2591C34.6687 76.2591 37.5063 79.4414 43.2121 79.9426" stroke="#302218" stroke-width="0.293855" stroke-miterlimit="10" stroke-linecap="round" stroke-linejoin="round"/>
<path d="M50.3251 51.6859C50.3251 51.6859 54.0354 52.187 55.9238 53.7131C55.9238 53.7131 61.1065 55.9155 60.9471 64.4906" stroke="#302218" stroke-width="0.293855" stroke-miterlimit="10" stroke-linecap="round" stroke-linejoin="round"/>
<path d="M63.5896 77.9167C67.7848 77.7929 71.0854 74.2916 70.9615 70.0964C70.8377 65.9012 67.3365 62.6007 63.1413 62.7245C58.9461 62.8483 55.6455 66.3496 55.7693 70.5448C55.8931 74.74 59.3944 78.0405 63.5896 77.9167Z" fill="#CBC47A"/>
<path d="M64.7757 77.7823C60.6517 78.5608 56.6773 75.8489 55.8984 71.7249C55.1199 67.6009 57.8318 63.6265 61.9558 62.8476" stroke="#302218" stroke-width="0.293855" stroke-miterlimit="10" stroke-linecap="round" stroke-linejoin="round"/>
<path d="M59.4782 72.0569C59.8009 71.9958 60.1119 72.208 60.173 72.5308C60.2342 72.8535 60.0219 73.1645 59.6992 73.2256C59.3765 73.2867 59.0655 73.0745 59.0044 72.7518C58.9433 72.4291 59.1555 72.1181 59.4782 72.0569Z" stroke="#302218" stroke-width="0.293855" stroke-miterlimit="10" stroke-linecap="round" stroke-linejoin="round"/>
<path d="M60.8941 67.4244C61.2168 67.3632 61.5278 67.5755 61.5884 67.8982C61.6496 68.2209 61.4373 68.5319 61.1146 68.593C60.7919 68.6541 60.4809 68.4419 60.4203 68.1192C60.3592 67.7965 60.5714 67.4855 60.8941 67.4244Z" stroke="#302218" stroke-width="0.293855" stroke-miterlimit="10" stroke-linecap="round" stroke-linejoin="round"/>
<path d="M58.2395 68.7036C58.5623 68.6425 58.8732 68.8547 58.9344 69.1774C58.9955 69.5001 58.7833 69.8111 58.4605 69.8723C58.1378 69.9334 57.8268 69.7212 57.7657 69.3984C57.7051 69.0757 57.9173 68.7647 58.2395 68.7036Z" stroke="#302218" stroke-width="0.293855" stroke-miterlimit="10" stroke-linecap="round" stroke-linejoin="round"/>
<path d="M189.6 57.9793C189.6 57.9793 189.974 52.6715 186.79 50.7817C186.704 50.7308 186.602 50.7132 186.504 50.7298C186.086 50.8007 184.962 51.0917 184.592 52.1904C184.529 52.3762 184.602 52.5806 184.767 52.6867C185.643 53.2515 188.429 55.2895 188.265 58.2747C188.265 58.2747 189.611 59.282 189.6 57.9793Z" fill="#541126"/>
<path d="M184.586 57.6884C184.586 57.6884 176.466 56.4909 175.648 64.8949C174.861 72.9703 178.674 85.2132 188.605 79.8135C189.406 79.3778 190.319 79.327 191.164 79.6702C201.635 83.9272 204.057 71.3347 202.374 63.3977C200.622 55.1379 192.687 57.2346 192.687 57.2346C192.687 57.2346 188.324 58.527 184.586 57.6884Z" fill="#FF4D4D"/>
<path d="M189.499 57.8449C188.121 58.0024 186.468 58.0547 184.899 57.7535C184.619 57.6997 184.337 57.6567 184.053 57.642C182.233 57.5486 176.339 57.8004 175.648 64.8949" stroke="#302218" stroke-width="0.293855" stroke-miterlimit="10" stroke-linecap="round" stroke-linejoin="round"/>
<path d="M198.539 57.818C195.786 56.4156 192.686 57.2346 192.686 57.2346" stroke="#302218" stroke-width="0.293855" stroke-miterlimit="10" stroke-linecap="round" stroke-linejoin="round"/>
<path d="M201.61 75.4582C203.048 71.9019 203.165 67.1344 202.373 63.3982" stroke="#302218" stroke-width="0.293855" stroke-miterlimit="10" stroke-linecap="round" stroke-linejoin="round"/>
<path d="M188.605 79.8136C189.406 79.3779 190.319 79.3271 191.164 79.6703C194.627 81.0786 197.211 80.6429 199.056 79.1422" stroke="#302218" stroke-width="0.293855" stroke-miterlimit="10" stroke-linecap="round" stroke-linejoin="round"/>
<path d="M145.786 52.7934C145.786 52.7934 143.913 63.321 159.033 74.1082C171.74 83.1748 186.144 72.8545 189.303 64.1424C192.463 55.4304 184.461 57.2728 182.879 58.9393C181.296 60.6057 171.236 66.269 165.267 61.7308C159.298 57.1927 155.862 47.5335 149.758 48.3672C149.758 48.3672 149.297 48.2596 148.215 44.5395C148.15 44.3185 147.964 44.1488 147.743 44.1175C147.15 44.0329 145.882 44.0236 144.147 44.9497C143.881 45.092 143.796 45.4407 143.963 45.7169C144.458 46.5408 145.573 48.2816 147.17 50.1133C147.17 50.1133 146.01 51.3206 145.786 52.7934Z" fill="#FFC34A"/>
<path d="M185.691 64.3708C186.537 63.321 187.359 62.1611 188.152 60.8854" stroke="#302218" stroke-width="0.293855" stroke-miterlimit="10" stroke-linecap="round" stroke-linejoin="round"/>
<path d="M159.015 69.0909C166.432 74.0388 176.083 74.5332 184.029 66.2632" stroke="#302218" stroke-width="0.293855" stroke-miterlimit="10" stroke-linecap="round" stroke-linejoin="round"/>
<path d="M145.785 52.7933C145.785 52.7933 146.15 50.2727 148.459 49.2189" stroke="#302218" stroke-width="0.293855" stroke-miterlimit="10" stroke-linecap="round" stroke-linejoin="round"/>
<path d="M161.093 57.4998C161.093 57.4998 164.385 61.7753 167.131 62.7846C169.241 63.5606 171.624 63.6941 174.511 62.9929" stroke="#302218" stroke-width="0.293855" stroke-miterlimit="10" stroke-linecap="round" stroke-linejoin="round"/>
<path d="M148.791 63.2041C148.791 63.2041 156.551 77.5472 170.46 77.6068" stroke="#302218" stroke-width="0.293855" stroke-miterlimit="10" stroke-linecap="round" stroke-linejoin="round"/>
<path d="M145.994 44.2314C145.994 44.2314 147.153 43.961 147.743 44.117C148.333 44.2734 148.175 44.7067 148.392 45.1335" stroke="#302218" stroke-width="0.293855" stroke-miterlimit="10" stroke-linecap="round" stroke-linejoin="round"/>
<path d="M190.031 60.4981C190.031 60.4981 190.322 65.5057 184.761 70.9196" stroke="#302218" stroke-width="0.293855" stroke-miterlimit="10" stroke-linecap="round" stroke-linejoin="round"/>
<path d="M177.916 61.8648C177.916 61.8648 181.024 60.5597 182.878 58.9388C182.878 58.9388 183.981 57.8762 185.727 57.6484" stroke="#302218" stroke-width="0.293855" stroke-miterlimit="10" stroke-linecap="round" stroke-linejoin="round"/>
<path d="M147.918 51.6472C147.918 51.6472 147.179 58.6977 156.047 66.7662" stroke="#302218" stroke-width="0.293855" stroke-miterlimit="10" stroke-linecap="round" stroke-linejoin="round"/>
</svg>
