<svg width="20" height="20" viewBox="0 0 20 20" fill="none" xmlns="http://www.w3.org/2000/svg">
<path d="M18 9.992C18 5.58 14.416 2 10 2C5.584 2 2 5.58 2 9.992C2 12.422 3.104 14.612 4.832 16.082C4.848 16.098 4.864 16.098 4.864 16.114C5.008 16.226 5.152 16.338 5.312 16.45C5.392 16.498 5.456 16.561 5.536 16.625C6.85807 17.5214 8.41871 18.0004 10.016 18C11.6133 18.0004 13.1739 17.5214 14.496 16.625C14.576 16.577 14.64 16.514 14.72 16.465C14.864 16.354 15.024 16.242 15.168 16.13C15.184 16.114 15.2 16.114 15.2 16.098C16.896 14.611 18 12.422 18 9.992ZM10 16.993C8.496 16.993 7.12 16.513 5.984 15.714C6 15.586 6.032 15.459 6.064 15.331C6.15934 14.9841 6.29917 14.651 6.48 14.34C6.656 14.036 6.864 13.764 7.12 13.524C7.36 13.284 7.648 13.061 7.936 12.885C8.24 12.709 8.56 12.581 8.912 12.485C9.26674 12.3894 9.6326 12.3413 10 12.342C11.0907 12.3343 12.1412 12.7526 12.928 13.508C13.296 13.876 13.584 14.308 13.792 14.803C13.904 15.091 13.984 15.395 14.032 15.714C12.8512 16.5442 11.4434 16.9907 10 16.993ZM7.552 9.593C7.41102 9.27022 7.34013 8.9212 7.344 8.569C7.344 8.218 7.408 7.866 7.552 7.546C7.696 7.226 7.888 6.939 8.128 6.699C8.368 6.459 8.656 6.268 8.976 6.124C9.296 5.98 9.648 5.916 10 5.916C10.368 5.916 10.704 5.98 11.024 6.124C11.344 6.268 11.632 6.46 11.872 6.699C12.112 6.939 12.304 7.227 12.448 7.546C12.592 7.866 12.656 8.218 12.656 8.569C12.656 8.937 12.592 9.273 12.448 9.592C12.309 9.90727 12.1138 10.1946 11.872 10.44C11.6265 10.6815 11.3392 10.8763 11.024 11.015C10.3628 11.2867 9.62117 11.2867 8.96 11.015C8.64481 10.8763 8.35747 10.6815 8.112 10.44C7.86981 10.1982 7.67929 9.91068 7.552 9.593ZM14.976 14.899C14.976 14.867 14.96 14.851 14.96 14.819C14.8026 14.3184 14.5707 13.8444 14.272 13.413C13.973 12.9784 13.6056 12.5951 13.184 12.278C12.862 12.0358 12.513 11.8317 12.144 11.67C12.3119 11.5592 12.4674 11.4308 12.608 11.287C12.8465 11.0515 13.056 10.7883 13.232 10.503C13.5864 9.92081 13.7694 9.25049 13.76 8.569C13.7649 8.06451 13.667 7.56432 13.472 7.099C13.2795 6.65064 13.0025 6.24356 12.656 5.9C12.31 5.56003 11.9029 5.28859 11.456 5.1C10.9899 4.90539 10.4891 4.80774 9.984 4.813C9.47887 4.80806 8.97802 4.90605 8.512 5.101C8.06125 5.28919 7.65311 5.56638 7.312 5.916C6.97204 6.26159 6.70059 6.66842 6.512 7.115C6.31705 7.58032 6.21905 8.08051 6.224 8.585C6.224 8.937 6.272 9.273 6.368 9.592C6.464 9.928 6.592 10.232 6.768 10.519C6.928 10.807 7.152 11.063 7.392 11.303C7.536 11.447 7.696 11.574 7.872 11.686C7.50184 11.8521 7.15272 12.0615 6.832 12.31C6.416 12.63 6.048 13.013 5.744 13.429C5.44226 13.8586 5.21008 14.3331 5.056 14.835C5.04 14.867 5.04 14.899 5.04 14.915C3.776 13.636 2.992 11.91 2.992 9.992C2.992 6.14 6.144 2.991 10 2.991C13.856 2.991 17.008 6.14 17.008 9.992C17.0059 11.832 16.2753 13.5962 14.976 14.899Z" fill="#548D16"/>
</svg>
