<svg width="22" height="20" viewBox="0 0 22 20" fill="none" xmlns="http://www.w3.org/2000/svg">
<path d="M6.28948 11.5789V16.3421H2.57896C2.15321 16.3421 1.74491 16.173 1.44386 15.8719C1.14282 15.5709 0.973694 15.1626 0.973694 14.7368V2.10526C0.973694 1.67952 1.14282 1.27122 1.44386 0.970171C1.74491 0.669125 2.15321 0.5 2.57896 0.5H13.1053C13.531 0.5 13.9393 0.669125 14.2404 0.970171C14.5414 1.27122 14.7105 1.67952 14.7105 2.10526V11.0789H6.78948H6.28948V11.5789ZM2.57896 2.65789H2.07896V3.15789V5.26316V5.76316H2.57896H4.68422H5.18422V5.26316V3.15789V2.65789H4.68422H2.57896ZM13.1053 5.76316H13.6053V5.26316V3.15789V2.65789H13.1053H6.78948H6.28948V3.15789V5.26316V5.76316H6.78948H13.1053ZM2.57896 6.86842H2.07896V7.36842V9.47368V9.97368H2.57896H4.68422H5.18422V9.47368V7.36842V6.86842H4.68422H2.57896ZM6.78948 6.86842H6.28948V7.36842V9.47368V9.97368H6.78948H13.1053H13.6053V9.47368V7.36842V6.86842H13.1053H6.78948ZM2.57896 11.0789H2.07896V11.5789V13.6842V14.1842H2.57896H4.68422H5.18422V13.6842V11.5789V11.0789H4.68422H2.57896ZM21.0263 15.7895C21.0263 16.7736 20.6354 17.7174 19.9395 18.4132C19.2437 19.1091 18.2999 19.5 17.3158 19.5H13.1053C12.1212 19.5 11.1774 19.1091 10.4815 18.4132C9.78568 17.7174 9.39475 16.7736 9.39475 15.7895V14.1842H21.0263V15.7895Z" stroke="#8A8992"/>
</svg>
