<svg width="20" height="20" viewBox="0 0 20 20" fill="none" xmlns="http://www.w3.org/2000/svg">
<path d="M9.58329 13.5253H10.4166V8.81445H9.58329V13.5261V13.5253ZM9.99996 7.50029C10.1455 7.50029 10.2672 7.45112 10.365 7.35279C10.4633 7.25445 10.5125 7.13279 10.5125 6.98779C10.5125 6.84223 10.4633 6.72029 10.365 6.62195C10.2672 6.52362 10.1455 6.47445 9.99996 6.47445C9.8544 6.47445 9.73274 6.52362 9.63496 6.62195C9.53663 6.72029 9.48746 6.84223 9.48746 6.98779C9.48746 7.13279 9.53663 7.25445 9.63496 7.35279C9.73274 7.45112 9.8544 7.50029 9.99996 7.50029ZM9.99996 17.4686C8.32607 16.9714 6.93524 15.9572 5.82746 14.4261C4.72024 12.8945 4.16663 11.1692 4.16663 9.25029V4.74362L9.99996 2.56445L15.8333 4.74362V9.25029C15.8333 11.1692 15.2797 12.8942 14.1725 14.4253C13.0647 15.957 11.6738 16.9714 9.99996 17.4686ZM9.99996 16.5836C11.4444 16.1253 12.6388 15.2086 13.5833 13.8336C14.5277 12.4586 15 10.9308 15 9.25029V5.31279L9.99996 3.45445L4.99996 5.31279V9.25029C4.99996 10.9308 5.47218 12.4586 6.41663 13.8336C7.36107 15.2086 8.55552 16.1253 9.99996 16.5836Z" fill="#548D16"/>
</svg>
