<svg width="24" height="22" viewBox="0 0 24 22" fill="none" xmlns="http://www.w3.org/2000/svg">
<path d="M11.9998 10.9446H1.14651C1.14651 16.3513 7.95004 21 7.95004 21H11.9998" stroke="#8A8992" stroke-linecap="round" stroke-linejoin="round"/>
<path d="M4.30557 12.18C4.30557 16.1646 8.78063 19.1049 8.78063 19.1049M12.0002 10.9445H22.8535C22.8535 16.3511 16.05 20.9999 16.05 20.9999H12.0002M6.18876 10.9445C5.39911 7.98827 10.6791 5.95608 15.417 5.32835L15.8804 4.47534L17.7483 6.74572L16.7234 6.91234C16.2219 8.56086 13.7109 10.9445 13.7109 10.9445" stroke="#8A8992" stroke-linecap="round" stroke-linejoin="round"/>
<path d="M7.01886 10.9444C7.18782 9.42262 8.9525 7.70957 15.685 5.65332" stroke="#8A8992" stroke-linecap="round" stroke-linejoin="round"/>
<path d="M15.8593 5.86492C13.3132 7.14032 10.3447 8.6058 8.26437 10.9442M16.3562 6.46742C13.7104 10.0613 12.0002 10.9442 12.0002 10.9442M10.5365 10.9442C12.1322 10.0114 16.1039 6.1606 16.1039 6.1606M17.3254 6.24214L22.1073 2.36665C22.1858 2.3031 22.251 2.22469 22.2992 2.13591C22.3474 2.04712 22.3776 1.9497 22.3882 1.84923C22.3987 1.74875 22.3893 1.64718 22.3605 1.55034C22.3317 1.4535 22.2842 1.36328 22.2205 1.28485C22.1569 1.20638 22.0785 1.1412 21.9897 1.09305C21.9009 1.04489 21.8035 1.01469 21.703 1.00418C21.6026 0.993664 21.501 1.00304 21.4042 1.03177C21.3074 1.0605 21.2171 1.10802 21.1387 1.17162L16.3562 5.04652" stroke="#8A8992" stroke-linecap="round" stroke-linejoin="round"/>
</svg>
