<svg width="20" height="20" viewBox="0 0 20 20" fill="none" xmlns="http://www.w3.org/2000/svg">
<path d="M6.66195 5.1875H12.2797C12.3382 5.1875 12.3943 5.16589 12.4356 5.12743C12.477 5.08897 12.5003 5.03681 12.5003 4.98242C12.5003 4.92803 12.477 4.87587 12.4356 4.83741C12.3943 4.79895 12.3382 4.77734 12.2797 4.77734H6.66195C6.60345 4.77734 6.54734 4.79895 6.50597 4.83741C6.4646 4.87587 6.44136 4.92803 6.44136 4.98242C6.44136 5.03681 6.4646 5.08897 6.50597 5.12743C6.54734 5.16589 6.60345 5.1875 6.66195 5.1875ZM6.66195 7.64844H12.2797C12.3382 7.64844 12.3943 7.62683 12.4356 7.58837C12.477 7.54991 12.5003 7.49775 12.5003 7.44336C12.5003 7.38897 12.477 7.33681 12.4356 7.29835C12.3943 7.25989 12.3382 7.23828 12.2797 7.23828H6.66195C6.60345 7.23828 6.54734 7.25989 6.50597 7.29835C6.4646 7.33681 6.44136 7.38897 6.44136 7.44336C6.44136 7.49775 6.4646 7.54991 6.50597 7.58837C6.54734 7.62683 6.60345 7.64844 6.66195 7.64844ZM6.66195 6.41797H12.2797C12.3382 6.41797 12.3943 6.39636 12.4356 6.3579C12.477 6.31944 12.5003 6.26728 12.5003 6.21289C12.5003 6.1585 12.477 6.10634 12.4356 6.06788C12.3943 6.02942 12.3382 6.00781 12.2797 6.00781H6.66195C6.60345 6.00781 6.54734 6.02942 6.50597 6.06788C6.4646 6.10634 6.44136 6.1585 6.44136 6.21289C6.44136 6.26728 6.4646 6.31944 6.50597 6.3579C6.54734 6.39636 6.60345 6.41797 6.66195 6.41797ZM16.8065 5.64176L16.4945 5.35175C16.3704 5.23638 16.2021 5.17156 16.0266 5.17156C15.8511 5.17156 15.6828 5.23638 15.5586 5.35175L14.5297 6.30832V4.02539C14.5294 3.75353 14.4131 3.4929 14.2063 3.30067C13.9995 3.10843 13.7192 3.0003 13.4267 3H5.51488C5.22246 3.0003 4.94211 3.10843 4.73534 3.30067C4.52856 3.4929 4.41225 3.75353 4.41193 4.02539V14.6758H3.22059C3.16209 14.6758 3.10598 14.6974 3.06461 14.7358C3.02324 14.7743 3 14.8265 3 14.8809V15.9746C3.00033 16.2465 3.11664 16.5071 3.32341 16.6993C3.53018 16.8916 3.81053 16.9997 4.10295 17H13.456C13.464 17 13.472 16.9996 13.4799 16.9987C13.7628 16.9857 14.0295 16.8722 14.2248 16.6816C14.4202 16.491 14.5293 16.2379 14.5297 15.9746V8.62857L16.8065 6.51189C16.9304 6.39641 17 6.23995 17 6.07683C17 5.91371 16.9304 5.75724 16.8065 5.64176ZM4.10295 16.5898C3.9275 16.5897 3.7593 16.5248 3.63523 16.4094C3.51117 16.2941 3.44138 16.1377 3.44118 15.9746V15.0859H12.2354V15.9336C12.2352 16.1716 12.3211 16.4027 12.4793 16.5898H4.10295ZM14.0885 14.8782C14.0885 14.8791 14.0884 14.88 14.0884 14.8809V15.9336C14.0884 16.1076 14.014 16.2746 13.8816 16.3976C13.7492 16.5207 13.5697 16.5898 13.3825 16.5898C13.1953 16.5898 13.0157 16.5207 12.8833 16.3976C12.751 16.2746 12.6766 16.1076 12.6766 15.9336V14.8809C12.6766 14.8265 12.6533 14.7743 12.612 14.7358C12.5706 14.6974 12.5145 14.6758 12.456 14.6758C12.451 14.6758 12.4462 14.6762 12.4413 14.6765C12.4364 14.6762 12.4316 14.6758 12.4266 14.6758H4.85311V4.02539C4.85331 3.86228 4.9231 3.7059 5.04716 3.59056C5.17122 3.47522 5.33943 3.41034 5.51488 3.41016H13.4267C13.6022 3.41034 13.7704 3.47522 13.8945 3.59056C14.0185 3.7059 14.0883 3.86228 14.0885 4.02539V6.71848L9.99993 10.5195H6.66195C6.60345 10.5195 6.54734 10.5411 6.50597 10.5796C6.4646 10.6181 6.44136 10.6702 6.44136 10.7246C6.44136 10.779 6.4646 10.8312 6.50597 10.8696C6.54734 10.9081 6.60345 10.9297 6.66195 10.9297H9.55875L8.69545 11.7323C8.6897 11.7377 8.68428 11.7433 8.67921 11.7493L8.67862 11.75H6.66195C6.60345 11.75 6.54734 11.7716 6.50597 11.8101C6.4646 11.8485 6.44136 11.9007 6.44136 11.9551C6.44136 12.0095 6.4646 12.0616 6.50597 12.1001C6.54734 12.1385 6.60345 12.1602 6.66195 12.1602H8.51747L8.22335 12.9805H6.66195C6.60345 12.9805 6.54734 13.0021 6.50597 13.0405C6.4646 13.079 6.44136 13.1312 6.44136 13.1855C6.44136 13.2399 6.4646 13.2921 6.50597 13.3306C6.54734 13.369 6.60345 13.3906 6.66195 13.3906H8.30903C8.32497 13.3906 8.34085 13.389 8.35641 13.3858C8.38898 13.3898 8.42212 13.3868 8.45324 13.377L9.85708 12.9419C9.85855 12.9415 9.85987 12.9408 9.86128 12.9404C9.8744 12.936 9.88705 12.9305 9.89905 12.924C9.90111 12.9229 9.90322 12.9218 9.90525 12.9206C9.91025 12.9176 9.91514 12.9144 9.91996 12.911C9.92167 12.9098 9.92349 12.9087 9.92514 12.9075C9.93149 12.9028 9.93756 12.8977 9.94331 12.8924L10.731 12.1602H12.2797C12.3382 12.1602 12.3943 12.1385 12.4356 12.1001C12.477 12.0616 12.5003 12.0095 12.5003 11.9551C12.5003 11.9007 12.477 11.8485 12.4356 11.8101C12.3943 11.7716 12.3382 11.75 12.2797 11.75H11.1722L14.0885 9.03873V14.8782ZM8.94783 12.257L9.37893 12.6578L8.73227 12.8582L8.94783 12.257ZM9.78734 12.4573L9.16342 11.8773L14.4646 6.9489L14.4655 6.94808L15.042 6.41209L15.6659 6.99213L9.78734 12.4573ZM16.4945 6.22186L15.9779 6.70207L15.3541 6.12203L15.8706 5.64176C15.8911 5.62272 15.9154 5.60761 15.9422 5.5973C15.969 5.58699 15.9976 5.58168 16.0266 5.58168C16.0556 5.58168 16.0843 5.58699 16.111 5.5973C16.1378 5.60761 16.1621 5.62272 16.1826 5.64176L16.4945 5.9318C16.5358 5.97028 16.559 6.02243 16.559 6.0768C16.559 6.13117 16.5358 6.18332 16.4945 6.2218L16.4945 6.22186Z" fill="#548D16"/>
</svg>
