<svg width="21" height="20" viewBox="0 0 21 20" fill="none" xmlns="http://www.w3.org/2000/svg">
<path d="M10.5 0C16.023 0 20.5 4.477 20.5 10C20.5 15.523 16.023 20 10.5 20C4.977 20 0.5 15.523 0.5 10C0.5 4.477 4.977 0 10.5 0ZM10.66 14C9.69259 13.9989 8.7355 14.1989 7.84947 14.5872C6.96343 14.9756 6.16778 15.5439 5.513 16.256C6.92855 17.3877 8.68768 18.0029 10.5 18C12.3923 18.0027 14.2239 17.3321 15.667 16.108C15.0157 15.4397 14.2371 14.9089 13.377 14.5468C12.517 14.1847 11.5931 13.9988 10.66 14ZM10.5 2C9.01209 2.00004 7.55367 2.41502 6.28863 3.19833C5.0236 3.98163 4.00208 5.10221 3.33887 6.43414C2.67566 7.76607 2.39704 9.25656 2.53432 10.7381C2.6716 12.2197 3.21935 13.6336 4.116 14.821C4.95637 13.9289 5.97054 13.2183 7.09602 12.7332C8.22149 12.248 9.43441 11.9985 10.66 12C11.8417 11.9985 13.012 12.2304 14.1037 12.6824C15.1955 13.1344 16.1873 13.7976 17.022 14.634C17.8725 13.4371 18.3772 12.0292 18.4809 10.5646C18.5845 9.09994 18.283 7.63503 17.6095 6.33031C16.936 5.0256 15.9163 3.93141 14.6623 3.16761C13.4083 2.40381 11.9683 1.99985 10.5 2ZM10.5 3C11.5609 3 12.5783 3.42143 13.3284 4.17157C14.0786 4.92172 14.5 5.93913 14.5 7C14.5 8.06087 14.0786 9.07828 13.3284 9.82843C12.5783 10.5786 11.5609 11 10.5 11C9.43913 11 8.42172 10.5786 7.67157 9.82843C6.92143 9.07828 6.5 8.06087 6.5 7C6.5 5.93913 6.92143 4.92172 7.67157 4.17157C8.42172 3.42143 9.43913 3 10.5 3ZM10.5 5C9.96957 5 9.46086 5.21071 9.08579 5.58579C8.71071 5.96086 8.5 6.46957 8.5 7C8.5 7.53043 8.71071 8.03914 9.08579 8.41421C9.46086 8.78929 9.96957 9 10.5 9C11.0304 9 11.5391 8.78929 11.9142 8.41421C12.2893 8.03914 12.5 7.53043 12.5 7C12.5 6.46957 12.2893 5.96086 11.9142 5.58579C11.5391 5.21071 11.0304 5 10.5 5Z" fill="#8A8992"/>
</svg>
